<svg xmlns="http://www.w3.org/2000/svg" viewBox="0 0 134.1 101.8">
	<defs>
		<style>
			.cls-1{fill:#e6decc;}.cls-1,.cls-2,.cls-3,.cls-4,.cls-5,.cls-6,.cls-7,.cls-8{stroke:#262626;stroke-linejoin:round;}.cls-1,.cls-2,.cls-3{stroke-width:4px;}.cls-2{fill:#4a46c8;}.cls-2,.cls-3,.cls-4,.cls-7,.cls-8{stroke-linecap:square;}.cls-3{fill:#ffbd56;}.cls-4,.cls-6{fill:#387887;}.cls-4,.cls-5,.cls-6,.cls-7,.cls-8{stroke-width:2px;}.cls-5{fill:none;}.cls-5,.cls-6{stroke-linecap:round;}.cls-7{fill:#a5c1c6;}.cls-8{fill:#912ed8;}
		</style>
	</defs>
	<g id="rabbit">
		<polygon id="hA" class="cls-1" points="112.85 22 78.2 2 43.56 22 78.2 42 112.85 22" />
		<polygon id="hC_Hs4" data-name="hC Hs4" class="cls-2" points="112.85 22 78.2 42 78.2 82 112.85 62 112.85 22" />
		<polygon id="hB_Hs4" data-name="hB Hs4" class="cls-3" points="43.56 22 43.56 62 78.2 82 78.2 42 43.56 22" />
	</g>
	<g id="Layer_42" data-name="Layer 42">
		<path class="cls-4" d="M-33.15,147.44c4.6,9.58,19.34,21.49,24,16.55,4.87-5.12,8.47-13.62-6.14-27.36C-24.61,127.83-45.84,121-33.15,147.44Z" transform="translate(38.09 -65.8)" />
		<path id="s2" class="cls-5" d="M-15.73,139.58c12-8.79,14.35-14.82,38.53-22" transform="translate(38.09 -65.8)" />
		<line id="s2-2" data-name="s2" class="cls-5" x1="35.48" y1="87.74" x2="37.1" y2="62.87" />
		<path class="cls-4" d="M-25.6,134.54c6.06,9.23,11.37,10.38,12.74,6.91s1.58-9.56-2.76-18-10.82-19.89-15.17-5.29C-32.39,123.52-27.46,131.7-25.6,134.54Z" transform="translate(38.09 -65.8)" />
		<path class="cls-4" d="M-13,157.55c1.69,3.92,13.06,13,17.7,7.11,1.66-2.1-5.85-16.78-10.21-16.89S-15.36,152.18-13,157.55Z" transform="translate(38.09 -65.8)" />
		<line id="s2-3" data-name="s2" class="cls-6" x1="19.36" y1="62.91" x2="32.47" y2="65.63" />
		<ellipse id="s2-4" data-name="s2" class="cls-4" cx="22.58" cy="117.8" rx="0.97" ry="4.45" transform="translate(-17.79 -38.73) rotate(-30)" />
		<rect class="cls-4" x="46.08" y="111.38" width="44.42" height="22.91" transform="translate(246.89 59.32) rotate(120)" />
		<polygon class="cls-7" points="133.1 59.65 127.4 43.53 107.56 32.08 96.51 51.21 116.35 62.66 116.29 62.77 133.1 59.65" />
		<polygon class="cls-8" points="133.1 59.65 123.1 76.97 105.19 82 116.35 62.66 133.1 59.65" />
		<rect class="cls-8" x="65.58" y="104.63" width="6.61" height="11.45" transform="translate(236.97 40.08) rotate(120)" />
	</g>
</svg>
