<svg id="Layer_1" data-name="Layer 1" xmlns="http://www.w3.org/2000/svg" viewBox="0 0 1144.22 955.92">
	<defs>
		<style>
			.cls-1{fill:#818196;}.cls-2{fill:#a6a1ac;}.cls-3{fill:#bdb4bc;}
		</style>
	</defs>
	<path class="cls-1" d="M516.06,145.28a29.06,29.06,0,0,0-17.2-1.72,36,36,0,0,0-40.48-38.34A65.3,65.3,0,0,0,334.13,92.15c-.57,1.36-1.08,2.73-1.56,4.11a40.93,40.93,0,0,0-76.84,16.49,36.83,36.83,0,0,0-45.4,44,37.41,37.41,0,1,0,24.82,69.13,57.87,57.87,0,0,0,73.27-1.11,40.94,40.94,0,0,0,78.43,11.71c.32-.76.61-1.52.88-2.29a61.49,61.49,0,0,0,103.61-36.12c.64.33,1.3.65,2,.93a29.17,29.17,0,1,0,22.74-53.72Z" transform="translate(57.81 89.63)" />
	<path class="cls-2" d="M596,746.19a31.74,31.74,0,0,0-18.74-2.6A39.38,39.38,0,0,0,534.59,700a71.48,71.48,0,0,0-135.35-19.53c-.69,1.46-1.3,2.94-1.88,4.43a44.81,44.81,0,0,0-84.75,14.8,40.34,40.34,0,0,0-52.25,38.5,40.91,40.91,0,0,0,.74,7.72,40.94,40.94,0,1,0,24.24,76.65,63.33,63.33,0,0,0,80.19,1.87,44.82,44.82,0,0,0,85.29,16.12c.39-.82.73-1.65,1.07-2.48a67.28,67.28,0,0,0,109.45-18,67.53,67.53,0,0,0,5.39-17.13c.69.39,1.4.76,2.13,1.1A31.93,31.93,0,1,0,596,746.19Z" transform="translate(57.81 89.63)" />
	<path class="cls-3" d="M8.41,49.08A40,40,0,0,0,34.94,37.31,33.18,33.18,0,0,0,87.36,53.68,65.64,65.64,0,0,0,210.41,36.1a38.16,38.16,0,0,0,10.41.94A38.12,38.12,0,0,0,257.09-2.84a38.11,38.11,0,0,0-39.88-36.27A38,38,0,0,0,206.54-37a28.9,28.9,0,0,0,.65-7.59,28.94,28.94,0,0,0-30.28-27.54,28.73,28.73,0,0,0-14.17,4.49,38.13,38.13,0,0,0-36.32-21.89,38.13,38.13,0,0,0-35.3,29.33A40.46,40.46,0,0,0,62.05-70.64,40.6,40.6,0,0,0,23.42-28.17c0,.28,0,.56.07.85A40,40,0,0,0,4.62-31,40.1,40.1,0,1,0,8.41,49.08Z" transform="translate(57.81 89.63)" />
	<path class="cls-3" d="M277.11,314.7a42.16,42.16,0,0,1,25-1.46,52.22,52.22,0,0,1,60.95-53.17,94.72,94.72,0,0,1,180.85-11.56c.76,2,1.41,4,2,6.05A59.38,59.38,0,0,1,656.35,283a53.41,53.41,0,0,1,63.19,66.47,54.26,54.26,0,1,1-40.08,98.71,83.92,83.92,0,0,1-106.13-6A59.4,59.4,0,0,1,459,454.57c-.42-1.12-.79-2.25-1.14-3.38a89.19,89.19,0,0,1-148-58.51c-.95.44-1.92.86-2.93,1.24a42.31,42.31,0,0,1-29.76-79.22Z" transform="translate(57.81 89.63)" />
	<path class="cls-2" d="M825.06,467a29.63,29.63,0,0,0-30.38-50.45,32.23,32.23,0,0,0-63.94-7A41.57,41.57,0,0,0,665.86,441,26.11,26.11,0,1,0,656,487.41a38,38,0,0,0,64.88,33.4,36.54,36.54,0,0,0,66.22-10.32A28.93,28.93,0,0,0,825.06,467Z" transform="translate(57.81 89.63)" />
	<path class="cls-1" d="M300.67,681a56.58,56.58,0,0,0-39.26,12.13,47,47,0,0,0-71-31.75,92.95,92.95,0,0,0-176,4.2A54.41,54.41,0,0,0,0,662.47a54,54,0,0,0-57.65,50,54,54,0,0,0,50,57.65A53.54,53.54,0,0,0,7.7,769a41,41,0,0,0,56.49,50.38,54,54,0,0,0,101.94,1.49,57.47,57.47,0,0,0,100.55-33.82c0-.41,0-.81.05-1.21A56.8,56.8,0,1,0,300.67,681Z" transform="translate(57.81 89.63)" />
	<path class="cls-2" d="M226.5,269.11a29.64,29.64,0,0,0-26.3-52.68,32.22,32.22,0,0,0-63.16-12A41.56,41.56,0,0,0,69.9,230.55a26.11,26.11,0,1,0-13.46,45.5,38,38,0,0,0,62,38.42,36.54,36.54,0,0,0,66.82-5.06,28.93,28.93,0,0,0,41.23-40.3Z" transform="translate(57.81 89.63)" />
	<path class="cls-3" d="M877.7,229.18a22.5,22.5,0,0,0-40.38-19.1,21.4,21.4,0,0,0-25-2.73,28.44,28.44,0,1,0-53.94-17.84A30.44,30.44,0,0,0,719.74,234a34.55,34.55,0,1,0,43.34,53.72,42.22,42.22,0,0,0,11.26,1.69,41.8,41.8,0,0,0,15.74-2.87A30.53,30.53,0,0,0,843,274.31a28.54,28.54,0,1,0,34.7-45.13Z" transform="translate(57.81 89.63)" />
	<path class="cls-2" d="M1058.31,260.34a30.24,30.24,0,0,0-12.67,1.8,51.63,51.63,0,0,0-46.23-38.42,32.3,32.3,0,0,0-53.94-26.22,50.85,50.85,0,0,0-88.78,18.81,45.08,45.08,0,0,0-55.3,24.83,41.69,41.69,0,1,0-32.32,71.21h.17a49,49,0,0,0,94.38,17.92A65,65,0,0,0,984,325.47a51.54,51.54,0,0,0,49.43-15,30.27,30.27,0,1,0,24.93-50.15Z" transform="translate(57.81 89.63)" />
	<path class="cls-2" d="M613.13,104.51a21.48,21.48,0,0,0-9,1,36.59,36.59,0,0,0-32-28.1,22.89,22.89,0,0,0-37.72-19.61A36,36,0,0,0,471.1,69.48,31.91,31.91,0,0,0,431.44,86a29.55,29.55,0,1,0-24.25,49.84h.12a34.71,34.71,0,0,0,66.53,14.49,46.09,46.09,0,0,0,85.36-1.11,37.81,37.81,0,0,0,5.69,1,36.54,36.54,0,0,0,29.62-10.7,21.46,21.46,0,1,0,18.62-35.06Z" transform="translate(57.81 89.63)" />
</svg>
