<svg id="cloud_04_keep" data-name="cloud 04 keep" xmlns="http://www.w3.org/2000/svg" viewBox="0 0 1969.54 1446.25">
	<defs>
		<style>
			.cls-1{fill:#f5d5c5;}.cls-2{fill:#e2bfaf;}.cls-3{fill:none;stroke:#ffc269;stroke-miterlimit:10;stroke-width:4px;}
		</style>
	</defs>
	<path id="cl10_p3" data-name="cl10 p3" class="cl10" d="M307.57,848.57a106.08,106.08,0,0,0-96.46-105.63,115.44,115.44,0,0,0-22.26-153.63A148.15,148.15,0,1,0,14.13,383.66c-3.27-.25-6.58-.38-9.91-.38A126.35,126.35,0,0,0-122.13,509.63c0,.57,0,1.13,0,1.69a93.52,93.52,0,0,0-17.67-1.69,92.51,92.51,0,0,0-86.07,58.59,125.15,125.15,0,0,0-53-11.7A125.65,125.65,0,0,0-404.49,682.17,125.65,125.65,0,0,0-278.84,807.81c1.44,0,2.87,0,4.29-.08A91.41,91.41,0,0,0-293,862.87a91.79,91.79,0,0,0,69.18,89c17.69,44.07,59.07,75,107.31,75,32.73,0,62.3-14.24,83.45-37.16a127,127,0,0,0,235.84-35A106.06,106.06,0,0,0,307.57,848.57Z" transform="translate(540.15 165.9)" />
	<path id="cl09_p3" data-name="cl09 p3" class="cl09" d="M1236,846.34c0-117.59-86.6-214.94-199.5-231.77a99,99,0,0,0-16.41-31.45,159,159,0,0,0-41.39-309.39A118.6,118.6,0,0,0,770.9,165.59,148.27,148.27,0,0,0,475.51,184q0,6.32.53,12.51A169.45,169.45,0,0,0,425.8,506.39a90.12,90.12,0,0,0,.14,149.94,152.11,152.11,0,0,0-180.49,149.4,151.3,151.3,0,0,0,27,86.52,100.38,100.38,0,1,0,20.11,199.51,89.54,89.54,0,0,0,88.54,102.41h4.7A147,147,0,0,0,643,1213.25a184.88,184.88,0,0,0,282.17-19.08H934v-.39a80.76,80.76,0,0,0,66-113.11l1.56,0C1131.06,1080.69,1236,975.76,1236,846.34Z" transform="translate(540.15 165.9)" />
	<path id="cl09_p2" data-name="cl09 p2" class="cl09" d="M1236.29,629.93A155.62,155.62,0,0,0,1233,399.21a194.43,194.43,0,0,0,10.73-63.89c0-107.68-87.3-195-195-195A194.09,194.09,0,0,0,953.92,165a172,172,0,0,0-316.13,93.73c0,3.62.13,7.22.35,10.78a178.22,178.22,0,0,0-72.32,319.95A135.65,135.65,0,0,0,443.41,747.69a108.61,108.61,0,0,0-61.88-19.23q-4.78,0-9.47.41A112.75,112.75,0,0,0,370.7,954a121.76,121.76,0,0,0,205.55,78.72A195.38,195.38,0,0,0,911.35,1017a184.12,184.12,0,0,0,260.48-62.35h10.23a166.89,166.89,0,0,0,54.23-324.71Z" transform="translate(540.15 165.9)" />
	<path id="cl08_p2" data-name="cl08 p2" class="cl08" d="M342.5,230.79A159,159,0,0,0,193.08,72.07,118.6,118.6,0,0,0-14.7-36.07,148.3,148.3,0,0,0-161.83-165.9,148.26,148.26,0,0,0-310.09-17.63q0,6.31.53,12.5A169.48,169.48,0,0,0-441.08,160,169.32,169.32,0,0,0-359.8,304.73a90,90,0,0,0-40,74.92,90,90,0,0,0,40.18,75A152.9,152.9,0,0,0-388.08,452,152.07,152.07,0,0,0-540.15,604.07a151.84,151.84,0,0,0,63.58,123.67,67.73,67.73,0,0,0-14.56,42,68,68,0,0,0,35.58,59.78A89.37,89.37,0,0,0-494,903a89.48,89.48,0,0,0,89.45,89.48,151.8,151.8,0,0,0,144.25,104.56,151.15,151.15,0,0,0,98.75-36.54,175.69,175.69,0,0,0,150.36,84.66,175.83,175.83,0,0,0,174.69-156,80.77,80.77,0,1,0-53.71-152.13,102.66,102.66,0,0,0,11-46.4,102.85,102.85,0,0,0-35.5-77.84,137.32,137.32,0,0,0,55.29-110.25,137,137,0,0,0-17.31-66.86A99.08,99.08,0,0,0,234.47,381.46,159.09,159.09,0,0,0,342.5,230.79Z" transform="translate(540.15 165.9)" />
	<path id="cl07_p1" data-name="cl07 p1" class="cl07" d="M1429.39,913A121.78,121.78,0,0,0,1366,806.08a80.89,80.89,0,0,0-24.1-124.37,105.2,105.2,0,0,0-55.55-202.79,122.12,122.12,0,0,0-207.91-126.35A137.65,137.65,0,0,0,827,454.7a61.06,61.06,0,0,0-20.88,75.58,84.68,84.68,0,0,0-55.2,148.2,137.61,137.61,0,0,0,18.49,185.17,86.08,86.08,0,0,0-5,164.22,85.78,85.78,0,0,0,115.25,110.81,160.92,160.92,0,0,0,294.47-30,93.18,93.18,0,0,0,155-69.73c0-2-.07-4-.2-6A121.84,121.84,0,0,0,1429.39,913Z" transform="translate(540.15 165.9)" />
	<path id="cl07_p1-2" data-name="cl07 p1" class="cl07" d="M182.82,682.32a91.86,91.86,0,0,0-40.1-60.74,112.07,112.07,0,0,0,3.34-53.32,112.46,112.46,0,0,0-220.43-4.8,69.13,69.13,0,0,0-68.37-27.78,69.13,69.13,0,0,0-55.87,80.22,69.63,69.63,0,0,0,4.46,14.94h0a74.46,74.46,0,0,0-28.69-.47,74.74,74.74,0,0,0-60.41,86.74,74.75,74.75,0,0,0,62.82,60.8,91.92,91.92,0,0,0-26.87,82.59,92,92,0,0,0,94.13,75.73,97.12,97.12,0,0,0,109.74,66.51,97.1,97.1,0,0,0,79.21-83.28,82.91,82.91,0,0,0,91.71-135.85A92.13,92.13,0,0,0,182.82,682.32Z" transform="translate(540.15 165.9)" />
	<rect class="cls-3" x="540.15" y="165.9" width="900" height="900" />
</svg>
