<svg id="cloud_08_ns" data-name="cloud 08 ns" xmlns="http://www.w3.org/2000/svg" viewBox="0 0 1074.29 904">
	<defs>
		<style>
			.cls-1{fill:#f5d5c5;}.cls-2{fill:none;stroke:#ffc269;stroke-miterlimit:10;stroke-width:4px;}
		</style>
	</defs>
	<path id="cl05_p3" data-name="cl05 p3" class="cl05" d="M597.36,579.27c-21.13-13.18-69.9,12.9-58.36,2.23,21-19.39,50.09-5,73.36-1.41,21.72,3.4,76.17-10.53,51.42-2.3C649.41,582.57,622.63,595,597.36,579.27Z" transform="translate(91.46 2)" />
	<path id="cl06_p3" data-name="cl06 p3" class="cl06" d="M675.64,730.85C644,729.71,617.39,713.74,635,729.3s34.38-5.83,67.86-11.5c32.27-5.48,107.24,31.25,67.22,16.38C709.83,711.81,707.29,732,675.64,730.85Z" transform="translate(91.46 2)" />
	<path id="cl06_p3-2" data-name="cl06 p3" class="cl06" d="M187.93,137.22c-13.78,1.18-38.83,3.65-23.06-.22,16.76-4.11,48.06-9.92,77.87-4.88s122.82,10.13,84.45,10C239.59,142,217.34,134.69,187.93,137.22Z" transform="translate(91.46 2)" />
	<path id="cl05_p3-2" data-name="cl05 p3" class="cl05" d="M180.18,549.76c-71.49-6,2.43-2,26-7.36,14.33-3.24,39.79,20.54,60.06,13.22,15.86-5.72,65.45,1.43,5.78-9C227.34,538.76,222.14,553.29,180.18,549.76Z" transform="translate(91.46 2)" />
	<path id="cl05_p3-3" data-name="cl05 p3" class="cl05" d="M256.21,799c28.77-.65,94.07,15,141.18-.29,18.37-6-70,8.28-108.41,10-15.41.68-38.27,1.58-54.43.46C218.88,808,157.72,801.2,256.21,799Z" transform="translate(91.46 2)" />
	<path id="cl03_p2" data-name="cl03 p2" class="cl03" d="M702,198.19c-47.94,2.92-125.82,29.58-73.29,22.41C654.27,217.11,712,174.25,758.19,206c21.76,14.94,100.58.31,48.43,15.23C753.88,236.27,744.39,195.6,702,198.19Z" transform="translate(91.46 2)" />
	<path id="cl04_p2" data-name="cl04 p2" class="cl04" d="M429.8,527.59c-42.91,6-83.72,41.73-36.61,25.13,25.42-9,30.16-24.29,70.65-14.12,19,4.78,114-14.07,66.11,5.17C481.53,563.22,467.74,522.28,429.8,527.59Z" transform="translate(91.46 2)" />
	<path id="cl03_p2-2" data-name="cl03 p2" class="cl03" d="M759.91,545.8c-14.24.31-40-7.38-22.63.15,18.47,8,74.8,12.29,105.58-.38,14.83-6.1,70.52-15.2,31.68-15C785.88,531.19,792,545.11,759.91,545.8Z" transform="translate(91.46 2)" />
	<path id="cl04_p2-2" data-name="cl04 p2" class="cl04" d="M611.55,616.45c39.8-.73,177.52-13.15,229.38-9.25,19,1.43-78.17,20-127.6,13.55C560.27,600.89,588.88,616.86,611.55,616.45Z" transform="translate(91.46 2)" />
	<path id="cl03_p2-3" data-name="cl03 p2" class="cl03" d="M82.77,518.5c-22,2.22-49.3-23.91-22.41-14.49,28.55,10,98.89,11.61,148-5.14,35.57-12.13,135.73-10.51,83.3-12.13C155.24,482.5,132.28,513.52,82.77,518.5Z" transform="translate(91.46 2)" />
	<path id="cl04_p2-3" data-name="cl04 p2" class="cl04" d="M271.69,608.81c27.44,5.22,88,0,109.89-2.66s-7.24-1.63-40.62-.25-55.22.38-101.38-7.55C199.62,591.5,197.6,594.73,271.69,608.81Z" transform="translate(91.46 2)" />
	<path id="cl03_p2-4" data-name="cl03 p2" class="cl03" d="M-34.82,656.25c29.66-.22,96.21-24.16,145.41-5,19.18,7.45-72.48-8.6-112.09-9.43-15.9-.33-39.48-.67-56.07,1.48C-73.66,645.33-136.34,657-34.82,656.25Z" transform="translate(91.46 2)" />
	<path id="cl02_p1" data-name="cl02 p1" class="cl02" d="M156.65,274.7c87.13-4.64,9.2-2.84-18.76-6.85-16.8-2.41-31.56,14.59-70.07,9.08C3.16,267.69-78,267.75,13.55,263.77,114.93,259.37,114.64,276.94,156.65,274.7Z" transform="translate(91.46 2)" />
	<path id="cl02_p1-2" data-name="cl02 p1" class="cl02" d="M186.88,698.81c-13.48-.83-39.73-7-19.88-7.38,28.69-.54,72.27,14.33,99.76,10.4,23.58-3.36,51-15.57,42.11-15.36C300.43,686.66,217.22,700.68,186.88,698.81Z" transform="translate(91.46 2)" />
	<path id="cl02_p1-3" data-name="cl02 p1" class="cl02" d="M390,631c25.84,5,102.85,7.12,123.29-.26s-23.75-3.19-55,3.7-51.73,8.22-95.19,1.32C325.45,629.77,320.18,617.63,390,631Z" transform="translate(91.46 2)" />
	<path id="cl01_p1" data-name="cl01 p1" class="cl01" d="M30.34,560.47c27.13,5.92,148.58,19.24,167.2,13.69,44.74-13.35-88.45-2.71-101.22-2.35-37.39,1.06-56.18-.53-96.3-6C-38.9,560.59-42.93,544.49,30.34,560.47Z" transform="translate(91.46 2)" />
	<path id="cl01_p1-2" data-name="cl01 p1" class="cl01" d="M869.94,650.75c19-6.37,93.57-18.87,110.12-10.68,17.87,8.86-55.76-5.22-79.93-1.53-10.67,1.63-25.75,2.48-57.92,11.92C814.36,658.64,818.68,668,869.94,650.75Z" transform="translate(91.46 2)" />
	<path id="cl01_p1-3" data-name="cl01 p1" class="cl01" d="M631.37,517.53c-28.64,6.14-59.91-7.75-56.84-12.13s88.52,6.05,133.46,5.18,136.9-38.88,51.29-18.86C673.92,511.69,648.14,513.93,631.37,517.53Z" transform="translate(91.46 2)" />
	<rect class="cls-2" x="91.46" y="2" width="900" height="900" />
</svg>
