<svg id="cloud_06_ns" data-name="cloud 06 ns" xmlns="http://www.w3.org/2000/svg" viewBox="0 0 1770.96 942.24">
	<defs>
		<style>
			.cls-1{fill:#f5d5c5;}.cls-2{fill:none;stroke:#ffc269;stroke-miterlimit:10;stroke-width:4px;}
		</style>
	</defs>
	<path id="cl04_p3" data-name="cl04 p3" class="cl04" d="M735.59,895.5C388.15,999.22,222.42,620.37-75.5,542.84c-449.89-117.08-172.31,333.7,37.42,297.22C689.1,713.58,849.36,861.54,735.59,895.5Z" transform="translate(317.13 28.89)" />
	<path id="cl02_p3" data-name="cl02 p3" class="cl02" d="M444.47,132.92C554.34,113.59,729.26.12,841.21,58.27,896.56,87,861.36,176.85,704,73.24,571.46-14,429.14-85.48,262.46,34.9,118.16,139.1,147.11,185.24,444.47,132.92Z" transform="translate(317.13 28.89)" />
	<path id="cl02_p3-2" data-name="cl02 p3" class="cl02" d="M303.53,702.15c-85.25-4.95-254.92-130.75-130.69-164C352.34,490,593.43,708.06,807,683.4c223.06-25.75,348.56-277.5,106.77-279.86C564.3,400.13,495.36,713.28,303.53,702.15Z" transform="translate(317.13 28.89)" />
	<path id="cl04_p3-2" data-name="cl04 p3" class="cl04" d="M419,273.78C618.61,383.54,760.22,132,949.39,108c285.68-36.24,68.4,254.71-54.91,207C466.94,149.53,353.67,237.84,419,273.78Z" transform="translate(317.13 28.89)" />
	<path id="cl01_p2" data-name="cl01 p2" class="cl01" d="M642.24,755.67c78.34-58.35,255.13-146,363-8.76,116.46,148.2-207.92-103.8-313.94-124.85-37.09-7.37-136,16.65-207.68,108.56C421.54,810.18,498.83,862.47,642.24,755.67Z" transform="translate(317.13 28.89)" />
	<path id="cl03_p2" data-name="cl03 p2" class="cl03" d="M266.59,273.49c229.92-50.24,55.91-336.82,328.94-93.2,41.34,36.89-225.43,7.83-304.94-29C227.44,122,55.73,63.1-16.67,81.7-166.45,120.18-51.9,343.09,266.59,273.49Z" transform="translate(317.13 28.89)" />
	<path id="cl03_p1" data-name="cl03 p1" class="cl03" d="M427.73,409.87c60.83,5.29,122.66-193,54-113.42C408.91,380.9,218.55,425.55,77.24,330c-102.41-69.25-373.81-10.32-232.11-46.68C213.77,188.74,290.84,398,427.73,409.87Z" transform="translate(317.13 28.89)" />
	<path id="cl01_p1" data-name="cl01 p1" class="cl01" d="M615.94,367.13C457.46,167.86,744.15,338.43,844.45,339c276.8,1.59,344.53,33.58,447.13,47.38,52.51,7.07,343.46,1.09-10.63-129.86C969.09,141.19,872.16,689.28,615.94,367.13Z" transform="translate(317.13 28.89)" />
	<rect class="cls-2" x="317.13" y="28.89" width="900" height="900" />
</svg>
