<svg id="cloud_12_ns" data-name="cloud 12 ns" xmlns="http://www.w3.org/2000/svg" viewBox="0 0 1400.43 904">
	<defs>
		<style>
			.cls-1{fill:#f5d5c5;}.cls-2{fill:none;stroke:#ffc269;stroke-miterlimit:10;stroke-width:4px;}
		</style>
	</defs>
	<path id="cl04_p3" data-name="cl04 p3" class="cl04" d="M317.79,266.78c-93.07-2.25-194.81-3.94-168,0s11.81,8.67,27.6,16.56c9.47,4.74,20.51-7.09,20.51-7.09s13,35.32,29.54,29,10.08-8.15,26.46,3.32c17.44,12.22,16.56-21.31,21.29-22.08s15.45,17,28.86,3.55,5.85-16.17,30.3-17S348.55,267.52,317.79,266.78Z" transform="translate(214.62 2)" />
	<path id="cl03_p3" data-name="cl03 p3" class="cl03" d="M910.19,65.27c-70.2.15-218.73.94-203.8,0,112.94-7,88.47-2.49,105.18-18.61,9.1-8.79,28.42,1.65,28.42,1.65s2.37-22.92,11.84-20.53,15,15.8,22.87,14.22,13.41-15.3,20.51-3.7,6.3,17.11,19.71,18.69S973.29,65.13,910.19,65.27Z" transform="translate(214.62 2)" />
	<path id="cl03_p3-2" data-name="cl03 p3" class="cl03" d="M577.82,644.94c-85.51,0-260-1.58-213.46,3.16S404,673.34,422.9,661.5s4,20.51,23.66,24.45c13.71,2.75,26.82-6.3,26.82-6.3s3.94,35.49,24.2,28.48c21.5-7.44,23.91-22.18,23.91-22.18s11,11.84,27.61,7.1,16.45-30,20.29-16.56c3.16,11,15.2,16.54,26.24,5.52s33.13-28.39,37.07-21.29,20.51,24,32.34,16.15,14-16.46,22.87-20.1c17-7,5.39,12.12,19.59,10.54,16.62-1.85,5.65-16.06,25.37-16.06s37.07-6.31-10.25-6.31Z" transform="translate(214.62 2)" />
	<path id="cl02_p2" data-name="cl02 p2" class="cl02" d="M937.11,87.92c-26,4-32.86,35.56-53.63,40.23-19.33,4.34-18.15-19.86-24.06-8s-21,22.94-32.69,21.44c-15.42-2-12.54-17.11-17.79-3.55-4.73,12.22-42.2,43-67.69-13.8,0,0-29.72,18.93-40.76-18.93,0,0-45.74,11.17-42.2-9.47,0,0-14.19,13.8-16.16-2.36,0,0-36.29,15.77-33.53-2.37,0,0-35.49,14.2-34.3-.79,0,0-86-2.43-59.81-4.4,25.22-1.9,170.2-3.49,298.79-3.49C971.42,82.4,943.31,87,937.11,87.92Z" transform="translate(214.62 2)" />
	<path id="cl02_p2-2" data-name="cl02 p2" class="cl02" d="M646.54,613.36C73.05,621.2,9.8,601.1,66.2,594.59c67.62-7.8,51.06-33.24,79.67-28,30.33,5.51,16.91,29.91,46.82-2.6s76.72-38.77,100.13-20.69,12.35-30.43,39.65-31.73,29.27,9.5,29.27,9.5,27.31-37.71,49.42-20.8,13,32.51,32.51,24.71,36.41,1.3,45.51,14.3,16.91,48.12,33.81,35.11,33.82-16.9,46.82-3.9,13-11.7,27.31-2.6,20.81,26,37.71,16.91,27.31-39,48.12-29.91,13.46,35.53,29.91,27.3c20.8-10.4,19.5,2.61,29.91,9.11s136.54,6.5,101.43,11.7S709,612.51,646.54,613.36Z" transform="translate(214.62 2)" />
	<path id="cl01_p1" data-name="cl01 p1" class="cl01" d="M1062.19,506c-347.83-4.75-386.19,7.44-352,11.39,41,4.73,31,20.16,48.32,17,18.4-3.35,10.26-18.14,28.4,1.57s46.53,23.52,60.73,12.55,7.49,18.46,24.05,19.25S889.46,562,889.46,562s16.56,22.87,30,12.62,7.89-19.72,19.72-15,22.09-.79,27.61-8.68,10.25-29.18,20.5-21.3,20.51,10.26,28.4,2.37,7.88,7.1,16.56,1.58,12.62-15.78,22.87-10.26,16.57,23.67,29.19,18.14,8.16-21.55,18.14-16.56c12.62,6.31,11.83-1.58,18.14-5.52s82.81-3.94,61.52-7.1S1100.05,506.51,1062.19,506Z" transform="translate(214.62 2)" />
	<path id="cl01_p1-2" data-name="cl01 p1" class="cl01" d="M496.53,218.58c-37-5.61-46.7-50.55-76.24-57.18-27.46-6.17-25.78,28.23-34.19,11.42s-29.79-32.61-46.47-30.48c-21.92,2.8-17.82,24.32-25.29,5-6.72-17.38-60-61.1-96.22,19.62,0,0-42.24-26.91-57.93,26.91,0,0-65-15.89-60,13.45,0,0-20.18-19.62-23,3.37,0,0-51.57-22.43-47.65,3.36,0,0-50.45-20.18-48.77,1.12,0,0-122.22,3.45-85,6.25,35.85,2.7,241.93,5,424.72,5C545.3,226.42,505.35,219.91,496.53,218.58Z" transform="translate(214.62 2)" />
	<path id="cl01_p1-3" data-name="cl01 p1" class="cl01" d="M135.51,666.27c-189.06-4.57-395.73-8-341.26,0s24,17.61,56.08,33.65C-130.45,709.53-108,685.5-108,685.5s26.37,71.75,60,58.94,20.48-16.56,53.74,6.75C41.16,776,39.38,707.89,49,706.33s31.38,34.44,58.62,7.21,11.88-32.85,61.54-34.45S198,667.78,135.51,666.27Z" transform="translate(214.62 2)" />
	<rect class="cls-2" x="214.62" y="2" width="900" height="900" />
</svg>
