<svg id="cloud_10_ns_copy" data-name="cloud 10 ns copy" xmlns="http://www.w3.org/2000/svg" viewBox="0 0 1233.6 904">
	<defs>
		<style>
			.cls-1{fill:#f5d5c5;}.cls-2{fill:none;stroke:#ffc269;stroke-miterlimit:10;stroke-width:4px;}
		</style>
	</defs>
	<path id="cl01_p3" data-name="cl01 p3" class="cl01" d="M1018.37,308.36c-6.85-12.81-33.75-8.53-44.92-7.07-19.93,2.61-38.33.7-58.42,1-22.87.33-45.72-1.87-68.62-1.19-6.34.19-27.29-1.62-32,3.88-8.33,9.63,47.7,10.57,55.86,10.1,3.3-.2,6.67-.46,9.87.39,3,.78,5.59,2.46,8.26,3.94,16.16,9,34,9.33,52,9.33,32,0,57.93-6.2,57.93-13.84,0-.12,0-.23,0-.35,6.9-.52,15.17-1,20.31-5.8C1018.51,308.62,1018.44,308.49,1018.37,308.36Z" transform="translate(76.03 2)" />
	<path id="cl02_p3" data-name="cl02 p3" class="cl02" d="M545.67,788.26l-1.41,0c-10.87-.23-21.79,0-32.53-1.65-22.82-3.44-41.2-16.16-62.54-23.45-20.1-6.87-42-7.48-63-9.71-31.78-3.4-63.79-3.79-95.72-3.79-103.07,0-186.64,14.51-186.69,32.41-.07,24.93,75.37,26.19,91.38,27.92,23.22,2.5,46.66,2,69.85,5.26,13.06,1.81,26.07,4.64,38.14,9.95,15.94,7,30.12,18.52,46.92,23.55,17.32,5.18,37.37,4.7,55.3,6.55a862.34,862.34,0,0,0,88.74,4.61c100.33,0,181.66-16.26,181.67-36.32C675.79,792.19,568.4,788.77,545.67,788.26Z" transform="translate(76.03 2)" />
	<path id="cl01_p3-2" data-name="cl01 p3" class="cl01" d="M234.6,289.06c-14.26,0-27.81,3.38-41.88,5.38-4.75.67-46.9,3.85-46.9,8.35,0,3.38,19.52,6.13,43.59,6.13,16.79,0,71.78.3,81.69-13.29C262.81,288,245.3,289.06,234.6,289.06Z" transform="translate(76.03 2)" />
	<path id="cl03_p3" data-name="cl03 p3" class="cl03" d="M907.43,451.66c-29.7,0-62.38-2.6-91.81,1.17-3.29.42-6.6,1-9.88.56-3-.41-5.87-1.65-8.74-2.7-8.94-3.25-57.31-10-57.38,9.09,0,13.27,54.31,18.61,64.27,20.91,25.46,5.85,66.08,8.7,87.11-10.15,1.45-1.3,2.86-2.74,4.69-3.4a12.64,12.64,0,0,1,4.34-.49c8.42,0,61.87,5.93,61.87-6.85C961.9,455.3,937.51,451.66,907.43,451.66Z" transform="translate(76.03 2)" />
	<path id="cl02_p2" data-name="cl02 p2" class="cl02" d="M17.46,298.25c-5.89,0-29.74-1.18-30.22,8.43.13-2.66-26.18,2.81-28.15,4.69,5.6,5.59,18.39,4.44,26.24,4.44,14.34,0,53.14.48,62.29-10.76C41,297.74,26.83,298.25,17.46,298.25Z" transform="translate(76.03 2)" />
	<path id="cl03_p2" data-name="cl03 p2" class="cl03" d="M614.28,393.55h-.45c-11.65.19-112-6.84-112,10.6,0,11.21,62.15,14.08,70.26,15.6a275.07,275.07,0,0,0,79.56,3c6.81-.79,27.4-2.24,28.61-12.13C682.42,392.77,626.63,393.35,614.28,393.55Z" transform="translate(76.03 2)" />
	<path id="cl02_p2-2" data-name="cl02 p2" class="cl02" d="M196.08,336.73c-10.56.27-19.22,1-21.52,1.25-13.5,1.51-26.15-3-39.67-3-7,0-25.94-1.72-29,7.55,9.86,6.17,22.68,6.77,33.47,8.54l4.77.79c17.72,2.9,33.75,8.21,52,8.21,28.15,0,51-5.23,51-11.67C247.05,337.5,217.6,336.18,196.08,336.73Z" transform="translate(76.03 2)" />
	<path id="cl01_p2" data-name="cl01 p2" class="cl01" d="M580.19,293.2c-15.23,0-31.41.19-43.8,10.25-5.19,4.21-57.44-4.16-57.44,8.77,0,15.88,83.43,6.08,92.12,4.69l36.27-5.82C646.73,304.78,593.26,293.2,580.19,293.2Z" transform="translate(76.03 2)" />
	<path id="cl01_p1" data-name="cl01 p1" class="cl01" d="M423.69,479.46l.65,0c18.13-1.13,36.23,2.17,54.39,2.76,16.19.53,75.88-15.94,33.79-21.82a278,278,0,0,0-66.73-1.2c-3.8.4-7.64.87-11.42.36a44.37,44.37,0,0,1-9-2.52,179,179,0,0,0-75.87-10.19c-25.53,2.13-47,16-71.73,22.2-11.47,2.89-54.59,9.48-44.25,25.75C242,508.09,286.72,506,299.56,506,341.42,505.94,382,482.28,423.69,479.46Z" transform="translate(76.03 2)" />
	<path id="cl01_p2-2" data-name="cl01 p2" class="cl01" d="M156.12,402.56c.24-1.53-.32-3.23-1.91-5.16-5.72-6.88-21.71-4.91-28.68-5-19.45-.15-41.25.33-60.18,6.93-3.42,1.37-6.83,3-10.4,3.31a29.25,29.25,0,0,1-7.62-.65c-7.55-1.32-88.24-16.65-88.24,3.22,0,9.31,32.61,9.28,36.59,9.39,20,.53,38.2,6,58.09,8.89,22,3.24,44.21-2.34,66-7.9C126.06,414,154.72,411.48,156.12,402.56Z" transform="translate(76.03 2)" />
	<path id="cl03_p2-2" data-name="cl03 p2" class="cl03" d="M415.67,306.42c-24.39-2.65-50.69-1-74.68-1-6.67,0-14-.37-19.54,3.46,26.5,6.86,54.28,3.22,80.5,9.47a60.7,60.7,0,0,0,13.7,1.44c15.13,0,32.9-8.39,8.76-12.2C421.53,307.12,418.62,306.74,415.67,306.42Z" transform="translate(76.03 2)" />
	<path id="cl03_p1" data-name="cl03 p1" class="cl03" d="M153,584.38a10.39,10.39,0,0,1-1.4-.64c-2.41-1.31-4.19-3.51-6.13-5.45-9.66-9.7-22.48-11.09-35.32-13.19-23.61-3.87-47.75-5-71.66-5C-24.74,560.06-76,570.32-76,583c0,17.49,41.25,19.33,52.28,20.46,12.56,1.28,25,1.05,37.49,1.5,17.5.63,32.21,7.51,48.58,13,30.15,10.14,61.45,8.82,92.75,8.18,29.69-.6,59.29-.78,88.38-7.75,4.91-1.17,19.31-3.2,22-8.51,7.42-14.53-95.67-22.93-106.24-24.21A26.47,26.47,0,0,1,153,584.38Z" transform="translate(76.03 2)" />
	<path id="cl02_p1" data-name="cl02 p1" class="cl02" d="M494.73,341c-15.59,0-32.13.12-47.44,3.49-15.6,3.43-22.83,8.05-39.84,4.34-7.31-1.6-79.17-9.37-79.19,5.36,0,7.78,56.13,11.64,63.76,14.41,23.27,8.43,48.92,5.95,73.44,2.52C473.5,370,476,365.77,483,363a13.29,13.29,0,0,1,4.91-.65c9.08-.06,70.84,3.71,70.84-10.71C558.72,345.78,530.08,341,494.73,341Z" transform="translate(76.03 2)" />
	<path id="cl03_p1-2" data-name="cl03 p1" class="cl03" d="M849.45,353.39A67.82,67.82,0,0,1,837,351.92c-32.49-7.87-56.88-12-89.34-.06-8.24,3-51.68.42-51.68,12.2,0,5.25,16.15,9.51,36.09,9.51,18.92,0,35.79-10.69,54.5-10.1,32.25,1,62.36,8.44,95,5.47,11.13-1,7.15-4.89,1.08-9.35C874.44,353.57,861.22,354,849.45,353.39Z" transform="translate(76.03 2)" />
	<path id="cl02_p1-2" data-name="cl02 p1" class="cl02" d="M787,559.38c-79.84-10.3-159.13-10.45-240.48-10.45-60.86,0-110.2,11.4-110.2,25.46,0,29.05,69,26.08,86.15,26.12a610.28,610.28,0,0,0,65.1-3.63c24-2.52,44.4-14.22,67.48-17.52,8.2-1.18,16.51.34,24.66,1.86,38.9,7.22,76.68,18.68,116.21,23,18.35,2,43.69,5.95,61.29-1.89,32.05-14.28,10.33-29.22-15.49-34.18Q814.24,562.84,787,559.38Z" transform="translate(76.03 2)" />
	<path id="cl01_p1-2" data-name="cl01 p1" class="cl01" d="M720.43,312.17c-16.68.05-34.66,2.81-47.3,3-7,.09-44.15-.95-42.38,10,1.13,7,15.46,7.08,20.26,7.43,18.15,1.29,35.71-3.12,53.41-6.34,12.08-2.19,38.89,1.42,47.32-8.11C743.57,313.48,732.33,312.14,720.43,312.17Z" transform="translate(76.03 2)" />
	<path id="cl02_p1-3" data-name="cl02 p1" class="cl02" d="M903.34,733.28c103.08,18.26,362.72-25.28,204.17,36.14s-61.63,79.05-300.92,64.22S811.62,717,903.34,733.28Z" transform="translate(76.03 2)" />
	<rect class="cls-2" x="76.03" y="2" width="900" height="900" />
</svg>
