<svg id="cloud_05_clS4" data-name="cloud 05 clS4" xmlns="http://www.w3.org/2000/svg" viewBox="0 0 974.49 967.87">
	<defs>
		<style>
			.cls-1{fill:#fff;}.cls-1,.cls-2{stroke:#ffc269;stroke-miterlimit:10;stroke-width:4px;}.cls-2{fill:none;}
		</style>
	</defs>
	<path id="cl09_p3" data-name="cl09 p3" class="cls-1" d="M508-12.56A4.27,4.27,0,0,0,507.6-11c0,3.71,5.68,6.7,12.62,6.7a20,20,0,0,0,8.93-1.93c0,.66-.1,1.27-.1,1.93a17.84,17.84,0,0,0,17.84,17.85,19.83,19.83,0,0,0,3.86-.41,32.7,32.7,0,0,0-2,11.21,32.29,32.29,0,0,0,32.3,32.3,31.32,31.32,0,0,0,4.46-.31,54.71,54.71,0,0,0,53.86,45.13,53.94,53.94,0,0,0,16.78-2.63V99a32.4,32.4,0,0,0,64,7,41,41,0,0,0,7.46.71,38.33,38.33,0,0,0,26-66.48,22.92,22.92,0,0,0,3.2.2A25.37,25.37,0,0,0,775.49-2.16a21.46,21.46,0,0,0,3.14.25c7.61,0,13.79-3.95,13.79-8.87a3.83,3.83,0,0,0,0-.76,40,40,0,0,0,11.26,1.47c9.43,0,17-2.69,17-6s-7.66-6-17-6H548.72c-.61-.05-1.27-.1-1.93-.1s-1.21.05-1.82.1H505.16v.3c-3.29.66-5.68,2.44-5.68,4.47C499.69-14.74,503.39-12.66,508-12.56Z" transform="translate(2 65.87)" />
	<path id="cl10_p3" data-name="cl10 p3" class="cls-1" d="M172.48,653.72a51.58,51.58,0,0,0,11.58-1.25,31.84,31.84,0,0,0-1.41,9.33,32.69,32.69,0,0,0,14.17,26.67c-26.43,6.25-46,28.76-46,55.51,0,28.42,22,52,50.92,56.51v.75c0,36.76,31.67,66.59,70.76,66.59,36.09,0,65.77-25.33,70.18-58.17a54.05,54.05,0,0,0,29.84,8.92c28.59,0,51.84-21.84,51.84-48.76a39.76,39.76,0,0,0-.58-7.09,80.77,80.77,0,0,0,16.42,1.67c41.26,0,74.68-31.51,74.68-70.26a67.23,67.23,0,0,0-13.67-40.51h.67c16.33,0,29.83-8.08,31.33-18.42a34.79,34.79,0,0,0,6.75.67c11.67,0,21.09-5.42,21.09-12.09s-9.42-12.08-21.09-12.08H172.48c-19,0-34.42,9.42-34.42,20.92C138.06,644.3,153.39,653.72,172.48,653.72Z" transform="translate(2 65.87)" />
	<path id="cl07_p3" data-name="cl07 p3" class="cls-1" d="M443,197.5a5.14,5.14,0,0,0-.44,1.94c0,4.55,7,8.23,15.54,8.23a24.62,24.62,0,0,0,11-2.37c-.07.81-.13,1.56-.13,2.37a22,22,0,0,0,22,22,23.39,23.39,0,0,0,4.74-.5,40.36,40.36,0,0,0-2.43,13.8,39.77,39.77,0,0,0,45.25,39.38,67.33,67.33,0,0,0,66.29,55.55,66.39,66.39,0,0,0,20.66-3.24v.18a39.89,39.89,0,0,0,78.83,8.62,49.74,49.74,0,0,0,9.17.87,47.17,47.17,0,0,0,32-81.83,27.3,27.3,0,0,0,3.93.25A31.22,31.22,0,0,0,772.3,210.3a27.31,27.31,0,0,0,3.87.31c9.36,0,17-4.87,17-10.92a4.9,4.9,0,0,0-.06-.94,49.22,49.22,0,0,0,13.86,1.81c11.61,0,21-3.31,21-7.37s-9.43-7.36-21-7.36H493.18c-.75-.06-1.56-.13-2.37-.13s-1.5.07-2.25.13h-49v.37c-4.05.81-7,3-7,5.5C432.82,194.82,437.38,197.38,443,197.5Z" transform="translate(2 65.87)" />
	<path id="cl08_p2" data-name="cl08 p2" class="cls-1" d="M574.3,506.69a38.06,38.06,0,0,0,8.31-.91,25.47,25.47,0,0,0,9.18,27.48,43.67,43.67,0,0,0,3.55,85.44v.57a50.8,50.8,0,0,0,101.19,6.44,37.21,37.21,0,0,0,58.62-30.41,40.11,40.11,0,0,0-.38-5.39,52.55,52.55,0,0,0,11.77,1.3,53.62,53.62,0,0,0,43.82-84.52h.48c11.77,0,21.43-6.19,22.54-14.07a27,27,0,0,0,4.85.48c8.36,0,15.13-4.14,15.13-9.18s-6.77-9.18-15.13-9.18H574.35c-13.65,0-24.7,7.16-24.7,16S560.65,506.69,574.3,506.69Z" transform="translate(2 65.87)" />
	<path id="cl07_p2" data-name="cl07 p2" class="cls-1" d="M311.54,259.1a39.64,39.64,0,0,0,8.91-1,24.48,24.48,0,0,0-1.09,7.18,25.18,25.18,0,0,0,10.9,20.51c-20.32,4.81-35.39,22.12-35.39,42.7,0,21.86,16.93,40,39.17,43.46v.58c0,28.27,24.36,51.23,54.43,51.23,27.76,0,50.58-19.49,54-44.75a41.6,41.6,0,0,0,22.95,6.86c22,0,39.88-16.8,39.88-37.51a30.84,30.84,0,0,0-.45-5.45,62,62,0,0,0,12.63,1.29c31.73,0,57.44-24.24,57.44-54.05A51.74,51.74,0,0,0,564.39,259h.51c12.57,0,23-6.22,24.11-14.16a26.87,26.87,0,0,0,5.19.51c9,0,16.22-4.17,16.22-9.3s-7.24-9.29-16.22-9.29H311.54c-14.62,0-26.48,7.24-26.48,16.09S296.86,259.1,311.54,259.1Z" transform="translate(2 65.87)" />
	<path id="cl08_p2-2" data-name="cl08 p2" class="cls-1" d="M777.89,541.81a25.17,25.17,0,0,0,5.74-.65,17.76,17.76,0,0,0-.7,4.94,17.47,17.47,0,0,0,7,14,30.15,30.15,0,0,0,2.45,59v.4A35.07,35.07,0,0,0,862.26,624a25.71,25.71,0,0,0,40.22-24.7,37.6,37.6,0,0,0,8.14.9,37,37,0,0,0,30.2-58.36h.33c8.12,0,14.78-4.27,15.54-9.72a17.2,17.2,0,0,0,3.34.33c5.78,0,10.46-2.84,10.46-6.34s-4.69-6.35-10.46-6.35H777.85c-9.42,0-17.05,4.94-17.05,11S768.46,541.81,777.89,541.81Z" transform="translate(2 65.87)" />
	<path id="cl09_p1" data-name="cl09 p1" class="cls-1" d="M29.71-44.52A8.43,8.43,0,0,0,29-41.35c0,7.47,11.47,13.51,25.49,13.51a40.41,40.41,0,0,0,18-3.89c-.11,1.33-.21,2.56-.21,3.89a36,36,0,0,0,36,36,39.5,39.5,0,0,0,7.78-.81,66,66,0,0,0-4,22.62,65.3,65.3,0,0,0,74.21,64.59A110.42,110.42,0,0,0,295,185.69a108.65,108.65,0,0,0,33.88-5.32v.3A65.42,65.42,0,0,0,458.2,194.8a81.48,81.48,0,0,0,15,1.43A77.36,77.36,0,0,0,525.75,62a46.56,46.56,0,0,0,6.45.41,51.22,51.22,0,0,0,37.57-86,42.73,42.73,0,0,0,6.35.51C591.47-23,604-31,604-40.94a7.87,7.87,0,0,0-.1-1.53,80.62,80.62,0,0,0,22.72,3c19,0,34.39-5.42,34.39-12.07s-15.45-12.08-34.39-12.08H112c-1.23-.11-2.56-.21-3.89-.21s-2.46.1-3.69.21H24.08V-63c-6.65,1.33-11.46,4.91-11.46,9C13-48.92,20.5-44.73,29.71-44.52Z" transform="translate(2 65.87)" />
	<path id="cl09_p1-2" data-name="cl09 p1" class="cls-1" d="M615.77,663a22.38,22.38,0,0,0-4.88.54,15,15,0,0,0-5.39-16.14,25.64,25.64,0,0,0-2.09-50.16v-.34A29.83,29.83,0,0,0,544,593.07a21.85,21.85,0,0,0-34.42,17.86,23.62,23.62,0,0,0,.22,3.16,30.88,30.88,0,0,0-6.91-.76A31.48,31.48,0,0,0,477.16,663h-.28c-6.91,0-12.58,3.64-13.23,8.27a15.39,15.39,0,0,0-2.85-.28c-4.91,0-8.89,2.42-8.89,5.39s4,5.38,8.89,5.38H615.74c8,0,14.5-4.2,14.5-9.39S623.78,663,615.77,663Z" transform="translate(2 65.87)" />
	<path id="cl10_p1" data-name="cl10 p1" class="cls-1" d="M313.14,298.71a2.08,2.08,0,0,0,.21-1c0-2.35-3.62-4.28-8.06-4.28a12.71,12.71,0,0,0-5.67,1.24c0-.42.08-.83.08-1.24a11.35,11.35,0,0,0-11.35-11.35,12.29,12.29,0,0,0-2.43.25,20.24,20.24,0,0,0,1.28-7.11,20.57,20.57,0,0,0-20.56-20.56,22.59,22.59,0,0,0-2.84.2,34.81,34.81,0,0,0-34.25-28.7,34,34,0,0,0-10.69,1.69v-.13a20.64,20.64,0,0,0-40.79-4.48,25.56,25.56,0,0,0-4.77-.45,24.41,24.41,0,0,0-16.61,42.31,17.28,17.28,0,0,0-2.06-.12,16.11,16.11,0,0,0-11.8,27.09,16.52,16.52,0,0,0-2-.16c-4.85,0-8.8,2.55-8.8,5.63a1.7,1.7,0,0,0,.05.5,25.24,25.24,0,0,0-7.16-.95c-6,0-10.85,1.69-10.85,3.78s4.85,3.79,10.85,3.79H287.12a11.89,11.89,0,0,0,1.19.08,10.38,10.38,0,0,0,1.15-.08h25.29v-.17c2.1-.41,3.58-1.52,3.58-2.83C318.41,300.06,316.06,298.75,313.14,298.71Z" transform="translate(2 65.87)" />
	<rect class="cls-2" x="2" y="65.87" width="900" height="900" />
</svg>
