<svg id="cloud_01_clS4" data-name="cloud 01 clS4" xmlns="http://www.w3.org/2000/svg" viewBox="0 0 1452.58 942.37">
	<defs>
		<style>
			.cls-1{fill:#fff;}.cls-1,.cls-2{stroke:#ffc269;stroke-miterlimit:10;stroke-width:4px;}.cls-2{fill:none;}
		</style>
	</defs>
    
	<path id="cl10_p3" data-name="cl10 p3" class="cls-1" d="M-141.9,864.65c0,40.73,50.92,73.72,113.79,73.72H1187.66c38.52,0,69.73-18.82,69.73-42.29,0-23.24-31.21-42.28-69.73-42.28A121.42,121.42,0,0,0,1165.3,856c-5.09-36.31-49.58-64.87-103.82-64.87h-2.21a245.31,245.31,0,0,0,45.16-142.34c0-136.58-110.69-247-247.06-247a243.55,243.55,0,0,0-54.23,6A183.57,183.57,0,0,0,804.91,383,171.43,171.43,0,0,0,534.84,242.82C520.23,127.7,421.94,38.49,302.62,38.49c-129.28,0-234,104.71-234,234v2.66C-27,290.85-99.84,373.87-99.84,473.71c0,94.08,64.64,173.11,152.09,195A117.46,117.46,0,0,0,10,795.36a176.23,176.23,0,0,0-38.29-4.21C-91.2,791.15-142.12,824.14-141.9,864.65Z" transform="translate(193.19 2)" />
	<path id="cl09_p2" data-name="cl09 p2" class="cls-1" d="M999.5,617.89a80,80,0,0,0-17.25,1.89,51.75,51.75,0,0,0,2.1-14.85,52.46,52.46,0,0,0-21.13-42.16,90.59,90.59,0,0,0-7.38-177.23v-1.19A105.39,105.39,0,0,0,745.92,371a77.18,77.18,0,0,0-121.6,63.09,82.73,82.73,0,0,0,.79,11.17,109.45,109.45,0,0,0-24.42-2.69,111.22,111.22,0,0,0-90.9,175.33h-1c-24.42,0-44.46,12.86-46.75,29.2a54.55,54.55,0,0,0-10.06-1c-17.35,0-31.4,8.57-31.4,19s14.05,19,31.4,19H999.4c28.31,0,51.23-14.85,51.23-33.19S1027.81,617.89,999.5,617.89Z" transform="translate(193.19 2)" />
	<path id="cl08_p2" data-name="cl08 p2" class="cls-1" d="M123.15,494.23c0,17.82,22.29,32.24,49.81,32.24h532.1c16.84,0,30.54-8.31,30.54-18.53S722,489.41,705.06,489.41a49.62,49.62,0,0,0-9.76,1C693.09,474.46,673.64,462,649.92,462h-1a108.13,108.13,0,0,0-88.2-170.45A110,110,0,0,0,537,294.15a75.11,75.11,0,0,0-74.24-85.84A74.61,74.61,0,0,0,419.5,222a102.43,102.43,0,0,0-204,13v1.18a88,88,0,0,0-7.14,172.25,51.23,51.23,0,0,0-18.48,55.4,73.62,73.62,0,0,0-16.79-1.9C145.54,461.94,123.21,476.36,123.15,494.23Z" transform="translate(193.19 2)" />
	<path id="cl07_p1" data-name="cl07 p1" class="cls-1" d="M-191.19,757c0,23.38,31.34,42.52,70,42.52H625.66c23.71,0,42.86-11,42.86-24.56s-19.15-24.56-42.86-24.56a71.56,71.56,0,0,0-13.72,1.35c-3.05-21-30.5-37.43-63.7-37.43h-1.35A136.57,136.57,0,0,0,574.67,632c0-78.77-67.93-142.81-151.78-142.81a165.44,165.44,0,0,0-33.38,3.39,81,81,0,0,0,1.19-14.4c0-54.71-47.26-99.1-105.37-99.1a109.73,109.73,0,0,0-60.64,18.13C215.71,330.49,155.4,279,82.05,279,2.61,279-61.77,339.63-61.77,414.34v1.52C-120.55,425-165.27,473-165.27,530.72c0,54.37,39.81,100.11,93.51,112.82-17.45,12.36-28.8,32-28.8,54.2a64.49,64.49,0,0,0,2.88,19,104.19,104.19,0,0,0-23.55-2.54C-160,714.18-191.19,733.32-191.19,757Z" transform="translate(193.19 2)" />
	<path id="cl08_p1" data-name="cl08 p1" class="cls-1" d="M480.37,826.82c0,9.61,12,17.39,26.86,17.39h287c9.08,0,16.47-4.48,16.47-10s-7.36-10-16.47-10a26.28,26.28,0,0,0-5.26.53c-1.19-8.59-11.68-15.32-24.48-15.32h-.52a58.31,58.31,0,0,0-47.57-91.92,59.53,59.53,0,0,0-12.82,1.41A40.46,40.46,0,0,0,640.19,680a55.24,55.24,0,0,0-110,7v.63a47.49,47.49,0,0,0-3.85,92.9,27.62,27.62,0,0,0-10,29.87,39.82,39.82,0,0,0-9.05-1C492.45,809.41,480.4,817.19,480.37,826.82Z" transform="translate(193.19 2)" />
	<rect id="rect" class="cls-2" x="193.19" y="2" width="900" height="900" />
</svg>
