<svg id="cloud_07_ns" data-name="cloud 07 ns" xmlns="http://www.w3.org/2000/svg" viewBox="0 0 1226.5 926.78">
	<defs>
		<style>
			.cls-1{fill:#f5d5c5;}.cls-2{fill:none;stroke:#ffc269;stroke-miterlimit:10;stroke-width:4px;}
		</style>
	</defs>
	<path id="cl05_p3" data-name="cl05 p3" class="cl05" d="M147.63,755.4c-33.39-20.53-115.8,24.33-95.87,6.37C88,729.14,134.34,751.18,172.13,756c35.29,4.53,125.86-20.77,84.52-6.17C232.64,758.34,187.56,780,147.63,755.4Z" transform="translate(104.06 2)" />
	<path id="cl06_p3" data-name="cl06 p3" class="cl06" d="M669.7,448.92c-43.44-1.56-79.93-23.47-55.78-2.13S661.1,438.8,707,431c44.28-7.51,147.17,42.89,92.25,22.49C716.62,422.79,713.13,450.48,669.7,448.92Z" transform="translate(104.06 2)" />
	<path id="cl05_p3-2" data-name="cl05 p3" class="cl05" d="M23.84,400.09c-98.11,8-15.5,8.75,16.81,15.82,19.66,4.31,77.7-23.67,105.51-14,21.76,7.6,37.21,18,7.93,12C93.2,401.55,81.43,395.4,23.84,400.09Z" transform="translate(104.06 2)" />
	<path id="cl05_p3-3" data-name="cl05 p3" class="cl05" d="M422,377.63c30.32-.82,99.17,20.9,148.77,0,19.34-8.15-73.75,11.18-114.2,13.4-16.25.89-40.33,2.06-57.35.49C382.71,390,318.25,380.43,422,377.63Z" transform="translate(104.06 2)" />
	<path id="cl04_p2" data-name="cl04 p2" class="cl04" d="M221.65,579.21c-170,87.6-349.35,47.22-169.4,4.64,96.54-22.84,140.91-6.18,278.42,39.79C395.28,645.25,772,501.15,636.36,575.4,463.65,669.94,319.51,528.78,221.65,579.21Z" transform="translate(104.06 2)" />
	<path id="cl03_p2" data-name="cl03 p2" class="cl03" d="M168.72,458.14c-19.54.42-54.94-10.13-31.06.2,25.36,11,102.66,16.87,144.9-.52,20.35-8.38,96.77-20.85,43.47-20.51C204.36,438.09,212.7,457.19,168.72,458.14Z" transform="translate(104.06 2)" />
	<path id="cl04_p2-2" data-name="cl04 p2" class="cl04" d="M88.1,904C206.21,958.49,738.5,729.63,897,772c58.14,15.55-261.26,213.7-406.48,133.85C40.9,658.66,11.33,868.61,88.1,904Z" transform="translate(104.06 2)" />
	<path id="cl03_p2-2" data-name="cl03 p2" class="cl03" d="M726.77,575.93c-30.2,3-67.66-32.82-30.75-19.89,39.18,13.72,135.7,15.93,203.07-7,48.81-16.65,186.27-14.42,114.32-16.65C826.22,526.52,794.71,569.09,726.77,575.93Z" transform="translate(104.06 2)" />
	<path id="cl03_p2-3" data-name="cl03 p2" class="cl03" d="M467.92,516.71c40.7-.31,132-33.16,199.55-6.93C693.79,520,568,498,513.65,496.85c-21.83-.46-54.19-.92-76.95,2C414.62,501.72,328.6,517.75,467.92,516.71Z" transform="translate(104.06 2)" />
	<path id="cl02_p1" data-name="cl02 p1" class="cl02" d="M-36.58,706.39c-33.76-4.52-99.23-40.11-49.43-42.8,72-3.89,180.41,82.22,249.54,58.52,59.29-20.32,128.69-92.59,106.4-91.15C248.75,632.33,39.39,716.57-36.58,706.39Z" transform="translate(104.06 2)" />
	<path id="cl02_p1-2" data-name="cl02 p1" class="cl02" d="M525.24,790.57c109.6-13.37,283.18-97.06,395.71-52,55.64,22.31,21.45,89.7-137,9.78C650.53,681.08,507.5,625.6,342.23,714.59,199.15,791.63,228.6,826.76,525.24,790.57Z" transform="translate(104.06 2)" />
	<path id="cl01_p1" data-name="cl01 p1" class="cl01" d="M62.42,526.22c37.23,8.12,203.91,26.41,229.45,18.79,61.41-18.32-121.38-3.72-138.9-3.23-51.31,1.46-77.1-.72-132.15-8.17C-32.59,526.38-38.12,504.28,62.42,526.22Z" transform="translate(104.06 2)" />
	<path id="cl01_p1-2" data-name="cl01 p1" class="cl01" d="M810.51,681.11c26.06-8.75,128.41-25.9,151.12-14.65,24.53,12.15-76.52-7.17-109.69-2.1-14.64,2.23-35.34,3.4-79.49,16.36C734.24,691.93,740.16,704.74,810.51,681.11Z" transform="translate(104.06 2)" />
	<path id="cl01_p1-3" data-name="cl01 p1" class="cl01" d="M662.35,631.78c-81.46,19-151.17-68.81-139-90.48S751.82,614.53,871.47,631s398.32-141,153.23-75.46C780.33,620.89,710.08,620.65,662.35,631.78Z" transform="translate(104.06 2)" />
	<rect class="cls-2" x="104.06" y="2" width="900" height="900" />
</svg>
