<svg xmlns="http://www.w3.org/2000/svg" viewBox="0 0 73.28 84">
	<defs>
		<style>
			.cls-1,.cls-2{fill:none;stroke:#d8003e;}.cls-1,.cls-2,.hD,.hB,.hC{stroke-linecap:round;stroke-linejoin:round;}.cls-1{stroke-width:4px;}.cls-2{stroke-width:0.25px;}.hD{fill:#ff0074;}.hD,.hB,.hC{stroke:#262626;stroke-width:2px;}.hB{fill:#ffbd56;}.hC{fill:#5a5aff;}
		</style>
	</defs>
	<g id="Layer_5" data-name="Layer 5">
		<polygon class="cls-1" points="36.64 2 2 22 2 62 36.64 82 71.28 62 71.28 22 36.64 2" />
		<line class="cls-2" x1="10.66" y1="17" x2="2" y2="32" />
		<line class="cls-2" x1="2" y1="52" x2="10.66" y2="67" />
		<line class="cls-2" x1="71.28" y1="52" x2="62.62" y2="67" />
		<line class="cls-2" x1="27.98" y1="77" x2="45.3" y2="77" />
		<line class="cls-2" x1="2" y1="22" x2="71.28" y2="22" />
		<line class="cls-2" x1="2" y1="62" x2="71.28" y2="62" />
		<line class="cls-2" x1="36.64" y1="2" x2="2" y2="62" />
		<line class="cls-2" x1="71.28" y1="22" x2="36.64" y2="82" />
		<line class="cls-2" x1="71.28" y1="62" x2="36.64" y2="2" />
		<line class="cls-2" x1="36.64" y1="82" x2="2" y2="22" />
		<line class="cls-2" x1="53.96" y1="12" x2="19.32" y2="72" />
		<line class="cls-2" x1="19.32" y1="12" x2="53.96" y2="72" />
		<line class="cls-2" x1="2" y1="42" x2="71.28" y2="42" />
		<line class="cls-2" x1="19.32" y1="12" x2="53.96" y2="12" />
		<line class="cls-2" x1="71.28" y1="42" x2="53.96" y2="12" />
		<line class="cls-2" x1="53.96" y1="72" x2="71.28" y2="42" />
		<line class="cls-2" x1="19.32" y1="72" x2="53.96" y2="72" />
		<line class="cls-2" x1="2" y1="42" x2="19.32" y2="72" />
		<line class="cls-2" x1="19.32" y1="12" x2="2" y2="42" />
		<line class="cls-2" x1="53.96" y1="12" x2="2" y2="42" />
		<line class="cls-2" x1="53.96" y1="72" x2="53.96" y2="12" />
		<line class="cls-2" x1="2" y1="42" x2="53.96" y2="72" />
		<line class="cls-2" x1="19.32" y1="12" x2="19.32" y2="72" />
		<line class="cls-2" x1="71.28" y1="42" x2="19.32" y2="72" />
		<line class="cls-2" x1="19.32" y1="12" x2="71.28" y2="42" />
		<line class="cls-2" x1="71.28" y1="32" x2="2" y2="32" />
		<line class="cls-2" x1="71.28" y1="52" x2="2" y2="52" />
		<line class="cls-2" x1="62.62" y1="17" x2="27.98" y2="77" />
		<line class="cls-2" x1="45.3" y1="7" x2="10.66" y2="67" />
		<line class="cls-2" x1="27.98" y1="7" x2="27.98" y2="77" />
		<line class="cls-2" x1="10.66" y1="17" x2="10.66" y2="67" />
		<line class="cls-2" x1="62.62" y1="17" x2="10.66" y2="17" />
		<line class="cls-2" x1="62.62" y1="67" x2="62.62" y2="17" />
		<line class="cls-2" x1="10.66" y1="67" x2="62.62" y2="67" />
		<line class="cls-2" x1="10.66" y1="17" x2="71.28" y2="52" />
		<line class="cls-2" x1="2" y1="32" x2="62.62" y2="67" />
		<line class="cls-2" x1="2" y1="52" x2="45.3" y2="77" />
		<line class="cls-2" x1="71.28" y1="52" x2="27.98" y2="77" />
		<line class="cls-2" x1="71.28" y1="32" x2="10.66" y2="67" />
		<line class="cls-2" x1="62.62" y1="17" x2="2" y2="52" />
		<line class="cls-2" x1="45.3" y1="7" x2="45.3" y2="77" />
		<line class="cls-2" x1="27.98" y1="7" x2="45.3" y2="7" />
		<line class="cls-2" x1="62.62" y1="67" x2="27.98" y2="7" />
		<line class="cls-2" x1="10.66" y1="17" x2="45.3" y2="77" />
		<line class="cls-2" x1="71.28" y1="32" x2="62.62" y2="17" />
		<line class="cls-2" x1="27.98" y1="7" x2="71.28" y2="32" />
		<line class="cls-2" x1="45.3" y1="7" x2="2" y2="32" />
		<line class="cls-2" x1="40.97" y1="4.5" x2="2" y2="27" />
		<line class="cls-2" x1="32.31" y1="4.5" x2="71.28" y2="27" />
		<line class="cls-2" x1="32.31" y1="79.5" x2="32.31" y2="4.5" />
		<line class="cls-2" x1="40.97" y1="4.5" x2="40.97" y2="79.5" />
		<line class="cls-2" x1="71.28" y1="27" x2="2" y2="27" />
		<line class="cls-2" x1="71.28" y1="37" x2="2" y2="37" />
		<line class="cls-2" x1="2" y1="47" x2="71.28" y2="47" />
		<line class="cls-2" x1="71.28" y1="57" x2="2" y2="57" />
		<line class="cls-2" x1="27.98" y1="77" x2="2" y2="32" />
		<line class="cls-2" x1="49.63" y1="74.5" x2="14.99" y2="14.5" />
		<line class="cls-2" x1="40.97" y1="4.5" x2="6.33" y2="64.5" />
		<line class="cls-2" x1="45.3" y1="7" x2="71.28" y2="52" />
		<line class="cls-2" x1="23.65" y1="74.5" x2="71.28" y2="47" />
		<line class="cls-2" x1="6.33" y1="64.5" x2="71.28" y2="27" />
		<line class="cls-2" x1="71.28" y1="37" x2="14.99" y2="69.5" />
		<line class="cls-2" x1="14.99" y1="14.5" x2="14.99" y2="69.5" />
		<line class="cls-2" x1="2" y1="57" x2="66.95" y2="19.5" />
		<line class="cls-2" x1="66.95" y1="64.5" x2="66.95" y2="19.5" />
		<line class="cls-2" x1="58.29" y1="69.5" x2="58.29" y2="14.5" />
		<line class="cls-2" x1="49.63" y1="74.5" x2="49.63" y2="9.5" />
		<line class="cls-2" x1="2" y1="52" x2="27.98" y2="7" />
		<line class="cls-2" x1="71.28" y1="57" x2="6.33" y2="19.5" />
		<line class="cls-2" x1="23.65" y1="74.5" x2="58.29" y2="14.5" />
		<line class="cls-2" x1="2" y1="47" x2="58.29" y2="14.5" />
		<line class="cls-2" x1="49.63" y1="9.5" x2="2" y2="37" />
		<polyline class="cls-2" points="66.95 19.5 49.63 49.5 32.31 79.5" />
		<line class="cls-2" x1="66.95" y1="64.5" x2="2" y2="27" />
		<line class="cls-2" x1="2" y1="37" x2="58.29" y2="69.5" />
		<line class="cls-2" x1="71.28" y1="47" x2="14.99" y2="14.5" />
		<line class="cls-2" x1="14.99" y1="69.5" x2="49.63" y2="9.5" />
		<line class="cls-2" x1="49.63" y1="74.5" x2="2" y2="47" />
		<line class="cls-2" x1="71.28" y1="57" x2="32.31" y2="79.5" />
		<line class="cls-2" x1="6.33" y1="19.5" x2="6.33" y2="64.5" />
		<line class="cls-2" x1="40.97" y1="79.5" x2="6.33" y2="19.5" />
		<line class="cls-2" x1="71.28" y1="37" x2="23.65" y2="9.5" />
		<line class="cls-2" x1="58.29" y1="69.5" x2="23.65" y2="9.5" />
		<line class="cls-2" x1="23.65" y1="74.5" x2="23.65" y2="9.5" />
		<line class="cls-2" x1="66.95" y1="64.5" x2="32.31" y2="4.5" />
		<line class="cls-2" x1="40.97" y1="79.5" x2="2" y2="57" />
		<line class="cls-2" x1="71.28" y1="32" x2="45.3" y2="77" />
		<line class="cls-2" x1="59.74" y1="22.02" x2="33.75" y2="7" />
		<line class="cls-2" x1="13.55" y1="22" x2="39.53" y2="7" />
		<line class="cls-2" x1="59.74" y1="22.02" x2="33.75" y2="37" />
		<line class="cls-2" x1="39.53" y1="37" x2="13.55" y2="22" />
		<line class="cls-2" x1="42.48" y1="12.04" x2="16.43" y2="27" />
		<line class="cls-2" x1="56.85" y1="27" x2="30.87" y2="12" />
		<line class="cls-2" x1="30.81" y1="72.09" x2="30.87" y2="42" />
		<line class="cls-2" x1="7.75" y1="32.03" x2="7.77" y2="62" />
		<line class="cls-2" x1="30.81" y1="72.09" x2="4.89" y2="57" />
		<line class="cls-2" x1="2" y1="22" x2="71.28" y2="62" />
	</g>
	<g id="A_sq_b" data-name="A sq b">

			<polygon class="hD" points="32.33 9.52 32.33 14.78 19.32 22 14.97 19.54 32.33 9.52" />
			<polygon class="hB" points="15.02 14.53 28 7.02 32.33 9.52 14.97 19.54 15.02 14.53" />
			<polygon class="hC" points="32.33 9.51 28.01 7.02 27.96 12.03 32.32 14.48 32.33 9.51" />
			<polygon class="hD" points="40.97 14.79 41.02 19.5 27.97 26.97 23.68 24.52 40.97 14.79" />
			<polygon class="hB" points="36.64 12.29 23.69 19.77 23.68 24.52 40.97 14.79 36.64 12.29" />
			<polygon class="hC" points="40.95 14.8 36.66 12.29 36.64 17.05 40.94 19.5 40.95 14.8" />
			<polygon class="hD" points="49.67 19.51 49.67 24.55 36.63 32 32.31 29.53 49.67 19.51" />
			<polygon class="hB" points="32.31 24.53 32.31 29.53 49.67 19.51 45.32 17.02 32.31 24.53" />
			<polygon class="hC" points="49.67 19.49 45.32 17 45.32 22 49.64 24.47 49.67 19.49" />
			<polygon class="hD" points="58.32 24.5 58.3 29.53 45.33 37.04 41.02 34.54 58.32 24.5" />
			<polygon class="hB" points="54.01 22.04 41.02 29.54 41.02 34.54 58.32 24.5 54.01 22.04" />
			<polygon class="hC" points="58.32 24.53 54.01 22.06 54.01 27.06 58.32 29.56 58.32 24.53" />
		</g>
	</g>
</svg>
