<svg xmlns="http://www.w3.org/2000/svg" viewBox="0 0 73.28 84"><defs><style>.cls-1{fill:#ff0098;}.cls-1,.cls-2,.cls-3{stroke:#262626;stroke-width:2px;}.cls-1,.cls-2,.cls-3,.cls-4,.cls-5{stroke-linecap:round;stroke-linejoin:round;}.cls-2{fill:#ffbd56;}.cls-3{fill:#5a5aff;}.cls-4,.cls-5{fill:none;stroke:#d8003e;}.cls-4{stroke-width:4px;}.cls-5{stroke-width:0.25px;}</style></defs><g id="hD"><polygon id="hD-2" data-name="hD" class="cls-1" points="62.62 57 58.24 59.5 10.66 32 14.99 29.5 45.23 46.96 62.62 57"/></g><g id="hB"><polyline id="hB-2" data-name="hB" class="cls-2" points="45.23 46.96 45.3 7 10.66 27 10.66 32 14.99 29.5 14.99 34.5 19.32 31.99 19.3 36.99 23.65 34.5 23.67 39.54 27.99 37 27.95 41.98 32.3 39.51 32.3 44.48 36.6 41.98 36.64 47 40.99 44.49 40.95 49.49 45.23 46.96"/></g><g id="hD-3" data-name="hD"><polyline id="hC" class="cls-3" points="45.3 46.96 45.3 7 62.62 17 62.62 57 45.3 46.96"/></g><g id="delete"><polygon class="cls-4" points="36.64 2 2 22 2 62 36.64 82 71.28 62 71.28 22 36.64 2"/><line class="cls-5" x1="10.66" y1="17" x2="2" y2="32"/><line class="cls-5" x1="2" y1="52" x2="10.66" y2="67"/><line class="cls-5" x1="71.28" y1="52" x2="62.62" y2="67"/><line class="cls-5" x1="27.98" y1="77" x2="45.3" y2="77"/><line class="cls-5" x1="2" y1="22" x2="71.28" y2="22"/><line class="cls-5" x1="2" y1="62" x2="71.28" y2="62"/><line class="cls-5" x1="36.64" y1="2" x2="2" y2="62"/><line class="cls-5" x1="71.28" y1="22" x2="36.64" y2="82"/><line class="cls-5" x1="71.28" y1="62" x2="36.64" y2="2"/><line class="cls-5" x1="36.64" y1="82" x2="2" y2="22"/><line class="cls-5" x1="53.96" y1="12" x2="19.32" y2="72"/><line class="cls-5" x1="19.32" y1="12" x2="53.96" y2="72"/><line class="cls-5" x1="2" y1="42" x2="71.28" y2="42"/><line class="cls-5" x1="19.32" y1="12" x2="53.96" y2="12"/><line class="cls-5" x1="71.28" y1="42" x2="53.96" y2="12"/><line class="cls-5" x1="53.96" y1="72" x2="71.28" y2="42"/><line class="cls-5" x1="19.32" y1="72" x2="53.96" y2="72"/><line class="cls-5" x1="2" y1="42" x2="19.32" y2="72"/><line class="cls-5" x1="19.32" y1="12" x2="2" y2="42"/><line class="cls-5" x1="53.96" y1="12" x2="2" y2="42"/><line class="cls-5" x1="53.96" y1="72" x2="53.96" y2="12"/><line class="cls-5" x1="2" y1="42" x2="53.96" y2="72"/><line class="cls-5" x1="19.32" y1="12" x2="19.32" y2="72"/><line class="cls-5" x1="71.28" y1="42" x2="19.32" y2="72"/><line class="cls-5" x1="19.32" y1="12" x2="71.28" y2="42"/><line class="cls-5" x1="71.28" y1="32" x2="2" y2="32"/><line class="cls-5" x1="71.28" y1="52" x2="2" y2="52"/><line class="cls-5" x1="62.62" y1="17" x2="27.98" y2="77"/><line class="cls-5" x1="45.3" y1="7" x2="10.66" y2="67"/><line class="cls-5" x1="27.98" y1="7" x2="27.98" y2="77"/><line class="cls-5" x1="10.66" y1="17" x2="10.66" y2="67"/><line class="cls-5" x1="62.62" y1="17" x2="10.66" y2="17"/><line class="cls-5" x1="62.62" y1="67" x2="62.62" y2="17"/><line class="cls-5" x1="10.66" y1="67" x2="62.62" y2="67"/><line class="cls-5" x1="10.66" y1="17" x2="71.28" y2="52"/><line class="cls-5" x1="2" y1="32" x2="62.62" y2="67"/><line class="cls-5" x1="2" y1="52" x2="45.3" y2="77"/><line class="cls-5" x1="71.28" y1="52" x2="27.98" y2="77"/><line class="cls-5" x1="71.28" y1="32" x2="10.66" y2="67"/><line class="cls-5" x1="62.62" y1="17" x2="2" y2="52"/><line class="cls-5" x1="45.3" y1="7" x2="45.3" y2="77"/><line class="cls-5" x1="27.98" y1="7" x2="45.3" y2="7"/><line class="cls-5" x1="62.62" y1="67" x2="27.98" y2="7"/><line class="cls-5" x1="10.66" y1="17" x2="45.3" y2="77"/><line class="cls-5" x1="71.28" y1="32" x2="62.62" y2="17"/><line class="cls-5" x1="27.98" y1="7" x2="71.28" y2="32"/><line class="cls-5" x1="45.3" y1="7" x2="2" y2="32"/><line class="cls-5" x1="40.97" y1="4.5" x2="2" y2="27"/><line class="cls-5" x1="32.31" y1="4.5" x2="71.28" y2="27"/><line class="cls-5" x1="32.31" y1="79.5" x2="32.31" y2="4.5"/><line class="cls-5" x1="40.97" y1="4.5" x2="40.97" y2="79.5"/><line class="cls-5" x1="71.28" y1="27" x2="2" y2="27"/><line class="cls-5" x1="71.28" y1="37" x2="2" y2="37"/><line class="cls-5" x1="2" y1="47" x2="71.28" y2="47"/><line class="cls-5" x1="71.28" y1="57" x2="2" y2="57"/><line class="cls-5" x1="27.98" y1="77" x2="2" y2="32"/><line class="cls-5" x1="49.63" y1="74.5" x2="14.99" y2="14.5"/><line class="cls-5" x1="40.97" y1="4.5" x2="6.33" y2="64.5"/><line class="cls-5" x1="45.3" y1="7" x2="71.28" y2="52"/><line class="cls-5" x1="23.65" y1="74.5" x2="71.28" y2="47"/><line class="cls-5" x1="6.33" y1="64.5" x2="71.28" y2="27"/><line class="cls-5" x1="71.28" y1="37" x2="14.99" y2="69.5"/><line class="cls-5" x1="14.99" y1="14.5" x2="14.99" y2="69.5"/><line class="cls-5" x1="2" y1="57" x2="66.95" y2="19.5"/><line class="cls-5" x1="66.95" y1="64.5" x2="66.95" y2="19.5"/><line class="cls-5" x1="58.29" y1="69.5" x2="58.29" y2="14.5"/><line class="cls-5" x1="49.63" y1="74.5" x2="49.63" y2="9.5"/><line class="cls-5" x1="2" y1="52" x2="27.98" y2="7"/><line class="cls-5" x1="71.28" y1="57" x2="6.33" y2="19.5"/><line class="cls-5" x1="23.65" y1="74.5" x2="58.29" y2="14.5"/><line class="cls-5" x1="2" y1="47" x2="58.29" y2="14.5"/><line class="cls-5" x1="49.63" y1="9.5" x2="2" y2="37"/><polyline class="cls-5" points="66.95 19.5 49.63 49.5 32.31 79.5"/><line class="cls-5" x1="66.95" y1="64.5" x2="2" y2="27"/><line class="cls-5" x1="2" y1="37" x2="58.29" y2="69.5"/><line class="cls-5" x1="71.28" y1="47" x2="14.99" y2="14.5"/><line class="cls-5" x1="14.99" y1="69.5" x2="49.63" y2="9.5"/><line class="cls-5" x1="49.63" y1="74.5" x2="2" y2="47"/><line class="cls-5" x1="71.28" y1="57" x2="32.31" y2="79.5"/><line class="cls-5" x1="6.33" y1="19.5" x2="6.33" y2="64.5"/><line class="cls-5" x1="40.97" y1="79.5" x2="6.33" y2="19.5"/><line class="cls-5" x1="71.28" y1="37" x2="23.65" y2="9.5"/><line class="cls-5" x1="58.29" y1="69.5" x2="23.65" y2="9.5"/><line class="cls-5" x1="23.65" y1="74.5" x2="23.65" y2="9.5"/><line class="cls-5" x1="66.95" y1="64.5" x2="32.31" y2="4.5"/><line class="cls-5" x1="40.97" y1="79.5" x2="2" y2="57"/><line class="cls-5" x1="71.28" y1="32" x2="45.3" y2="77"/><path class="cls-5" d="M34.23,40" transform="translate(-3.36 2)"/><path class="cls-5" d="M34.17,70.09" transform="translate(-3.36 2)"/><line class="cls-5" x1="7.75" y1="32.03" x2="7.77" y2="62"/><line class="cls-5" x1="2" y1="22" x2="71.28" y2="62"/><line class="cls-5" x1="71.28" y1="22" x2="2" y2="62"/><line class="cls-5" x1="36.64" y1="2" x2="36.64" y2="79.5"/></g></svg>