<svg xmlns="http://www.w3.org/2000/svg" viewBox="0 0 73.28 84">
	<defs>
		<style>
			.cls-1{fill:#ff00b7;}.cls-1,.cls-2,.cls-3{stroke:#262626;stroke-width:2px;}.cls-1,.cls-2,.cls-3,.cls-4,.cls-5{stroke-linecap:round;stroke-linejoin:round;}.cls-2{fill:#5a5aff;}.cls-3{fill:#ffbd56;}.cls-4,.cls-5{fill:none;stroke:#d8003e;}.cls-4{stroke-width:4px;}.cls-5{stroke-width:0.25px;}
		</style>
	</defs>
	<g id="hD">
		<polygon class="hD" points="10.65 57 14.98 59.5 62.63 32.02 58.3 29.52 10.65 57" />
		<polyline class="hC" points="27.91 46.96 27.98 7 62.63 27.02 62.63 32.02 58.3 29.52 58.3 34.52 54.1 31.94 53.98 37.01 49.61 34.48 49.61 39.56 45.34 36.97 45.34 42 40.99 39.51 40.99 44.49 36.65 42.02 36.65 47.02 32.3 44.48 32.34 49.48 27.91 46.96" />
		<polyline class="hB" points="27.91 46.96 10.65 57 10.65 17 27.98 7 27.91 46.96" />

		<polygon class="cls-4" points="36.64 2 2 22 2 62 36.64 82 71.28 62 71.28 22 36.64 2" />
		<line class="cls-5" x1="10.66" y1="17" x2="2" y2="32" />
		<line class="cls-5" x1="2" y1="52" x2="10.66" y2="67" />
		<line class="cls-5" x1="71.28" y1="52" x2="62.62" y2="67" />
		<line class="cls-5" x1="27.98" y1="77" x2="45.3" y2="77" />
		<line class="cls-5" x1="2" y1="22" x2="71.28" y2="22" />
		<line class="cls-5" x1="2" y1="62" x2="71.28" y2="62" />
		<line class="cls-5" x1="36.64" y1="2" x2="2" y2="62" />
		<line class="cls-5" x1="71.28" y1="22" x2="36.64" y2="82" />
		<line class="cls-5" x1="71.28" y1="62" x2="36.64" y2="2" />
		<line class="cls-5" x1="36.64" y1="82" x2="2" y2="22" />
		<line class="cls-5" x1="53.96" y1="12" x2="19.32" y2="72" />
		<line class="cls-5" x1="19.32" y1="12" x2="53.96" y2="72" />
		<line class="cls-5" x1="2" y1="42" x2="71.28" y2="42" />
		<line class="cls-5" x1="19.32" y1="12" x2="53.96" y2="12" />
		<line class="cls-5" x1="71.28" y1="42" x2="53.96" y2="12" />
		<line class="cls-5" x1="53.96" y1="72" x2="71.28" y2="42" />
		<line class="cls-5" x1="19.32" y1="72" x2="53.96" y2="72" />
		<line class="cls-5" x1="2" y1="42" x2="19.32" y2="72" />
		<line class="cls-5" x1="19.32" y1="12" x2="2" y2="42" />
		<line class="cls-5" x1="53.96" y1="12" x2="2" y2="42" />
		<line class="cls-5" x1="53.96" y1="72" x2="53.96" y2="12" />
		<line class="cls-5" x1="2" y1="42" x2="53.96" y2="72" />
		<line class="cls-5" x1="19.32" y1="12" x2="19.32" y2="72" />
		<line class="cls-5" x1="71.28" y1="42" x2="19.32" y2="72" />
		<line class="cls-5" x1="19.32" y1="12" x2="71.28" y2="42" />
		<line class="cls-5" x1="71.28" y1="32" x2="2" y2="32" />
		<line class="cls-5" x1="71.28" y1="52" x2="2" y2="52" />
		<line class="cls-5" x1="62.62" y1="17" x2="27.98" y2="77" />
		<line class="cls-5" x1="45.3" y1="7" x2="10.66" y2="67" />
		<line class="cls-5" x1="27.98" y1="7" x2="27.98" y2="77" />
		<line class="cls-5" x1="10.66" y1="17" x2="10.66" y2="67" />
		<line class="cls-5" x1="62.62" y1="17" x2="10.66" y2="17" />
		<line class="cls-5" x1="62.62" y1="67" x2="62.62" y2="17" />
		<line class="cls-5" x1="10.66" y1="67" x2="62.62" y2="67" />
		<line class="cls-5" x1="10.66" y1="17" x2="71.28" y2="52" />
		<line class="cls-5" x1="2" y1="32" x2="62.62" y2="67" />
		<line class="cls-5" x1="2" y1="52" x2="45.3" y2="77" />
		<line class="cls-5" x1="71.28" y1="52" x2="27.98" y2="77" />
		<line class="cls-5" x1="71.28" y1="32" x2="10.66" y2="67" />
		<line class="cls-5" x1="62.62" y1="17" x2="2" y2="52" />
		<line class="cls-5" x1="45.3" y1="7" x2="45.3" y2="77" />
		<line class="cls-5" x1="27.98" y1="7" x2="45.3" y2="7" />
		<line class="cls-5" x1="27.98" y1="7" x2="62.62" y2="67" />
		<line class="cls-5" x1="10.66" y1="17" x2="45.3" y2="77" />
		<line class="cls-5" x1="71.28" y1="32" x2="62.62" y2="17" />
		<line class="cls-5" x1="27.98" y1="7" x2="71.28" y2="32" />
		<line class="cls-5" x1="45.3" y1="7" x2="2" y2="32" />
		<line class="cls-5" x1="40.97" y1="4.5" x2="2" y2="27" />
		<line class="cls-5" x1="32.31" y1="4.5" x2="71.28" y2="27" />
		<line class="cls-5" x1="32.31" y1="79.5" x2="32.31" y2="4.5" />
		<line class="cls-5" x1="40.97" y1="4.5" x2="40.97" y2="79.5" />
		<line class="cls-5" x1="71.28" y1="27" x2="2" y2="27" />
		<line class="cls-5" x1="71.28" y1="37" x2="2" y2="37" />
		<line class="cls-5" x1="2" y1="47" x2="71.28" y2="47" />
		<line class="cls-5" x1="71.28" y1="57" x2="2" y2="57" />
		<line class="cls-5" x1="27.98" y1="77" x2="2" y2="32" />
		<line class="cls-5" x1="49.63" y1="74.5" x2="14.99" y2="14.5" />
		<line class="cls-5" x1="40.97" y1="4.5" x2="6.33" y2="64.5" />
		<line class="cls-5" x1="45.3" y1="7" x2="71.28" y2="52" />
		<line class="cls-5" x1="23.65" y1="74.5" x2="71.28" y2="47" />
		<line class="cls-5" x1="6.33" y1="64.5" x2="71.28" y2="27" />
		<line class="cls-5" x1="71.28" y1="37" x2="14.99" y2="69.5" />
		<line class="cls-5" x1="14.99" y1="14.5" x2="14.99" y2="69.5" />
		<line class="cls-5" x1="2" y1="57" x2="66.95" y2="19.5" />
		<line class="cls-5" x1="66.95" y1="64.5" x2="66.95" y2="19.5" />
		<line class="cls-5" x1="58.29" y1="69.5" x2="58.29" y2="14.5" />
		<line class="cls-5" x1="49.63" y1="74.5" x2="49.63" y2="9.5" />
		<line class="cls-5" x1="2" y1="52" x2="27.98" y2="7" />
		<line class="cls-5" x1="71.28" y1="57" x2="6.33" y2="19.5" />
		<line class="cls-5" x1="23.65" y1="74.5" x2="58.29" y2="14.5" />
		<line class="cls-5" x1="2" y1="47" x2="58.29" y2="14.5" />
		<line class="cls-5" x1="49.63" y1="9.5" x2="2" y2="37" />
		<polyline class="cls-5" points="66.95 19.5 49.63 49.5 32.31 79.5" />
		<line class="cls-5" x1="66.95" y1="64.5" x2="2" y2="27" />
		<line class="cls-5" x1="2" y1="37" x2="58.29" y2="69.5" />
		<line class="cls-5" x1="71.28" y1="47" x2="14.99" y2="14.5" />
		<line class="cls-5" x1="14.99" y1="69.5" x2="49.63" y2="9.5" />
		<line class="cls-5" x1="49.63" y1="74.5" x2="2" y2="47" />
		<line class="cls-5" x1="71.28" y1="57" x2="32.31" y2="79.5" />
		<line class="cls-5" x1="6.33" y1="19.5" x2="6.33" y2="64.5" />
		<line class="cls-5" x1="40.97" y1="79.5" x2="6.33" y2="19.5" />
		<line class="cls-5" x1="71.28" y1="37" x2="23.65" y2="9.5" />
		<line class="cls-5" x1="58.29" y1="69.5" x2="23.65" y2="9.5" />
		<line class="cls-5" x1="23.65" y1="74.5" x2="23.65" y2="9.5" />
		<line class="cls-5" x1="66.95" y1="64.5" x2="32.31" y2="4.5" />
		<line class="cls-5" x1="40.97" y1="79.5" x2="2" y2="57" />
		<line class="cls-5" x1="45.3" y1="77" x2="71.28" y2="32" />
		<path class="cls-5" d="M34.23,40" transform="translate(-3.36 2)" />
		<path class="cls-5" d="M34.17,70.09" transform="translate(-3.36 2)" />
		<line class="cls-5" x1="7.75" y1="32.03" x2="7.77" y2="62" />
		<line class="cls-5" x1="2" y1="22" x2="71.28" y2="62" />
		<line class="cls-5" x1="71.28" y1="22" x2="2" y2="62" />
		<line class="cls-5" x1="36.64" y1="2" x2="36.64" y2="79.5" />
	</g>
</svg>
