<svg xmlns="http://www.w3.org/2000/svg" viewBox="0 0 73.28 84"><defs><style>.cls-1,.cls-2{fill:none;stroke:#d8003e;}.cls-1,.cls-2,.cls-3,.cls-4,.cls-5{stroke-linecap:round;stroke-linejoin:round;}.cls-1{stroke-width:4px;}.cls-2{stroke-width:0.25px;}.cls-3{fill:#ffbd56;}.cls-3,.cls-4,.cls-5{stroke:#262626;stroke-width:2px;}.cls-4{fill:#5a5aff;}.cls-5{fill:#ff0074;}</style></defs><g id="Layer_5" data-name="Layer 5"><polygon class="cls-1" points="36.64 2 2 22 2 62 36.64 82 71.28 62 71.28 22 36.64 2"/><line class="cls-2" x1="10.66" y1="17" x2="2" y2="32"/><line class="cls-2" x1="2" y1="52" x2="10.66" y2="67"/><line class="cls-2" x1="71.28" y1="52" x2="62.62" y2="67"/><line class="cls-2" x1="27.98" y1="77" x2="45.3" y2="77"/><line class="cls-2" x1="2" y1="22" x2="71.28" y2="22"/><line class="cls-2" x1="2" y1="62" x2="71.28" y2="62"/><line class="cls-2" x1="36.64" y1="2" x2="2" y2="62"/><line class="cls-2" x1="71.28" y1="22" x2="36.64" y2="82"/><line class="cls-2" x1="71.28" y1="62" x2="36.64" y2="2"/><line class="cls-2" x1="36.64" y1="82" x2="2" y2="22"/><line class="cls-2" x1="53.96" y1="12" x2="19.32" y2="72"/><line class="cls-2" x1="19.32" y1="12" x2="53.96" y2="72"/><line class="cls-2" x1="2" y1="42" x2="71.28" y2="42"/><line class="cls-2" x1="19.32" y1="12" x2="53.96" y2="12"/><line class="cls-2" x1="71.28" y1="42" x2="53.96" y2="12"/><line class="cls-2" x1="53.96" y1="72" x2="71.28" y2="42"/><line class="cls-2" x1="19.32" y1="72" x2="53.96" y2="72"/><line class="cls-2" x1="2" y1="42" x2="19.32" y2="72"/><line class="cls-2" x1="19.32" y1="12" x2="2" y2="42"/><line class="cls-2" x1="53.96" y1="12" x2="2" y2="42"/><line class="cls-2" x1="53.96" y1="72" x2="53.96" y2="12"/><line class="cls-2" x1="2" y1="42" x2="53.96" y2="72"/><line class="cls-2" x1="19.32" y1="12" x2="19.32" y2="72"/><line class="cls-2" x1="71.28" y1="42" x2="19.32" y2="72"/><line class="cls-2" x1="19.32" y1="12" x2="71.28" y2="42"/><line class="cls-2" x1="71.28" y1="32" x2="2" y2="32"/><line class="cls-2" x1="71.28" y1="52" x2="2" y2="52"/><line class="cls-2" x1="62.62" y1="17" x2="27.98" y2="77"/><line class="cls-2" x1="45.3" y1="7" x2="10.66" y2="67"/><line class="cls-2" x1="27.98" y1="7" x2="27.98" y2="77"/><line class="cls-2" x1="10.66" y1="17" x2="10.66" y2="67"/><line class="cls-2" x1="62.62" y1="17" x2="10.66" y2="17"/><line class="cls-2" x1="62.62" y1="67" x2="62.62" y2="17"/><line class="cls-2" x1="10.66" y1="67" x2="62.62" y2="67"/><line class="cls-2" x1="10.66" y1="17" x2="71.28" y2="52"/><line class="cls-2" x1="2" y1="32" x2="62.62" y2="67"/><line class="cls-2" x1="2" y1="52" x2="45.3" y2="77"/><line class="cls-2" x1="71.28" y1="52" x2="27.98" y2="77"/><line class="cls-2" x1="71.28" y1="32" x2="10.66" y2="67"/><line class="cls-2" x1="62.62" y1="17" x2="2" y2="52"/><line class="cls-2" x1="45.3" y1="7" x2="45.3" y2="77"/><line class="cls-2" x1="27.98" y1="7" x2="45.3" y2="7"/><line class="cls-2" x1="62.62" y1="67" x2="27.98" y2="7"/><line class="cls-2" x1="10.66" y1="17" x2="45.3" y2="77"/><line class="cls-2" x1="71.28" y1="32" x2="62.62" y2="17"/><line class="cls-2" x1="27.98" y1="7" x2="71.28" y2="32"/><line class="cls-2" x1="45.3" y1="7" x2="2" y2="32"/><line class="cls-2" x1="40.97" y1="4.5" x2="2" y2="27"/><line class="cls-2" x1="32.31" y1="4.5" x2="71.28" y2="27"/><line class="cls-2" x1="32.31" y1="79.5" x2="32.31" y2="4.5"/><line class="cls-2" x1="40.97" y1="4.5" x2="40.97" y2="79.5"/><line class="cls-2" x1="71.28" y1="27" x2="2" y2="27"/><line class="cls-2" x1="71.28" y1="37" x2="2" y2="37"/><line class="cls-2" x1="2" y1="47" x2="71.28" y2="47"/><line class="cls-2" x1="71.28" y1="57" x2="2" y2="57"/><line class="cls-2" x1="27.98" y1="77" x2="2" y2="32"/><line class="cls-2" x1="49.63" y1="74.5" x2="14.99" y2="14.5"/><line class="cls-2" x1="40.97" y1="4.5" x2="6.33" y2="64.5"/><line class="cls-2" x1="45.3" y1="7" x2="71.28" y2="52"/><line class="cls-2" x1="23.65" y1="74.5" x2="71.28" y2="47"/><line class="cls-2" x1="6.33" y1="64.5" x2="71.28" y2="27"/><line class="cls-2" x1="71.28" y1="37" x2="14.99" y2="69.5"/><line class="cls-2" x1="14.99" y1="14.5" x2="14.99" y2="69.5"/><line class="cls-2" x1="2" y1="57" x2="66.95" y2="19.5"/><line class="cls-2" x1="66.95" y1="64.5" x2="66.95" y2="19.5"/><line class="cls-2" x1="58.29" y1="69.5" x2="58.29" y2="14.5"/><line class="cls-2" x1="49.63" y1="74.5" x2="49.63" y2="9.5"/><line class="cls-2" x1="2" y1="52" x2="27.98" y2="7"/><line class="cls-2" x1="71.28" y1="57" x2="6.33" y2="19.5"/><line class="cls-2" x1="23.65" y1="74.5" x2="58.29" y2="14.5"/><line class="cls-2" x1="2" y1="47" x2="58.29" y2="14.5"/><line class="cls-2" x1="49.63" y1="9.5" x2="2" y2="37"/><polyline class="cls-2" points="66.95 19.5 49.63 49.5 32.31 79.5"/><line class="cls-2" x1="66.95" y1="64.5" x2="2" y2="27"/><line class="cls-2" x1="2" y1="37" x2="58.29" y2="69.5"/><line class="cls-2" x1="71.28" y1="47" x2="14.99" y2="14.5"/><line class="cls-2" x1="14.99" y1="69.5" x2="49.63" y2="9.5"/><line class="cls-2" x1="49.63" y1="74.5" x2="2" y2="47"/><line class="cls-2" x1="71.28" y1="57" x2="32.31" y2="79.5"/><line class="cls-2" x1="6.33" y1="19.5" x2="6.33" y2="64.5"/><line class="cls-2" x1="40.97" y1="79.5" x2="6.33" y2="19.5"/><line class="cls-2" x1="71.28" y1="37" x2="23.65" y2="9.5"/><line class="cls-2" x1="58.29" y1="69.5" x2="23.65" y2="9.5"/><line class="cls-2" x1="23.65" y1="74.5" x2="23.65" y2="9.5"/><line class="cls-2" x1="66.95" y1="64.5" x2="32.31" y2="4.5"/><line class="cls-2" x1="40.97" y1="79.5" x2="2" y2="57"/><line class="cls-2" x1="71.28" y1="32" x2="45.3" y2="77"/><line class="cls-2" x1="59.74" y1="22.02" x2="33.75" y2="7"/><line class="cls-2" x1="13.55" y1="22" x2="39.53" y2="7"/><line class="cls-2" x1="59.74" y1="22.02" x2="33.75" y2="37"/><line class="cls-2" x1="39.53" y1="37" x2="13.55" y2="22"/><line class="cls-2" x1="42.48" y1="12.04" x2="16.43" y2="27"/><line class="cls-2" x1="56.85" y1="27" x2="30.87" y2="12"/><line class="cls-2" x1="30.81" y1="72.09" x2="30.87" y2="42"/><line class="cls-2" x1="7.75" y1="32.03" x2="7.77" y2="62"/><line class="cls-2" x1="30.81" y1="72.09" x2="4.89" y2="57"/><line class="cls-2" x1="2" y1="22" x2="71.28" y2="62"/></g><g id="C_sq_b" data-name="C sq b"><g id="B4"><polygon id="hB" class="cls-3" points="66.97 54.52 67 29.54 62.64 32.02 62.64 52.02 66.97 54.52"/><polygon id="hC" class="cls-4" points="71.3 32.02 71.3 52.02 66.97 54.52 67 29.54 71.3 32.02"/><polygon id="hD" class="cls-5" points="71.3 52.03 67 49.55 62.64 52.03 66.97 54.53 71.3 52.03"/></g><g id="B3"><polygon id="hB-2" data-name="hB" class="cls-3" points="58.31 34.52 58.32 59.53 54.01 57 54.01 37.04 58.31 34.52"/><polygon id="hC-2" data-name="hC" class="cls-4" points="62.64 37.02 62.64 57.02 58.32 59.53 58.31 34.52 62.64 37.02"/><polygon id="hD-2" data-name="hD" class="cls-5" points="62.64 57 58.31 54.5 54.01 57.02 58.32 59.5 62.64 57"/></g><g id="B2"><polygon id="hB-3" data-name="hB" class="cls-3" points="49.64 39.52 49.67 64.51 45.32 62.02 45.33 42.03 49.64 39.52"/><polygon id="hC-3" data-name="hC" class="cls-4" points="53.99 42.02 53.99 62.04 49.67 64.51 49.64 39.52 53.99 42.02"/><polygon id="hD-3" data-name="hD" class="cls-5" points="54 62.02 49.65 59.52 45.34 62.03 49.66 64.52 54 62.02"/></g><g id="B1"><polygon id="hB-4" data-name="hB" class="cls-3" points="41.02 44.52 40.97 69.48 36.63 67 36.63 47 41.02 44.52"/><polygon id="hC-4" data-name="hC" class="cls-4" points="45.33 47.04 45.33 67 40.97 69.48 41.02 44.52 45.33 47.04"/><polygon id="hD-4" data-name="hD" class="cls-5" points="45.32 67.01 41.01 64.49 36.62 66.97 40.96 69.51 45.32 67.01"/></g></g></svg>