<svg xmlns="http://www.w3.org/2000/svg" viewBox="0 0 73.28 84">
	<defs>
		<style>
			.cls-1,.cls-2{fill:none;stroke:#d8003e;}.cls-1,.cls-2,.cls-3,.hC,.hD{stroke-linecap:round;stroke-linejoin:round;}.cls-1{stroke-width:4px;}.cls-2{stroke-width:0.25px;}.cls-3{fill:#ffbd56;}.cls-3,.hC,.hD{stroke:#262626;stroke-width:2px;}.hC{fill:#5a5aff;}.hD{fill:#ff005c;}
		</style>
	</defs>
	<g id="delete">
		<polygon class="cls-1" points="36.64 2 2 22 2 62 36.64 82 71.28 62 71.28 22 36.64 2" />
		<line class="cls-2" x1="10.66" y1="17" x2="2" y2="32" />
		<line class="cls-2" x1="2" y1="52" x2="10.66" y2="67" />
		<line class="cls-2" x1="71.28" y1="52" x2="62.62" y2="67" />
		<line class="cls-2" x1="27.98" y1="77" x2="45.3" y2="77" />
		<line class="cls-2" x1="2" y1="22" x2="71.28" y2="22" />
		<line class="cls-2" x1="2" y1="62" x2="71.28" y2="62" />
		<line class="cls-2" x1="36.64" y1="2" x2="2" y2="62" />
		<line class="cls-2" x1="71.28" y1="22" x2="36.64" y2="82" />
		<line class="cls-2" x1="71.28" y1="62" x2="36.64" y2="2" />
		<line class="cls-2" x1="36.64" y1="82" x2="2" y2="22" />
		<line class="cls-2" x1="53.96" y1="12" x2="19.32" y2="72" />
		<line class="cls-2" x1="19.32" y1="12" x2="53.96" y2="72" />
		<line class="cls-2" x1="2" y1="42" x2="71.28" y2="42" />
		<line class="cls-2" x1="19.32" y1="12" x2="53.96" y2="12" />
		<line class="cls-2" x1="71.28" y1="42" x2="53.96" y2="12" />
		<line class="cls-2" x1="53.96" y1="72" x2="71.28" y2="42" />
		<line class="cls-2" x1="19.32" y1="72" x2="53.96" y2="72" />
		<line class="cls-2" x1="2" y1="42" x2="19.32" y2="72" />
		<line class="cls-2" x1="19.32" y1="12" x2="2" y2="42" />
		<line class="cls-2" x1="53.96" y1="12" x2="2" y2="42" />
		<line class="cls-2" x1="53.96" y1="72" x2="53.96" y2="12" />
		<line class="cls-2" x1="2" y1="42" x2="53.96" y2="72" />
		<line class="cls-2" x1="19.32" y1="12" x2="19.32" y2="72" />
		<line class="cls-2" x1="71.28" y1="42" x2="19.32" y2="72" />
		<line class="cls-2" x1="19.32" y1="12" x2="71.28" y2="42" />
		<line class="cls-2" x1="71.28" y1="32" x2="2" y2="32" />
		<line class="cls-2" x1="71.28" y1="52" x2="2" y2="52" />
		<line class="cls-2" x1="62.62" y1="17" x2="27.98" y2="77" />
		<line class="cls-2" x1="45.3" y1="7" x2="10.66" y2="67" />
		<line class="cls-2" x1="27.98" y1="7" x2="27.98" y2="77" />
		<line class="cls-2" x1="10.66" y1="17" x2="10.66" y2="67" />
		<line class="cls-2" x1="62.62" y1="17" x2="10.66" y2="17" />
		<line class="cls-2" x1="62.62" y1="67" x2="62.62" y2="17" />
		<line class="cls-2" x1="10.66" y1="67" x2="62.62" y2="67" />
		<line class="cls-2" x1="10.66" y1="17" x2="71.28" y2="52" />
		<line class="cls-2" x1="2" y1="32" x2="62.62" y2="67" />
		<line class="cls-2" x1="2" y1="52" x2="45.3" y2="77" />
		<line class="cls-2" x1="71.28" y1="52" x2="27.98" y2="77" />
		<line class="cls-2" x1="71.28" y1="32" x2="10.66" y2="67" />
		<line class="cls-2" x1="62.62" y1="17" x2="2" y2="52" />
		<line class="cls-2" x1="45.3" y1="7" x2="45.3" y2="77" />
		<line class="cls-2" x1="27.98" y1="7" x2="45.3" y2="7" />
		<line class="cls-2" x1="62.62" y1="67" x2="27.98" y2="7" />
		<line class="cls-2" x1="10.66" y1="17" x2="45.3" y2="77" />
		<line class="cls-2" x1="71.28" y1="32" x2="62.62" y2="17" />
		<line class="cls-2" x1="27.98" y1="7" x2="71.28" y2="32" />
		<line class="cls-2" x1="45.3" y1="7" x2="2" y2="32" />
		<line class="cls-2" x1="40.97" y1="4.5" x2="2" y2="27" />
		<line class="cls-2" x1="32.31" y1="4.5" x2="71.28" y2="27" />
		<line class="cls-2" x1="32.31" y1="79.5" x2="32.31" y2="4.5" />
		<line class="cls-2" x1="40.97" y1="4.5" x2="40.97" y2="79.5" />
		<line class="cls-2" x1="71.28" y1="27" x2="2" y2="27" />
		<line class="cls-2" x1="71.28" y1="37" x2="2" y2="37" />
		<line class="cls-2" x1="2" y1="47" x2="71.28" y2="47" />
		<line class="cls-2" x1="71.28" y1="57" x2="2" y2="57" />
		<line class="cls-2" x1="27.98" y1="77" x2="2" y2="32" />
		<line class="cls-2" x1="49.63" y1="74.5" x2="14.99" y2="14.5" />
		<line class="cls-2" x1="40.97" y1="4.5" x2="6.33" y2="64.5" />
		<line class="cls-2" x1="45.3" y1="7" x2="71.28" y2="52" />
		<line class="cls-2" x1="23.65" y1="74.5" x2="71.28" y2="47" />
		<line class="cls-2" x1="6.33" y1="64.5" x2="71.28" y2="27" />
		<line class="cls-2" x1="71.28" y1="37" x2="14.99" y2="69.5" />
		<line class="cls-2" x1="14.99" y1="14.5" x2="14.99" y2="69.5" />
		<line class="cls-2" x1="2" y1="57" x2="66.95" y2="19.5" />
		<line class="cls-2" x1="66.95" y1="64.5" x2="66.95" y2="19.5" />
		<line class="cls-2" x1="58.29" y1="69.5" x2="58.29" y2="14.5" />
		<line class="cls-2" x1="49.63" y1="74.5" x2="49.63" y2="9.5" />
		<line class="cls-2" x1="2" y1="52" x2="27.98" y2="7" />
		<line class="cls-2" x1="71.28" y1="57" x2="6.33" y2="19.5" />
		<line class="cls-2" x1="23.65" y1="74.5" x2="58.29" y2="14.5" />
		<line class="cls-2" x1="2" y1="47" x2="58.29" y2="14.5" />
		<line class="cls-2" x1="49.63" y1="9.5" x2="2" y2="37" />
		<polyline class="cls-2" points="66.95 19.5 49.63 49.5 32.31 79.5" />
		<line class="cls-2" x1="66.95" y1="64.5" x2="2" y2="27" />
		<line class="cls-2" x1="2" y1="37" x2="58.29" y2="69.5" />
		<line class="cls-2" x1="71.28" y1="47" x2="14.99" y2="14.5" />
		<line class="cls-2" x1="14.99" y1="69.5" x2="49.63" y2="9.5" />
		<line class="cls-2" x1="49.63" y1="74.5" x2="2" y2="47" />
		<line class="cls-2" x1="71.28" y1="57" x2="32.31" y2="79.5" />
		<line class="cls-2" x1="6.33" y1="19.5" x2="6.33" y2="64.5" />
		<line class="cls-2" x1="40.97" y1="79.5" x2="6.33" y2="19.5" />
		<line class="cls-2" x1="71.28" y1="37" x2="23.65" y2="9.5" />
		<line class="cls-2" x1="58.29" y1="69.5" x2="23.65" y2="9.5" />
		<line class="cls-2" x1="23.65" y1="74.5" x2="23.65" y2="9.5" />
		<line class="cls-2" x1="66.95" y1="64.5" x2="32.31" y2="4.5" />
		<line class="cls-2" x1="40.97" y1="79.5" x2="2" y2="57" />
		<line class="cls-2" x1="71.28" y1="32" x2="45.3" y2="77" />
		<path class="cls-2" d="M34.23,40" transform="translate(-3.36 2)" />
		<path class="cls-2" d="M34.17,70.09" transform="translate(-3.36 2)" />
		<line class="cls-2" x1="7.75" y1="32.03" x2="7.77" y2="62" />
		<line class="cls-2" x1="2" y1="22" x2="71.28" y2="62" />
		<line class="cls-2" x1="71.28" y1="22" x2="2" y2="62" />
		<line class="cls-2" x1="36.64" y1="2" x2="36.64" y2="79.5" />
	</g>
	<g id="hB">
		    <polyline class="hB" points="10.64 67 10.64 26.97 45.28 7 45.3 11.91 14.99 64.53 10.64 67" />
			<polygon class="hC" points="32.29 69.5 32.29 74.5 14.97 64.5 14.99 59.51 32.29 69.5" />
			<polygon class="hC" points="36.62 67 19.28 57 19.35 52.01 36.62 62 36.62 67" />
			<polygon class="hC" points="40.98 59.51 23.6 49.48 23.6 44.5 40.98 54.46 40.98 59.51" />
			<polygon class="hC" points="45.28 52 27.96 41.98 28.04 37 45.28 47 45.28 52" />
			<polygon class="hC" points="49.63 44.49 32.31 34.51 32.29 29.51 49.63 39.49 49.63 44.49" />
			<polygon class="hC" points="53.97 36.98 36.64 26.99 36.64 21.99 53.97 31.95 53.97 36.98" />
			<polygon class="hC" points="58.25 29.49 40.93 19.47 40.99 14.5 58.25 24.49 58.25 29.49" />
			<polygon class="hC" points="62.62 21.99 45.3 12.01 45.28 7 62.6 17 62.62 21.99" />
	
			<polygon class="hD" points="10.64 67 27.96 77 32.29 74.5 14.97 64.5 10.64 67" />
			<polygon class="hD" points="32.29 69.5 14.99 59.51 19.28 57 36.62 67 32.29 69.5" />
			<polygon class="hD" points="36.62 62 19.35 52.01 23.6 49.48 40.98 59.51 36.62 62" />
			<polygon class="hD" points="23.6 44.5 40.98 54.46 45.28 52 27.96 41.98 23.6 44.5" />
			<polygon class="hD" points="28.04 37 45.28 47 49.63 44.49 32.31 34.51 28.04 37" />
			<polygon class="hD" points="49.63 39.49 32.29 29.51 36.64 26.99 53.97 36.98 49.63 39.49" />
			<polygon class="hD" points="53.97 31.95 36.64 21.99 40.93 19.47 58.25 29.49 53.97 31.95" />
			<polygon class="hD" points="58.25 24.49 40.99 14.5 45.3 12.01 62.62 21.99 58.25 24.49" />
		</g>
	</g>
</svg>
