<svg id="cloud_09_ns" data-name="cloud 09 ns" xmlns="http://www.w3.org/2000/svg" viewBox="0 0 2410.25 904">
	<defs>
		<style>
			.cls-1{fill:#4b6066;stroke:#ffc269;stroke-miterlimit:10;stroke-width:4px;}.cls-2{fill:#ac50e2;}.cls-3{fill:#a557d3;}.cls-4{fill:#c343ff;}
		</style>
	</defs>
	<rect class="cls-1" x="903.32" y="2" width="900" height="900" />
	<path id="cl06_p4" data-name="cl06 p4" class="cl06" d="M1415,569.33c-46.16-20.6-52-54.89-132.52-36.7-54.59,12.34-127.5,62.37-182.38,41-24.31-9.44-35-32.34-60.91-32.43-73.18-.27-157.54,28.54-230,38.86-32.42,4.62-58.53,8.45-77,11.19-82.72,7.77-83.9-38.67-153.78-40.83-33.49-1-66.85,2.23-99.93,7.23-31.59,4.78-66.37,17.15-98.39,13.16-26-3.24-48.5-18.32-74.08-22.92-27.88-5-59-2.54-86.85,1.18-55.46,7.42-123,37.28-177.88,16C17,555.62,6.3,532.73-19.65,532.63c-73.18-.27-157.55,28.54-230,38.87-32.43,4.62-58.53,8.44-77,11.18-82.72,7.77-83.9-38.67-153.77-40.82-85-2.62-101.94,16.35-187.4,23.64-69.09,5.9-161.64,14-161.64,14s161.65,7.65,268.81-2.64c110.31-10.6,44.74,40.26,127,40.08,54.87-.12,106.59-22.23,160.28-33.61,35.87-7.6,74.16-8,106.5,12.54,11.36,7.23,21.77,16.91,33.62,22.74C-76.76,646.35-14.89,608,41.29,595.35c61.25-13.81,124.82-13.33,184.8,7.21,43.27,14.82,85.1,4.68,128.32-3.79,116.14-22.76,151-33,194.44-11.84,29.4,14.34,39.69,38.66,76.32,38.58,54.87-.12,106.59-22.23,160.28-33.61,35.87-7.61,74.16-8,106.5,12.54,11.36,7.23,21.77,16.91,33.62,22.74C982.06,655,1043.93,616.63,1100.11,604c61.26-13.81,124.82-13.34,184.8,7.2,60.95,20.88,163,5,222-26.16C1454,585,1429.75,575.91,1415,569.33Z" transform="translate(903.32 2)" />
	<path id="cl06_p3" data-name="cl06 p3" class="cl06" d="M1162.57,363.05c-51.86.07-63-34.81-124.18-34.47-55.35.32-214.64,42.84-258.23,41.51-53.82-1.64-3.64-44.16-107.82-41.93-88.18,1.89-156.09,30.33-242.65,33.18-51.71,1.71-40.06-29.46-100.84-32.72-55.27-3-109.75,9.15-164,20.7-31.64,6.73-135.2,15.7-185,18.5C-76,371-36,331.88-109.11,330.5c-88.18-1.67-160.79,34.34-245.49,38.79-75.5,4-137.29,10.26-137.29,10.26s115.42,10.24,229.75-6.1,64.87,24.56,154.83,24.38C-46,397.7,65.1,380.8,126,372c60.14-8.71,119.09,19.16,179.34,24.75,47.73,4.43,161.43-21.89,171.23-23.29,114.33-16.34,113.71,21.93,203.67,21.75,61.33-.13,123.56-14.4,184.43-23.21,60.14-8.71,119.1,19.16,179.35,24.75,74.16,6.88,147.59-20.07,218.79-46.69C1242.62,351.13,1227.76,363,1162.57,363.05Z" transform="translate(903.32 2)" />
	<path id="cl05_p3" data-name="cl05 p3" class="cl05" d="M1127.52,515.65c-54.13-2-153.53,16.65-205,28.06-37.87,8.39-75.87,17.83-114.65,18.57-27,.51-54.65-3.42-79.41-14.48-25.95-11.58-58.71-24.23-88.73-25.16-40.12-1.24-79.34,21.22-118.77,27.93-41.86,7.12-70.79,5.66-111.81-14.32-23.24-11.32-38.17-21.87-64.8-23.21-50.56-2.53-100.36,9.16-150,20.71A788.78,788.78,0,0,1,107,549c-26,3-56,9.59-81.8,3.28C11,548.77-7.78,512.47-56.21,514.92-136.77,519-167,533.23-245,548.45-313,561.74-406.26,564-406.26,564s105.55,10.24,210.11-6.1c36.46-5.7,71.09-5.35,106.19,6.36,37.41,12.49,73.71,18.21,113.45,14.27,58.58-5.82,116-26.06,175.41-21.67,42.27,3.12,82,20.07,123.89,24.33,30.52,3.09,63.26-2.61,93.15-8.78,47.55-9.8,96.35-11.52,144.88-13.2,24.38-.85,48.56,4.82,71.07,13.91,21.7,8.75,41.53,20.15,65.18,23.2,26.21,3.38,52.77-2,78.16-9.3,41.78-12,84.51-29.12,128.69-28.34,24.41.44,48,8.77,70.32,17.91,28.13,11.5,56.34,24.8,86.66,26.87,16.65,1.13,33.33-1.2,49.8-3.92,34-5.61,67.63-12.93,101.07-21.1,16.22-4,32.38-8.18,48.52-12.5,15.76-4.21,33.76-12.3,50-13.62C1180.22,566.81,1195,518.1,1127.52,515.65Z" transform="translate(903.32 2)" />
	<path id="cl06_p2" data-name="cl06 p2" class="cl06" d="M843.07,409.34c-67.48-2.19-117.79,33-183.94,46.14-24.91,4.95-91.62-46.24-168-44.55C443.41,412,236.42,471.82,182.9,455c-21.53-6.74-41.94-21.67-64.54-22.23-23.19-.57-47.19,1.86-70.34,4.43C-3,442.91-53.58,454.58-104.64,460c-30.63,3.23-69.18,10.8-97.38-6.33-21.81-13.24-39-30.4-63.76-31.17-85-2.62-118,21.62-196,36.84-68.06,13.28-108.33,21.77-108.33,21.77s31.41-4.79,118.63-8.23c111.88-4.4,96.25,28.4,178.53,28.22,72-.16,141.61-29.79,213.3-34.49C-2,462.78,51,488.3,108.08,488.53c45.5.19,89.3-14.43,134.16-21.62C291,459.09,344,456.22,392.36,468c33.48,8.15,62.46,22,97.41,22,34.14-.08,68.27-13.17,102.3-18.15L713.63,454c18.35-2.68,37.15-5.24,55.49-1.86,21.89,4,29.92,15,44.63,33.08,11.45,14.09,29.47,14.21,44.5,14.06,68.44-.68,211-77.13,215.18-79.36-1.33.7-17.43,8.31-97.89,18.13C870.25,450.93,912.93,411.61,843.07,409.34Z" transform="translate(903.32 2)" />
	<path id="cl05_p2" data-name="cl05 p2" class="cl05" d="M1251.41,322.13c-27-8.35-38.22-32.37-66.6-32.44-119-.29-172.27,28.54-251.54,38.87-35.46,4.62-64,8.45-84.16,11.18-90.46,7.77-67.49-70.24-150.85-57.34-103.34,16-133.16,32.29-182.94,49.86C434.5,360.79,422.81,281,370.21,282.4c-80,2.2-148.85,27.85-228.12,38.18-35.45,4.62-64,8.44-84.16,11.18-90.46,7.77-15.35-36.51-91.75-38.67-92.91-2.62-166.8,24-252.06,39.17C-360.3,345.55-441,363.05-441,363.05s116.53-16.83,233.88-25.4c98-7.15,25.81,34.07,115.78,33.88,60-.12,148.85-27.78,207.55-39.16,39.23-7.6,81.1-8,116.46,12.54,12.43,7.23,23.81,16.91,36.77,22.74,45.07,20.27,114.35,2.36,160.27-6.31C498.29,348.4,563,330.51,634,333.51c43.21,1.83,50.22,40.55,98.11,40.46,60-.13,116.55-22.23,175.25-33.62,39.22-7.6,81.1-8,116.46,12.55,12.42,7.22,23.8,16.9,36.76,22.73,61.77,27.79,273.87-33.17,335.3-45.83C1395.89,329.8,1297.09,336.25,1251.41,322.13Z" transform="translate(903.32 2)" />
	<path id="cl05_p1" data-name="cl05 p1" class="cl05" d="M1431.57,419.46c-71.35,4.76-66.41-36.65-171.67-30.3C1185,393.67,1113,421,1038.32,428.43c-19.85,2-40.85,2.69-58.67-6.25-12.16-6.09-51.43-34.67-95.76-33.63-64.68,1.51-125.11,35.62-189.75,38.15-37,1.44-32.75-28.87-75.83-28.47-27,.25-53.63,4.31-80.3,7.14q-65.24,6.92-129.89,18.35c-29.37,5.19-60.15,11-88.5,1.74-18.8-6.14-35-18.51-53.71-25-25.5-8.92-53.45-6.29-80.24-2.74-77.62,10.28-161.5,44.14-236.34,3.4C-62.08,394.87-72.76,387-85.12,383c-19.3-6.27-40.25-2.51-60.19,1.3l-206.33,39.42c-33.41,6.39-68.42,12.7-100.93,2.68-22.58-7-42.2-21.36-64.42-29.41-27.23-9.88-57-9.77-85.89-7.33C-703.66,398.2-802.4,433.59-903.32,427c86.67,5.31,173.68-9.37,260.25-2.74,51.17,3.92,66,41.65,151.83,41.23,39.21-.19,76.13-17.92,113.94-28.29s109.7-24.24,174.14,23.49c35,26,71.49,14.35,113.31,6.22,21.44-4.17,42.12-11.46,63.44-15.84C-4.19,446.46,16,438.68,39,437.68c33.92-1.46,69.3,3.73,102.44,10.8,35.09,7.48,69.84,18.73,105.71,18.79,60.13.1,116.36-31.12,176.33-35.44,44.1-3.18,51.47.95,89.62,23.32,39.56,23.2,96,12.12,223.09-21.85,47.33-12.65,45,22.92,93.18,34,50,11.46,144.54-7.85,195.75-18.25,70.87-14.39,146-28.53,214-3.91,39.83,14.43,83.85,14.11,125.34,5.58s80.92-24.9,119.59-42.17C1467.42,415.29,1449.52,418.27,1431.57,419.46Z" transform="translate(903.32 2)" />
</svg>
