<svg id="star_nxt" data-name="star nxt" xmlns="http://www.w3.org/2000/svg" viewBox="0 0 16.83 16.24"><defs><style>.cls-1{fill:#f5d5c5;stroke:#ff8894;stroke-miterlimit:10;stroke-width:2px;}</style></defs><path class="cls-1" d="M41.22,33.64l1.24,2.51a1.35,1.35,0,0,0,1,.74l2.77.41A1.35,1.35,0,0,1,47,39.61l-2,2a1.34,1.34,0,0,0-.39,1.2l.47,2.76a1.36,1.36,0,0,1-2,1.43l-2.48-1.3a1.34,1.34,0,0,0-1.26,0L36.89,47a1.36,1.36,0,0,1-2-1.43l.47-2.76a1.34,1.34,0,0,0-.39-1.2l-2-2a1.35,1.35,0,0,1,.76-2.31l2.77-.41a1.35,1.35,0,0,0,1-.74l1.24-2.51A1.36,1.36,0,0,1,41.22,33.64Z" transform="translate(-31.58 -31.88)"/></svg>