<svg xmlns="http://www.w3.org/2000/svg" viewBox="0 0 69.28 80">
	<defs>
		<style>
			.cls-1{fill:#310733;}.cls-2{fill:#e82f11;}.cls-3{fill:#4723ce;}
		</style>
	</defs>
	<g id="Layer_23" data-name="Layer 23">
		<polygon class="hB" points="51.93 69.95 69.28 60 69.28 40 51.94 50.01 51.93 69.95" />
		<polygon class="hC" points="68.78 40.86 52.45 50.3 52.45 69.14 68.79 59.7 68.78 40.86" />
		<polyline class="hC" points="69.28 40 51.94 50.01 34.64 40 51.95 30.01 69.28 40" />
		<polygon class="hA" points="51.93 69.95 51.94 50.01 34.64 40 34.64 60 51.93 69.95" />
		<polygon class="hB" points="35.17 40.79 51.49 50.22 51.49 69.06 35.17 59.64 35.17 40.79" />
		<polygon class="hA" points="51.93 30.57 35.61 39.98 51.94 49.4 68.25 39.98 51.93 30.57" />
	</g>
	<g id="B">
		<polygon class="hA" points="17.32 70 17.32 49.99 0 40 0 60 17.32 70" />
		<polygon class="hB" points="0.5 40.87 16.82 50.29 16.82 69.13 0.5 59.71 0.5 40.87" />
		<polyline class="hC" points="34.64 40 17.32 30 0 40 17.32 49.99 34.64 40" />
		<polygon class="hB" points="34.59 39.98 17.29 49.97 17.29 69.97 34.59 59.98 34.59 39.98" />
		<polygon class="hC" points="34.11 40.93 17.77 50.37 17.77 69.21 34.11 59.77 34.11 40.93" />
		<polygon class="hA" points="16.82 30.3 0.5 39.7 16.82 49.13 33.14 39.7 16.82 30.3" />
	</g>
	<g id="Layer_14" data-name="Layer 14">
		<polygon class="hB" points="34.64 60 34.64 80 51.93 69.95 51.94 50.01 34.64 60" />
		<polygon class="hC" points="51.47 50.86 35.13 60.3 35.13 79.14 51.47 69.7 51.47 50.86" />
		<polygon class="hA" points="34.64 80 34.64 60 17.32 49.99 17.32 70 34.64 80" />
		<polygon class="hB" points="17.82 50.87 34.14 60.29 34.14 79.13 17.82 69.71 17.82 50.87" />
		<polyline class="hC" points="34.64 40 17.32 49.99 34.64 60 51.94 50.01 34.64 40" />
		<polygon class="hA" points="34.66 40.6 18.34 50.01 34.66 59.43 50.98 50.01 34.66 40.6" />
	</g>
	<g id="Layer_21" data-name="Layer 21">
		<polygon class="hC" points="51.93 9.98 34.64 0 17.32 10 34.62 20 51.93 9.98" />
		<polygon class="hA" points="34.64 0.58 18.32 10 34.64 19.42 50.96 10 34.64 0.58" />
		<polyline class="hB" points="51.93 9.98 34.62 20 34.64 40 51.95 30.01 51.93 9.98" />
		<polyline class="hA" points="17.32 30 34.64 40 34.62 20 17.32 10 17.32 30" />
		<polygon class="hB" points="17.84 10.86 34.16 20.28 34.16 39.13 17.84 29.7 17.84 10.86" />
		<polygon class="hC" points="51.5 10.82 35.16 20.24 35.17 39.09 51.5 29.66 51.5 10.82" />
	</g>
	<g id="Layer_18" data-name="Layer 18">
		<polygon class="hC" points="17.32 10 0 20 17.32 30 34.62 20 17.32 10" />
		<polygon class="hA" points="17.32 10.57 1 20 17.32 29.42 33.64 20 17.32 10.57" />
		<polyline class="hA" points="17.32 30 34.62 20 34.64 40 17.32 49.99 17.32 30" />
		<polygon class="hA" points="0 40 0 20 17.31 30.01 17.32 49.99 0 40" />
		<polygon class="hB" points="0.5 20.86 16.82 30.29 16.82 49.13 0.5 39.71 0.5 20.86" />
		<polygon class="hC" points="34.35 20.75 18 30.18 18 49.03 34.35 39.59 34.35 20.75" />
	</g>
	<g id="Layer_22" data-name="Layer 22">
		<polygon class="hC" points="51.93 9.98 34.62 20 51.95 30.01 69.28 20 51.93 9.98" />
		<polygon class="hA" points="51.96 10.58 35.64 20 51.96 29.42 68.28 20 51.96 10.58" />
		<polyline class="hA" points="34.62 20 51.95 30.01 51.94 50.01 34.64 40 34.62 20" />
		<polygon class="hB" points="51.95 30.01 51.94 50.01 69.28 40 69.28 20 51.95 30.01" />
		<polygon class="hC" points="68.78 20.87 52.44 30.29 52.45 49.14 68.78 39.7 68.78 20.87" />
		<polygon  class="hB" points="35.17 20.75 51.49 30.18 51.49 49.02 35.17 39.6 35.17 20.75" />
	</g>
	<g id="front">
		<polygon class="hC" points="17.32 30 34.64 40 51.95 30.01 34.62 20 17.32 30" />
		<polygon class="hA" points="34.64 20.59 18.32 30 34.64 39.42 50.96 30 34.64 20.59" />
		<polygon class="hA" points="17.32 30 17.32 49.99 34.64 59.99 34.64 40 17.32 30" />
		<polygon class="hB" points="17.82 30.87 34.14 40.29 34.14 59.13 17.82 49.71 17.82 30.87" />
		<polygon class="hB" points="51.95 30.01 34.64 40 34.64 60 51.94 50.01 51.95 30.01" />
		<polygon class="hC" points="51.47 30.86 35.13 40.3 35.13 59.14 51.47 49.7 51.47 30.86" />
	</g>
</svg>
