<svg xmlns="http://www.w3.org/2000/svg" viewBox="0 0 70.28 81">
	<defs>
		<style>
			.cls-1{fill:none;stroke:#d8003e;stroke-linecap:round;stroke-linejoin:round;}.hA{fill:#4723ce;}.hC{fill:#e82f11;}.hB{fill:#310733;}.hD{fill:#ea8975;}
		</style>
	</defs>
	<g id="delete_this" data-name="delete this">
		<polygon class="cls-1" points="35.14 0.5 69.78 20.5 69.78 60.5 35.14 80.5 0.5 60.5 0.5 20.5 35.14 0.5" />
		<line class="cls-1" x1="69.78" y1="20.5" x2="0.5" y2="60.5" />
		<line class="cls-1" x1="0.5" y1="20.5" x2="69.78" y2="60.5" />
	</g>
	<g id="hA">
		<polygon class="hA" points="35.14 0.5 35.14 40.5 0.5 60.5 0.5 20.5 35.14 0.5" />
	</g>
	<g id="hC">
		<polyline class="hC" points="35.14 40.5 0.5 60.5 35.14 80.5 69.78 60.5 35.14 40.5" />
	</g>
	<g id="hB">
		<polygon class="hB" points="69.78 20.5 35.14 0.5 35.14 40.5 69.78 60.5 69.78 20.5" />
	</g>
	<g id="hB-4" data-name="hB">
		<polygon class="hB" points="0.99 20.75 1 29.6 8.66 25.18 8.67 16.34 0.99 20.75" />
		<polygon class="hB" points="9.66 15.76 9.66 24.61 17.32 20.19 17.33 11.35 9.66 15.76" />
		<polygon class="hB" points="18.32 10.72 18.33 19.57 25.99 15.14 25.99 6.3 18.32 10.72" />
		<polygon class="hB" points="26.97 5.8 26.98 14.65 34.64 10.22 34.65 1.38 26.97 5.8" />
		<polygon class="hB" points="26.97 15.78 26.98 24.63 34.64 20.21 34.65 11.37 26.97 15.78" />
		<polygon class="hB" points="18.31 20.75 18.32 29.6 25.98 25.18 25.99 16.34 18.31 20.75" />
		<polygon class="hB" points="18.28 30.8 18.29 39.65 25.95 35.23 25.95 26.39 18.28 30.8" />
		<polygon class="hB" points="18.28 40.78 18.29 49.63 25.95 45.21 25.95 36.37 18.28 40.78" />
		<polygon class="hB" points="26.97 25.78 26.98 34.63 34.64 30.21 34.65 21.37 26.97 25.78" />
		<polygon class="hB" points="26.97 35.78 26.98 44.63 34.64 40.21 34.65 31.37 26.97 35.78" />
		<polygon class="hB" points="9.66 25.78 9.66 34.63 17.32 30.21 17.33 21.37 9.66 25.78" />
		<polygon class="hB" points="9.66 35.78 9.67 44.63 17.33 40.21 17.33 31.37 9.66 35.78" />
		<polygon class="hB" points="9.65 45.79 9.66 54.63 17.32 50.21 17.33 41.37 9.65 45.79" />
		<polygon class="hB" points="0.99 30.8 1 39.65 8.66 35.23 8.67 26.39 0.99 30.8" />
		<polygon class="hB" points="0.99 40.78 1 49.63 8.66 45.21 8.67 36.37 0.99 40.78" />
		<polygon class="hB" points="0.99 50.78 1 59.63 8.66 55.21 8.67 46.37 0.99 50.78" />
	</g>
	<g id="hD">
		<polygon class="hD" points="35.14 40.93 27.48 45.37 35.14 49.78 42.8 45.37 35.14 40.93" />
		<polygon class="hD" points="43.8 45.93 36.14 50.37 43.8 54.78 51.46 50.37 43.8 45.93" />
		<polygon class="hD" points="52.46 50.93 44.8 55.37 52.46 59.77 60.12 55.37 52.46 50.93" />
		<polygon class="hD" points="43.8 55.95 36.14 60.38 43.8 64.79 51.46 60.38 43.8 55.95" />
		<polygon class="hD" points="35.14 50.93 27.48 55.37 35.14 59.77 42.8 55.37 35.14 50.93" />
		<polygon class="hD" points="26.48 55.95 18.82 60.38 26.48 64.79 34.14 60.38 26.48 55.95" />
		<polygon class="hD" points="17.82 61.07 10.16 65.51 17.82 69.92 25.48 65.51 17.82 61.07" />
		<polygon class="hD" points="26.48 66.08 18.82 70.52 26.48 74.92 34.14 70.52 26.48 66.08" />
		<polygon class="hD" points="35.14 71.06 27.48 75.5 35.14 79.91 42.8 75.5 35.14 71.06" />
		<polygon class="hD" points="43.8 66.08 36.14 70.52 43.8 74.92 51.46 70.52 43.8 66.08" />
		<polygon class="hD" points="35.14 61.07 27.48 65.51 35.14 69.92 42.8 65.51 35.14 61.07" />
		<polygon class="hD" points="52.46 61.07 44.8 65.51 52.46 69.92 60.12 65.51 52.46 61.07" />
		<polygon class="hD" points="61.16 56.08 53.5 60.52 61.16 64.92 68.82 60.52 61.16 56.08" />
		<polygon class="hD" points="26.48 45.93 18.82 50.37 26.48 54.78 34.14 50.37 26.48 45.93" />
		<polygon class="hD" points="17.82 50.93 10.16 55.37 17.82 59.77 25.48 55.37 17.82 50.93" />
		<polygon class="hD" points="9.13 55.95 1.47 60.38 9.13 64.79 16.79 60.38 9.13 55.95" />
	</g>
	<g id="hC-2" data-name="hC">
		<polygon class="hC" points="43.35 5.8 35.69 1.38 35.7 10.22 43.35 14.65 43.35 5.8" />
		<polygon class="hC" points="43.31 15.79 35.65 11.37 35.66 20.21 43.31 24.64 43.31 15.79" />
		<polygon class="hC" points="43.31 25.79 35.65 21.37 35.66 30.21 43.31 34.63 43.31 25.79" />
		<polygon class="hC" points="43.31 35.79 35.65 31.37 35.66 40.21 43.31 44.63 43.31 35.79" />
		<polygon class="hC" points="51.96 30.81 44.3 26.39 44.31 35.23 51.96 39.65 51.96 30.81" />
		<polygon class="hC" points="51.96 40.79 44.3 36.37 44.31 45.21 51.96 49.63 51.96 40.79" />
		<polygon class="hC" points="60.62 35.79 52.95 31.37 52.96 40.21 60.62 44.63 60.62 35.79" />
		<polygon class="hC" points="69.27 40.79 61.61 36.37 61.62 45.21 69.27 49.63 69.27 40.79" />
		<polygon class="hC" points="69.27 50.79 61.61 46.37 61.62 55.21 69.27 59.63 69.27 50.79" />
		<polygon class="hC" points="60.62 45.79 52.96 41.37 52.97 50.21 60.62 54.63 60.62 45.79" />
		<polygon class="hC" points="51.96 20.76 44.3 16.34 44.31 25.18 51.96 29.6 51.96 20.76" />
		<polygon class="hC" points="60.62 25.79 52.95 21.37 52.96 30.21 60.62 34.63 60.62 25.79" />
		<polygon class="hC" points="69.27 30.81 61.61 26.39 61.62 35.23 69.27 39.65 69.27 30.81" />
		<polygon class="hC" points="51.96 10.81 44.3 6.39 44.31 15.23 51.96 19.66 51.96 10.81" />
		<polygon class="hC" points="60.62 15.79 52.95 11.37 52.96 20.21 60.62 24.63 60.62 15.79" />
		<polygon class="hC" points="69.27 20.76 61.61 16.34 61.62 25.18 69.27 29.6 69.27 20.76" />
	</g>
</svg>
