<svg xmlns="http://www.w3.org/2000/svg" viewBox="0 0 69.28 80">
	<defs>
		<style>
			.cls-1,.cls-4{fill:#e82f11;}.cls-1,.cls-2,.cls-3{opacity:0;}.cls-2,.cls-5{fill:#310733;}.cls-3,.cls-6{fill:#4723ce;}
		</style>
	</defs>
	<g id="opacity_0" data-name="opacity 0">
		<polygon fill="none" points="69.28 20 34.64 40 34.64 80 69.28 60 69.28 20" />
		<polygon fill="none" points="0 20 0 60 34.64 80 34.64 40 0 20" />
		<polygon fill="none" points="69.28 20 34.64 0 0 20 34.64 40 69.28 20" />
	</g>
	<g id="HC-2" data-name="HC">
		<polygon id="hC-3" data-name="hC" class="hC" points="69.28 20 34.64 40 34.64 80 36.87 78.71 36.81 78.75 36.81 41.25 67.12 23.75 66.98 61.33 69.28 60 69.28 20" />
		<polygon id="hC-4" data-name="hC" class="hC" points="32.48 3.75 32.34 38.67 34.64 40 34.64 0 32.48 3.75" />
	</g>
	<g id="HB-2" data-name="HB">
		<polygon id="hB-3" data-name="hB" class="cls-5" points="32.48 41.25 32.48 78.75 34.64 80 34.64 40 0 20 0 60 2.17 61.25 2.17 23.75 32.48 41.25" />
		<polygon id="hB-4" data-name="hB" class="cls-5" points="36.81 38.75 36.81 3.75 34.64 0 34.64 40 36.81 38.75" />
	</g>
	<g id="HA-2" data-name="HA">
		<path id="hA-3" data-name="hA" class="cls-6" d="M40,0,5.36,20,40,40,74.64,20ZM9.69,20,40,2.5,70.31,20,40,37.5Z" transform="translate(-5.36)" />
	</g>
</svg>
