<svg xmlns="http://www.w3.org/2000/svg" viewBox="0 0 73.28 84">
	<defs>
		<style>
			.cls-1,.cls-5{fill:#5a5aff;}.cls-1,.cls-2,.cls-3,.cls-4,.cls-5,.cls-6,.cls-7{stroke:#262626;stroke-linecap:square;stroke-linejoin:round;}.cls-1,.cls-2,.cls-3{stroke-width:4px;}.cls-2,.cls-4{fill:#ffbd56;}.cls-3,.cls-6{fill:#da85e3;}.cls-4,.cls-5,.cls-6,.cls-7{stroke-width:2px;}.cls-7{fill:#262626;}
		</style>
	</defs>
	<g id="Layer_8" data-name="Layer 8">
		<polygon id="hC_s4" data-name="hC s4" class="cls-1" points="71.28 22 36.64 82 71.28 62 71.28 22" />
		<polygon id="hB_s4" data-name="hB s4" class="cls-2" points="2 22 2 62 36.64 82 2 22" />
		<polygon id="hA_s4" data-name="hA s4" class="cls-3" points="71.28 22 36.64 2 2 22 71.28 22" />
		<polygon id="hB_s2" data-name="hB s2" class="cls-4" points="2 22 12.02 27.79 61.22 27.81 71.28 22 2 22" />
		<polygon id="hC" class="cls-5" points="36.64 81.99 36.64 70.42 12.02 27.79 2 21.99 36.64 81.99" />
		<polygon id="hA_s2" data-name="hA s2" class="cls-6" points="71.28 22 61.22 27.81 36.64 70.42 36.64 82 71.28 22" />
	</g>
	<g id="hblk">
		<polygon class="cls-7" points="12.02 27.79 61.22 27.81 36.64 70.42 12.02 27.79" />
	</g>
</svg>
