<svg xmlns="http://www.w3.org/2000/svg" viewBox="0 0 73.28 84">
	<defs>
		<style>
			.cls-1,.cls-5{fill:#5a5aff;}.cls-1,.cls-2,.cls-3,.cls-4,.cls-5,.cls-6,.cls-7{stroke:#262626;stroke-linecap:square;}.cls-1,.cls-2,.cls-3,.cls-4,.cls-5,.cls-6,.cls-7,.cls-8,.cls-9{stroke-linejoin:round;}.cls-1,.cls-4,.cls-6,.cls-7,.cls-8{stroke-width:4px;}.cls-2,.cls-4{fill:#ffbd56;}.cls-2,.cls-3,.cls-5{stroke-width:2px;}.cls-3,.cls-6{fill:#da85e3;}.cls-7,.cls-8,.cls-9{fill:none;}.cls-8,.cls-9{stroke:#d8003e;stroke-linecap:round;}.cls-9{stroke-width:0.25px;}
		</style>
	</defs>
	<g id="C">
		<polygon id="hC_s4" data-name="hC s4" class="cls-1" points="71.28 35.37 59.84 28.6 36.64 42 36.64 68.79 48.19 75.33 71.28 62 71.28 35.37" />
		<polygon id="hB_s2" data-name="hB s2" class="cls-2" points="48.19 75.33 36.64 68.79 36.64 42 48.09 48.66 48.19 75.33" />
		<polygon id="hA_s2" data-name="hA s2" class="cls-3" points="59.84 28.6 71.28 35.37 48.09 48.66 36.64 42 59.84 28.6" />
	</g>
	<g id="B">
		<polygon id="hB_s4" data-name="hB s4" class="cls-4" points="2 35.33 2 62 25.09 75.33 36.64 68.79 36.64 42 13.55 28.67 2 35.33" />
		<polygon id="hC_s2" data-name="hC s2" class="cls-5" points="36.64 42 36.64 68.79 25.09 75.33 25.09 48.66 36.64 42" />
		<polygon id="hA_s2-2" data-name="hA s2" class="cls-3" points="2 35.33 13.55 28.67 36.64 42 25.09 48.66 2 35.33" />
	</g>
	<g id="A">
		<polygon id="hA_s4" data-name="hA s4" class="cls-6" points="59.84 15.4 36.64 2 13.55 15.33 13.55 28.67 36.64 42 59.84 28.6 59.84 15.4" />
		<polygon id="hC_s2-2" data-name="hC s2" class="cls-5" points="59.84 15.4 36.64 28.67 36.64 42 59.84 28.6 59.84 15.4" />
		<polygon id="hB_s2-2" data-name="hB s2" class="cls-2" points="36.64 42 13.55 28.67 13.55 15.33 36.64 28.67 36.64 42" />
		<polyline id="s4" class="cls-7" points="13.55 28.67 36.64 42 59.84 28.6" />
		<line id="s4-2" data-name="s4" class="cls-7" x1="36.64" y1="68.79" x2="36.64" y2="42" />
	</g>
	<g id="delete">
		<polygon class="cls-8" points="36.64 2 2 22 2 62 36.64 82 71.28 62 71.28 22 36.64 2" />
		<line class="cls-9" x1="10.66" y1="17" x2="2" y2="32" />
		<line class="cls-9" x1="2" y1="52" x2="10.66" y2="67" />
		<line class="cls-9" x1="71.28" y1="52" x2="62.62" y2="67" />
		<line class="cls-9" x1="27.98" y1="77" x2="45.3" y2="77" />
		<line class="cls-9" x1="2" y1="22" x2="71.28" y2="22" />
		<line class="cls-9" x1="2" y1="62" x2="71.28" y2="62" />
		<line class="cls-9" x1="36.64" y1="2" x2="2" y2="62" />
		<line class="cls-9" x1="71.28" y1="22" x2="36.64" y2="82" />
		<line class="cls-9" x1="71.28" y1="62" x2="36.64" y2="2" />
		<line class="cls-9" x1="36.64" y1="82" x2="2" y2="22" />
		<line class="cls-9" x1="53.96" y1="12" x2="19.32" y2="72" />
		<line class="cls-9" x1="19.32" y1="12" x2="53.96" y2="72" />
		<line class="cls-9" x1="2" y1="42" x2="71.28" y2="42" />
		<line class="cls-9" x1="19.32" y1="12" x2="53.96" y2="12" />
		<line class="cls-9" x1="71.28" y1="42" x2="53.96" y2="12" />
		<line class="cls-9" x1="53.96" y1="72" x2="71.28" y2="42" />
		<line class="cls-9" x1="19.32" y1="72" x2="53.96" y2="72" />
		<line class="cls-9" x1="2" y1="42" x2="19.32" y2="72" />
		<line class="cls-9" x1="19.32" y1="12" x2="2" y2="42" />
		<line class="cls-9" x1="53.96" y1="12" x2="2" y2="42" />
		<line class="cls-9" x1="53.96" y1="72" x2="53.96" y2="12" />
		<line class="cls-9" x1="2" y1="42" x2="53.96" y2="72" />
		<line class="cls-9" x1="19.32" y1="12" x2="19.32" y2="72" />
		<line class="cls-9" x1="71.28" y1="42" x2="19.32" y2="72" />
		<line class="cls-9" x1="19.32" y1="12" x2="71.28" y2="42" />
		<line class="cls-9" x1="71.28" y1="32" x2="2" y2="32" />
		<line class="cls-9" x1="71.28" y1="52" x2="2" y2="52" />
		<line class="cls-9" x1="62.62" y1="17" x2="27.98" y2="77" />
		<line class="cls-9" x1="45.3" y1="7" x2="10.66" y2="67" />
		<line class="cls-9" x1="27.98" y1="7" x2="27.98" y2="77" />
		<line class="cls-9" x1="10.66" y1="17" x2="10.66" y2="67" />
		<line class="cls-9" x1="62.62" y1="17" x2="10.66" y2="17" />
		<line class="cls-9" x1="62.62" y1="67" x2="62.62" y2="17" />
		<line class="cls-9" x1="10.66" y1="67" x2="62.62" y2="67" />
		<line class="cls-9" x1="10.66" y1="17" x2="71.28" y2="52" />
		<line class="cls-9" x1="2" y1="32" x2="62.62" y2="67" />
		<line class="cls-9" x1="2" y1="52" x2="45.3" y2="77" />
		<line class="cls-9" x1="71.28" y1="52" x2="27.98" y2="77" />
		<line class="cls-9" x1="71.28" y1="32" x2="10.66" y2="67" />
		<line class="cls-9" x1="62.62" y1="17" x2="2" y2="52" />
		<line class="cls-9" x1="45.3" y1="7" x2="45.3" y2="77" />
		<line class="cls-9" x1="27.98" y1="7" x2="45.3" y2="7" />
		<line class="cls-9" x1="62.62" y1="67" x2="27.98" y2="7" />
		<line class="cls-9" x1="10.66" y1="17" x2="45.3" y2="77" />
		<line class="cls-9" x1="71.28" y1="32" x2="62.62" y2="17" />
		<line class="cls-9" x1="27.98" y1="7" x2="71.28" y2="32" />
		<line class="cls-9" x1="45.3" y1="7" x2="2" y2="32" />
		<line class="cls-9" x1="40.97" y1="4.5" x2="2" y2="27" />
		<line class="cls-9" x1="32.31" y1="4.5" x2="71.28" y2="27" />
		<line class="cls-9" x1="32.31" y1="79.5" x2="32.31" y2="4.5" />
		<line class="cls-9" x1="40.97" y1="4.5" x2="40.97" y2="79.5" />
		<line class="cls-9" x1="71.28" y1="27" x2="2" y2="27" />
		<line class="cls-9" x1="71.28" y1="37" x2="2" y2="37" />
		<line class="cls-9" x1="2" y1="47" x2="71.28" y2="47" />
		<line class="cls-9" x1="71.28" y1="57" x2="2" y2="57" />
		<line class="cls-9" x1="27.98" y1="77" x2="2" y2="32" />
		<line class="cls-9" x1="49.63" y1="74.5" x2="14.99" y2="14.5" />
		<line class="cls-9" x1="40.97" y1="4.5" x2="6.33" y2="64.5" />
		<line class="cls-9" x1="45.3" y1="7" x2="71.28" y2="52" />
		<line class="cls-9" x1="23.65" y1="74.5" x2="71.28" y2="47" />
		<line class="cls-9" x1="6.33" y1="64.5" x2="71.28" y2="27" />
		<line class="cls-9" x1="71.28" y1="37" x2="14.99" y2="69.5" />
		<line class="cls-9" x1="14.99" y1="14.5" x2="14.99" y2="69.5" />
		<line class="cls-9" x1="2" y1="57" x2="66.95" y2="19.5" />
		<line class="cls-9" x1="66.95" y1="64.5" x2="66.95" y2="19.5" />
		<line class="cls-9" x1="58.29" y1="69.5" x2="58.29" y2="14.5" />
		<line class="cls-9" x1="49.63" y1="74.5" x2="49.63" y2="9.5" />
		<line class="cls-9" x1="2" y1="52" x2="27.98" y2="7" />
		<line class="cls-9" x1="71.28" y1="57" x2="6.33" y2="19.5" />
		<line class="cls-9" x1="23.65" y1="74.5" x2="58.29" y2="14.5" />
		<line class="cls-9" x1="2" y1="47" x2="58.29" y2="14.5" />
		<line class="cls-9" x1="49.63" y1="9.5" x2="2" y2="37" />
		<polyline class="cls-9" points="66.95 19.5 49.63 49.5 32.31 79.5" />
		<line class="cls-9" x1="66.95" y1="64.5" x2="2" y2="27" />
		<line class="cls-9" x1="2" y1="37" x2="58.29" y2="69.5" />
		<line class="cls-9" x1="71.28" y1="47" x2="14.99" y2="14.5" />
		<line class="cls-9" x1="14.99" y1="69.5" x2="49.63" y2="9.5" />
		<line class="cls-9" x1="49.63" y1="74.5" x2="2" y2="47" />
		<line class="cls-9" x1="71.28" y1="57" x2="32.31" y2="79.5" />
		<line class="cls-9" x1="6.33" y1="19.5" x2="6.33" y2="64.5" />
		<line class="cls-9" x1="40.97" y1="79.5" x2="6.33" y2="19.5" />
		<line class="cls-9" x1="71.28" y1="37" x2="23.65" y2="9.5" />
		<line class="cls-9" x1="58.29" y1="69.5" x2="23.65" y2="9.5" />
		<line class="cls-9" x1="23.65" y1="74.5" x2="23.65" y2="9.5" />
		<line class="cls-9" x1="66.95" y1="64.5" x2="32.31" y2="4.5" />
		<line class="cls-9" x1="40.97" y1="79.5" x2="2" y2="57" />
		<line class="cls-9" x1="71.28" y1="32" x2="45.3" y2="77" />
		<line class="cls-9" x1="59.74" y1="22.02" x2="33.75" y2="7" />
		<line class="cls-9" x1="13.55" y1="22" x2="39.53" y2="7" />
		<line class="cls-9" x1="59.74" y1="22.02" x2="33.75" y2="37" />
		<line class="cls-9" x1="39.53" y1="37" x2="13.55" y2="22" />
		<line class="cls-9" x1="42.48" y1="12.04" x2="16.43" y2="27" />
		<line class="cls-9" x1="56.85" y1="27" x2="30.87" y2="12" />
		<line class="cls-9" x1="30.81" y1="72.09" x2="30.87" y2="42" />
		<line class="cls-9" x1="7.75" y1="32.03" x2="7.77" y2="62" />
		<line class="cls-9" x1="30.81" y1="72.09" x2="4.89" y2="57" />
	</g>
</svg>
