<svg xmlns="http://www.w3.org/2000/svg" viewBox="0 0 71.28 82">
	<defs>
		<style>
			.cls-1{fill:#d8003e;}.cls-1,.cls-2,.cls-3,.cls-4,.cls-5,.cls-6,.cls-7{stroke:#262626;stroke-linejoin:round;}.cls-1,.cls-3,.cls-4,.cls-6{stroke-width:2px;}.cls-2,.cls-6{fill:#5a5aff;}.cls-2,.cls-3,.cls-4,.cls-5,.cls-6,.cls-7{stroke-linecap:square;}.cls-2,.cls-5,.cls-7{stroke-width:4px;}.cls-3,.cls-5{fill:#ffbd56;}.cls-4,.cls-7{fill:#da85e3;}
		</style>
	</defs>
	<g id="Layer_8" data-name="Layer 8">
		<polygon class="cls-1" points="35.64 1 1 21 1 61 35.64 81 70.28 61 70.28 21 35.64 1" />
	</g>
	<g id="C">
		<polygon id="hC" class="cls-2" points="64.48 31.03 58.73 27.7 35.64 41 35.56 67.76 41.39 71 64.48 57.69 64.48 31.03" />
		<polygon id="hB" class="cls-3" points="41.39 71 35.56 67.76 35.56 41.03 41.29 44.32 41.39 71" />
		<polygon id="hA" class="cls-4" points="58.73 27.7 64.48 31.03 41.29 44.32 35.56 41.03 58.73 27.7" />
	</g>
	<g id="B">
		<polygon id="hB-2" data-name="hB" class="cls-5" points="6.76 31 6.76 57.67 29.86 71 35.56 67.76 35.64 41 12.52 27.7 6.76 31" />
		<polygon id="hC-2" data-name="hC" class="cls-6" points="35.58 41.02 35.58 67.76 29.86 71 29.86 44.32 35.58 41.02" />
		<polygon id="hA-2" data-name="hA" class="cls-4" points="6.76 31 12.52 27.7 35.58 41.02 29.86 44.32 6.76 31" />
	</g>
	<g id="A">
		<polygon id="hA-3" data-name="hA" class="cls-7" points="58.79 21.08 35.64 7.67 12.47 20.97 12.54 27.66 35.64 41 58.72 27.68 58.79 21.08" />
		<polygon id="hC-3" data-name="hC" class="cls-6" points="58.79 21.08 35.59 34.35 35.59 41.05 58.56 27.68 58.79 21.08" />
		<polygon id="hB-3" data-name="hB" class="cls-3" points="35.59 41.05 12.49 27.68 12.49 21.02 35.59 34.35 35.59 41.05" />
	</g>
</svg>
