<svg xmlns="http://www.w3.org/2000/svg" viewBox="0 0 73.28 84">
	<defs>
		<style>
			.cls-1{fill:#4a46c8;}.cls-1,.cls-2,.cls-3,.cls-4,.cls-5{stroke:#262626;stroke-linejoin:round;}.cls-1,.cls-2,.cls-4,.cls-5{stroke-linecap:round;}.cls-1,.cls-2,.cls-3{stroke-width:4px;}.cls-2,.cls-5{fill:#ffbd56;}.cls-3{fill:#da85e3;stroke-linecap:square;}.cls-4,.cls-5{stroke-width:2px;}
		</style>
	</defs>
	<g id="C">
		<polygon class="hC" points="71.28 22 36.64 42 36.64 82 71.28 62 71.28 22" />
	</g>
	<g id="B">
		<polygon class="hB" points="2 22 2 62 36.64 82 36.64 42 2 22" />
	</g>
	<g id="A">
		<polygon class="hA" points="71.28 22 36.64 2 2 22 36.64 42 71.28 22" />
		<path class="hblk" d="M27.87,19.94c0-3.91,5.48-7.08,12.25-7.08a17.66,17.66,0,0,1,8.67,2.08h0l0,0,17.29,10-17.31,10-17.1-9.85-.23-.14h0C29.25,23.65,27.87,21.89,27.87,19.94Z" transform="translate(-3.36 2)" />
		<path class="hB" d="M43.37,18.49h0a17.66,17.66,0,0,0-8.67-2.08,19.7,19.7,0,0,0-5.94.89c1.81-2.6,6.21-4.44,11.36-4.44a17.66,17.66,0,0,1,8.67,2.08h0l0,0,17.29,10-5.78,3.34L43.4,18.5Z" transform="translate(-3.36 2)" />
	</g>
</svg>
