<svg xmlns="http://www.w3.org/2000/svg" viewBox="0 0 73.28 84">
	<defs>
		<style>
			.cls-1{fill:#4a46c8;}.cls-1,.cls-2,.cls-3,.cls-4,.cls-5,.cls-6{stroke:#262626;stroke-linejoin:round;}.cls-1,.cls-2,.cls-3,.cls-5{stroke-linecap:round;}.cls-1,.cls-5,.cls-6{stroke-width:4px;}.cls-2,.cls-3,.cls-4{stroke-width:2px;}.cls-3,.cls-5{fill:#ffbd56;}.cls-4,.cls-6{fill:#da85e3;stroke-linecap:square;}
		</style>
	</defs>
	<g id="C">
		<polygon class="hC4" points="71.28 22 36.64 42 36.64 82 71.28 62 71.28 22" />
		<path  class="hblk" d="M63.48,39.39c-3.38-2-8.87,1.21-12.25,7.07A17.47,17.47,0,0,0,48.7,55h0V75L66,65V45h0C66,42.45,65.17,40.37,63.48,39.39Z" transform="translate(-3.36 2)" />
		<path class="hB" d="M60.22,41.93v-.27h0A9.38,9.38,0,0,0,59.85,39a4.92,4.92,0,0,1,3.63.41C65.17,40.37,66,42.45,66,45h0V65l-5.79-3.34Z" transform="translate(-3.36 2)" />
		<polygon class="hA" points="62.64 67 45.32 77 45.27 70.36 56.87 63.66 62.64 67" />
	</g>
	<g id="B">
		<polygon class="hB4" points="2 22 2 62 36.64 82 36.64 42 2 22" />
	</g>
	<g id="A">
		<polygon class="hA4" points="71.28 22 36.64 2 2 22 36.64 42 71.28 22" />
	</g>
</svg>
