<svg xmlns="http://www.w3.org/2000/svg" viewBox="0 0 73.28 84">
	<defs>
		<style>
			.cls-1,.cls-5{fill:#4a46c8;}.cls-1,.cls-2,.cls-3,.cls-4,.cls-5,.cls-6{stroke:#262626;stroke-linejoin:round;}.cls-1,.cls-2,.cls-3,.cls-5{stroke-linecap:round;}.cls-1,.cls-2,.cls-6{stroke-width:4px;}.cls-2{fill:#ffbd56;}.cls-3,.cls-4,.cls-5{stroke-width:2px;}.cls-4,.cls-6{fill:#da85e3;stroke-linecap:square;}
		</style>
	</defs>
	<g id="C">
		<polygon class="hC4" points="71.28 22 36.64 42 36.64 82 71.28 62 71.28 22" />
	</g>
	<g id="B">
		<polygon class="hB4" points="2 22 2 62 36.64 82 36.64 42 2 22" />
		<path class="hblk" d="M28.8,60.62c3.38-2,3.39-8.29,0-14.15A17.51,17.51,0,0,0,22.67,40h0L5.36,30V50l17.09,9.87.23.13h0C24.89,61.28,27.11,61.59,28.8,60.62Z" transform="translate(-3.36 2)" />
		<path class="hA" d="M28.23,56.53l.24.13h0a9.16,9.16,0,0,0,2.5,1,4.94,4.94,0,0,1-2.17,2.94c-1.69,1-3.91.66-6.12-.62h0l-.23-.13L5.36,50l5.79-3.35Z" transform="translate(-3.36 2)" />
		<polygon class="hC" points="2.01 52 2.01 32 7.78 35.28 7.78 48.67 2.01 52" />
	</g>
	<g id="A">
		<polygon class="hA4" points="71.28 22 36.64 2 2 22 36.64 42 71.28 22" />
	</g>
</svg>
