<svg xmlns="http://www.w3.org/2000/svg" viewBox="0 0 73.28 84">
	<defs>
		<style>
			.cls-1,.cls-5{fill:#4a46c8;}.cls-1,.cls-2,.cls-3,.cls-4,.cls-5{stroke:#262626;stroke-linejoin:round;}.cls-1,.cls-2,.cls-4,.cls-5{stroke-linecap:round;}.cls-1,.cls-2,.cls-3{stroke-width:4px;}.cls-2{fill:#ffbd56;}.cls-3{fill:#da85e3;stroke-linecap:square;}.cls-4,.cls-5{stroke-width:2px;}
		</style>
	</defs>
	<g id="C">
		<polygon class="hC" points="71.28 22 36.64 42 36.64 82 71.28 62 71.28 22" />
	</g>
	<g id="B">
		<polygon class="hB" points="2 22 2 62 36.64 82 36.64 42 2 22" />
	</g>
	<g id="A">
		<polygon class="hA" points="71.28 22 36.64 2 2 22 36.64 42 71.28 22" />
		<path class="hblk" d="M52.25,20c0-3.91-5.48-7.08-12.25-7.08A17.62,17.62,0,0,0,31.34,15h0L14,25,31.33,35l17.1-9.86.23-.13h0C50.87,23.72,52.25,22,52.25,20Z" transform="translate(-3.36 2)" />
		<path class="hC" d="M36.75,18.56h0a17.55,17.55,0,0,1,8.67-2.08,19.39,19.39,0,0,1,5.94.89c-1.81-2.6-6.21-4.44-11.36-4.44A17.62,17.62,0,0,0,31.34,15h0L14,25l5.78,3.34,16.93-9.77Z" transform="translate(-3.36 2)" />
	</g>
</svg>
