<svg xmlns="http://www.w3.org/2000/svg" viewBox="0 0 73.38 83.6">
	<defs>
		<style>
			.hA{fill:#da85e3;stroke-linecap:square;}.hA,.hB,.hC{stroke:#262626;stroke-linejoin:round;stroke-width:4px;}.hB{fill:#ffbd56;}.hB,.hC{stroke-linecap:round;}.hC{fill:#4a46c8;}
		</style>
	</defs>
	<g id="_7_boxes" data-name="7 boxes">
		<polygon class="hA" points="36.54 2 25.05 8.73 36.68 15.42 48.3 8.75 36.54 2" />
		<polygon class="hB" points="25.11 22.05 25.05 8.73 36.68 15.42 36.62 28.71 25.11 22.05" />
		<polygon class="hC" points="48.19 22.01 48.3 8.75 36.68 15.42 36.62 28.71 48.19 22.01" />
		<polygon class="hA" points="13.59 15.36 2 22.01 13.52 28.66 25.11 22.05 13.59 15.36" />
		<polygon class="hB" points="2.02 35.36 2 22.01 13.52 28.66 13.56 42.04 2.02 35.36" />
		<polygon class="hC" points="25.15 35.3 25.11 22.05 13.52 28.66 13.56 42.04 25.15 35.3" />
		<polygon class="hA" points="36.67 55.4 25.15 61.97 36.67 68.69 48.33 61.97 36.67 55.4" />
		<polygon class="hB" points="25.15 75.38 25.15 61.97 36.67 68.69 36.66 81.6 25.15 75.38" />
		<polygon class="hC" points="48.29 74.87 48.33 61.97 36.67 68.69 36.66 81.6 48.29 74.87" />
		<polygon class="hA" points="36.62 28.71 25.11 35.33 36.62 41.98 48.08 35.36 36.62 28.71" />
		<polygon class="hB" points="25.15 48.74 25.11 35.33 36.62 41.98 36.67 55.4 25.15 48.74" />
		<polygon class="hC" points="48.26 48.62 48.08 35.36 36.62 41.98 36.67 55.4 48.26 48.62" />
		<polygon class="hA" points="59.71 15.39 48.19 22.01 59.71 28.66 71.16 22.04 59.71 15.39" />
		<polygon class="hB" points="48.09 35.31 48.19 22.01 59.71 28.66 60 42.03 48.09 35.31" />
		<polygon class="hC" points="71.34 35.3 71.16 22.04 59.71 28.66 60 42.03 71.34 35.3" />
		<polygon class="hA" points="60 42.03 48.23 48.7 60.24 55.07 71.2 48.74 60 42.03" />
		<polygon class="hB" points="48.33 61.97 48.23 48.7 60.24 55.07 60.48 68.28 48.33 61.97" />
		<polygon class="hC" points="71.38 61.99 71.31 48.72 60.24 55.07 60.48 68.28 71.38 61.99" />
		<polygon class="hA" points="13.54 42.08 2.03 48.7 13.37 55.26 25.15 48.74 13.54 42.08" />
		<polygon class="hB" points="2.03 61.61 2.01 48.72 13.37 55.26 13.56 68.69 2.03 61.61" />
		<polygon class="hC" points="25.15 61.97 25.15 48.74 13.37 55.26 13.56 68.69 25.15 61.97" />
	</g>
</svg>
