<svg xmlns="http://www.w3.org/2000/svg" viewBox="0 0 73.28 84"><defs><style>.cls-1,.cls-6{fill:#5a5aff;}.cls-1,.cls-2,.cls-3,.cls-4,.cls-5,.cls-6,.cls-7{stroke:#262626;stroke-linecap:square;stroke-linejoin:round;}.cls-1,.cls-5,.cls-7{stroke-width:4px;}.cls-2,.cls-7{fill:#da85e3;}.cls-2,.cls-3,.cls-4,.cls-6{stroke-width:2px;}.cls-3,.cls-5{fill:#ffbd56;}</style></defs><g id="C"><polygon id="hC" class="cls-1" points="71.28 22 36.64 42 36.64 82 71.28 62 71.28 22"/><polygon id="hA" class="cls-2" points="45.3 60.29 45.3 67 62.62 57 56.84 53.58 45.3 60.29"/><polygon id="hB" class="cls-3" points="62.62 37 56.87 40.32 56.84 53.58 62.62 57 62.62 37"/><polygon id="hblk" class="cls-4" points="56.87 40.32 45.3 47 45.3 60.29 56.84 53.58 56.87 40.32"/></g><g id="B"><polygon id="hB-2" data-name="hB" class="cls-5" points="2 22 2 62 36.64 82 36.64 42 2 22"/><polygon id="hA-2" data-name="hA" class="cls-2" points="10.66 57 27.98 67 28.06 60.32 16.45 53.58 10.66 57"/><polygon id="hC-2" data-name="hC" class="cls-6" points="16.41 40.32 10.66 37 10.66 57 16.45 53.58 16.41 40.32"/><polygon id="hblk-2" data-name="hblk" class="cls-4" points="28.06 47.05 16.41 40.32 16.45 53.58 28.06 60.32 28.06 47.05"/></g><g id="A"><polygon id="hA-3" data-name="hA" class="cls-7" points="71.28 22 36.64 2 2 22 36.64 42 71.28 22"/><polygon id="hB-3" data-name="hB" class="cls-3" points="36.64 12 36.64 18.73 48.13 25.37 53.96 22 36.64 12"/><polygon id="hC-3" data-name="hC" class="cls-6" points="36.64 12 19.32 22 25.09 25.33 36.64 18.73 36.64 12"/><polygon id="hblk-3" data-name="hblk" class="cls-4" points="36.64 18.73 25.09 25.33 36.64 32 48.13 25.37 36.64 18.73"/></g></svg>