<svg xmlns="http://www.w3.org/2000/svg" viewBox="0 0 73.28 84">
	<defs>
		<style>
			.cls-1{fill:#4a46c8;}.cls-1,.cls-2,.cls-3,.cls-4,.cls-5,.cls-6{stroke:#262626;stroke-linejoin:round;}.cls-1,.cls-2,.cls-4,.cls-5{stroke-linecap:round;}.cls-1,.cls-5,.cls-6{stroke-width:4px;}.cls-2,.cls-3,.cls-4{stroke-width:2px;}.cls-3,.cls-6{fill:#da85e3;stroke-linecap:square;}.cls-4,.cls-5{fill:#ffbd56;}
		</style>
	</defs>
	<g id="C">
		<polygon class="hC4" points="71.28 22 36.64 42 36.64 82 71.28 62 71.28 22" />
		<path  class="hblk" d="M51.2,60.61c-3.39-2-3.39-8.28,0-14.14A17.65,17.65,0,0,1,57.33,40h0L74.64,30V50L57.55,59.87l-.23.13h0C55.1,61.27,52.89,61.59,51.2,60.61Z" transform="translate(-3.36 2)" />
		<path class="hA" d="M51.76,56.53l-.23.13h0a9.13,9.13,0,0,1-2.51,1,4.9,4.9,0,0,0,2.18,2.93c1.69,1,3.9.66,6.12-.62h0l.23-.13L74.63,50l-5.78-3.34Z" transform="translate(-3.36 2)" />
		<polygon class="hB" points="71.29 52.02 71.29 32.02 65.51 35.3 65.51 48.69 71.29 52.02" />
	</g>
	<g id="B">
		<polygon class="hB4" points="2 22 2 62 36.64 82 36.64 42 2 22" />
	</g>
	<g id="A">
		<polygon class="hA4" points="71.28 22 36.64 2 2 22 36.64 42 71.28 22" />
	</g>
</svg>
