<svg xmlns="http://www.w3.org/2000/svg" viewBox="0 0 73.28 84"><defs><style>.cls-1,.cls-7{fill:#5a5aff;}.cls-1,.cls-2,.cls-3,.cls-4,.cls-5,.cls-6,.cls-7,.cls-8,.cls-9{stroke:#262626;stroke-linecap:square;stroke-linejoin:round;}.cls-1,.cls-6,.cls-9{stroke-width:4px;}.cls-2,.cls-9{fill:#da85e3;}.cls-2,.cls-3,.cls-4,.cls-5,.cls-7,.cls-8{stroke-width:2px;}.cls-3,.cls-6{fill:#ffbd56;}.cls-4{fill:#48354c;}.cls-5{fill:#4c4135;}.cls-8{fill:#36364c;}</style></defs><g id="C"><polygon id="hC" class="cls-1" points="71.28 22 36.64 42 36.64 82 71.28 62 71.28 22"/><polygon id="hA" class="cls-2" points="42.36 65.3 42.36 72.09 65.53 58.7 59.74 55.35 42.36 65.3"/><polygon id="hB" class="cls-3" points="65.53 32.03 59.79 35.37 59.74 55.35 65.53 58.7 65.53 32.03"/><polygon id="hAsh" class="cls-4" points="42.36 65.3 59.74 55.35 42.36 45.37 42.36 65.3"/><polygon id="hBsh" class="cls-5" points="42.36 45.37 59.74 55.35 59.79 35.37 42.36 45.37"/></g><g id="B"><polygon id="hB-2" data-name="hB" class="cls-6" points="2 22 2 62 36.64 82 36.64 42 2 22"/><polygon id="hA-2" data-name="hA" class="cls-2" points="7.77 58.66 30.81 72.09 30.81 65.36 13.55 55.34 7.77 58.66"/><polygon id="hC-2" data-name="hC" class="cls-7" points="13.55 35.33 7.75 32.03 7.77 58.66 13.55 55.34 13.55 35.33"/><polygon id="hCsh" class="cls-8" points="13.55 35.33 13.55 55.34 30.81 45.35 13.55 35.33"/><polygon id="hAsh-2" data-name="hAsh" class="cls-4" points="13.55 55.34 30.81 65.36 30.81 45.35 13.55 55.34"/></g><g id="A"><polygon id="hA-3" data-name="hA" class="cls-9" points="71.28 22 36.64 2 2 22 36.64 42 71.28 22"/><polygon id="hB-3" data-name="hB" class="cls-3" points="36.64 8.67 36.64 15.4 53.96 25.35 59.62 22 36.64 8.67"/><polygon id="hC-3" data-name="hC" class="cls-7" points="36.64 8.67 13.55 22 19.31 25.41 36.64 15.4 36.64 8.67"/><polygon id="hCsh-2" data-name="hCsh" class="cls-8" points="19.31 25.41 36.64 35.37 36.64 15.4 19.31 25.41"/><polygon id="hBsh-2" data-name="hBsh" class="cls-5" points="36.64 15.4 36.64 35.37 53.96 25.35 36.64 15.4"/></g></svg>