<svg xmlns="http://www.w3.org/2000/svg" viewBox="0 0 73.28 84"><defs><style>.cls-1,.cls-4{fill:#4a46c8;}.cls-1,.cls-2,.cls-3,.cls-4,.cls-5{stroke:#262626;stroke-linejoin:round;}.cls-1,.cls-2,.cls-3,.cls-4{stroke-linecap:round;}.cls-1,.cls-2,.cls-5{stroke-width:4px;}.cls-2{fill:#ffbd56;}.cls-3,.cls-4{stroke-width:2px;}.cls-5{fill:#da85e3;stroke-linecap:square;}</style></defs><g id="C"><polygon id="hC" class="cls-1" points="71.28 22 36.64 42 36.64 82 71.28 62 71.28 22"/></g><g id="B"><polygon id="hB" class="cls-2" points="2 22 2 62 36.64 82 36.64 42 2 22"/><path id="hblk" class="cls-3" d="M28.81,60.84c-3.38,1.95-8.87-1.21-12.25-7.07A17.5,17.5,0,0,1,14,45.22h0v-20l17.31,10v20h0C31.33,57.78,30.5,59.86,28.81,60.84Z" transform="translate(-3.36 2)"/><path id="hC-2" data-name="hC" class="cls-4" d="M19.81,48.13h0a17.55,17.55,0,0,0,2.53,8.55,19.77,19.77,0,0,0,3.74,4.71c-3.15-.27-6.95-3.16-9.52-7.62A17.5,17.5,0,0,1,14,45.22h0v-20l5.78,3.34V48.13Z" transform="translate(-3.36 2)"/></g><g id="A"><polygon id="hA" class="cls-5" points="71.28 22 36.64 2 2 22 36.64 42 71.28 22"/></g></svg>