<svg xmlns="http://www.w3.org/2000/svg" viewBox="0 0 73.28 84">
	<defs>
		<style>
			.cls-1{fill:#4a46c8;}.cls-1,.cls-2,.cls-3,.cls-4,.cls-5{stroke:#262626;stroke-linejoin:round;}.cls-1,.cls-2,.cls-4{stroke-linecap:round;}.cls-1,.cls-4,.cls-5{stroke-width:4px;}.cls-2,.cls-3{stroke-width:2px;}.cls-3,.cls-5{fill:#da85e3;stroke-linecap:square;}.cls-4{fill:#ffbd56;}
		</style>
	</defs>
	<g id="C">
		<polygon class="hC4" points="71.28 22 36.64 42 36.64 82 71.28 62 71.28 22" />
		<path class="hblk" d="M63.44,39.39c3.39,2,3.39,8.28,0,14.14A17.65,17.65,0,0,1,57.31,60h0L40,70V50l17.08-9.88.23-.13h0C59.54,38.73,61.75,38.41,63.44,39.39Z" transform="translate(-3.36 2)" />
		<path class="hA" d="M56.94,53.54h0a17.53,17.53,0,0,0,6.14-6.46,19.54,19.54,0,0,0,2.2-5.6c1.35,2.87.74,7.6-1.83,12.06A17.65,17.65,0,0,1,57.31,60h0L40,70V63.32l16.92-9.77Z" transform="translate(-3.36 2)" />
	</g>
	<g id="B">
		<polygon class="hB4" points="2 22 2 62 36.64 82 36.64 42 2 22" />
	</g>
	<g id="A">
		<polygon class="hA4" points="71.28 22 36.64 2 2 22 36.64 42 71.28 22" />
	</g>
</svg>
