<svg xmlns="http://www.w3.org/2000/svg" viewBox="0 0 73.28 84">
	<defs>
		<style>
			.cls-1{fill:#4a46c8;}.cls-1,.cls-2,.cls-3,.cls-4,.cls-5{stroke:#262626;stroke-linejoin:round;}.cls-1,.cls-2,.cls-3,.cls-4{stroke-linecap:round;}.cls-1,.cls-4,.cls-5{stroke-width:4px;}.cls-2,.cls-3{stroke-width:2px;}.cls-3,.cls-4{fill:#ffbd56;}.cls-5{fill:#da85e3;stroke-linecap:square;}
		</style>
	</defs>
	<g id="C">
		<polygon class="hC4" points="71.28 22 36.64 42 36.64 82 71.28 62 71.28 22" />
		<path class="hblk" d="M51.19,60.85c3.38,1.95,8.87-1.21,12.25-7.07A17.47,17.47,0,0,0,66,45.23h0v-20l-17.31,10v20h0C48.67,57.79,49.5,59.87,51.19,60.85Z" transform="translate(-3.36 2)" />
		<path class="hB" d="M60.19,48.15h0a17.61,17.61,0,0,1-2.53,8.55,19.71,19.71,0,0,1-3.74,4.7c3.15-.27,6.95-3.16,9.52-7.62A17.47,17.47,0,0,0,66,45.23h0v-20L60.2,28.58V48.15Z" transform="translate(-3.36 2)" />
	</g>
	<g id="B">
		<polygon class="hB4" points="2 22 2 62 36.64 82 36.64 42 2 22" />
	</g>
	<g id="A">
		<polygon class="hA4" points="71.28 22 36.64 2 2 22 36.64 42 71.28 22" />
	</g>
</svg>
