<svg xmlns="http://www.w3.org/2000/svg" viewBox="0 0 73.28 84">
	<defs>
		<style>
			.cls-1,.cls-5{fill:#4a46c8;}.cls-1,.cls-2,.cls-3,.cls-4,.cls-5,.cls-6{stroke:#262626;stroke-linejoin:round;}.cls-1,.cls-2,.cls-4,.cls-5,.cls-6{stroke-linecap:round;}.cls-1,.cls-2,.cls-3{stroke-width:4px;}.cls-2,.cls-6{fill:#ffbd56;}.cls-3{fill:#da85e3;stroke-linecap:square;}.cls-4,.cls-5,.cls-6{stroke-width:2px;}
		</style>
	</defs>
	<g id="C">
		<polygon class="hC" points="71.28 22 36.64 42 36.64 82 71.28 62 71.28 22" />
	</g>
	<g id="B">
		<polygon class="hB" points="2 22 2 62 36.64 82 36.64 42 2 22" />
	</g>
	<g id="A">
		<polygon class="hA" points="71.28 22 36.64 2 2 22 36.64 42 71.28 22" />
		<path class="hblk" d="M27.76,20c0,3.91,5.48,7.08,12.25,7.08A17.69,17.69,0,0,0,48.68,25h0L66,15,48.68,5l-17.1,9.86-.23.13h0C29.14,16.27,27.76,18,27.76,20Z" transform="translate(-3.36 2)" />
		<path data-name="hC" class="hC" d="M31.58,21.54l-.23.13h0a9.21,9.21,0,0,0-2.14,1.66A4.89,4.89,0,0,1,27.76,20c0-1.95,1.38-3.71,3.6-5h0l.23-.13L48.68,5v6.68Z" transform="translate(-3.36 2)" />
		<polygon class="hB" points="45.31 7 62.63 17 56.91 20.36 45.31 13.67 45.31 7" />
	</g>
</svg>
