<svg xmlns="http://www.w3.org/2000/svg" viewBox="0 0 73.28 84"><defs><style>.cls-1{fill:#4a46c8;}.cls-1,.cls-2,.cls-3,.cls-4,.cls-5{stroke:#262626;stroke-linejoin:round;}.cls-1,.cls-2,.cls-3{stroke-linecap:round;}.cls-1,.cls-2,.cls-5{stroke-width:4px;}.cls-2{fill:#ffbd56;}.cls-3,.cls-4{stroke-width:2px;}.cls-4,.cls-5{fill:#da85e3;stroke-linecap:square;}</style></defs><g id="C"><polygon id="hC" class="cls-1" points="71.28 22 36.64 42 36.64 82 71.28 62 71.28 22"/></g><g id="B"><polygon id="hB" class="cls-2" points="2 22 2 62 36.64 82 36.64 42 2 22"/><path id="hblk" class="cls-3" d="M16.56,39.39c-3.39,2-3.39,8.28,0,14.14A17.65,17.65,0,0,0,22.69,60h0L40,70V50L22.91,40.13,22.68,40h0C20.46,38.73,18.25,38.41,16.56,39.39Z" transform="translate(-3.36 2)"/><path id="hA" class="cls-4" d="M23.06,53.54h0a17.53,17.53,0,0,1-6.14-6.46,19.54,19.54,0,0,1-2.2-5.6c-1.35,2.87-.74,7.6,1.83,12.06A17.65,17.65,0,0,0,22.69,60h0L40,70V63.32L23.08,53.55Z" transform="translate(-3.36 2)"/></g><g id="A"><polygon id="hA-2" data-name="hA" class="cls-5" points="71.28 22 36.64 2 2 22 36.64 42 71.28 22"/></g></svg>