<svg xmlns="http://www.w3.org/2000/svg" viewBox="0 0 69.28 80">
	<defs>
		<style>
			.cls-1{fill:#d8003e;}.cls-2{fill:#b500c4;}.cls-3{fill:#310733;}.cls-4{fill:#e82f11;}
		</style>
	</defs>
	<g id="delete_this" data-name="delete this">
		<polygon class="cls-1" points="34.64 0 69.28 20 69.28 60 34.64 80 0 60 0 20 34.64 0" />
		<line class="cls-1" x1="69.28" y1="20" y2="60" />
		<line class="cls-1" y1="20" x2="69.28" y2="60" />
	</g>
	<g id="_2c" data-name="2c">
		<polygon class="hD" points="51.94 50.01 69.28 60 51.96 69.99 34.64 60 51.94 50.01" />
		<polygon class="hD" points="17.32 49.99 34.64 60 17.35 70 0 60 17.32 49.99" />
		<polygon class="hB" points="51.96 10 34.62 20 34.64 60 51.94 50.01 51.96 10" />
		<polygon class="hC" points="69.28 20 51.96 10 51.94 50.01 69.28 60 69.28 20" />
		<polygon class="hB" points="17.31 9.99 0 20 0 60 17.32 49.99 17.31 9.99" />
		<polygon class="hC" points="34.62 20 17.31 9.99 17.32 49.99 34.64 60 34.62 20" />
		<polygon class="hD" points="51.95 30 34.61 40 51.95 50 69.27 40 51.95 30" />
		<polygon class="hD" points="17.31 30 0 40 17.32 50 34.62 40 17.31 30" />
	</g>
</svg>
