<svg id="tall_b" data-name="tall b" xmlns="http://www.w3.org/2000/svg" viewBox="0 0 69.28 80">
	<defs>
		<style>
			.cls-1{fill:#4723ce;}.cls-2{fill:#e82f11;}.cls-3{fill:#310733;}
		</style>
	</defs>
	<polygon class="hD" points="64.95 20 34.64 37.5 4.33 20 0 20 34.64 40 69.28 20 64.95 20" />
	<polygon class="hC" points="32.49 38.76 32.48 78.75 34.64 80 34.64 40 32.49 38.76" />
	<polygon class="hB" points="36.81 78.75 36.81 38.76 34.64 40 34.64 80 36.81 78.75" />
	<polygon class="hC" points="2.17 21.25 32.49 38.76 32.49 41.26 2.17 23.75 2.17 21.25" />
	<polygon class="hB" points="67.11 21.25 36.81 38.76 36.81 41.26 67.1 23.76 67.11 21.25" />
	<polygon class="hC" points="0 60 2.17 58.75 2.17 61.25 0 60" />
	<polyline class="hB" points="66.99 58.67 66.99 61.31 69.28 60 66.99 58.67" />
	<polygon class="hC" points="36.81 1.25 34.64 0 34.64 40 36.81 41.26 36.81 3.75 67.11 21.25 66.99 58.67 69.28 60 69.28 20 36.81 1.25" />
	<polygon class="hB" points="34.64 0 34.64 0 0 20 0 60 2.17 58.75 2.17 21.25 32.48 3.75 32.49 3.74 32.49 41.26 34.64 40 34.64 0 34.64 0" />
</svg>
