<svg xmlns="http://www.w3.org/2000/svg" viewBox="0 0 69.53 80.25">
	<defs>
		<style>
			.cls-1{fill:none;stroke:#d8003e;stroke-linecap:round;stroke-linejoin:round;stroke-width:0.25px;}.hB{fill:#310733;}.hC{fill:#e82f11;}.cls-4{fill:#4723ce;}
		</style>
	</defs>
	<g id="delete">
		<polygon class="cls-1" points="34.77 0.13 0.13 20.13 0.13 60.13 34.77 80.13 69.41 60.13 69.41 20.13 34.77 0.13" />
		<line class="cls-1" x1="8.79" y1="15.13" x2="0.13" y2="30.13" />
		<line class="cls-1" x1="0.13" y1="50.13" x2="8.79" y2="65.12" />
		<polyline class="cls-1" points="60.75 60.13 60.75 65.13 69.41 50.13" />
		<line class="cls-1" x1="26.11" y1="75.12" x2="43.43" y2="75.12" />
	</g>
	<g id="delete-2" data-name="delete">
		<line class="cls-1" x1="34.77" y1="0.13" x2="34.77" y2="80.12" />
		<polyline class="cls-1" points="0.13 20.13 34.77 40.13 69.41 60.13" />
		<line class="cls-1" x1="69.41" y1="20.12" x2="0.13" y2="60.13" />
	</g>
	<g id="Layer_6" data-name="Layer 6">
		<line class="cls-1" x1="0.13" y1="20.13" x2="69.41" y2="20.13" />
		<line class="cls-1" x1="0.13" y1="60.13" x2="69.41" y2="60.13" />
		<line class="cls-1" x1="34.77" y1="0.13" x2="0.13" y2="60.13" />
		<line class="cls-1" x1="34.77" y1="80.12" x2="69.41" y2="20.12" />
		<line class="cls-1" x1="34.77" y1="0.13" x2="69.41" y2="60.12" />
		<line class="cls-1" x1="34.77" y1="80.12" x2="0.13" y2="20.13" />
		<line class="cls-1" x1="52.09" y1="10.13" x2="17.45" y2="70.12" />
		<line class="cls-1" x1="17.45" y1="10.13" x2="52.09" y2="70.12" />
		<line class="cls-1" x1="0.13" y1="40.12" x2="69.41" y2="40.12" />
		<line class="cls-1" x1="17.45" y1="10.13" x2="52.09" y2="10.13" />
		<line class="cls-1" x1="69.41" y1="40.12" x2="52.09" y2="10.13" />
		<line class="cls-1" x1="52.09" y1="70.12" x2="69.41" y2="40.12" />
		<line class="cls-1" x1="17.45" y1="70.12" x2="52.09" y2="70.12" />
		<line class="cls-1" x1="0.13" y1="40.12" x2="17.45" y2="70.12" />
		<line class="cls-1" x1="17.45" y1="10.13" x2="0.13" y2="40.12" />
		<line class="cls-1" x1="52.09" y1="10.13" x2="0.13" y2="40.12" />
		<line class="cls-1" x1="52.09" y1="70.12" x2="52.09" y2="10.13" />
		<line class="cls-1" x1="0.13" y1="40.12" x2="52.09" y2="70.12" />
		<line class="cls-1" x1="17.45" y1="10.13" x2="17.45" y2="70.12" />
		<line class="cls-1" x1="69.41" y1="40.12" x2="17.45" y2="70.12" />
		<line class="cls-1" x1="17.45" y1="10.13" x2="69.41" y2="40.12" />
		<line class="cls-1" x1="69.41" y1="30.13" x2="0.13" y2="30.13" />
		<line class="cls-1" x1="69.41" y1="50.13" x2="0.13" y2="50.13" />
		<line class="cls-1" x1="60.75" y1="15.12" x2="26.11" y2="75.12" />
		<line class="cls-1" x1="43.43" y1="5.13" x2="8.79" y2="65.12" />
		<line class="cls-1" x1="26.11" y1="5.12" x2="26.11" y2="75.12" />
		<line class="cls-1" x1="8.79" y1="15.13" x2="8.79" y2="65.12" />
		<line class="cls-1" x1="60.75" y1="15.12" x2="8.79" y2="15.13" />
		<line class="cls-1" x1="60.75" y1="65.12" x2="60.75" y2="15.12" />
		<line class="cls-1" x1="8.79" y1="65.12" x2="60.75" y2="65.12" />
		<line class="cls-1" x1="8.79" y1="15.13" x2="69.41" y2="50.13" />
		<line class="cls-1" x1="0.13" y1="30.13" x2="60.75" y2="65.12" />
		<line class="cls-1" x1="0.13" y1="50.13" x2="43.43" y2="75.12" />
		<line class="cls-1" x1="69.41" y1="50.13" x2="26.11" y2="75.12" />
		<line class="cls-1" x1="69.41" y1="30.13" x2="8.79" y2="65.12" />
		<line class="cls-1" x1="60.75" y1="15.12" x2="0.13" y2="50.13" />
		<line class="cls-1" x1="43.43" y1="5.13" x2="43.43" y2="75.12" />
		<line class="cls-1" x1="26.11" y1="5.12" x2="43.43" y2="5.13" />
		<line class="cls-1" x1="60.75" y1="65.12" x2="26.11" y2="5.12" />
		<line class="cls-1" x1="8.79" y1="15.13" x2="43.43" y2="75.12" />
		<line class="cls-1" x1="60.75" y1="15.12" x2="69.41" y2="30.13" />
		<line class="cls-1" x1="26.11" y1="5.12" x2="69.41" y2="30.13" />
		<line class="cls-1" x1="43.43" y1="5.13" x2="0.13" y2="30.13" />
		<line class="cls-1" x1="39.1" y1="2.63" x2="0.13" y2="25.13" />
		<line class="cls-1" x1="47.12" y1="7.26" x2="47.16" y2="7.28" />
		<line class="cls-1" x1="30.44" y1="2.62" x2="69.41" y2="25.13" />
		<line class="cls-1" x1="30.44" y1="77.62" x2="30.44" y2="2.62" />
		<line class="cls-1" x1="39.1" y1="2.63" x2="39.1" y2="77.62" />
		<line class="cls-1" x1="69.41" y1="25.13" x2="0.13" y2="25.13" />
		<line class="cls-1" x1="69.41" y1="35.12" x2="0.13" y2="35.12" />
		<line class="cls-1" x1="0.13" y1="45.13" x2="69.41" y2="45.12" />
		<line class="cls-1" x1="69.41" y1="55.12" x2="0.13" y2="55.12" />
		<line class="cls-1" x1="26.11" y1="75.12" x2="0.13" y2="30.13" />
		<line class="cls-1" x1="47.76" y1="72.63" x2="13.12" y2="12.63" />
		<line class="cls-1" x1="39.1" y1="2.63" x2="4.46" y2="62.63" />
		<line class="cls-1" x1="43.43" y1="5.13" x2="69.41" y2="50.13" />
		<line class="cls-1" x1="21.78" y1="72.62" x2="69.41" y2="45.12" />
		<line class="cls-1" x1="4.46" y1="62.63" x2="69.41" y2="25.13" />
		<line class="cls-1" x1="69.41" y1="35.12" x2="13.12" y2="67.62" />
		<line class="cls-1" x1="13.12" y1="12.63" x2="13.12" y2="67.62" />
		<line class="cls-1" x1="0.13" y1="55.12" x2="65.08" y2="17.63" />
		<line class="cls-1" x1="65.08" y1="62.62" x2="65.08" y2="17.63" />
		<line class="cls-1" x1="56.42" y1="67.62" x2="56.42" y2="12.63" />
		<line class="cls-1" x1="47.76" y1="72.63" x2="47.76" y2="7.62" />
		<line class="cls-1" x1="0.13" y1="50.13" x2="26.11" y2="5.12" />
		<line class="cls-1" x1="69.41" y1="55.12" x2="4.46" y2="17.63" />
		<line class="cls-1" x1="21.78" y1="72.62" x2="56.42" y2="12.63" />
		<line class="cls-1" x1="0.13" y1="45.13" x2="56.42" y2="12.63" />
		<line class="cls-1" x1="47.76" y1="7.62" x2="0.13" y2="35.12" />
		<polyline class="cls-1" points="65.08 17.63 47.76 47.63 30.44 77.63" />
		<line class="cls-1" x1="65.08" y1="62.62" x2="0.13" y2="25.13" />
		<line class="cls-1" x1="0.13" y1="35.12" x2="56.42" y2="67.62" />
		<line class="cls-1" x1="69.41" y1="45.12" x2="13.12" y2="12.63" />
		<line class="cls-1" x1="47.76" y1="7.62" x2="13.12" y2="67.62" />
		<line class="cls-1" x1="47.76" y1="72.63" x2="0.13" y2="45.13" />
		<line class="cls-1" x1="69.41" y1="55.12" x2="30.44" y2="77.62" />
		<line class="cls-1" x1="4.46" y1="17.63" x2="4.46" y2="62.63" />
		<line class="cls-1" x1="39.1" y1="77.62" x2="4.46" y2="17.63" />
		<line class="cls-1" x1="69.41" y1="35.12" x2="21.78" y2="7.63" />
		<line class="cls-1" x1="56.42" y1="67.62" x2="21.78" y2="7.63" />
		<line class="cls-1" x1="21.78" y1="72.62" x2="21.78" y2="7.63" />
		<line class="cls-1" x1="65.08" y1="62.62" x2="30.44" y2="2.62" />
		<line class="cls-1" x1="39.1" y1="77.62" x2="0.13" y2="55.12" />
		<line class="cls-1" x1="69.41" y1="30.13" x2="43.43" y2="75.12" />
	</g>
	<g id="hB" data-name="hB copy">
		<polygon class="hB" points="0.13 50.13 0.13 30.13 4.46 32.63 4.46 52.63 0.13 50.13" />
		<polygon class="hB" points="8.8 50.13 8.79 30.13 13.12 32.63 13.12 52.63 8.8 50.13" />
		<polygon class="hB" points="17.45 30.13 17.45 50.13 21.78 52.63 21.78 32.63 17.45 30.13" />
		<polygon class="hB" points="26.11 30.13 30.46 32.67 30.44 52.62 26.11 50.13 26.11 30.13" />
		<polygon class="hB" points="34.77 30.13 34.77 50.13 39.1 52.62 39.1 32.63 34.77 30.13" />
		<polygon class="hB" points="43.43 30.13 47.76 32.63 47.76 52.62 43.43 50.13 43.43 30.13" />
		<polygon class="hB" points="52.09 30.13 52.09 50.13 56.42 52.62 56.42 32.63 52.09 30.13" />
		<polygon class="hB" points="60.75 30.13 60.75 50.13 65.08 52.62 65.08 32.63 60.75 30.13" />
	</g>
	<g id="hC" data-name="hC copy">
		<polygon class="hC" points="4.46 52.63 4.46 32.63 8.79 30.13 8.8 50.13 4.46 52.63" />
		<polygon class="hC" points="13.12 32.63 13.12 52.63 17.45 50.13 17.45 30.13 13.12 32.63" />
		<polygon class="hC" points="21.78 32.63 21.78 52.63 26.11 50.13 26.11 30.13 21.78 32.63" />
		<polygon class="hC" points="30.46 32.67 30.44 52.62 34.77 50.13 34.77 30.13 30.46 32.67" />
		<polygon class="hC" points="39.1 32.63 39.1 52.62 43.43 50.13 43.43 30.13 39.1 32.63" />
		<polygon class="hC" points="47.76 32.63 47.76 52.62 52.09 50.13 52.09 30.13 47.76 32.63" />
		<polygon class="hC" points="56.42 32.63 56.42 52.62 60.75 50.13 60.75 30.13 56.42 32.63" />
		<polygon class="hC" points="65.08 32.63 65.08 52.62 69.41 50.13 69.41 30.13 65.08 32.63" />
	</g>
	<g id="hA">
		<polygon class="hA" points="34.77 10.13 69.41 30.13 65.08 32.63 60.75 30.13 56.42 32.63 52.09 30.13 47.76 32.63 43.43 30.13 39.1 32.63 34.77 30.13 30.46 32.67 26.11 30.13 21.78 32.63 17.45 30.13 13.12 32.63 8.79 30.13 4.46 32.63 0.13 30.13 34.77 10.13" />
	</g>
</svg>
