<svg xmlns="http://www.w3.org/2000/svg" viewBox="0 0 69.53 80.25">
	<defs>
		<style>
			.cls-1{fill:none;stroke:#d8003e;stroke-linecap:round;stroke-linejoin:round;stroke-width:0.25px;}.cls-2{fill:#4723ce;}.cls-3{fill:#e82f11;}.cls-4{fill:#310733;}
		</style>
	</defs>
	<g id="delete">
		<polygon class="cls-1" points="34.77 0.13 0.13 20.13 0.13 60.13 34.77 80.13 69.41 60.13 69.41 20.13 34.77 0.13" />
		<line class="cls-1" x1="8.79" y1="15.13" x2="0.13" y2="30.13" />
		<line class="cls-1" x1="0.13" y1="50.13" x2="8.79" y2="65.12" />
		<polyline class="cls-1" points="60.75 60.13 60.75 65.13 69.41 50.13" />
		<line class="cls-1" x1="26.11" y1="75.12" x2="43.43" y2="75.12" />
	</g>
	<g id="delete-2" data-name="delete">
		<line class="cls-1" x1="34.77" y1="0.13" x2="34.77" y2="80.12" />
		<polyline class="cls-1" points="0.13 20.13 34.77 40.13 69.41 60.13" />
		<line class="cls-1" x1="69.41" y1="20.12" x2="0.13" y2="60.13" />
	</g>
	<g id="Layer_6" data-name="Layer 6">
		<line class="cls-1" x1="0.13" y1="20.13" x2="69.41" y2="20.13" />
		<line class="cls-1" x1="0.13" y1="60.13" x2="69.41" y2="60.13" />
		<line class="cls-1" x1="34.77" y1="0.13" x2="0.13" y2="60.13" />
		<line class="cls-1" x1="34.77" y1="80.12" x2="69.41" y2="20.12" />
		<line class="cls-1" x1="34.77" y1="0.13" x2="69.41" y2="60.12" />
		<line class="cls-1" x1="34.77" y1="80.12" x2="0.13" y2="20.13" />
		<line class="cls-1" x1="52.09" y1="10.13" x2="17.45" y2="70.12" />
		<line class="cls-1" x1="17.45" y1="10.13" x2="52.09" y2="70.12" />
		<line class="cls-1" x1="0.13" y1="40.12" x2="69.41" y2="40.12" />
		<line class="cls-1" x1="17.45" y1="10.13" x2="52.09" y2="10.13" />
		<line class="cls-1" x1="69.41" y1="40.12" x2="52.09" y2="10.13" />
		<line class="cls-1" x1="52.09" y1="70.12" x2="69.41" y2="40.12" />
		<line class="cls-1" x1="17.45" y1="70.12" x2="52.09" y2="70.12" />
		<line class="cls-1" x1="0.13" y1="40.12" x2="17.45" y2="70.12" />
		<line class="cls-1" x1="17.45" y1="10.13" x2="0.13" y2="40.12" />
		<line class="cls-1" x1="52.09" y1="10.13" x2="0.13" y2="40.12" />
		<line class="cls-1" x1="52.09" y1="70.12" x2="52.09" y2="10.13" />
		<line class="cls-1" x1="0.13" y1="40.12" x2="52.09" y2="70.12" />
		<line class="cls-1" x1="17.45" y1="10.13" x2="17.45" y2="70.12" />
		<line class="cls-1" x1="69.41" y1="40.12" x2="17.45" y2="70.12" />
		<line class="cls-1" x1="17.45" y1="10.13" x2="69.41" y2="40.12" />
		<line class="cls-1" x1="69.41" y1="30.13" x2="0.13" y2="30.13" />
		<line class="cls-1" x1="69.41" y1="50.13" x2="0.13" y2="50.13" />
		<line class="cls-1" x1="60.75" y1="15.12" x2="26.11" y2="75.12" />
		<line class="cls-1" x1="43.43" y1="5.13" x2="8.79" y2="65.12" />
		<line class="cls-1" x1="26.11" y1="5.12" x2="26.11" y2="75.12" />
		<line class="cls-1" x1="8.79" y1="15.13" x2="8.79" y2="65.12" />
		<line class="cls-1" x1="60.75" y1="15.12" x2="8.79" y2="15.13" />
		<line class="cls-1" x1="60.75" y1="65.12" x2="60.75" y2="15.12" />
		<line class="cls-1" x1="8.79" y1="65.12" x2="60.75" y2="65.12" />
		<line class="cls-1" x1="8.79" y1="15.13" x2="69.41" y2="50.13" />
		<line class="cls-1" x1="0.13" y1="30.13" x2="60.75" y2="65.12" />
		<line class="cls-1" x1="0.13" y1="50.13" x2="43.43" y2="75.12" />
		<line class="cls-1" x1="69.41" y1="50.13" x2="26.11" y2="75.12" />
		<line class="cls-1" x1="69.41" y1="30.13" x2="8.79" y2="65.12" />
		<line class="cls-1" x1="60.75" y1="15.12" x2="0.13" y2="50.13" />
		<line class="cls-1" x1="43.43" y1="5.13" x2="43.43" y2="75.12" />
		<line class="cls-1" x1="26.11" y1="5.12" x2="43.43" y2="5.13" />
		<line class="cls-1" x1="60.75" y1="65.12" x2="26.11" y2="5.12" />
		<line class="cls-1" x1="8.79" y1="15.13" x2="43.43" y2="75.12" />
		<line class="cls-1" x1="60.75" y1="15.12" x2="69.41" y2="30.13" />
		<line class="cls-1" x1="26.11" y1="5.12" x2="69.41" y2="30.13" />
		<line class="cls-1" x1="43.43" y1="5.13" x2="0.13" y2="30.13" />
		<line class="cls-1" x1="39.1" y1="2.63" x2="0.13" y2="25.13" />
		<line class="cls-1" x1="47.12" y1="7.26" x2="47.16" y2="7.28" />
		<line class="cls-1" x1="30.44" y1="2.62" x2="69.41" y2="25.13" />
		<line class="cls-1" x1="30.44" y1="77.62" x2="30.44" y2="2.62" />
		<line class="cls-1" x1="39.1" y1="2.63" x2="39.1" y2="77.62" />
		<line class="cls-1" x1="69.41" y1="25.13" x2="0.13" y2="25.13" />
		<line class="cls-1" x1="69.41" y1="35.12" x2="0.13" y2="35.12" />
		<line class="cls-1" x1="0.13" y1="45.13" x2="69.41" y2="45.12" />
		<line class="cls-1" x1="69.41" y1="55.12" x2="0.13" y2="55.12" />
		<line class="cls-1" x1="26.11" y1="75.12" x2="0.13" y2="30.13" />
		<line class="cls-1" x1="47.76" y1="72.63" x2="13.12" y2="12.63" />
		<line class="cls-1" x1="39.1" y1="2.63" x2="4.46" y2="62.63" />
		<line class="cls-1" x1="43.43" y1="5.13" x2="69.41" y2="50.13" />
		<line class="cls-1" x1="21.78" y1="72.62" x2="69.41" y2="45.12" />
		<line class="cls-1" x1="4.46" y1="62.63" x2="69.41" y2="25.13" />
		<line class="cls-1" x1="69.41" y1="35.12" x2="13.12" y2="67.62" />
		<line class="cls-1" x1="13.12" y1="12.63" x2="13.12" y2="67.62" />
		<line class="cls-1" x1="0.13" y1="55.12" x2="65.08" y2="17.63" />
		<line class="cls-1" x1="65.08" y1="62.62" x2="65.08" y2="17.63" />
		<line class="cls-1" x1="56.42" y1="67.62" x2="56.42" y2="12.63" />
		<line class="cls-1" x1="47.76" y1="72.63" x2="47.76" y2="7.62" />
		<line class="cls-1" x1="0.13" y1="50.13" x2="26.11" y2="5.12" />
		<line class="cls-1" x1="69.41" y1="55.12" x2="4.46" y2="17.63" />
		<line class="cls-1" x1="21.78" y1="72.62" x2="56.42" y2="12.63" />
		<line class="cls-1" x1="0.13" y1="45.13" x2="56.42" y2="12.63" />
		<line class="cls-1" x1="47.76" y1="7.62" x2="0.13" y2="35.12" />
		<polyline class="cls-1" points="65.08 17.63 47.76 47.63 30.44 77.63" />
		<line class="cls-1" x1="65.08" y1="62.62" x2="0.13" y2="25.13" />
		<line class="cls-1" x1="0.13" y1="35.12" x2="56.42" y2="67.62" />
		<line class="cls-1" x1="69.41" y1="45.12" x2="13.12" y2="12.63" />
		<line class="cls-1" x1="47.76" y1="7.62" x2="13.12" y2="67.62" />
		<line class="cls-1" x1="47.76" y1="72.63" x2="0.13" y2="45.13" />
		<line class="cls-1" x1="69.41" y1="55.12" x2="30.44" y2="77.62" />
		<line class="cls-1" x1="4.46" y1="17.63" x2="4.46" y2="62.63" />
		<line class="cls-1" x1="39.1" y1="77.62" x2="4.46" y2="17.63" />
		<line class="cls-1" x1="69.41" y1="35.12" x2="21.78" y2="7.63" />
		<line class="cls-1" x1="56.42" y1="67.62" x2="21.78" y2="7.63" />
		<line class="cls-1" x1="21.78" y1="72.62" x2="21.78" y2="7.63" />
		<line class="cls-1" x1="65.08" y1="62.62" x2="30.44" y2="2.62" />
		<line class="cls-1" x1="39.1" y1="77.62" x2="0.13" y2="55.12" />
		<line class="cls-1" x1="69.41" y1="30.13" x2="43.43" y2="75.12" />
	</g>
	<g id="hA">
		<polygon class="cls-2" points="8.79 15.13 26.11 5.13 30.44 7.61 13.12 17.63 8.79 15.13" />
		<polygon class="cls-2" points="13.12 22.63 30.44 12.63 34.77 15.13 17.45 25.13 13.12 22.63" />
		<polygon class="cls-2" points="17.45 30.13 34.77 20.13 39.1 22.63 21.78 32.63 17.45 30.13" />
		<polygon class="cls-2" points="21.78 37.63 39.1 27.63 43.43 30.13 26.11 40.13 21.78 37.63" />
		<polygon class="cls-2" points="26.11 45.13 43.43 35.13 47.76 37.63 30.44 47.63 26.11 45.13" />
		<polygon class="cls-2" points="30.44 52.63 47.76 42.63 52.09 45.13 34.77 55.13 30.44 52.63" />
		<polygon class="cls-2" points="34.77 60.13 52.09 50.13 56.42 52.63 39.1 62.63 34.77 60.13" />
		<polygon class="cls-2" points="39.1 67.63 56.42 57.63 60.75 60.13 43.43 70.13 39.1 67.63" />
	</g>
	<g id="hC">
		<polygon class="cls-3" points="13.12 17.63 30.44 7.61 30.44 12.63 13.12 22.63 13.12 17.63" />
		<polygon class="cls-3" points="17.45 25.13 34.77 15.13 34.77 20.13 17.45 30.13 17.45 25.13" />
		<polygon class="cls-3" points="21.78 32.63 39.1 22.63 39.1 27.63 21.78 37.63 21.78 32.63" />
		<polygon class="cls-3" points="26.11 40.13 43.43 30.13 43.43 35.13 26.11 45.13 26.11 40.13" />
		<polygon class="cls-3" points="30.44 47.63 47.76 37.63 47.76 42.63 30.44 52.63 30.44 47.63" />
		<polygon class="cls-3" points="34.77 55.13 52.09 45.13 52.09 50.13 34.77 60.13 34.77 55.13" />
		<polygon class="cls-3" points="39.1 62.63 56.42 52.63 56.42 57.63 39.1 67.63 39.1 62.63" />
		<polygon class="cls-3" points="43.43 70.13 60.75 60.13 60.75 65.13 43.43 75.13 43.43 70.13" />
	</g>
	<g id="hB">
		<polygon class="cls-4" points="43.43 75.13 8.79 55.13 8.79 15.13 13.12 17.63 13.12 22.63 17.45 25.13 17.45 30.13 21.78 32.63 21.78 37.63 26.11 40.13 26.11 45.13 30.44 47.63 30.44 52.63 34.77 55.13 34.77 60.13 39.1 62.63 39.1 67.63 43.43 70.13 43.43 75.13" />
	</g>
</svg>
