<svg xmlns="http://www.w3.org/2000/svg" viewBox="0 0 73.28 84">
	<defs>
		<style>
			.cls-1,.cls-2,.cls-3{fill:none;}.cls-1,.cls-2{stroke:#d8003e;}.cls-1,.cls-2,.cls-3,.hB,.hC,.hA{stroke-linecap:round;stroke-linejoin:round;}.cls-1,.cls-3{stroke-width:4px;}.cls-2{stroke-width:0.25px;}.cls-3,.hB,.hC,.hA{stroke:#262626;}.hB{fill:#ffbd56;}.hB,.hC,.hA{stroke-width:2px;}.hC{fill:#5a5aff;}.hA{fill:#da85e3;}
		</style>
	</defs>
	<g id="delete">
		<polygon class="cls-1" points="36.64 2 2 22 2 62 36.64 82 71.28 62 71.28 22 36.64 2" />
		<line class="cls-2" x1="10.66" y1="17" x2="2" y2="32" />
		<line class="cls-2" x1="2" y1="52" x2="10.66" y2="67" />
		<line class="cls-2" x1="71.28" y1="52" x2="62.62" y2="67" />
		<line class="cls-2" x1="27.98" y1="77" x2="45.3" y2="77" />
		<line class="cls-2" x1="2" y1="22" x2="71.28" y2="22" />
		<line class="cls-2" x1="2" y1="62" x2="71.28" y2="62" />
		<line class="cls-2" x1="36.64" y1="2" x2="2" y2="62" />
		<line class="cls-2" x1="71.28" y1="22" x2="36.64" y2="82" />
		<line class="cls-2" x1="71.28" y1="62" x2="36.64" y2="2" />
		<line class="cls-2" x1="36.64" y1="82" x2="2" y2="22" />
		<line class="cls-2" x1="53.96" y1="12" x2="19.32" y2="72" />
		<line class="cls-2" x1="19.32" y1="12" x2="53.96" y2="72" />
		<line class="cls-2" x1="2" y1="42" x2="71.28" y2="42" />
		<line class="cls-2" x1="19.32" y1="12" x2="53.96" y2="12" />
		<line class="cls-2" x1="71.28" y1="42" x2="53.96" y2="12" />
		<line class="cls-2" x1="53.96" y1="72" x2="71.28" y2="42" />
		<line class="cls-2" x1="19.32" y1="72" x2="53.96" y2="72" />
		<line class="cls-2" x1="2" y1="42" x2="19.32" y2="72" />
		<line class="cls-2" x1="19.32" y1="12" x2="2" y2="42" />
		<line class="cls-2" x1="53.96" y1="12" x2="2" y2="42" />
		<line class="cls-2" x1="53.96" y1="72" x2="53.96" y2="12" />
		<line class="cls-2" x1="2" y1="42" x2="53.96" y2="72" />
		<line class="cls-2" x1="19.32" y1="12" x2="19.32" y2="72" />
		<line class="cls-2" x1="71.28" y1="42" x2="19.32" y2="72" />
		<line class="cls-2" x1="19.32" y1="12" x2="71.28" y2="42" />
		<line class="cls-2" x1="71.28" y1="32" x2="2" y2="32" />
		<line class="cls-2" x1="71.28" y1="52" x2="2" y2="52" />
		<line class="cls-2" x1="62.62" y1="17" x2="27.98" y2="77" />
		<line class="cls-2" x1="45.3" y1="7" x2="10.66" y2="67" />
		<line class="cls-2" x1="27.98" y1="7" x2="27.98" y2="77" />
		<line class="cls-2" x1="10.66" y1="17" x2="10.66" y2="67" />
		<line class="cls-2" x1="62.62" y1="17" x2="10.66" y2="17" />
		<line class="cls-2" x1="62.62" y1="67" x2="62.62" y2="17" />
		<line class="cls-2" x1="10.66" y1="67" x2="62.62" y2="67" />
		<line class="cls-2" x1="10.66" y1="17" x2="71.28" y2="52" />
		<line class="cls-2" x1="2" y1="32" x2="62.62" y2="67" />
		<line class="cls-2" x1="2" y1="52" x2="45.3" y2="77" />
		<line class="cls-2" x1="71.28" y1="52" x2="27.98" y2="77" />
		<line class="cls-2" x1="71.28" y1="32" x2="10.66" y2="67" />
		<line class="cls-2" x1="62.62" y1="17" x2="2" y2="52" />
		<line class="cls-2" x1="45.3" y1="7" x2="45.3" y2="77" />
		<line class="cls-2" x1="27.98" y1="7" x2="45.3" y2="7" />
		<line class="cls-2" x1="62.62" y1="67" x2="27.98" y2="7" />
		<line class="cls-2" x1="10.66" y1="17" x2="45.3" y2="77" />
		<line class="cls-2" x1="71.28" y1="32" x2="62.62" y2="17" />
		<line class="cls-2" x1="27.98" y1="7" x2="71.28" y2="32" />
		<line class="cls-2" x1="45.3" y1="7" x2="2" y2="32" />
		<line class="cls-2" x1="40.97" y1="4.5" x2="2" y2="27" />
		<line class="cls-2" x1="32.31" y1="4.5" x2="71.28" y2="27" />
		<line class="cls-2" x1="32.31" y1="79.5" x2="32.31" y2="4.5" />
		<line class="cls-2" x1="40.97" y1="4.5" x2="40.97" y2="79.5" />
		<line class="cls-2" x1="71.28" y1="27" x2="2" y2="27" />
		<line class="cls-2" x1="71.28" y1="37" x2="2" y2="37" />
		<line class="cls-2" x1="2" y1="47" x2="71.28" y2="47" />
		<line class="cls-2" x1="71.28" y1="57" x2="2" y2="57" />
		<line class="cls-2" x1="27.98" y1="77" x2="2" y2="32" />
		<line class="cls-2" x1="49.63" y1="74.5" x2="14.99" y2="14.5" />
		<line class="cls-2" x1="40.97" y1="4.5" x2="6.33" y2="64.5" />
		<line class="cls-2" x1="45.3" y1="7" x2="71.28" y2="52" />
		<line class="cls-2" x1="23.65" y1="74.5" x2="71.28" y2="47" />
		<line class="cls-2" x1="6.33" y1="64.5" x2="71.28" y2="27" />
		<line class="cls-2" x1="71.28" y1="37" x2="14.99" y2="69.5" />
		<line class="cls-2" x1="14.99" y1="14.5" x2="14.99" y2="69.5" />
		<line class="cls-2" x1="2" y1="57" x2="66.95" y2="19.5" />
		<line class="cls-2" x1="66.95" y1="64.5" x2="66.95" y2="19.5" />
		<line class="cls-2" x1="58.29" y1="69.5" x2="58.29" y2="14.5" />
		<line class="cls-2" x1="49.63" y1="74.5" x2="49.63" y2="9.5" />
		<line class="cls-2" x1="2" y1="52" x2="27.98" y2="7" />
		<line class="cls-2" x1="71.28" y1="57" x2="6.33" y2="19.5" />
		<line class="cls-2" x1="23.65" y1="74.5" x2="58.29" y2="14.5" />
		<line class="cls-2" x1="2" y1="47" x2="58.29" y2="14.5" />
		<line class="cls-2" x1="49.63" y1="9.5" x2="2" y2="37" />
		<polyline class="cls-2" points="66.95 19.5 49.63 49.5 32.31 79.5" />
		<line class="cls-2" x1="66.95" y1="64.5" x2="2" y2="27" />
		<line class="cls-2" x1="2" y1="37" x2="58.29" y2="69.5" />
		<line class="cls-2" x1="71.28" y1="47" x2="14.99" y2="14.5" />
		<line class="cls-2" x1="14.99" y1="69.5" x2="49.63" y2="9.5" />
		<line class="cls-2" x1="49.63" y1="74.5" x2="2" y2="47" />
		<line class="cls-2" x1="71.28" y1="57" x2="32.31" y2="79.5" />
		<line class="cls-2" x1="6.33" y1="19.5" x2="6.33" y2="64.5" />
		<line class="cls-2" x1="40.97" y1="79.5" x2="6.33" y2="19.5" />
		<line class="cls-2" x1="71.28" y1="37" x2="23.65" y2="9.5" />
		<line class="cls-2" x1="58.29" y1="69.5" x2="23.65" y2="9.5" />
		<line class="cls-2" x1="23.65" y1="74.5" x2="23.65" y2="9.5" />
		<line class="cls-2" x1="66.95" y1="64.5" x2="32.31" y2="4.5" />
		<line class="cls-2" x1="40.97" y1="79.5" x2="2" y2="57" />
		<line class="cls-2" x1="71.28" y1="32" x2="45.3" y2="77" />
		<path class="cls-2" d="M34.23,40" transform="translate(-3.36 2)" />
		<path class="cls-2" d="M34.17,70.09" transform="translate(-3.36 2)" />
		<line class="cls-2" x1="7.75" y1="32.03" x2="7.77" y2="62" />
		<line class="cls-2" x1="2" y1="22" x2="71.28" y2="62" />
		<line class="cls-2" x1="71.28" y1="22" x2="2" y2="62" />
		<line class="cls-2" x1="36.64" y1="2" x2="36.64" y2="79.5" />
	</g>
	<g id="C">
		<polygon class="hP4" points="19.37 47.01 23.63 44.55 23.65 39.5 36.61 31.95 49.66 39.45 49.62 44.47 54.01 47.01 53.98 51.99 58.31 54.49 58.31 59.49 62.64 61.99 62.64 66.99 45.32 76.99 36.66 71.99 28 76.99 10.68 66.99 10.64 62.01 15.01 59.49 14.99 54.5 19.32 51.98 19.37 47.01" />
		<polyline class="hB" points="36.66 61.99 36.66 71.99 45.32 76.99 45.32 71.99 41.01 64.45 36.66 61.99" />
		<polygon class="hC" points="45.32 71.99 62.64 61.99 62.64 66.99 45.32 76.99 45.32 71.99" />
		<polygon class="hC" points="36.66 56.99 36.66 61.99 53.98 51.99 54.01 47.01 36.66 56.99" />
		<polygon class="hC" points="41.01 64.45 41.01 69.53 58.31 59.49 58.31 54.49 41.01 64.45" />
		<polygon class="hC" points="28 76.99 36.66 71.99 36.66 61.99 32.26 64.45 28 72.09 28 76.99" />
		<polyline class="hC" points="36.69 51.98 36.61 47.02 49.66 39.45 49.62 44.47 36.69 51.98" />
	</g>
	<g id="B">
		<polygon class="hB" points="28 76.99 28 72.09 10.64 62.01 10.68 66.99 28 76.99" />
		<polygon class="hB" points="15.01 59.49 14.99 54.5 32.26 64.45 32.26 69.61 15.01 59.49" />
		<polyline class="hB" points="36.66 61.99 36.66 56.99 19.37 47.01 19.32 51.98 36.66 61.99" />
		<polyline  class="hB" points="23.63 44.55 23.65 39.5 36.61 47.02 36.69 51.98 23.63 44.55" />
	</g>
	<g id="A">
		<polygon class="hA" points="32.26 69.61 28 72.09 10.64 62.01 15.01 59.49 32.26 69.61" />
		<polygon class="hA" points="14.99 54.5 32.26 64.45 36.66 61.99 19.32 51.98 14.99 54.5" />
		<polygon class="hA" points="36.66 61.99 53.98 51.99 58.31 54.49 41.01 64.45 36.66 61.99" />
		<polygon class="hA" points="41.01 69.53 58.31 59.49 62.64 61.99 45.32 71.99 41.01 69.53" />
		<polygon class="hA" points="19.37 47.01 23.63 44.55 36.69 51.98 49.62 44.47 54.01 47.01 36.66 56.99 19.37 47.01" />
		<polygon class="hA" points="23.65 39.5 36.61 31.95 49.66 39.45 36.61 47.02 23.65 39.5" />
	</g>
</svg>
