<?xml version="1.0" encoding="utf-8"?>
<!-- Generator: Adobe Illustrator 24.2.0, SVG Export Plug-In . SVG Version: 6.00 Build 0)  -->
<svg version="1.1" id="Layer_1" xmlns="http://www.w3.org/2000/svg" xmlns:xlink="http://www.w3.org/1999/xlink" x="0px" y="0px"
	 viewBox="0 0 71.3 82" style="enable-background:new 0 0 71.3 82;" xml:space="preserve">
<style type="text/css">
	.st0{fill:#5A5AFF;stroke:#262626;stroke-width:2;stroke-linecap:round;stroke-linejoin:round;}
	.st1{fill:#FFBD56;stroke:#262626;stroke-width:2;stroke-linecap:square;stroke-linejoin:round;}
	.st2{fill:#DA85E3;stroke:#262626;stroke-width:2;stroke-linecap:square;stroke-linejoin:round;}
	.st3{display:none;}
	.st4{display:inline;fill:none;stroke:#D8003E;stroke-width:4;stroke-linecap:round;stroke-linejoin:round;stroke-miterlimit:10;}
	
		.st5{display:inline;fill:none;stroke:#D8003E;stroke-width:0.25;stroke-linecap:round;stroke-linejoin:round;stroke-miterlimit:10;}
</style>
<g id="Layer_1_1_">
	<g id="C">
		<path class="hC" d="M35.6,81l4.4-2.5v-35l25.9-15l0.1,35l4.3-2.5V21L35.6,41V81"/>
		<polyline class="hC" points="35.6,6 35.6,36 40,33.5 40,8.5 35.6,6"/>
		<polyline class="hB" points="31.3,33.5 35.6,36 35.6,6 31.3,8.5 31.3,33.5 "/>
	</g>
	<g id="B">
		<path class="hB" d="M35.6,81V41L1,21v40l4.3,2.5v-35l26,15v35L35.6,81z"/>
	</g>
	<g id="A">
		<path class="hA" d="M35.6,1L1,21l34.6,20l34.6-20L35.6,1z M35.6,36L9.7,21.1L35.6,6l26,15L35.6,36z"/>
	</g>
</g>
<g id="Layer_2_1_" class="st3">
	<polygon class="st4" points="35.6,1 1,21 1,61 35.6,81 70.3,61 70.3,21 	"/>
	<line class="st5" x1="9.7" y1="16" x2="1" y2="31"/>
	<line class="st5" x1="1" y1="51" x2="9.7" y2="66"/>
	<line class="st5" x1="70.3" y1="51" x2="61.6" y2="66"/>
	<line class="st5" x1="27" y1="76" x2="44.3" y2="76"/>
	<line class="st5" x1="1" y1="21" x2="70.3" y2="21"/>
	<line class="st5" x1="1" y1="61" x2="70.3" y2="61"/>
	<line class="st5" x1="35.6" y1="1" x2="1" y2="61"/>
	<line class="st5" x1="70.3" y1="21" x2="35.6" y2="81"/>
	<line class="st5" x1="70.3" y1="61" x2="35.6" y2="1"/>
	<line class="st5" x1="35.6" y1="81" x2="1" y2="21"/>
	<line class="st5" x1="53" y1="11" x2="18.3" y2="71"/>
	<line class="st5" x1="18.3" y1="11" x2="53" y2="71"/>
	<line class="st5" x1="1" y1="41" x2="70.3" y2="41"/>
	<line class="st5" x1="18.3" y1="11" x2="53" y2="11"/>
	<line class="st5" x1="70.3" y1="41" x2="53" y2="11"/>
	<line class="st5" x1="53" y1="71" x2="70.3" y2="41"/>
	<line class="st5" x1="18.3" y1="71" x2="53" y2="71"/>
	<line class="st5" x1="1" y1="41" x2="18.3" y2="71"/>
	<line class="st5" x1="18.3" y1="11" x2="1" y2="41"/>
	<line class="st5" x1="53" y1="11" x2="1" y2="41"/>
	<line class="st5" x1="53" y1="71" x2="53" y2="11"/>
	<line class="st5" x1="1" y1="41" x2="53" y2="71"/>
	<line class="st5" x1="18.3" y1="11" x2="18.3" y2="71"/>
	<line class="st5" x1="70.3" y1="41" x2="18.3" y2="71"/>
	<line class="st5" x1="18.3" y1="11" x2="70.3" y2="41"/>
	<line class="st5" x1="70.3" y1="31" x2="1" y2="31"/>
	<line class="st5" x1="70.3" y1="51" x2="1" y2="51"/>
	<line class="st5" x1="61.6" y1="16" x2="27" y2="76"/>
	<line class="st5" x1="44.3" y1="6" x2="9.7" y2="66"/>
	<line class="st5" x1="27" y1="6" x2="27" y2="76"/>
	<line class="st5" x1="9.7" y1="16" x2="9.7" y2="66"/>
	<line class="st5" x1="61.6" y1="16" x2="9.7" y2="16"/>
	<line class="st5" x1="61.6" y1="66" x2="61.6" y2="16"/>
	<line class="st5" x1="9.7" y1="66" x2="61.6" y2="66"/>
	<line class="st5" x1="9.7" y1="16" x2="70.3" y2="51"/>
	<line class="st5" x1="1" y1="31" x2="61.6" y2="66"/>
	<line class="st5" x1="1" y1="51" x2="44.3" y2="76"/>
	<line class="st5" x1="70.3" y1="51" x2="27" y2="76"/>
	<line class="st5" x1="70.3" y1="31" x2="9.7" y2="66"/>
	<line class="st5" x1="61.6" y1="16" x2="1" y2="51"/>
	<line class="st5" x1="44.3" y1="6" x2="44.3" y2="76"/>
	<line class="st5" x1="27" y1="6" x2="44.3" y2="6"/>
	<line class="st5" x1="61.6" y1="66" x2="27" y2="6"/>
	<line class="st5" x1="9.7" y1="16" x2="44.3" y2="76"/>
	<line class="st5" x1="70.3" y1="31" x2="61.6" y2="16"/>
	<line class="st5" x1="27" y1="6" x2="70.3" y2="31"/>
	<line class="st5" x1="44.3" y1="6" x2="1" y2="31"/>
	<line class="st5" x1="40" y1="3.5" x2="1" y2="26"/>
	<line class="st5" x1="31.3" y1="3.5" x2="70.3" y2="26"/>
	<line class="st5" x1="31.3" y1="78.5" x2="31.3" y2="3.5"/>
	<line class="st5" x1="40" y1="3.5" x2="40" y2="78.5"/>
	<line class="st5" x1="70.3" y1="26" x2="1" y2="26"/>
	<line class="st5" x1="70.3" y1="36" x2="1" y2="36"/>
	<line class="st5" x1="1" y1="46" x2="70.3" y2="46"/>
	<line class="st5" x1="70.3" y1="56" x2="1" y2="56"/>
	<line class="st5" x1="27" y1="76" x2="1" y2="31"/>
	<line class="st5" x1="48.6" y1="73.5" x2="14" y2="13.5"/>
	<line class="st5" x1="40" y1="3.5" x2="5.3" y2="63.5"/>
	<line class="st5" x1="44.3" y1="6" x2="70.3" y2="51"/>
	<line class="st5" x1="22.6" y1="73.5" x2="70.3" y2="46"/>
	<line class="st5" x1="5.3" y1="63.5" x2="70.3" y2="26"/>
	<line class="st5" x1="70.3" y1="36" x2="14" y2="68.5"/>
	<line class="st5" x1="14" y1="13.5" x2="14" y2="68.5"/>
	<line class="st5" x1="1" y1="56" x2="66" y2="18.5"/>
	<line class="st5" x1="66" y1="63.5" x2="66" y2="18.5"/>
	<line class="st5" x1="57.3" y1="68.5" x2="57.3" y2="13.5"/>
	<line class="st5" x1="48.6" y1="73.5" x2="48.6" y2="8.5"/>
	<line class="st5" x1="1" y1="51" x2="27" y2="6"/>
	<line class="st5" x1="70.3" y1="56" x2="5.3" y2="18.5"/>
	<line class="st5" x1="22.6" y1="73.5" x2="57.3" y2="13.5"/>
	<line class="st5" x1="1" y1="46" x2="57.3" y2="13.5"/>
	<line class="st5" x1="48.6" y1="8.5" x2="1" y2="36"/>
	<polyline class="st5" points="66,18.5 48.6,48.5 31.3,78.5 	"/>
	<line class="st5" x1="66" y1="63.5" x2="1" y2="26"/>
	<line class="st5" x1="1" y1="36" x2="57.3" y2="68.5"/>
	<line class="st5" x1="70.3" y1="46" x2="14" y2="13.5"/>
	<line class="st5" x1="14" y1="68.5" x2="48.6" y2="8.5"/>
	<line class="st5" x1="48.6" y1="73.5" x2="1" y2="46"/>
	<line class="st5" x1="70.3" y1="56" x2="31.3" y2="78.5"/>
	<line class="st5" x1="5.3" y1="18.5" x2="5.3" y2="63.5"/>
	<line class="st5" x1="40" y1="78.5" x2="5.3" y2="18.5"/>
	<line class="st5" x1="70.3" y1="36" x2="22.6" y2="8.5"/>
	<line class="st5" x1="57.3" y1="68.5" x2="22.6" y2="8.5"/>
	<line class="st5" x1="22.6" y1="73.5" x2="22.6" y2="8.5"/>
	<line class="st5" x1="66" y1="63.5" x2="31.3" y2="3.5"/>
	<line class="st5" x1="40" y1="78.5" x2="1" y2="56"/>
	<line class="st5" x1="70.3" y1="31" x2="44.3" y2="76"/>
	<path class="st5" d="M29.9,41"/>
	<path class="st5" d="M29.8,71.1"/>
	<line class="st5" x1="6.8" y1="31" x2="6.8" y2="61"/>
	<line class="st5" x1="1" y1="21" x2="70.3" y2="61"/>
	<line class="st5" x1="70.3" y1="21" x2="1" y2="61"/>
	<line class="st5" x1="35.6" y1="1" x2="35.6" y2="78.5"/>
</g>
</svg>
