<svg xmlns="http://www.w3.org/2000/svg" viewBox="0 0 73.28 84"><defs><style>.cls-1{fill:#da85e3;}.cls-1,.cls-2,.cls-3,.cls-4,.cls-5{stroke:#262626;}.cls-1,.cls-2,.cls-3,.cls-4,.cls-6,.cls-7{stroke-linecap:round;}.cls-1,.cls-2,.cls-3,.cls-4,.cls-5,.cls-6,.cls-7{stroke-linejoin:round;}.cls-1,.cls-2,.cls-3{stroke-width:2px;}.cls-2{fill:#5a5aff;}.cls-3{fill:#ffbd56;}.cls-4,.cls-5,.cls-6,.cls-7{fill:none;}.cls-4,.cls-5,.cls-6{stroke-width:4px;}.cls-5{stroke-linecap:square;}.cls-6,.cls-7{stroke:#d8003e;}.cls-7{stroke-width:0.25px;}</style></defs><g id="A"><polygon id="hA" class="cls-1" points="62.62 27 58.29 24.5 10.65 51.98 14.98 54.48 62.62 27"/></g><g id="C"><polyline id="hC" class="cls-2" points="45.37 37.04 62.62 27 62.62 67 45.3 77 45.37 37.04"/></g><g id="B"><polyline id="hB" class="cls-3" points="45.37 37.04 45.3 77 10.65 56.98 10.65 51.98 14.98 54.48 14.98 49.48 19.17 52.06 19.3 46.99 23.66 49.52 23.66 44.44 27.94 47.03 27.94 42 32.29 44.49 32.29 39.51 36.63 41.98 36.63 36.98 40.98 39.52 40.94 34.52 45.37 37.04"/><polyline id="hP" class="cls-4" points="11.65 57.56 45.3 77 62.62 67 62.62 28.16"/><line id="hP-2" data-name="hP" class="cls-5" x1="45.37" y1="37.92" x2="45.3" y2="76.04"/></g><g id="delete"><polygon class="cls-6" points="36.64 2 2 22 2 62 36.64 82 71.28 62 71.28 22 36.64 2"/><line class="cls-7" x1="10.66" y1="17" x2="2" y2="32"/><line class="cls-7" x1="2" y1="52" x2="10.66" y2="67"/><line class="cls-7" x1="71.28" y1="52" x2="62.62" y2="67"/><line class="cls-7" x1="27.98" y1="77" x2="45.3" y2="77"/><line class="cls-7" x1="2" y1="22" x2="71.28" y2="22"/><line class="cls-7" x1="2" y1="62" x2="71.28" y2="62"/><line class="cls-7" x1="36.64" y1="2" x2="2" y2="62"/><line class="cls-7" x1="71.28" y1="22" x2="36.64" y2="82"/><line class="cls-7" x1="71.28" y1="62" x2="36.64" y2="2"/><line class="cls-7" x1="36.64" y1="82" x2="2" y2="22"/><line class="cls-7" x1="53.96" y1="12" x2="19.32" y2="72"/><line class="cls-7" x1="19.32" y1="12" x2="53.96" y2="72"/><line class="cls-7" x1="2" y1="42" x2="71.28" y2="42"/><line class="cls-7" x1="19.32" y1="12" x2="53.96" y2="12"/><line class="cls-7" x1="71.28" y1="42" x2="53.96" y2="12"/><line class="cls-7" x1="53.96" y1="72" x2="71.28" y2="42"/><line class="cls-7" x1="19.32" y1="72" x2="53.96" y2="72"/><line class="cls-7" x1="2" y1="42" x2="19.32" y2="72"/><line class="cls-7" x1="19.32" y1="12" x2="2" y2="42"/><line class="cls-7" x1="53.96" y1="12" x2="2" y2="42"/><line class="cls-7" x1="53.96" y1="72" x2="53.96" y2="12"/><line class="cls-7" x1="2" y1="42" x2="53.96" y2="72"/><line class="cls-7" x1="19.32" y1="12" x2="19.32" y2="72"/><line class="cls-7" x1="71.28" y1="42" x2="19.32" y2="72"/><line class="cls-7" x1="19.32" y1="12" x2="71.28" y2="42"/><line class="cls-7" x1="71.28" y1="32" x2="2" y2="32"/><line class="cls-7" x1="71.28" y1="52" x2="2" y2="52"/><line class="cls-7" x1="62.62" y1="17" x2="27.98" y2="77"/><line class="cls-7" x1="45.3" y1="7" x2="10.66" y2="67"/><line class="cls-7" x1="27.98" y1="7" x2="27.98" y2="77"/><line class="cls-7" x1="10.66" y1="17" x2="10.66" y2="67"/><line class="cls-7" x1="62.62" y1="17" x2="10.66" y2="17"/><line class="cls-7" x1="62.62" y1="67" x2="62.62" y2="17"/><line class="cls-7" x1="10.66" y1="67" x2="62.62" y2="67"/><line class="cls-7" x1="10.66" y1="17" x2="71.28" y2="52"/><line class="cls-7" x1="2" y1="32" x2="62.62" y2="67"/><line class="cls-7" x1="2" y1="52" x2="45.3" y2="77"/><line class="cls-7" x1="71.28" y1="52" x2="27.98" y2="77"/><line class="cls-7" x1="71.28" y1="32" x2="10.66" y2="67"/><line class="cls-7" x1="62.62" y1="17" x2="2" y2="52"/><line class="cls-7" x1="45.3" y1="7" x2="45.3" y2="77"/><line class="cls-7" x1="27.98" y1="7" x2="45.3" y2="7"/><line class="cls-7" x1="27.98" y1="7" x2="62.62" y2="67"/><line class="cls-7" x1="10.66" y1="17" x2="45.3" y2="77"/><line class="cls-7" x1="71.28" y1="32" x2="62.62" y2="17"/><line class="cls-7" x1="27.98" y1="7" x2="71.28" y2="32"/><line class="cls-7" x1="45.3" y1="7" x2="2" y2="32"/><line class="cls-7" x1="40.97" y1="4.5" x2="2" y2="27"/><line class="cls-7" x1="32.31" y1="4.5" x2="71.28" y2="27"/><line class="cls-7" x1="32.31" y1="79.5" x2="32.31" y2="4.5"/><line class="cls-7" x1="40.97" y1="4.5" x2="40.97" y2="79.5"/><line class="cls-7" x1="71.28" y1="27" x2="2" y2="27"/><line class="cls-7" x1="71.28" y1="37" x2="2" y2="37"/><line class="cls-7" x1="2" y1="47" x2="71.28" y2="47"/><line class="cls-7" x1="71.28" y1="57" x2="2" y2="57"/><line class="cls-7" x1="27.98" y1="77" x2="2" y2="32"/><line class="cls-7" x1="49.63" y1="74.5" x2="14.99" y2="14.5"/><line class="cls-7" x1="40.97" y1="4.5" x2="6.33" y2="64.5"/><line class="cls-7" x1="45.3" y1="7" x2="71.28" y2="52"/><line class="cls-7" x1="23.65" y1="74.5" x2="71.28" y2="47"/><line class="cls-7" x1="6.33" y1="64.5" x2="71.28" y2="27"/><line class="cls-7" x1="71.28" y1="37" x2="14.99" y2="69.5"/><line class="cls-7" x1="14.99" y1="14.5" x2="14.99" y2="69.5"/><line class="cls-7" x1="2" y1="57" x2="66.95" y2="19.5"/><line class="cls-7" x1="66.95" y1="64.5" x2="66.95" y2="19.5"/><line class="cls-7" x1="58.29" y1="69.5" x2="58.29" y2="14.5"/><line class="cls-7" x1="49.63" y1="74.5" x2="49.63" y2="9.5"/><line class="cls-7" x1="2" y1="52" x2="27.98" y2="7"/><line class="cls-7" x1="71.28" y1="57" x2="6.33" y2="19.5"/><line class="cls-7" x1="23.65" y1="74.5" x2="58.29" y2="14.5"/><line class="cls-7" x1="2" y1="47" x2="58.29" y2="14.5"/><line class="cls-7" x1="49.63" y1="9.5" x2="2" y2="37"/><polyline class="cls-7" points="66.95 19.5 49.63 49.5 32.31 79.5"/><line class="cls-7" x1="66.95" y1="64.5" x2="2" y2="27"/><line class="cls-7" x1="2" y1="37" x2="58.29" y2="69.5"/><line class="cls-7" x1="71.28" y1="47" x2="14.99" y2="14.5"/><line class="cls-7" x1="14.99" y1="69.5" x2="49.63" y2="9.5"/><line class="cls-7" x1="49.63" y1="74.5" x2="2" y2="47"/><line class="cls-7" x1="71.28" y1="57" x2="32.31" y2="79.5"/><line class="cls-7" x1="6.33" y1="19.5" x2="6.33" y2="64.5"/><line class="cls-7" x1="40.97" y1="79.5" x2="6.33" y2="19.5"/><line class="cls-7" x1="71.28" y1="37" x2="23.65" y2="9.5"/><line class="cls-7" x1="58.29" y1="69.5" x2="23.65" y2="9.5"/><line class="cls-7" x1="23.65" y1="74.5" x2="23.65" y2="9.5"/><line class="cls-7" x1="66.95" y1="64.5" x2="32.31" y2="4.5"/><line class="cls-7" x1="40.97" y1="79.5" x2="2" y2="57"/><line class="cls-7" x1="45.3" y1="77" x2="71.28" y2="32"/><path class="cls-7" d="M34.23,40" transform="translate(-3.36 2)"/><path class="cls-7" d="M34.17,70.09" transform="translate(-3.36 2)"/><line class="cls-7" x1="7.75" y1="32.03" x2="7.77" y2="62"/><line class="cls-7" x1="2" y1="22" x2="71.28" y2="62"/><line class="cls-7" x1="71.28" y1="22" x2="2" y2="62"/><line class="cls-7" x1="36.64" y1="2" x2="36.64" y2="79.5"/></g></svg>