<svg xmlns="http://www.w3.org/2000/svg" viewBox="0 0 73.28 84">
	<defs>
		<style>
			.cls-1,.cls-2,.cls-3{fill:none;}.cls-1,.cls-2{stroke:#d8003e;}.cls-1,.cls-2,.cls-3,.cls-4,.hB,.hA{stroke-linecap:round;stroke-linejoin:round;}.cls-1,.cls-3{stroke-width:4px;}.cls-2{stroke-width:0.25px;}.cls-3,.cls-4,.hB,.hA{stroke:#262626;}.cls-4{fill:#5a5aff;}.cls-4,.hB,.hA{stroke-width:2px;}.hB{fill:#ffbd56;}.hA{fill:#da85e3;}
		</style>
	</defs>
	<g id="delete">
		<polygon class="cls-1" points="36.64 2 2 22 2 62 36.64 82 71.28 62 71.28 22 36.64 2" />
		<line class="cls-2" x1="10.66" y1="17" x2="2" y2="32" />
		<line class="cls-2" x1="2" y1="52" x2="10.66" y2="67" />
		<line class="cls-2" x1="71.28" y1="52" x2="62.62" y2="67" />
		<line class="cls-2" x1="27.98" y1="77" x2="45.3" y2="77" />
		<line class="cls-2" x1="2" y1="22" x2="71.28" y2="22" />
		<line class="cls-2" x1="2" y1="62" x2="71.28" y2="62" />
		<line class="cls-2" x1="36.64" y1="2" x2="2" y2="62" />
		<line class="cls-2" x1="71.28" y1="22" x2="36.64" y2="82" />
		<line class="cls-2" x1="71.28" y1="62" x2="36.64" y2="2" />
		<line class="cls-2" x1="36.64" y1="82" x2="2" y2="22" />
		<line class="cls-2" x1="53.96" y1="12" x2="19.32" y2="72" />
		<line class="cls-2" x1="19.32" y1="12" x2="53.96" y2="72" />
		<line class="cls-2" x1="2" y1="42" x2="71.28" y2="42" />
		<line class="cls-2" x1="19.32" y1="12" x2="53.96" y2="12" />
		<line class="cls-2" x1="71.28" y1="42" x2="53.96" y2="12" />
		<line class="cls-2" x1="53.96" y1="72" x2="71.28" y2="42" />
		<line class="cls-2" x1="19.32" y1="72" x2="53.96" y2="72" />
		<line class="cls-2" x1="2" y1="42" x2="19.32" y2="72" />
		<line class="cls-2" x1="19.32" y1="12" x2="2" y2="42" />
		<line class="cls-2" x1="53.96" y1="12" x2="2" y2="42" />
		<line class="cls-2" x1="53.96" y1="72" x2="53.96" y2="12" />
		<line class="cls-2" x1="2" y1="42" x2="53.96" y2="72" />
		<line class="cls-2" x1="19.32" y1="12" x2="19.32" y2="72" />
		<line class="cls-2" x1="71.28" y1="42" x2="19.32" y2="72" />
		<line class="cls-2" x1="19.32" y1="12" x2="71.28" y2="42" />
		<line class="cls-2" x1="71.28" y1="32" x2="2" y2="32" />
		<line class="cls-2" x1="71.28" y1="52" x2="2" y2="52" />
		<line class="cls-2" x1="62.62" y1="17" x2="27.98" y2="77" />
		<line class="cls-2" x1="45.3" y1="7" x2="10.66" y2="67" />
		<line class="cls-2" x1="27.98" y1="7" x2="27.98" y2="77" />
		<line class="cls-2" x1="10.66" y1="17" x2="10.66" y2="67" />
		<line class="cls-2" x1="62.62" y1="17" x2="10.66" y2="17" />
		<line class="cls-2" x1="62.62" y1="67" x2="62.62" y2="17" />
		<line class="cls-2" x1="10.66" y1="67" x2="62.62" y2="67" />
		<line class="cls-2" x1="10.66" y1="17" x2="71.28" y2="52" />
		<line class="cls-2" x1="2" y1="32" x2="62.62" y2="67" />
		<line class="cls-2" x1="2" y1="52" x2="45.3" y2="77" />
		<line class="cls-2" x1="71.28" y1="52" x2="27.98" y2="77" />
		<line class="cls-2" x1="71.28" y1="32" x2="10.66" y2="67" />
		<line class="cls-2" x1="62.62" y1="17" x2="2" y2="52" />
		<line class="cls-2" x1="45.3" y1="7" x2="45.3" y2="77" />
		<line class="cls-2" x1="27.98" y1="7" x2="45.3" y2="7" />
		<line class="cls-2" x1="62.62" y1="67" x2="27.98" y2="7" />
		<line class="cls-2" x1="10.66" y1="17" x2="45.3" y2="77" />
		<line class="cls-2" x1="71.28" y1="32" x2="62.62" y2="17" />
		<line class="cls-2" x1="27.98" y1="7" x2="71.28" y2="32" />
		<line class="cls-2" x1="45.3" y1="7" x2="2" y2="32" />
		<line class="cls-2" x1="40.97" y1="4.5" x2="2" y2="27" />
		<line class="cls-2" x1="32.31" y1="4.5" x2="71.28" y2="27" />
		<line class="cls-2" x1="32.31" y1="79.5" x2="32.31" y2="4.5" />
		<line class="cls-2" x1="40.97" y1="4.5" x2="40.97" y2="79.5" />
		<line class="cls-2" x1="71.28" y1="27" x2="2" y2="27" />
		<line class="cls-2" x1="71.28" y1="37" x2="2" y2="37" />
		<line class="cls-2" x1="2" y1="47" x2="71.28" y2="47" />
		<line class="cls-2" x1="71.28" y1="57" x2="2" y2="57" />
		<line class="cls-2" x1="27.98" y1="77" x2="2" y2="32" />
		<line class="cls-2" x1="49.63" y1="74.5" x2="14.99" y2="14.5" />
		<line class="cls-2" x1="40.97" y1="4.5" x2="6.33" y2="64.5" />
		<line class="cls-2" x1="45.3" y1="7" x2="71.28" y2="52" />
		<line class="cls-2" x1="23.65" y1="74.5" x2="71.28" y2="47" />
		<line class="cls-2" x1="6.33" y1="64.5" x2="71.28" y2="27" />
		<line class="cls-2" x1="71.28" y1="37" x2="14.99" y2="69.5" />
		<line class="cls-2" x1="14.99" y1="14.5" x2="14.99" y2="69.5" />
		<line class="cls-2" x1="2" y1="57" x2="66.95" y2="19.5" />
		<line class="cls-2" x1="66.95" y1="64.5" x2="66.95" y2="19.5" />
		<line class="cls-2" x1="58.29" y1="69.5" x2="58.29" y2="14.5" />
		<line class="cls-2" x1="49.63" y1="74.5" x2="49.63" y2="9.5" />
		<line class="cls-2" x1="2" y1="52" x2="27.98" y2="7" />
		<line class="cls-2" x1="71.28" y1="57" x2="6.33" y2="19.5" />
		<line class="cls-2" x1="23.65" y1="74.5" x2="58.29" y2="14.5" />
		<line class="cls-2" x1="2" y1="47" x2="58.29" y2="14.5" />
		<line class="cls-2" x1="49.63" y1="9.5" x2="2" y2="37" />
		<polyline class="cls-2" points="66.95 19.5 49.63 49.5 32.31 79.5" />
		<line class="cls-2" x1="66.95" y1="64.5" x2="2" y2="27" />
		<line class="cls-2" x1="2" y1="37" x2="58.29" y2="69.5" />
		<line class="cls-2" x1="71.28" y1="47" x2="14.99" y2="14.5" />
		<line class="cls-2" x1="14.99" y1="69.5" x2="49.63" y2="9.5" />
		<line class="cls-2" x1="49.63" y1="74.5" x2="2" y2="47" />
		<line class="cls-2" x1="71.28" y1="57" x2="32.31" y2="79.5" />
		<line class="cls-2" x1="6.33" y1="19.5" x2="6.33" y2="64.5" />
		<line class="cls-2" x1="40.97" y1="79.5" x2="6.33" y2="19.5" />
		<line class="cls-2" x1="71.28" y1="37" x2="23.65" y2="9.5" />
		<line class="cls-2" x1="58.29" y1="69.5" x2="23.65" y2="9.5" />
		<line class="cls-2" x1="23.65" y1="74.5" x2="23.65" y2="9.5" />
		<line class="cls-2" x1="66.95" y1="64.5" x2="32.31" y2="4.5" />
		<line class="cls-2" x1="40.97" y1="79.5" x2="2" y2="57" />
		<line class="cls-2" x1="71.28" y1="32" x2="45.3" y2="77" />
		<path class="cls-2" d="M34.23,40" transform="translate(-3.36 2)" />
		<path class="cls-2" d="M34.17,70.09" transform="translate(-3.36 2)" />
		<line class="cls-2" x1="7.75" y1="32.03" x2="7.77" y2="62" />
		<line class="cls-2" x1="2" y1="22" x2="71.28" y2="62" />
		<line class="cls-2" x1="71.28" y1="22" x2="2" y2="62" />
		<line class="cls-2" x1="36.64" y1="2" x2="36.64" y2="79.5" />
	</g>
	<g id="C">
		<polygon class="hP4" points="45.3 7 62.62 17 62.57 57.03 27.98 77 10.66 67 10.65 62.01 15.01 59.51 15.01 54.51 19.29 52.05 19.29 47.02 23.64 44.51 23.64 39.51 27.98 37 27.98 32 32.29 29.54 32.29 24.49 36.64 22 36.64 17 40.97 14.5 40.97 9.5 45.3 7" />
		<polyline class="hC" points="62.62 17 62.62 57.03 27.98 77 27.97 72.09 58.28 19.48 62.62 17" />
		<polyline data-name="hP maybe" class="hp4" points="62.62 17 58.29 19.5 58.27 24.49 53.98 27 53.91 31.99 49.66 34.52 49.66 39.5 45.3 42.02 45.22 47 40.96 49.49 40.97 54.49 36.63 57.01 36.63 62.01 32.33 64.53 32.27 69.5 27.97 71.99 27.98 77" />
	</g>
	<g id="B">
		<g id="hB">
			<polygon class="hB" points="40.97 14.5 40.97 9.5 58.29 19.5 58.27 24.49 40.97 14.5" />
			<polygon class="hB" points="36.64 17 53.98 27 53.91 31.99 36.64 22 36.64 17" />
			<polygon class="hB" points="32.29 24.49 49.66 34.52 49.66 39.5 32.29 29.54 32.29 24.49" />
			<polygon class="hB" points="27.98 32 45.3 42.02 45.22 47 27.98 37 27.98 32" />
			<polygon class="hB" points="23.64 39.51 40.96 49.49 40.97 54.49 23.64 44.51 23.64 39.51" />
			<polygon class="hB" points="19.29 47.02 36.63 57.01 36.63 62.01 19.29 52.05 19.29 47.02" />
			<polygon class="hB" points="15.01 54.51 32.33 64.53 32.27 69.5 15.01 59.51 15.01 54.51" />
			<polygon class="hB" points="10.65 62.01 27.97 71.99 27.98 77 10.66 67 10.65 62.01" />
		</g>
	</g>
	<g id="A">
		<g id="hA">
			<polygon class="hA" points="62.62 17 45.3 7 40.97 9.5 58.29 19.5 62.62 17" />
			<polygon class="hA" points="40.97 14.5 58.27 24.49 53.98 27 36.64 17 40.97 14.5" />
			<polygon class="hA" points="36.64 22 53.91 31.99 49.66 34.52 32.29 24.49 36.64 22" />
			<polygon class="hA" points="49.66 39.5 32.29 29.54 27.98 32 45.3 42.02 49.66 39.5" />
			<polygon class="hA" points="45.22 47 27.98 37 23.64 39.51 40.96 49.49 45.22 47" />
			<polygon class="hA" points="23.64 44.51 40.97 54.49 36.63 57.01 19.29 47.02 23.64 44.51" />
			<polygon class="hA" points="19.29 52.05 36.63 62.01 32.33 64.53 15.01 54.51 19.29 52.05" />
			<polygon class="hA" points="15.01 59.51 32.27 69.5 27.97 71.99 10.65 62.01 15.01 59.51" />
		</g>
	</g>
</svg>
