<svg xmlns="http://www.w3.org/2000/svg" viewBox="0 0 73.28 84">
	<defs>
		<style>
			.cls-1,.cls-2{fill:none;stroke:#d8003e;}.cls-1,.cls-2,.cls-3,.cls-4,.cls-5{stroke-linecap:round;stroke-linejoin:round;}.cls-1{stroke-width:4px;}.cls-2{stroke-width:0.25px;}.cls-3{fill:#5a5aff;}.cls-3,.cls-4,.cls-5{stroke:#262626;stroke-width:2px;}.cls-4{fill:#ffbd56;}.cls-5{fill:#da85e3;}
		</style>
	</defs>
	<g id="Layer_5" data-name="Layer 5">
		<polygon class="cls-1" points="36.64 2 2 22 2 62 36.64 82 71.28 62 71.28 22 36.64 2" />
		<line class="cls-2" x1="10.66" y1="17" x2="2" y2="32" />
		<line class="cls-2" x1="2" y1="52" x2="10.66" y2="67" />
		<line class="cls-2" x1="71.28" y1="52" x2="62.62" y2="67" />
		<line class="cls-2" x1="27.98" y1="77" x2="45.3" y2="77" />
		<line class="cls-2" x1="2" y1="22" x2="71.28" y2="22" />
		<line class="cls-2" x1="2" y1="62" x2="71.28" y2="62" />
		<line class="cls-2" x1="36.64" y1="2" x2="2" y2="62" />
		<line class="cls-2" x1="71.28" y1="22" x2="36.64" y2="82" />
		<line class="cls-2" x1="71.28" y1="62" x2="36.64" y2="2" />
		<line class="cls-2" x1="36.64" y1="82" x2="2" y2="22" />
		<line class="cls-2" x1="53.96" y1="12" x2="19.32" y2="72" />
		<line class="cls-2" x1="19.32" y1="12" x2="53.96" y2="72" />
		<line class="cls-2" x1="2" y1="42" x2="71.28" y2="42" />
		<line class="cls-2" x1="19.32" y1="12" x2="53.96" y2="12" />
		<line class="cls-2" x1="71.28" y1="42" x2="53.96" y2="12" />
		<line class="cls-2" x1="53.96" y1="72" x2="71.28" y2="42" />
		<line class="cls-2" x1="19.32" y1="72" x2="53.96" y2="72" />
		<line class="cls-2" x1="2" y1="42" x2="19.32" y2="72" />
		<line class="cls-2" x1="19.32" y1="12" x2="2" y2="42" />
		<line class="cls-2" x1="53.96" y1="12" x2="2" y2="42" />
		<line class="cls-2" x1="53.96" y1="72" x2="53.96" y2="12" />
		<line class="cls-2" x1="2" y1="42" x2="53.96" y2="72" />
		<line class="cls-2" x1="19.32" y1="12" x2="19.32" y2="72" />
		<line class="cls-2" x1="71.28" y1="42" x2="19.32" y2="72" />
		<line class="cls-2" x1="19.32" y1="12" x2="71.28" y2="42" />
		<line class="cls-2" x1="71.28" y1="32" x2="2" y2="32" />
		<line class="cls-2" x1="71.28" y1="52" x2="2" y2="52" />
		<line class="cls-2" x1="62.62" y1="17" x2="27.98" y2="77" />
		<line class="cls-2" x1="45.3" y1="7" x2="10.66" y2="67" />
		<line class="cls-2" x1="27.98" y1="7" x2="27.98" y2="77" />
		<line class="cls-2" x1="10.66" y1="17" x2="10.66" y2="67" />
		<line class="cls-2" x1="62.62" y1="17" x2="10.66" y2="17" />
		<line class="cls-2" x1="62.62" y1="67" x2="62.62" y2="17" />
		<line class="cls-2" x1="10.66" y1="67" x2="62.62" y2="67" />
		<line class="cls-2" x1="10.66" y1="17" x2="71.28" y2="52" />
		<line class="cls-2" x1="2" y1="32" x2="62.62" y2="67" />
		<line class="cls-2" x1="2" y1="52" x2="45.3" y2="77" />
		<line class="cls-2" x1="71.28" y1="52" x2="27.98" y2="77" />
		<line class="cls-2" x1="71.28" y1="32" x2="10.66" y2="67" />
		<line class="cls-2" x1="62.62" y1="17" x2="2" y2="52" />
		<line class="cls-2" x1="45.3" y1="7" x2="45.3" y2="77" />
		<line class="cls-2" x1="27.98" y1="7" x2="45.3" y2="7" />
		<line class="cls-2" x1="62.62" y1="67" x2="27.98" y2="7" />
		<line class="cls-2" x1="10.66" y1="17" x2="45.3" y2="77" />
		<line class="cls-2" x1="71.28" y1="32" x2="62.62" y2="17" />
		<line class="cls-2" x1="27.98" y1="7" x2="71.28" y2="32" />
		<line class="cls-2" x1="45.3" y1="7" x2="2" y2="32" />
		<line class="cls-2" x1="40.97" y1="4.5" x2="2" y2="27" />
		<line class="cls-2" x1="32.31" y1="4.5" x2="71.28" y2="27" />
		<line class="cls-2" x1="32.31" y1="79.5" x2="32.31" y2="4.5" />
		<line class="cls-2" x1="40.97" y1="4.5" x2="40.97" y2="79.5" />
		<line class="cls-2" x1="71.28" y1="27" x2="2" y2="27" />
		<line class="cls-2" x1="71.28" y1="37" x2="2" y2="37" />
		<line class="cls-2" x1="2" y1="47" x2="71.28" y2="47" />
		<line class="cls-2" x1="71.28" y1="57" x2="2" y2="57" />
		<line class="cls-2" x1="27.98" y1="77" x2="2" y2="32" />
		<line class="cls-2" x1="49.63" y1="74.5" x2="14.99" y2="14.5" />
		<line class="cls-2" x1="40.97" y1="4.5" x2="6.33" y2="64.5" />
		<line class="cls-2" x1="45.3" y1="7" x2="71.28" y2="52" />
		<line class="cls-2" x1="23.65" y1="74.5" x2="71.28" y2="47" />
		<line class="cls-2" x1="6.33" y1="64.5" x2="71.28" y2="27" />
		<line class="cls-2" x1="71.28" y1="37" x2="14.99" y2="69.5" />
		<line class="cls-2" x1="14.99" y1="14.5" x2="14.99" y2="69.5" />
		<line class="cls-2" x1="2" y1="57" x2="66.95" y2="19.5" />
		<line class="cls-2" x1="66.95" y1="64.5" x2="66.95" y2="19.5" />
		<line class="cls-2" x1="58.29" y1="69.5" x2="58.29" y2="14.5" />
		<line class="cls-2" x1="49.63" y1="74.5" x2="49.63" y2="9.5" />
		<line class="cls-2" x1="2" y1="52" x2="27.98" y2="7" />
		<line class="cls-2" x1="71.28" y1="57" x2="6.33" y2="19.5" />
		<line class="cls-2" x1="23.65" y1="74.5" x2="58.29" y2="14.5" />
		<line class="cls-2" x1="2" y1="47" x2="58.29" y2="14.5" />
		<line class="cls-2" x1="49.63" y1="9.5" x2="2" y2="37" />
		<polyline class="cls-2" points="66.95 19.5 49.63 49.5 32.31 79.5" />
		<line class="cls-2" x1="66.95" y1="64.5" x2="2" y2="27" />
		<line class="cls-2" x1="2" y1="37" x2="58.29" y2="69.5" />
		<line class="cls-2" x1="71.28" y1="47" x2="14.99" y2="14.5" />
		<line class="cls-2" x1="14.99" y1="69.5" x2="49.63" y2="9.5" />
		<line class="cls-2" x1="49.63" y1="74.5" x2="2" y2="47" />
		<line class="cls-2" x1="71.28" y1="57" x2="32.31" y2="79.5" />
		<line class="cls-2" x1="6.33" y1="19.5" x2="6.33" y2="64.5" />
		<line class="cls-2" x1="40.97" y1="79.5" x2="6.33" y2="19.5" />
		<line class="cls-2" x1="71.28" y1="37" x2="23.65" y2="9.5" />
		<line class="cls-2" x1="58.29" y1="69.5" x2="23.65" y2="9.5" />
		<line class="cls-2" x1="23.65" y1="74.5" x2="23.65" y2="9.5" />
		<line class="cls-2" x1="66.95" y1="64.5" x2="32.31" y2="4.5" />
		<line class="cls-2" x1="40.97" y1="79.5" x2="2" y2="57" />
		<line class="cls-2" x1="71.28" y1="32" x2="45.3" y2="77" />
		<line class="cls-2" x1="59.74" y1="22.02" x2="33.75" y2="7" />
		<line class="cls-2" x1="13.55" y1="22" x2="39.53" y2="7" />
		<line class="cls-2" x1="59.74" y1="22.02" x2="33.75" y2="37" />
		<line class="cls-2" x1="39.53" y1="37" x2="13.55" y2="22" />
		<line class="cls-2" x1="42.48" y1="12.04" x2="16.43" y2="27" />
		<line class="cls-2" x1="56.85" y1="27" x2="30.87" y2="12" />
		<line class="cls-2" x1="30.81" y1="72.09" x2="30.87" y2="42" />
		<line class="cls-2" x1="7.75" y1="32.03" x2="7.77" y2="62" />
		<line class="cls-2" x1="30.81" y1="72.09" x2="4.89" y2="57" />
	</g>
	<g id="C">
		<g id="hC">
			<polyline class="hC" points="58.28 14.51 58.28 54.52 23.65 74.5 23.65 67.84 52.51 17.84 58.28 14.51" />
		</g>
	</g>
	<g id="B">
		<g id="hB">
			<polygon class="hB" points="39.54 17 39.53 10.34 52.51 17.84 52.51 24.51 39.54 17" />
			<polygon class="hB" points="33.76 20.34 46.75 27.84 46.74 34.51 33.77 27 33.76 20.34" />
			<polygon class="hB" points="27.99 30.34 40.98 37.84 40.97 44.51 28 37 27.99 30.34" />
			<polygon class="hB" points="22.22 40.34 35.2 47.84 35.19 54.51 22.22 47 22.22 40.34" />
			<polygon class="hB" points="16.44 50.34 29.43 57.84 29.41 64.51 16.44 57 16.44 50.34" />
			<polygon class="hB" points="10.66 60.34 10.66 67 23.65 74.5 23.65 67.84 10.66 60.34" />
		</g>
	</g>
	<g id="A">
		<g id="hA">
			<polygon class="hA" points="58.28 14.51 45.3 7 39.53 10.34 52.51 17.84 58.28 14.51" />
			<polygon class="hA" points="52.51 24.51 39.54 17 33.76 20.34 46.75 27.84 52.51 24.51" />
			<polygon class="hA" points="46.74 34.51 33.77 27 27.99 30.34 40.98 37.84 46.74 34.51" />
			<polygon class="hA" points="40.97 44.51 28 37 22.22 40.34 35.2 47.84 40.97 44.51" />
			<polygon class="hA" points="35.19 54.51 22.22 47 16.44 50.34 29.43 57.84 35.19 54.51" />
			<polygon class="hA" points="29.41 64.51 16.44 57 10.66 60.34 23.65 67.84 29.41 64.51" />
		</g>
	</g>
</svg>
