<svg xmlns="http://www.w3.org/2000/svg" viewBox="0 0 71.28 82"><defs><style>.cls-1{fill:#5a5aff;stroke-linecap:round;}.cls-1,.cls-2,.cls-3{stroke:#262626;stroke-linejoin:round;stroke-width:2px;}.cls-2{fill:#ffbd56;}.cls-2,.cls-3{stroke-linecap:square;}.cls-3{fill:#da85e3;}</style></defs><g id="C"><path class="cls-1" d="M40,80l5.72-3.3V43.37L68.89,30V63.32L74.64,60V20L40,40V80m0,0" transform="translate(-4.36 1)"/><polyline class="cls-1" points="35.64 7.67 35.64 34.37 41.36 31.06 41.36 10.99 35.64 7.67"/><polyline class="cls-2" points="29.81 31.02 35.64 34.37 35.64 7.67 29.81 11.03 29.81 31.02"/></g><g id="B"><path class="cls-2" d="M40,80V40L5.36,20V60l5.77,3.33,0-33.3L34.17,43.35V76.64Z" transform="translate(-4.36 1)"/></g><g id="A"><path class="cls-3" d="M40,0,5.36,20,40,40,74.64,20Zm0,33.36L22.67,23.41,16.91,20,40,6.67,63,20l-5.65,3.35Z" transform="translate(-4.36 1)"/></g></svg>