<svg xmlns="http://www.w3.org/2000/svg" viewBox="0 0 73.28 113.25">
	<defs>
		<style>
			.cls-1,.cls-2,.cls-3{fill:none;}.cls-1,.cls-2{stroke:#d8003e;}.cls-1,.cls-2,.cls-5{stroke-linecap:round;}.cls-1,.cls-2,.cls-4,.cls-5{stroke-linejoin:round;}.cls-1,.cls-4,.cls-5{stroke-width:4px;}.cls-2{stroke-width:0.25px;}.cls-3{stroke:#231f20;stroke-miterlimit:10;}.cls-4,.cls-5{fill:#e6decc;stroke:#262626;}.cls-4{stroke-linecap:square;}
		</style>
	</defs>
	<g id="delete">
		<polygon class="cls-1" points="36.28 32 2 51.81 2 91.44 36.28 111.25 70.56 91.44 70.56 51.81 36.28 32" />
		<line class="cls-2" x1="10.66" y1="46.25" x2="2" y2="61.25" />
		<line class="cls-2" x1="2" y1="81.25" x2="10.66" y2="96.25" />
		<line class="cls-2" x1="71.28" y1="81.25" x2="62.62" y2="96.25" />
		<line class="cls-2" x1="27.98" y1="106.25" x2="45.3" y2="106.25" />
		<line class="cls-2" x1="0.52" y1="51.26" x2="69.8" y2="51.26" />
		<line class="cls-2" x1="2" y1="91.25" x2="71.28" y2="91.25" />
		<line class="cls-2" x1="2" y1="91.25" x2="36.64" y2="31.25" />
		<line class="cls-2" x1="71.28" y1="51.25" x2="36.64" y2="111.25" />
		<line class="cls-2" x1="71.28" y1="91.25" x2="36.64" y2="31.25" />
		<line class="cls-2" x1="36.64" y1="111.25" x2="2" y2="51.25" />
		<line class="cls-2" x1="53.96" y1="41.25" x2="19.32" y2="101.25" />
		<line class="cls-2" x1="19.32" y1="41.25" x2="53.96" y2="101.25" />
		<line class="cls-2" x1="2" y1="71.25" x2="71.28" y2="71.25" />
		<line class="cls-2" x1="19.32" y1="41.25" x2="53.96" y2="41.25" />
		<line class="cls-2" x1="70.56" y1="71.62" x2="53.42" y2="41.9" />
		<line class="cls-2" x1="53.96" y1="101.25" x2="71.28" y2="71.25" />
		<line class="cls-2" x1="19.32" y1="101.25" x2="53.96" y2="101.25" />
		<line class="cls-2" x1="2" y1="71.25" x2="19.32" y2="101.25" />
		<line class="cls-2" x1="19.32" y1="41.25" x2="2" y2="71.25" />
		<line class="cls-2" x1="53.96" y1="41.25" x2="2" y2="71.25" />
		<line class="cls-2" x1="53.96" y1="101.25" x2="53.96" y2="41.25" />
		<line class="cls-2" x1="2" y1="71.25" x2="53.96" y2="101.25" />
		<line class="cls-2" x1="19.32" y1="41.25" x2="19.32" y2="101.25" />
		<line class="cls-2" x1="71.28" y1="71.25" x2="19.32" y2="101.25" />
		<line class="cls-2" x1="19.32" y1="41.25" x2="71.28" y2="71.25" />
		<line class="cls-2" x1="71.28" y1="61.25" x2="2" y2="61.25" />
		<line class="cls-2" x1="71.28" y1="81.25" x2="2" y2="81.25" />
		<line class="cls-2" x1="61.99" y1="46.86" x2="27.71" y2="106.3" />
		<line class="cls-2" x1="45.3" y1="36.25" x2="10.66" y2="96.25" />
		<line class="cls-2" x1="27.98" y1="36.25" x2="27.98" y2="106.25" />
		<line class="cls-2" x1="10.66" y1="46.25" x2="10.66" y2="96.25" />
		<line class="cls-2" x1="61.99" y1="46.86" x2="10.57" y2="46.86" />
		<line class="cls-2" x1="62.62" y1="96.25" x2="62.62" y2="46.25" />
		<line class="cls-2" x1="10.66" y1="96.25" x2="62.62" y2="96.25" />
		<line class="cls-2" x1="10.66" y1="46.25" x2="71.28" y2="81.25" />
		<line class="cls-2" x1="2" y1="61.25" x2="62.62" y2="96.25" />
		<line class="cls-2" x1="2" y1="81.25" x2="45.3" y2="106.25" />
		<line class="cls-2" x1="71.28" y1="81.25" x2="27.98" y2="106.25" />
		<line class="cls-2" x1="71.28" y1="61.25" x2="10.66" y2="96.25" />
		<line class="cls-2" x1="61.99" y1="46.86" x2="2" y2="81.53" />
		<line class="cls-2" x1="45.3" y1="36.25" x2="45.3" y2="106.25" />
		<line class="cls-2" x1="27.98" y1="36.25" x2="45.3" y2="36.25" />
		<line class="cls-2" x1="62.62" y1="96.25" x2="27.98" y2="36.25" />
		<line class="cls-2" x1="10.66" y1="46.25" x2="45.3" y2="106.25" />
		<line class="cls-2" x1="71.28" y1="61.25" x2="62.62" y2="46.25" />
		<line class="cls-2" x1="27.98" y1="36.25" x2="71.28" y2="61.25" />
		<line class="cls-2" x1="45.3" y1="36.25" x2="2" y2="61.25" />
		<line class="cls-2" x1="40.97" y1="33.75" x2="2" y2="56.25" />
		<line class="cls-2" x1="32" y1="34.48" x2="70.56" y2="56.76" />
		<line class="cls-2" x1="32.31" y1="108.75" x2="32.31" y2="33.75" />
		<line class="cls-2" x1="40.97" y1="33.75" x2="40.97" y2="108.75" />
		<line class="cls-2" x1="71.28" y1="56.25" x2="2" y2="56.25" />
		<line class="cls-2" x1="71.28" y1="66.25" x2="2" y2="66.25" />
		<line class="cls-2" x1="2" y1="76.25" x2="71.28" y2="76.25" />
		<line class="cls-2" x1="71.28" y1="86.25" x2="2" y2="86.25" />
		<line class="cls-2" x1="27.98" y1="106.25" x2="2" y2="61.25" />
		<line class="cls-2" x1="49.63" y1="103.75" x2="14.99" y2="43.75" />
		<line class="cls-2" x1="40.97" y1="33.75" x2="6.33" y2="93.75" />
		<line class="cls-2" x1="45.3" y1="36.25" x2="71.28" y2="81.25" />
		<line class="cls-2" x1="23.65" y1="103.75" x2="71.28" y2="76.25" />
		<line class="cls-2" x1="6.33" y1="93.75" x2="71.28" y2="56.25" />
		<line class="cls-2" x1="71.28" y1="66.25" x2="14.99" y2="98.75" />
		<line class="cls-2" x1="14.99" y1="43.75" x2="14.99" y2="98.75" />
		<line class="cls-2" x1="2" y1="86.25" x2="66.95" y2="48.75" />
		<line class="cls-2" x1="66.95" y1="93.75" x2="66.95" y2="48.75" />
		<line class="cls-2" x1="57.71" y1="98.87" x2="57.71" y2="44.38" />
		<line class="cls-2" x1="49.63" y1="103.75" x2="49.63" y2="38.75" />
		<line class="cls-2" x1="2" y1="81.25" x2="27.98" y2="36.25" />
		<line class="cls-2" x1="71.28" y1="86.25" x2="6.33" y2="48.75" />
		<line class="cls-2" x1="23.43" y1="103.82" x2="57.71" y2="44.38" />
		<line class="cls-2" x1="2" y1="76.58" x2="57.71" y2="44.38" />
		<line class="cls-2" x1="49.63" y1="38.75" x2="2" y2="66.25" />
		<polyline class="cls-2" points="66.95 48.75 49.63 78.75 32.31 108.75" />
		<line class="cls-2" x1="66.95" y1="93.75" x2="2" y2="56.25" />
		<line class="cls-2" x1="2" y1="66.25" x2="58.29" y2="98.75" />
		<line class="cls-2" x1="71.28" y1="76.25" x2="14.99" y2="43.75" />
		<line class="cls-2" x1="14.99" y1="98.75" x2="49.63" y2="38.75" />
		<line class="cls-2" x1="49.63" y1="103.75" x2="2" y2="76.25" />
		<line class="cls-2" x1="71.28" y1="86.25" x2="32.31" y2="108.75" />
		<line class="cls-2" x1="6.33" y1="48.75" x2="6.33" y2="93.75" />
		<line class="cls-2" x1="40.97" y1="108.75" x2="6.33" y2="48.75" />
		<line class="cls-2" x1="71.28" y1="66.25" x2="23.65" y2="38.75" />
		<line class="cls-2" x1="58.29" y1="98.75" x2="23.65" y2="38.75" />
		<line class="cls-2" x1="23.65" y1="103.75" x2="23.65" y2="38.75" />
		<line class="cls-2" x1="66.95" y1="93.75" x2="32.31" y2="33.75" />
		<line class="cls-2" x1="40.97" y1="108.75" x2="2" y2="86.25" />
		<line class="cls-2" x1="71.28" y1="61.25" x2="45.3" y2="106.25" />
		<line class="cls-2" x1="59.74" y1="51.27" x2="33.75" y2="36.25" />
		<line class="cls-2" x1="13.55" y1="51.25" x2="39.53" y2="36.25" />
		<line class="cls-2" x1="59.74" y1="51.27" x2="33.75" y2="66.25" />
		<line class="cls-2" x1="39.53" y1="66.25" x2="13.55" y2="51.25" />
		<line class="cls-2" x1="42.48" y1="41.29" x2="16.43" y2="56.25" />
		<line class="cls-2" x1="56.85" y1="56.25" x2="30.87" y2="41.25" />
		<line class="cls-2" x1="30.81" y1="101.34" x2="30.87" y2="71.25" />
		<line class="cls-2" x1="7.75" y1="61.28" x2="7.77" y2="91.25" />
		<line class="cls-2" x1="30.81" y1="101.34" x2="4.89" y2="86.25" />
		<line class="cls-3" x1="71.28" y1="51.25" x2="2" y2="51.25" />
	</g>
	<g id="platform">
		<polygon id="hA" class="cls-4" points="71.28 51.25 36.64 31.25 2 51.25 36.64 71.25 71.28 51.25" />
	</g>
	<g id="Layer_34" data-name="Layer 34">
		<rect id="hB" class="cls-4" x="21.77" y="15" width="29.75" height="29.75" rx="2.72" />
		<circle id="hP" class="cls-4" cx="45.3" cy="27.49" r="0.39" />
		<circle id="hP-2" data-name="hP" class="cls-4" cx="28.18" cy="27.54" r="0.39" />
		<path id="hP-3" data-name="hP" class="cls-5" d="M44.33,68.68A7.56,7.56,0,0,1,40,70a7.41,7.41,0,0,1-4.28-1.29" transform="translate(-3.36 -36.48)" />
	</g>
	<g id="Layer_34_copy" data-name="Layer 34 copy">
		<rect id="hBsh" class="cls-4" x="21.77" y="2" width="29.75" height="29.75" rx="2.72" />
		<circle id="hP-4" data-name="hP" class="cls-4" cx="45.3" cy="14.49" r="0.39" />
		<circle id="hP-5" data-name="hP" class="cls-4" cx="28.18" cy="14.54" r="0.39" />
		<path id="hP-6" data-name="hP" class="cls-5" d="M44.33,55.68A6.62,6.62,0,0,0,40,54a6.36,6.36,0,0,0-4.28,1.71" transform="translate(-3.36 -36.48)" />
	</g>
</svg>
