<svg xmlns="http://www.w3.org/2000/svg" viewBox="0 0 73.28 114.91"><defs><style>.cls-1{fill:#e6decc;}.cls-1,.cls-2,.cls-3,.cls-4,.cls-5,.cls-6,.cls-7{stroke:#262626;stroke-linejoin:round;}.cls-1,.cls-2,.cls-3{stroke-width:4px;}.cls-2{fill:#4a46c8;}.cls-2,.cls-3{stroke-linecap:square;}.cls-3{fill:#ffbd56;}.cls-4{fill:#efbe5e;}.cls-4,.cls-5,.cls-6,.cls-7{stroke-linecap:round;stroke-width:2px;}.cls-5{fill:#51823c;}.cls-6{fill:none;}.cls-7{fill:#c67d2e;}</style></defs><g id="rabbit"><polygon id="hA" class="cls-1" points="71.28 52.91 36.64 32.91 2 52.91 36.64 72.91 71.28 52.91"/><polygon id="hC_Hs4" data-name="hC Hs4" class="cls-2" points="71.28 52.91 36.64 72.91 36.64 112.91 71.28 92.91 71.28 52.91"/><polygon id="hB_Hs4" data-name="hB Hs4" class="cls-3" points="2 52.91 2 92.91 36.64 112.91 36.64 72.91 2 52.91"/></g><g id="_1" data-name="1"><path id="p" class="cls-4" d="M35.53,43.53c-6.32.3-2.38,13.5,1.36,14.63s6.37-3.17,6-5.67C42.53,49.25,43,43.17,35.53,43.53Z" transform="translate(-3.48 -34.89)"/><path id="p-2" data-name="p" class="cls-4" d="M37,49.14c-.06,2.49-.9,8.24,2.93,9C44.79,59,47.57,51,47.3,48.4,46.58,41.66,37.19,41.92,37,49.14Z" transform="translate(-3.48 -34.89)"/><path id="l" class="cls-5" d="M43,64.73s4.64-11,13.39-10C56.36,54.72,55.7,69.36,43,64.73Z" transform="translate(-3.48 -34.89)"/><path id="g" class="cls-6" d="M39.6,58.91s5,4,4.18,17c-.25,4-3.7,11.61-3.7,11.61" transform="translate(-3.48 -34.89)"/><path id="g-2" data-name="g" class="cls-6" d="M32.28,80.33C35.9,82.27,36.6,87,36.6,87" transform="translate(-3.48 -34.89)"/><path id="g-3" data-name="g" class="cls-6" d="M48.46,81.14a13.67,13.67,0,0,0-3,8.31" transform="translate(-3.48 -34.89)"/><path id="g-4" data-name="g" class="cls-6" d="M52.51,84.51c-5.56,1.38-7.07,4.94-7.07,4.94" transform="translate(-3.48 -34.89)"/></g><g id="_2" data-name="2"><path id="p-3" data-name="p" class="cls-4" d="M38.37,36.65c-5.81,2.35-6,11.94-2.31,13.07s6,3.19,8,.47C46.24,47,48.87,32.42,38.37,36.65Z" transform="translate(-3.48 -34.89)"/><path id="p-4" data-name="p" class="cls-4" d="M31.52,40.36c-6.32.3,1.63,10.67,5.37,11.8s6.37-3.17,6-5.67C42.53,43.25,39,40,31.52,40.36Z" transform="translate(-3.48 -34.89)"/><path id="p-5" data-name="p" class="cls-4" d="M38.63,43.51c-.06,2.49-1.05,7.42,1.31,8.58,4.43,2.17,10-5.33,9.72-7.9C49,37.45,38.81,36.29,38.63,43.51Z" transform="translate(-3.48 -34.89)"/><path id="l-2" data-name="l" class="cls-5" d="M40.86,59.14s4.64-11,13.39-10C54.25,49.13,53.59,63.77,40.86,59.14Z" transform="translate(-3.48 -34.89)"/><path id="g-5" data-name="g" class="cls-6" d="M39.6,52.91a73.13,73.13,0,0,1,2.18,23c-.25,4-1.7,11.61-1.7,11.61" transform="translate(-3.48 -34.89)"/><path id="g-6" data-name="g" class="cls-6" d="M32.28,80.33C35.9,82.27,36.6,87,36.6,87" transform="translate(-3.48 -34.89)"/><path id="g-7" data-name="g" class="cls-6" d="M48.46,81.14a13.67,13.67,0,0,0-3,8.31" transform="translate(-3.48 -34.89)"/><path id="g-8" data-name="g" class="cls-6" d="M52.51,84.51c-5.56,1.38-7.07,4.94-7.07,4.94" transform="translate(-3.48 -34.89)"/></g><g id="_3" data-name="3"><path id="l-3" data-name="l" class="cls-5" d="M41.4,60.66s4.64-10.95,13.39-10C54.79,50.65,54.14,65.29,41.4,60.66Z" transform="translate(-3.48 -34.89)"/><ellipse id="m" class="cls-7" cx="36.47" cy="16.86" rx="5.5" ry="3.24"/><path id="p-6" data-name="p" class="cls-4" d="M27.21,52.72c-1.66,1.17,1.46,3.77,5.21,4.9s7.81-1.4,6.28-3.41S30.37,50.48,27.21,52.72Z" transform="translate(-3.48 -34.89)"/><path id="p-7" data-name="p" class="cls-4" d="M44.51,53.24c-2.33.86-5,1.24-3.91,5s8.75.09,9.86-2.25S51.05,50.83,44.51,53.24Z" transform="translate(-3.48 -34.89)"/><path id="p-8" data-name="p" class="cls-4" d="M34.71,50.51c-2.17,1.61-7.93.11-9.11-3-1.06-2.79,5-7.65,8.75-3.72C37,46.5,38.57,47.64,34.71,50.51Z" transform="translate(-3.48 -34.89)"/><path id="p-9" data-name="p" class="cls-4" d="M43.2,38.92c-1.87-3.65-6.92-3.33-8.38,1.51-1.11,3.72,4.22,7.92,5.79,8.08C43.82,48.85,46,44.4,43.2,38.92Z" transform="translate(-3.48 -34.89)"/><path id="p-10" data-name="p" class="cls-4" d="M53.37,43.84c.51-3.22-4.68-6.66-6.89-2.46C44,46,42.8,50.26,46.4,50.73S52.73,48,53.37,43.84Z" transform="translate(-3.48 -34.89)"/><path id="g-9" data-name="g" class="cls-6" d="M39.6,57.23s4.3,5.21,3.5,18.25c-.24,4-3,12-3,12" transform="translate(-3.48 -34.89)"/><path id="g-10" data-name="g" class="cls-6" d="M32.28,80.33C35.9,82.27,36.6,87,36.6,87" transform="translate(-3.48 -34.89)"/><path id="g-11" data-name="g" class="cls-6" d="M48.46,81.14a13.67,13.67,0,0,0-3,8.31" transform="translate(-3.48 -34.89)"/><path id="g-12" data-name="g" class="cls-6" d="M52.51,84.51c-5.56,1.38-7.07,4.94-7.07,4.94" transform="translate(-3.48 -34.89)"/></g></svg>