<svg id="rabbit" xmlns="http://www.w3.org/2000/svg" viewBox="0 0 73.28 99.31">
	<defs>
		<style>
			.cls-1,.cls-5{fill:#e6decc;}.cls-1,.cls-3,.cls-6,.cls-7{stroke:#262626;stroke-linejoin:round;}.cls-1,.cls-6,.cls-7{stroke-width:4px;}.cls-2{fill:#262626;}.cls-3{fill:#c2c2ff;stroke-width:2px;}.cls-3,.cls-6,.cls-7{stroke-linecap:square;}.cls-4{fill:#f1aeff;}.cls-6{fill:#4a46c8;}.cls-7{fill:#ffbd56;}
		</style>
	</defs>
	<polygon id="hA" class="cls-1" points="71.28 37.31 36.64 17.31 2 37.31 36.64 57.31 71.28 37.31" />
	<ellipse id="no_stroke_solid_hblk" data-name="no stroke solid hblk" class="cls-2" cx="36.64" cy="37.31" rx="18.36" ry="8.07" />
	<g id="_1" data-name="1">
		<path id="hB" class="cls-3" d="M32.36,115.07c-1.25-3.62-4.64-9-5.15-14.75s.79-7.27,1.72-6.72,2.79,3.08,3.43,7a41,41,0,0,1,.57,6.85l3.43-2s-1.67-4.26-1.12-7.41,7.5-4.6,9.36-3.53c2,1.17-2.92,1.89-4,6-1,3.83-.82,4.67-.82,4.67s5.09.63,6.34,1.75,2.89,5.69.58,9.69,3,14.77,1.14,16.34c-3.12,2.59-16.53.31-18.87-1.77S33.22,117.55,32.36,115.07Z" transform="translate(-3.48 -50.49)" />
		<path class="cls-2" d="M35.25,110.74c-.3.29-.17,1.18.12,1.62s1.2.94,1.7.62a1.45,1.45,0,0,0-1.82-2.24Z" transform="translate(-3.48 -50.49)" />
		<path class="cls-2" d="M42.51,107.43a.94.94,0,0,0,0,1.15c.27.35,1.3,1,1.71.7a.94.94,0,0,0,0-1.47C43.81,107.43,42.93,107.11,42.51,107.43Z" transform="translate(-3.48 -50.49)" />
		<path class="cls-4" d="M43.67,110.07a.88.88,0,0,0-.37,1.22c.23.38.68.25,1.13,0s.68-1,.41-1.22A.83.83,0,0,0,43.67,110.07Z" transform="translate(-3.48 -50.49)" />
	</g>
	<g id="_2_copy" data-name="2 copy">
		<path id="hB-2" data-name="hB" class="cls-3" d="M32.36,75.07c-1.25-3.62-4.64-9-5.15-14.75s.79-7.27,1.72-6.72,2.79,3.08,3.43,7a41,41,0,0,1,.57,6.85l3.43-2s-1.67-4.26-1.12-7.41,7.5-4.6,9.36-3.53c2,1.17-2.92,1.89-4,6-1,3.83-.82,4.67-.82,4.67s5.09.63,6.34,1.75,2.89,5.69.58,9.69,3,14.77,1.14,16.34c-3.12,2.59-16.53.31-18.87-1.77S33.22,77.55,32.36,75.07Z" transform="translate(-3.48 -50.49)" />
		<path class="cls-2" d="M35.25,70.74c-.3.29-.17,1.18.12,1.62s1.2.94,1.7.62a1.45,1.45,0,0,0-1.82-2.24Z" transform="translate(-3.48 -50.49)" />
		<path class="cls-2" d="M42.51,67.43a.94.94,0,0,0,0,1.15c.27.35,1.3,1,1.71.7a.94.94,0,0,0,0-1.47C43.81,67.43,42.93,67.11,42.51,67.43Z" transform="translate(-3.48 -50.49)" />
		<path class="cls-4" d="M43.67,70.07a.88.88,0,0,0-.37,1.22c.23.38.68.25,1.13,0s.68-1,.41-1.22A.83.83,0,0,0,43.67,70.07Z" transform="translate(-3.48 -50.49)" />
	</g>
	<g id="_3" data-name="3">
		<path id="hB-3" data-name="hB" class="cls-3" d="M32.36,75.07c-1.25-3.62-4.64-9-5.15-14.75s.79-7.27,1.72-6.72,2.79,3.08,3.43,7a41,41,0,0,1,.57,6.85l3.43-2s-1.67-4.26-1.12-7.41,5.67-7.5,7.53-6.43c2,1.17-1.09,4.79-2.21,8.89-1,3.83-.82,4.67-.82,4.67s5.09.63,6.34,1.75,2.89,5.69.58,9.69,3,14.77,1.14,16.34c-3.12,2.59-16.53.31-18.87-1.77S33.22,77.55,32.36,75.07Z" transform="translate(-3.48 -50.49)" />
		<path class="cls-2" d="M35.25,70.74c-.3.29-.17,1.18.12,1.62s1.2.94,1.7.62a1.45,1.45,0,0,0-1.82-2.24Z" transform="translate(-3.48 -50.49)" />
		<path class="cls-2" d="M42.51,67.43a.94.94,0,0,0,0,1.15c.27.35,1.3,1,1.71.7a.94.94,0,0,0,0-1.47C43.81,67.43,42.93,67.11,42.51,67.43Z" transform="translate(-3.48 -50.49)" />
		<path class="cls-4" d="M43.67,70.07a.88.88,0,0,0-.37,1.22c.23.38.68.25,1.13,0s.68-1,.41-1.22A.83.83,0,0,0,43.67,70.07Z" transform="translate(-3.48 -50.49)" />
	</g>
	<path id="no_stroke_solid" data-name="no stroke solid" class="cls-5" d="M58.32,87.73v.07c0,4.45-8.22,8.07-18.36,8.07S21.59,92.25,21.59,87.8c0,0,0,0,0-.07H5.36l34.64,20,34.64-20Z" transform="translate(-3.48 -50.49)" />
	<path id="no_stroke_solid_hblk-2" data-name="no stroke solid hblk" class="cls-2" d="M40,92.73c-8.92,0-16.35-2.8-18-6.5a3.79,3.79,0,0,0-.36,1.57c0,4.45,8.23,8.07,18.37,8.07s18.36-3.62,18.36-8.07A3.78,3.78,0,0,0,58,86.23C56.31,89.93,48.88,92.73,40,92.73Z" transform="translate(-3.48 -50.49)" />
	<polygon id="hC" class="cls-6" points="71.28 37.31 36.64 57.31 36.64 97.31 71.28 77.31 71.28 37.31" />
	<polygon id="hB-4" data-name="hB" class="cls-7" points="2 37.31 2 77.31 36.64 97.31 36.64 57.31 2 37.31" />
</svg>
