<svg xmlns="http://www.w3.org/2000/svg" viewBox="0 0 73.28 108.37">
	<defs>
		<style>
			.cls-1,.cls-2,.cls-3,.cls-7{fill:none;}.cls-1,.cls-2{stroke:#d8003e;}.cls-1,.cls-2,.cls-7{stroke-linecap:round;}.cls-1,.cls-2,.cls-4,.cls-5{stroke-linejoin:round;}.cls-1,.cls-4,.cls-5,.cls-7{stroke-width:4px;}.cls-2{stroke-width:0.25px;}.cls-3{stroke:#231f20;}.cls-3,.cls-7{stroke-miterlimit:10;}.cls-4{fill:#e6decc;}.cls-4,.cls-5,.cls-7{stroke:#262626;}.cls-4,.cls-5{stroke-linecap:square;}.cls-5{fill:#f9f9f9;}.cls-6{fill:#262626;}
		</style>
	</defs>
	<g id="delete">
		<polygon class="cls-1" points="36.28 27.12 2 46.93 2 86.56 36.28 106.37 70.56 86.56 70.56 46.93 36.28 27.12" />
		<line class="cls-2" x1="10.66" y1="41.37" x2="2" y2="56.37" />
		<line class="cls-2" x1="2" y1="76.37" x2="10.66" y2="91.37" />
		<line class="cls-2" x1="71.28" y1="76.37" x2="62.62" y2="91.37" />
		<line class="cls-2" x1="27.98" y1="101.37" x2="45.3" y2="101.37" />
		<line class="cls-2" x1="0.52" y1="46.38" x2="69.8" y2="46.38" />
		<line class="cls-2" x1="2" y1="86.37" x2="71.28" y2="86.37" />
		<line class="cls-2" x1="2" y1="86.37" x2="36.64" y2="26.37" />
		<line class="cls-2" x1="71.28" y1="46.37" x2="36.64" y2="106.37" />
		<line class="cls-2" x1="71.28" y1="86.37" x2="36.64" y2="26.37" />
		<line class="cls-2" x1="36.64" y1="106.37" x2="2" y2="46.37" />
		<line class="cls-2" x1="53.96" y1="36.37" x2="19.32" y2="96.37" />
		<line class="cls-2" x1="19.32" y1="36.37" x2="53.96" y2="96.37" />
		<line class="cls-2" x1="2" y1="66.37" x2="71.28" y2="66.37" />
		<line class="cls-2" x1="19.32" y1="36.37" x2="53.96" y2="36.37" />
		<line class="cls-2" x1="70.56" y1="66.74" x2="53.42" y2="37.03" />
		<line class="cls-2" x1="53.96" y1="96.37" x2="71.28" y2="66.37" />
		<line class="cls-2" x1="19.32" y1="96.37" x2="53.96" y2="96.37" />
		<line class="cls-2" x1="2" y1="66.37" x2="19.32" y2="96.37" />
		<line class="cls-2" x1="19.32" y1="36.37" x2="2" y2="66.37" />
		<line class="cls-2" x1="53.96" y1="36.37" x2="2" y2="66.37" />
		<line class="cls-2" x1="53.96" y1="96.37" x2="53.96" y2="36.37" />
		<line class="cls-2" x1="2" y1="66.37" x2="53.96" y2="96.37" />
		<line class="cls-2" x1="19.32" y1="36.37" x2="19.32" y2="96.37" />
		<line class="cls-2" x1="71.28" y1="66.37" x2="19.32" y2="96.37" />
		<line class="cls-2" x1="19.32" y1="36.37" x2="71.28" y2="66.37" />
		<line class="cls-2" x1="71.28" y1="56.37" x2="2" y2="56.37" />
		<line class="cls-2" x1="71.28" y1="76.37" x2="2" y2="76.37" />
		<line class="cls-2" x1="61.99" y1="41.98" x2="27.71" y2="101.42" />
		<line class="cls-2" x1="45.3" y1="31.37" x2="10.66" y2="91.37" />
		<line class="cls-2" x1="27.98" y1="31.37" x2="27.98" y2="101.37" />
		<line class="cls-2" x1="10.66" y1="41.37" x2="10.66" y2="91.37" />
		<line class="cls-2" x1="61.99" y1="41.98" x2="10.57" y2="41.98" />
		<line class="cls-2" x1="62.62" y1="91.37" x2="62.62" y2="41.37" />
		<line class="cls-2" x1="10.66" y1="91.37" x2="62.62" y2="91.37" />
		<line class="cls-2" x1="10.66" y1="41.37" x2="71.28" y2="76.37" />
		<line class="cls-2" x1="2" y1="56.37" x2="62.62" y2="91.37" />
		<line class="cls-2" x1="2" y1="76.37" x2="45.3" y2="101.37" />
		<line class="cls-2" x1="71.28" y1="76.37" x2="27.98" y2="101.37" />
		<line class="cls-2" x1="71.28" y1="56.37" x2="10.66" y2="91.37" />
		<line class="cls-2" x1="61.99" y1="41.98" x2="2" y2="76.65" />
		<line class="cls-2" x1="45.3" y1="31.37" x2="45.3" y2="101.37" />
		<line class="cls-2" x1="27.98" y1="31.37" x2="45.3" y2="31.37" />
		<line class="cls-2" x1="62.62" y1="91.37" x2="27.98" y2="31.37" />
		<line class="cls-2" x1="10.66" y1="41.37" x2="45.3" y2="101.37" />
		<line class="cls-2" x1="71.28" y1="56.37" x2="62.62" y2="41.37" />
		<line class="cls-2" x1="27.98" y1="31.37" x2="71.28" y2="56.37" />
		<line class="cls-2" x1="45.3" y1="31.37" x2="2" y2="56.37" />
		<line class="cls-2" x1="40.97" y1="28.87" x2="2" y2="51.37" />
		<line class="cls-2" x1="32" y1="29.6" x2="70.56" y2="51.88" />
		<line class="cls-2" x1="32.31" y1="103.87" x2="32.31" y2="28.87" />
		<line class="cls-2" x1="40.97" y1="28.87" x2="40.97" y2="103.87" />
		<line class="cls-2" x1="71.28" y1="51.37" x2="2" y2="51.37" />
		<line class="cls-2" x1="71.28" y1="61.37" x2="2" y2="61.37" />
		<line class="cls-2" x1="2" y1="71.37" x2="71.28" y2="71.37" />
		<line class="cls-2" x1="71.28" y1="81.37" x2="2" y2="81.37" />
		<line class="cls-2" x1="27.98" y1="101.37" x2="2" y2="56.37" />
		<line class="cls-2" x1="49.63" y1="98.87" x2="14.99" y2="38.87" />
		<line class="cls-2" x1="40.97" y1="28.87" x2="6.33" y2="88.87" />
		<line class="cls-2" x1="45.3" y1="31.37" x2="71.28" y2="76.37" />
		<line class="cls-2" x1="23.65" y1="98.87" x2="71.28" y2="71.37" />
		<line class="cls-2" x1="6.33" y1="88.87" x2="71.28" y2="51.37" />
		<line class="cls-2" x1="71.28" y1="61.37" x2="14.99" y2="93.87" />
		<line class="cls-2" x1="14.99" y1="38.87" x2="14.99" y2="93.87" />
		<line class="cls-2" x1="2" y1="81.37" x2="66.95" y2="43.87" />
		<line class="cls-2" x1="66.95" y1="88.87" x2="66.95" y2="43.87" />
		<line class="cls-2" x1="57.71" y1="93.99" x2="57.71" y2="39.5" />
		<line class="cls-2" x1="49.63" y1="98.87" x2="49.63" y2="33.87" />
		<line class="cls-2" x1="2" y1="76.37" x2="27.98" y2="31.37" />
		<line class="cls-2" x1="71.28" y1="81.37" x2="6.33" y2="43.87" />
		<line class="cls-2" x1="23.43" y1="98.94" x2="57.71" y2="39.5" />
		<line class="cls-2" x1="2" y1="71.7" x2="57.71" y2="39.5" />
		<line class="cls-2" x1="49.63" y1="33.87" x2="2" y2="61.37" />
		<polyline class="cls-2" points="66.95 43.87 49.63 73.87 32.31 103.87" />
		<line class="cls-2" x1="66.95" y1="88.87" x2="2" y2="51.37" />
		<line class="cls-2" x1="2" y1="61.37" x2="58.29" y2="93.87" />
		<line class="cls-2" x1="71.28" y1="71.37" x2="14.99" y2="38.87" />
		<line class="cls-2" x1="14.99" y1="93.87" x2="49.63" y2="33.87" />
		<line class="cls-2" x1="49.63" y1="98.87" x2="2" y2="71.37" />
		<line class="cls-2" x1="71.28" y1="81.37" x2="32.31" y2="103.87" />
		<line class="cls-2" x1="6.33" y1="43.87" x2="6.33" y2="88.87" />
		<line class="cls-2" x1="40.97" y1="103.87" x2="6.33" y2="43.87" />
		<line class="cls-2" x1="71.28" y1="61.37" x2="23.65" y2="33.87" />
		<line class="cls-2" x1="58.29" y1="93.87" x2="23.65" y2="33.87" />
		<line class="cls-2" x1="23.65" y1="98.87" x2="23.65" y2="33.87" />
		<line class="cls-2" x1="66.95" y1="88.87" x2="32.31" y2="28.87" />
		<line class="cls-2" x1="40.97" y1="103.87" x2="2" y2="81.37" />
		<line class="cls-2" x1="71.28" y1="56.37" x2="45.3" y2="101.37" />
		<line class="cls-2" x1="59.74" y1="46.39" x2="33.75" y2="31.37" />
		<line class="cls-2" x1="13.55" y1="46.37" x2="39.53" y2="31.37" />
		<line class="cls-2" x1="59.74" y1="46.39" x2="33.75" y2="61.37" />
		<line class="cls-2" x1="39.53" y1="61.37" x2="13.55" y2="46.37" />
		<line class="cls-2" x1="42.48" y1="36.41" x2="16.43" y2="51.37" />
		<line class="cls-2" x1="56.85" y1="51.37" x2="30.87" y2="36.37" />
		<line class="cls-2" x1="30.81" y1="96.46" x2="30.87" y2="66.37" />
		<line class="cls-2" x1="7.75" y1="56.4" x2="7.77" y2="86.37" />
		<line class="cls-2" x1="30.81" y1="96.46" x2="4.89" y2="81.37" />
		<line class="cls-3" x1="71.28" y1="46.37" x2="2" y2="46.37" />
	</g>
	<g id="platform">
		<polygon id="hA" class="cls-4" points="71.28 46.37 36.64 26.37 2 46.37 36.64 66.37 71.28 46.37" />
	</g>
	<g id="eye_1" data-name="eye 1">
		<path class="cls-5" d="M60.7,67.73S51.25,55.48,39.6,55.48,18.49,67.73,18.49,67.73,27.94,80,39.6,80,60.7,67.73,60.7,67.73Z" transform="translate(-3.36 -41.36)" />
		<circle class="cls-6" cx="36.68" cy="26.44" r="4.09" />
		<line class="cls-7" x1="12.68" y1="18.06" x2="13.57" y2="19.12" />
		<line class="cls-7" x1="22.57" y1="9.59" x2="23.65" y2="11" />
		<line class="cls-7" x1="37.39" y1="6.06" x2="37.39" y2="7.65" />
		<line class="cls-7" x1="51.8" y1="13.29" x2="53.96" y2="11.71" />
		<line class="cls-7" x1="59.1" y1="20.35" x2="59.98" y2="19.12" />
	</g>
	<g id="eye2">
		<path class="cls-5" d="M59.48,66.8S50.55,54.55,39.54,54.55,19.61,66.8,19.61,66.8,28.53,79,39.54,79,59.48,66.8,59.48,66.8Z" transform="translate(-3.36 -41.36)" />
		<circle class="cls-6" cx="36.68" cy="25.44" r="5.93" />
		<line class="cls-7" x1="11.8" y1="19.12" x2="13.12" y2="19.74" />
		<line class="cls-7" x1="21.49" y1="8.71" x2="22.57" y2="9.59" />
		<line class="cls-7" x1="36.24" y1="6.85" x2="36.18" y2="4.65" />
		<line class="cls-7" x1="51.8" y1="11" x2="52.88" y2="9.59" />
		<line class="cls-7" x1="59.1" y1="20.35" x2="61.04" y2="19.74" />
	</g>
	<g id="eye3">
		<path class="cls-5" d="M60.7,66.23S51.25,51.74,39.6,51.74,18.49,66.23,18.49,66.23,27.94,80.71,39.6,80.71,60.7,66.23,60.7,66.23Z" transform="translate(-3.36 -41.36)" />
		<ellipse class="cls-6" cx="36.64" cy="25.37" rx="8" ry="3.21" />
		<line class="cls-7" x1="9.33" y1="17.18" x2="10.66" y2="18.06" />
		<line class="cls-7" x1="37.39" y1="2" x2="37.39" y2="3.94" />
		<line class="cls-7" x1="21.49" y1="6.85" x2="23.11" y2="7.65" />
		<line class="cls-7" x1="52.88" y1="9.59" x2="54.68" y2="8.71" />
		<line class="cls-7" x1="59.98" y1="18.06" x2="61.04" y2="17.18" />
	</g>
	<g id="eye_4" data-name="eye 4">
		<path class="cls-5" d="M59.54,66.23S50.61,55.5,39.6,55.5,19.66,66.23,19.66,66.23,28.59,77,39.6,77,59.54,66.23,59.54,66.23Z" transform="translate(-3.36 -41.36)" />
		<circle class="cls-6" cx="36.24" cy="25.14" r="12.71" />
		<line class="cls-7" x1="10.66" y1="19.43" x2="11.8" y2="20.35" />
		<line class="cls-7" x1="59.1" y1="19.12" x2="61.04" y2="18.24" />
		<line class="cls-7" x1="36.68" y1="4.65" x2="36.68" y2="5.75" />
		<line class="cls-7" x1="50.62" y1="10.29" x2="51.8" y2="8.71" />
		<line class="cls-7" x1="22.57" y1="11" x2="21.49" y2="9.59" />
	</g>
</svg>
