<svg id="humid" xmlns="http://www.w3.org/2000/svg" viewBox="0 0 30.62 14.55">
	<defs>
		<style>
			.cls-1{fill:#ba00ff;}.cls-1,.cls-2{stroke:#000;stroke-linejoin:round;stroke-width:2px;}.cls-2{fill:#e4a4ff;}
		</style>
	</defs>
	<path class="cls-1" d="M27,33.73s1.25,0,3.69,1.78,2.8,2.74,2.8,2.74a13.77,13.77,0,0,1,10.16-4.33,18.29,18.29,0,0,1,4.68.59,9.07,9.07,0,0,0,0,11,18.29,18.29,0,0,1-4.68.59,13.77,13.77,0,0,1-10.16-4.33s-.46,1-2.8,2.74S27,46.27,27,46.27A27.56,27.56,0,0,0,28,40,27.56,27.56,0,0,0,27,33.73Z" transform="translate(-26.04 -32.73)" />
	<path class="cls-2" d="M48.37,34.51c4.88,1.28,7.28,4.33,7.28,5.49s-2.4,4.21-7.28,5.49a9.07,9.07,0,0,1,0-11Z" transform="translate(-26.04 -32.73)" />
	<circle cx="25.36" cy="7.27" r="0.93" />
</svg>
