<svg xmlns="http://www.w3.org/2000/svg" viewBox="0 0 73.28 134.53">
	<defs>
		<style>
			.cls-1,.cls-10,.cls-11,.cls-12,.cls-13,.cls-14,.cls-15,.cls-16,.cls-17,.cls-18,.cls-19,.cls-2,.cls-3,.cls-6,.cls-7,.cls-8,.cls-9{fill:none;}.cls-1,.cls-2{stroke:#d8003e;}.cls-1,.cls-10,.cls-11,.cls-12,.cls-13,.cls-14,.cls-15,.cls-16,.cls-17,.cls-18,.cls-19,.cls-2,.cls-6,.cls-7,.cls-8,.cls-9{stroke-linecap:round;}.cls-1,.cls-10,.cls-11,.cls-12,.cls-13,.cls-14,.cls-15,.cls-16,.cls-17,.cls-18,.cls-19,.cls-2,.cls-4,.cls-5,.cls-6,.cls-7,.cls-8,.cls-9{stroke-linejoin:round;}.cls-1,.cls-10,.cls-11,.cls-12,.cls-13,.cls-14,.cls-15,.cls-16,.cls-17,.cls-18,.cls-19,.cls-4,.cls-6,.cls-7,.cls-8,.cls-9{stroke-width:4px;}.cls-2{stroke-width:0.25px;}.cls-3{stroke:#231f20;stroke-miterlimit:10;}.cls-4{fill:#e6decc;}.cls-4,.cls-5{stroke:#262626;stroke-linecap:square;}.cls-5{fill:#f9f9f9;stroke-width:2px;}.cls-6{stroke:#8c19dd;}.cls-7{stroke:#e17def;}.cls-8{stroke:#a1ff64;}.cls-9{stroke:#ff8155;}.cls-10{stroke:#ffc35a;}.cls-11{stroke:#7d9fff;}.cls-12{stroke:#d9a9ff;}.cls-13{stroke:#ff4da6;}.cls-14{stroke:#fff471;}.cls-15{stroke:#7373ff;}.cls-16{stroke:#55ff9e;}.cls-17{stroke:#f2ff78;}.cls-18{stroke:#8fcfff;}.cls-19{stroke:#ff6ec8;}
		</style>
	</defs>
	<g id="delete">
		<polygon class="cls-1" points="36.28 53.28 2 73.09 2 112.72 36.28 132.53 70.56 112.72 70.56 73.09 36.28 53.28" />
		<line class="cls-2" x1="10.66" y1="67.53" x2="2" y2="82.53" />
		<line class="cls-2" x1="2" y1="102.53" x2="10.66" y2="117.53" />
		<line class="cls-2" x1="71.28" y1="102.53" x2="62.62" y2="117.53" />
		<line class="cls-2" x1="27.98" y1="127.53" x2="45.3" y2="127.53" />
		<line class="cls-2" x1="0.52" y1="72.54" x2="69.8" y2="72.54" />
		<line class="cls-2" x1="2" y1="112.53" x2="71.28" y2="112.53" />
		<line class="cls-2" x1="2" y1="112.53" x2="36.64" y2="52.53" />
		<line class="cls-2" x1="71.28" y1="72.53" x2="36.64" y2="132.53" />
		<line class="cls-2" x1="71.28" y1="112.53" x2="36.64" y2="52.53" />
		<line class="cls-2" x1="36.64" y1="132.53" x2="2" y2="72.53" />
		<line class="cls-2" x1="53.96" y1="62.53" x2="19.32" y2="122.53" />
		<line class="cls-2" x1="19.32" y1="62.53" x2="53.96" y2="122.53" />
		<line class="cls-2" x1="2" y1="92.53" x2="71.28" y2="92.53" />
		<line class="cls-2" x1="19.32" y1="62.53" x2="53.96" y2="62.53" />
		<line class="cls-2" x1="70.56" y1="92.91" x2="53.42" y2="63.19" />
		<line class="cls-2" x1="53.96" y1="122.53" x2="71.28" y2="92.53" />
		<line class="cls-2" x1="19.32" y1="122.53" x2="53.96" y2="122.53" />
		<line class="cls-2" x1="2" y1="92.53" x2="19.32" y2="122.53" />
		<line class="cls-2" x1="19.32" y1="62.53" x2="2" y2="92.53" />
		<line class="cls-2" x1="53.96" y1="62.53" x2="2" y2="92.53" />
		<line class="cls-2" x1="53.96" y1="122.53" x2="53.96" y2="62.53" />
		<line class="cls-2" x1="2" y1="92.53" x2="53.96" y2="122.53" />
		<line class="cls-2" x1="19.32" y1="62.53" x2="19.32" y2="122.53" />
		<line class="cls-2" x1="71.28" y1="92.53" x2="19.32" y2="122.53" />
		<line class="cls-2" x1="19.32" y1="62.53" x2="71.28" y2="92.53" />
		<line class="cls-2" x1="71.28" y1="82.53" x2="2" y2="82.53" />
		<line class="cls-2" x1="71.28" y1="102.53" x2="2" y2="102.53" />
		<line class="cls-2" x1="61.99" y1="68.14" x2="27.71" y2="127.58" />
		<line class="cls-2" x1="45.3" y1="57.53" x2="10.66" y2="117.53" />
		<line class="cls-2" x1="27.98" y1="57.53" x2="27.98" y2="127.53" />
		<line class="cls-2" x1="10.66" y1="67.53" x2="10.66" y2="117.53" />
		<line class="cls-2" x1="61.99" y1="68.14" x2="10.57" y2="68.14" />
		<line class="cls-2" x1="62.62" y1="117.53" x2="62.62" y2="67.53" />
		<line class="cls-2" x1="10.66" y1="117.53" x2="62.62" y2="117.53" />
		<line class="cls-2" x1="10.66" y1="67.53" x2="71.28" y2="102.53" />
		<line class="cls-2" x1="2" y1="82.53" x2="62.62" y2="117.53" />
		<line class="cls-2" x1="2" y1="102.53" x2="45.3" y2="127.53" />
		<line class="cls-2" x1="71.28" y1="102.53" x2="27.98" y2="127.53" />
		<line class="cls-2" x1="71.28" y1="82.53" x2="10.66" y2="117.53" />
		<line class="cls-2" x1="61.99" y1="68.14" x2="2" y2="102.81" />
		<line class="cls-2" x1="45.3" y1="57.53" x2="45.3" y2="127.53" />
		<line class="cls-2" x1="27.98" y1="57.53" x2="45.3" y2="57.53" />
		<line class="cls-2" x1="62.62" y1="117.53" x2="27.98" y2="57.53" />
		<line class="cls-2" x1="10.66" y1="67.53" x2="45.3" y2="127.53" />
		<line class="cls-2" x1="71.28" y1="82.53" x2="62.62" y2="67.53" />
		<line class="cls-2" x1="27.98" y1="57.53" x2="71.28" y2="82.53" />
		<line class="cls-2" x1="45.3" y1="57.53" x2="2" y2="82.53" />
		<line class="cls-2" x1="40.97" y1="55.03" x2="2" y2="77.53" />
		<line class="cls-2" x1="32" y1="55.76" x2="70.56" y2="78.05" />
		<line class="cls-2" x1="32.31" y1="130.03" x2="32.31" y2="55.03" />
		<line class="cls-2" x1="40.97" y1="55.03" x2="40.97" y2="130.03" />
		<line class="cls-2" x1="71.28" y1="77.53" x2="2" y2="77.53" />
		<line class="cls-2" x1="71.28" y1="87.53" x2="2" y2="87.53" />
		<line class="cls-2" x1="2" y1="97.53" x2="71.28" y2="97.53" />
		<line class="cls-2" x1="71.28" y1="107.53" x2="2" y2="107.53" />
		<line class="cls-2" x1="27.98" y1="127.53" x2="2" y2="82.53" />
		<line class="cls-2" x1="49.63" y1="125.03" x2="14.99" y2="65.03" />
		<line class="cls-2" x1="40.97" y1="55.03" x2="6.33" y2="115.03" />
		<line class="cls-2" x1="45.3" y1="57.53" x2="71.28" y2="102.53" />
		<line class="cls-2" x1="23.65" y1="125.03" x2="71.28" y2="97.53" />
		<line class="cls-2" x1="6.33" y1="115.03" x2="71.28" y2="77.53" />
		<line class="cls-2" x1="71.28" y1="87.53" x2="14.99" y2="120.03" />
		<line class="cls-2" x1="14.99" y1="65.03" x2="14.99" y2="120.03" />
		<line class="cls-2" x1="2" y1="107.53" x2="66.95" y2="70.03" />
		<line class="cls-2" x1="66.95" y1="115.03" x2="66.95" y2="70.03" />
		<line class="cls-2" x1="57.71" y1="120.15" x2="57.71" y2="65.67" />
		<line class="cls-2" x1="49.63" y1="125.03" x2="49.63" y2="60.03" />
		<line class="cls-2" x1="2" y1="102.53" x2="27.98" y2="57.53" />
		<line class="cls-2" x1="71.28" y1="107.53" x2="6.33" y2="70.03" />
		<line class="cls-2" x1="23.43" y1="125.1" x2="57.71" y2="65.67" />
		<line class="cls-2" x1="2" y1="97.86" x2="57.71" y2="65.67" />
		<line class="cls-2" x1="49.63" y1="60.03" x2="2" y2="87.53" />
		<polyline class="cls-2" points="66.95 70.03 49.63 100.03 32.31 130.03" />
		<line class="cls-2" x1="66.95" y1="115.03" x2="2" y2="77.53" />
		<line class="cls-2" x1="2" y1="87.53" x2="58.29" y2="120.03" />
		<line class="cls-2" x1="71.28" y1="97.53" x2="14.99" y2="65.03" />
		<line class="cls-2" x1="14.99" y1="120.03" x2="49.63" y2="60.03" />
		<line class="cls-2" x1="49.63" y1="125.03" x2="2" y2="97.53" />
		<line class="cls-2" x1="71.28" y1="107.53" x2="32.31" y2="130.03" />
		<line class="cls-2" x1="6.33" y1="70.03" x2="6.33" y2="115.03" />
		<line class="cls-2" x1="40.97" y1="130.03" x2="6.33" y2="70.03" />
		<line class="cls-2" x1="71.28" y1="87.53" x2="23.65" y2="60.03" />
		<line class="cls-2" x1="58.29" y1="120.03" x2="23.65" y2="60.03" />
		<line class="cls-2" x1="23.65" y1="125.03" x2="23.65" y2="60.03" />
		<line class="cls-2" x1="66.95" y1="115.03" x2="32.31" y2="55.03" />
		<line class="cls-2" x1="40.97" y1="130.03" x2="2" y2="107.53" />
		<line class="cls-2" x1="71.28" y1="82.53" x2="45.3" y2="127.53" />
		<line class="cls-2" x1="59.74" y1="72.55" x2="33.75" y2="57.53" />
		<line class="cls-2" x1="13.55" y1="72.53" x2="39.53" y2="57.53" />
		<line class="cls-2" x1="59.74" y1="72.55" x2="33.75" y2="87.53" />
		<line class="cls-2" x1="39.53" y1="87.53" x2="13.55" y2="72.53" />
		<line class="cls-2" x1="42.48" y1="62.57" x2="16.43" y2="77.53" />
		<line class="cls-2" x1="56.85" y1="77.53" x2="30.87" y2="62.53" />
		<line class="cls-2" x1="30.81" y1="122.63" x2="30.87" y2="92.53" />
		<line class="cls-2" x1="7.75" y1="82.57" x2="7.77" y2="112.53" />
		<line class="cls-2" x1="30.81" y1="122.63" x2="4.89" y2="107.53" />
		<line class="cls-3" x1="71.28" y1="72.53" x2="2" y2="72.53" />
	</g>
	<g id="platform">
		<polygon id="hA" class="cls-4" points="71.28 72.53 36.64 52.53 2 72.53 36.64 92.53 71.28 72.53" />
	</g>
	<g id="cloud_1" data-name="cloud 1">
		<path class="cls-5" d="M58,30a14.25,14.25,0,0,0-26-5.4,11,11,0,0,0-8.66,5.21A8.45,8.45,0,1,0,28,45.64a11,11,0,0,0,10-.23,14.09,14.09,0,0,0,5.95,1.32,14.24,14.24,0,0,0,7-1.82A8.45,8.45,0,1,0,58,30Z" transform="translate(-3.36 -15.19)" />
		<line id="_8c19dd" data-name="8c19dd" class="cls-6" x1="20.89" y1="39.1" x2="20.08" y2="41.99" />
		<line id="e17def" class="cls-7" x1="57.39" y1="33.52" x2="56.68" y2="36.69" />
		<line id="a1ff64" class="cls-8" x1="57.04" y1="44.57" x2="55.96" y2="47.4" />
		<line id="ff8155" class="cls-9" x1="30.86" y1="28.1" x2="30.15" y2="30.53" />
		<line id="ffc35a" class="cls-10" x1="44.47" y1="49.68" x2="43.75" y2="52.18" />
		<line id="_7d9fff" data-name="7d9fff" class="cls-11" x1="29.98" y1="62.28" x2="29.14" y2="64.99" />
		<line id="d9a9ff" class="cls-12" x1="58.96" y1="64.28" x2="57.61" y2="66.7" />
		<line id="ff4da6" class="cls-13" x1="16.03" y1="70.05" x2="15.35" y2="72.07" />
		<line id="fff471" class="cls-14" x1="42.79" y1="73.44" x2="42.07" y2="75.65" />
	</g>
	<g id="cloud_2" data-name="cloud 2">
		<path class="cls-5" d="M58,30a14.25,14.25,0,0,0-26-5.4,11,11,0,0,0-8.66,5.21A8.45,8.45,0,1,0,28,45.64a11,11,0,0,0,10-.23,14.09,14.09,0,0,0,5.95,1.32,14.24,14.24,0,0,0,7-1.82A8.45,8.45,0,1,0,58,30Z" transform="translate(-3.36 -15.19)" />
		<line id="_7373ff" data-name="7373ff" class="cls-15" x1="45.24" y1="63.53" x2="44.47" y2="66.53" />
		<line id="_55ff9e" data-name="55ff9e" class="cls-16" x1="31.31" y1="41.13" x2="30.61" y2="43.62" />
		<line id="f2ff78" class="cls-17" x1="13.52" y1="30.72" x2="12.71" y2="32.84" />
		<line id="_8fcfff" data-name="8fcfff" class="cls-18" x1="15.52" y1="52.03" x2="15.11" y2="54.53" />
		<line id="ff6ec8" class="cls-19" x1="23.83" y1="66.79" x2="23.47" y2="69.49" />
		<line id="fff471-2" data-name="fff471" class="cls-14" x1="48.19" y1="46.75" x2="47.47" y2="48.95" />
		<line id="_7d9fff-2" data-name="7d9fff" class="cls-11" x1="52.22" y1="26.75" x2="51.37" y2="29.46" />
		<line id="ff4da6-2" data-name="ff4da6" class="cls-13" x1="23" y1="29.77" x2="22.32" y2="31.78" />
		<line id="d9a9ff-2" data-name="d9a9ff" class="cls-12" x1="41.64" y1="36.31" x2="40.3" y2="38.73" />
	</g>
	<g id="cloud_3" data-name="cloud 3">
		<path class="cls-5" d="M58,28a14.25,14.25,0,0,0-26-5.4,11,11,0,0,0-8.66,5.21A8.45,8.45,0,1,0,28,43.64a11,11,0,0,0,10-.23,14.09,14.09,0,0,0,5.95,1.32,14.24,14.24,0,0,0,7-1.82A8.45,8.45,0,1,0,58,28Z" transform="translate(-3.36 -15.19)" />
		<line id="_55ff9e-2" data-name="55ff9e" class="cls-16" x1="42.12" y1="60.16" x2="41.41" y2="62.65" />
		<line id="_8fcfff-2" data-name="8fcfff" class="cls-18" x1="15.02" y1="48.68" x2="14.61" y2="51.18" />
		<line id="ff6ec8-2" data-name="ff6ec8" class="cls-19" x1="21.31" y1="28.18" x2="20.95" y2="30.88" />
		<line id="_7d9fff-3" data-name="7d9fff" class="cls-11" x1="54.38" y1="41.18" x2="53.54" y2="43.89" />
		<line id="ff4da6-3" data-name="ff4da6" class="cls-13" x1="50.9" y1="67.13" x2="50.23" y2="69.15" />
		<line id="d9a9ff-3" data-name="d9a9ff" class="cls-12" x1="32.67" y1="41.32" x2="31.32" y2="43.74" />
		<line id="_8c19dd-2" data-name="8c19dd" class="cls-6" x1="43.54" y1="34.25" x2="42.73" y2="37.14" />
		<line id="ff8155-2" data-name="ff8155" class="cls-9" x1="21.84" y1="67.57" x2="21.13" y2="70" />
	</g>
	<g id="cloud_4" data-name="cloud 4">
		<path class="cls-5" d="M58,28a14.25,14.25,0,0,0-26-5.4,11,11,0,0,0-8.66,5.21A8.45,8.45,0,1,0,28,43.64a11,11,0,0,0,10-.23,14.09,14.09,0,0,0,5.95,1.32,14.24,14.24,0,0,0,7-1.82A8.45,8.45,0,1,0,58,28Z" transform="translate(-3.36 -15.19)" />
		<line id="_7373ff-2" data-name="7373ff" class="cls-15" x1="16.78" y1="52.67" x2="16.01" y2="55.67" />
		<line id="_55ff9e-3" data-name="55ff9e" class="cls-16" x1="51.63" y1="33.21" x2="50.93" y2="35.69" />
		<line id="f2ff78-2" data-name="f2ff78" class="cls-17" x1="36.33" y1="27.41" x2="35.51" y2="29.53" />
		<line id="_8fcfff-3" data-name="8fcfff" class="cls-18" x1="21.58" y1="65.65" x2="21.17" y2="68.15" />
		<line id="ff6ec8-3" data-name="ff6ec8" class="cls-19" x1="45.62" y1="62.18" x2="45.27" y2="64.88" />
		<line id="fff471-3" data-name="fff471" class="cls-14" x1="34.84" y1="71.73" x2="34.12" y2="73.94" />
		<line class="cls-11" x1="45.27" y1="44.83" x2="44.43" y2="47.54" />
		<line id="ff4da6-4" data-name="ff4da6" class="cls-13" x1="21.91" y1="35.69" x2="21.24" y2="37.71" />
		<line id="d9a9ff-4" data-name="d9a9ff" class="cls-12" x1="31.62" y1="46.33" x2="30.28" y2="48.75" />
	</g>
</svg>
