<svg xmlns="http://www.w3.org/2000/svg" viewBox="0 0 73.28 142.84">
	<defs>
		<style>
			.cls-1,.cls-5,.cls-6{fill:none;}.cls-1,.cls-2,.cls-3,.cls-4{stroke:#262626;}.cls-1,.cls-4,.cls-5,.cls-6{stroke-linecap:round;}.cls-1,.cls-2,.cls-3,.cls-4,.cls-5,.cls-6{stroke-linejoin:round;}.cls-1,.cls-2,.cls-3{stroke-width:2px;}.cls-2{fill:#ffbd56;}.cls-2,.cls-3{stroke-linecap:square;}.cls-3{fill:#5a5aff;}.cls-4{fill:#e6decc;}.cls-5,.cls-6{stroke:#d8003e;}.cls-5{stroke-width:4px;}.cls-6{stroke-width:0.25px;}
		</style>
	</defs>
	<g id="_1" data-name="1">
		<polyline class="cls-1" points="30.87 67.53 30.87 74.17 30.87 80.85" />
		<polyline class="cls-1" points="42.41 67.53 42.41 74.19 42.41 80.84" />
		<path id="hB" class="cls-2" d="M38.08,58.67a6.69,6.69,0,0,0-6.7,6.65V69a6.7,6.7,0,0,0,6.7,6.66H40l0-17Z" transform="translate(-3.36 -6.89)" />
		<path id="hC" class="cls-3" d="M41.84,58.67H40l0,17h1.84A6.7,6.7,0,0,0,48.54,69V65.32A6.7,6.7,0,0,0,41.84,58.67Z" transform="translate(-3.36 -6.89)" />
		<path id="hB-2" data-name="hB" class="cls-2" d="M35.78,38.75a6.11,6.11,0,0,0-6.09,6.09v3.63a6.11,6.11,0,0,0,6.09,6.08H40l0-15.8Z" transform="translate(-3.36 -6.89)" />
		<path id="hC-2" data-name="hC" class="cls-3" d="M44.14,38.75H40l0,15.8h4.13a6.11,6.11,0,0,0,6.09-6.08V44.84A6.11,6.11,0,0,0,44.14,38.75Z" transform="translate(-3.36 -6.89)" />
		<line class="cls-4" x1="30.41" y1="41.95" x2="33.04" y2="41.95" />
		<line class="cls-4" x1="30.44" y1="37.58" x2="33.07" y2="37.58" />
		<line class="cls-4" x1="41.14" y1="40.67" x2="43" y2="38.81" />
		<line class="cls-4" x1="43" y1="40.67" x2="41.14" y2="38.81" />
		<circle class="cls-4" cx="31.6" cy="39.74" r="0.17" />
		<circle id="hC-3" data-name="hC" class="cls-3" cx="50.22" cy="64.36" r="2.25" />
		<circle id="hB-3" data-name="hB" class="cls-2" cx="23.03" cy="64.36" r="2.25" />
	</g>
	<g id="_3" data-name="3">
		<polyline class="cls-1" points="30.87 71.53 28.87 76.17 30.87 80.85" />
		<polyline class="cls-1" points="42.41 71.53 40.41 76.19 42.41 80.84" />
		<path id="hB-4" data-name="hB" class="cls-2" d="M38.08,62.67a6.69,6.69,0,0,0-6.7,6.65V73a6.7,6.7,0,0,0,6.7,6.66H40l0-17Z" transform="translate(-3.36 -6.89)" />
		<path id="hC-4" data-name="hC" class="cls-3" d="M41.84,62.67H40l0,17h1.84A6.7,6.7,0,0,0,48.54,73V69.32A6.7,6.7,0,0,0,41.84,62.67Z" transform="translate(-3.36 -6.89)" />
		<path id="hB-5" data-name="hB" class="cls-2" d="M35.78,42.75a6.11,6.11,0,0,0-6.09,6.09v3.63a6.11,6.11,0,0,0,6.09,6.08H40l0-15.8Z" transform="translate(-3.36 -6.89)" />
		<path id="hC-5" data-name="hC" class="cls-3" d="M44.14,42.75H40l0,15.8h4.13a6.11,6.11,0,0,0,6.09-6.08V48.84A6.11,6.11,0,0,0,44.14,42.75Z" transform="translate(-3.36 -6.89)" />
		<line class="cls-4" x1="30.41" y1="45.95" x2="33.04" y2="45.95" />
		<line class="cls-4" x1="30.44" y1="41.58" x2="33.07" y2="41.58" />
		<line class="cls-4" x1="41.14" y1="44.67" x2="43" y2="42.81" />
		<line class="cls-4" x1="43" y1="44.67" x2="41.14" y2="42.81" />
		<circle class="cls-4" cx="31.6" cy="43.74" r="0.17" />
		<circle id="hC-6" data-name="hC" class="cls-3" cx="46.22" cy="68.36" r="2.25" />
		<circle id="hB-6" data-name="hB" class="cls-2" cx="27.03" cy="68.36" r="2.25" />
	</g>
	<g id="_7" data-name="7">
		<polyline class="cls-1" points="30.87 42.53 30.87 51.17 30.87 60.85" />
		<polyline class="cls-1" points="42.41 42.53 42.41 51.19 42.41 60.84" />
		<path id="hB-7" data-name="hB" class="cls-2" d="M38.08,30.67a6.69,6.69,0,0,0-6.7,6.65V44a6.7,6.7,0,0,0,6.7,6.66H40l0-20Z" transform="translate(-3.36 -6.89)" />
		<path id="hC-7" data-name="hC" class="cls-3" d="M41.84,30.67H40l0,20h1.84A6.7,6.7,0,0,0,48.54,44V37.32A6.7,6.7,0,0,0,41.84,30.67Z" transform="translate(-3.36 -6.89)" />
		<circle id="hC-8" data-name="hC" class="cls-3" cx="63.22" cy="24.36" r="2.25" />
		<circle id="hB-8" data-name="hB" class="cls-2" cx="9.03" cy="24.36" r="2.25" />
		<path id="hB-9" data-name="hB" class="cls-2" d="M35.82,9.9a6.38,6.38,0,0,0-6.08,6.6v3.93A6.38,6.38,0,0,0,35.82,27h4.23L40,9.9Z" transform="translate(-3.36 -6.89)" />
		<path id="hC-9" data-name="hC" class="cls-3" d="M44.19,9.9H40l0,17.13h4.14a6.37,6.37,0,0,0,6.08-6.6V16.5A6.37,6.37,0,0,0,44.19,9.9Z" transform="translate(-3.36 -6.89)" />
		<line class="cls-4" x1="30.46" y1="13.09" x2="33.09" y2="13.09" />
		<line class="cls-4" x1="30.48" y1="8.72" x2="33.12" y2="8.72" />
		<line class="cls-4" x1="41.18" y1="11.81" x2="43.05" y2="9.95" />
		<line class="cls-4" x1="43.05" y1="11.81" x2="41.18" y2="9.95" />
		<circle class="cls-4" cx="31.65" cy="10.88" r="0.17" />
	</g>
	<g id="_9" data-name="9">
		<polyline class="cls-1" points="30.87 30.87 30.87 39.51 30.87 46.19" />
		<polyline class="cls-1" points="42.41 30.83 42.41 39.49 42.41 46.14" />
		<circle id="hC-10" data-name="hC" class="cls-3" cx="64.22" cy="18.36" r="2.25" />
		<circle id="hB-10" data-name="hB" class="cls-2" cx="8.03" cy="18.36" r="2.25" />
		<path id="hB-11" data-name="hB" class="cls-2" d="M38.08,24.27a6.69,6.69,0,0,0-6.7,6.65v3.72a6.7,6.7,0,0,0,6.7,6.66H40l0-17Z" transform="translate(-3.36 -6.89)" />
		<path id="hC-11" data-name="hC" class="cls-3" d="M41.84,24.27H40l0,17h1.84a6.7,6.7,0,0,0,6.7-6.66V30.92A6.7,6.7,0,0,0,41.84,24.27Z" transform="translate(-3.36 -6.89)" />
		<path id="hB-12" data-name="hB" class="cls-2" d="M35.87,7.89A6.1,6.1,0,0,0,29.79,14V17.6a6.09,6.09,0,0,0,6.08,6.08H40.1L40.05,7.89Z" transform="translate(-3.36 -6.89)" />
		<path id="hC-12" data-name="hC" class="cls-3" d="M44.24,7.89H40.05l.05,15.79h4.14a6.1,6.1,0,0,0,6.08-6.08V14A6.1,6.1,0,0,0,44.24,7.89Z" transform="translate(-3.36 -6.89)" />
		<line class="cls-4" x1="30.5" y1="11.08" x2="33.14" y2="11.08" />
		<line class="cls-4" x1="30.53" y1="6.72" x2="33.16" y2="6.72" />
		<line class="cls-4" x1="41.23" y1="9.8" x2="43.09" y2="7.94" />
		<line class="cls-4" x1="43.09" y1="9.8" x2="41.23" y2="7.94" />
		<circle class="cls-4" cx="31.69" cy="8.87" r="0.17" />
	</g>
	<g id="_95" data-name="95">
		<polyline class="cls-1" points="30.87 45.87 30.87 54.51 30.87 61.19" />
		<polyline class="cls-1" points="42.41 45.83 42.41 54.49 42.41 61.14" />
		<circle id="hC-13" data-name="hC" class="cls-3" cx="64.22" cy="21.36" r="2.25" />
		<circle id="hB-13" data-name="hB" class="cls-2" cx="8.03" cy="21.36" r="2.25" />
		<path id="hB-14" data-name="hB" class="cls-2" d="M38.08,39.27a6.69,6.69,0,0,0-6.7,6.65v3.72a6.7,6.7,0,0,0,6.7,6.66H40l0-17Z" transform="translate(-3.36 -6.89)" />
		<path id="hC-14" data-name="hC" class="cls-3" d="M41.84,39.27H40l0,17h1.84a6.7,6.7,0,0,0,6.7-6.66V45.92A6.7,6.7,0,0,0,41.84,39.27Z" transform="translate(-3.36 -6.89)" />
		<path id="hB-15" data-name="hB" class="cls-2" d="M35.87,19.89A6.1,6.1,0,0,0,29.79,26V29.6a6.09,6.09,0,0,0,6.08,6.08H40.1l-.05-15.79Z" transform="translate(-3.36 -6.89)" />
		<path id="hC-15" data-name="hC" class="cls-3" d="M44.24,19.89H40.05l.05,15.79h4.14a6.1,6.1,0,0,0,6.08-6.08V26A6.1,6.1,0,0,0,44.24,19.89Z" transform="translate(-3.36 -6.89)" />
		<line class="cls-4" x1="30.5" y1="23.08" x2="33.14" y2="23.08" />
		<line class="cls-4" x1="30.53" y1="18.72" x2="33.16" y2="18.72" />
		<line class="cls-4" x1="41.23" y1="21.8" x2="43.09" y2="19.94" />
		<line class="cls-4" x1="43.09" y1="21.8" x2="41.23" y2="19.94" />
		<circle class="cls-4" cx="31.69" cy="20.87" r="0.17" />
	</g>
	<g id="_10" data-name="10">
		<polyline class="cls-1" points="30.87 71.53 28.87 76.17 30.87 80.85" />
		<polyline class="cls-1" points="42.41 71.53 40.41 76.19 42.41 80.84" />
		<path id="hB-16" data-name="hB" class="cls-2" d="M38.08,63.27a6.69,6.69,0,0,0-6.7,6.65v3.72a6.7,6.7,0,0,0,6.7,6.66H40l0-17Z" transform="translate(-3.36 -6.89)" />
		<path id="hC-16" data-name="hC" class="cls-3" d="M41.84,63.27H40l0,17h1.84a6.7,6.7,0,0,0,6.7-6.66V69.92A6.7,6.7,0,0,0,41.84,63.27Z" transform="translate(-3.36 -6.89)" />
		<circle id="hC-17" data-name="hC" class="cls-3" cx="58.22" cy="67.36" r="2.25" />
		<circle id="hB-17" data-name="hB" class="cls-2" cx="15.03" cy="68.36" r="2.25" />
		<path id="hB-18" data-name="hB" class="cls-2" d="M35.78,48.47a5.9,5.9,0,0,0-6.09,5.65v3.37a5.9,5.9,0,0,0,6.09,5.65H40l0-14.67Z" transform="translate(-3.36 -6.89)" />
		<path id="hC-18" data-name="hC" class="cls-3" d="M44.14,48.47H40l0,14.67h4.13a5.9,5.9,0,0,0,6.09-5.65V54.12A5.9,5.9,0,0,0,44.14,48.47Z" transform="translate(-3.36 -6.89)" />
		<line class="cls-4" x1="30.41" y1="51.53" x2="33.04" y2="51.53" />
		<line class="cls-4" x1="30.44" y1="47.17" x2="33.07" y2="47.17" />
		<line class="cls-4" x1="41.14" y1="50.25" x2="43" y2="48.39" />
		<line class="cls-4" x1="43" y1="50.25" x2="41.14" y2="48.39" />
		<circle class="cls-4" cx="31.6" cy="49.32" r="0.17" />
	</g>
	<g id="delete">
		<polygon class="cls-5" points="36.64 60.84 2 80.84 2 120.84 36.64 140.84 71.28 120.84 71.28 80.84 36.64 60.84" />
		<line class="cls-6" x1="10.66" y1="75.84" x2="2" y2="90.84" />
		<line class="cls-6" x1="2" y1="110.84" x2="10.66" y2="125.84" />
		<line class="cls-6" x1="71.28" y1="110.84" x2="62.62" y2="125.84" />
		<line class="cls-6" x1="27.98" y1="135.84" x2="45.3" y2="135.84" />
		<line class="cls-6" x1="0.52" y1="80.85" x2="69.8" y2="80.85" />
		<line class="cls-6" x1="2" y1="120.84" x2="71.28" y2="120.84" />
		<line class="cls-6" x1="36.64" y1="60.84" x2="2" y2="120.84" />
		<line class="cls-6" x1="71.28" y1="80.84" x2="36.64" y2="140.84" />
		<line class="cls-6" x1="71.28" y1="120.84" x2="36.64" y2="60.84" />
		<line class="cls-6" x1="36.64" y1="140.84" x2="2" y2="80.84" />
		<line class="cls-6" x1="53.96" y1="70.84" x2="19.32" y2="130.84" />
		<line class="cls-6" x1="19.32" y1="70.84" x2="53.96" y2="130.84" />
		<line class="cls-6" x1="2" y1="100.84" x2="71.28" y2="100.84" />
		<line class="cls-6" x1="19.32" y1="70.84" x2="53.96" y2="70.84" />
		<line class="cls-6" x1="71.28" y1="100.84" x2="53.96" y2="70.84" />
		<line class="cls-6" x1="53.96" y1="130.84" x2="71.28" y2="100.84" />
		<line class="cls-6" x1="19.32" y1="130.84" x2="53.96" y2="130.84" />
		<line class="cls-6" x1="2" y1="100.84" x2="19.32" y2="130.84" />
		<line class="cls-6" x1="19.32" y1="70.84" x2="2" y2="100.84" />
		<line class="cls-6" x1="53.96" y1="70.84" x2="2" y2="100.84" />
		<line class="cls-6" x1="53.96" y1="130.84" x2="53.96" y2="70.84" />
		<line class="cls-6" x1="2" y1="100.84" x2="53.96" y2="130.84" />
		<line class="cls-6" x1="19.32" y1="70.84" x2="19.32" y2="130.84" />
		<line class="cls-6" x1="71.28" y1="100.84" x2="19.32" y2="130.84" />
		<line class="cls-6" x1="19.32" y1="70.84" x2="71.28" y2="100.84" />
		<line class="cls-6" x1="71.28" y1="90.84" x2="2" y2="90.84" />
		<line class="cls-6" x1="71.28" y1="110.84" x2="2" y2="110.84" />
		<line class="cls-6" x1="62.62" y1="75.84" x2="27.98" y2="135.84" />
		<line class="cls-6" x1="45.3" y1="65.84" x2="10.66" y2="125.84" />
		<line class="cls-6" x1="27.98" y1="65.84" x2="27.98" y2="135.84" />
		<line class="cls-6" x1="10.66" y1="75.84" x2="10.66" y2="125.84" />
		<line class="cls-6" x1="62.62" y1="75.84" x2="10.66" y2="75.84" />
		<line class="cls-6" x1="62.62" y1="125.84" x2="62.62" y2="75.84" />
		<line class="cls-6" x1="10.66" y1="125.84" x2="62.62" y2="125.84" />
		<line class="cls-6" x1="10.66" y1="75.84" x2="71.28" y2="110.84" />
		<line class="cls-6" x1="2" y1="90.84" x2="62.62" y2="125.84" />
		<line class="cls-6" x1="2" y1="110.84" x2="45.3" y2="135.84" />
		<line class="cls-6" x1="71.28" y1="110.84" x2="27.98" y2="135.84" />
		<line class="cls-6" x1="71.28" y1="90.84" x2="10.66" y2="125.84" />
		<line class="cls-6" x1="62.62" y1="75.84" x2="2" y2="110.84" />
		<line class="cls-6" x1="45.3" y1="65.84" x2="45.3" y2="135.84" />
		<line class="cls-6" x1="27.98" y1="65.84" x2="45.3" y2="65.84" />
		<line class="cls-6" x1="62.62" y1="125.84" x2="27.98" y2="65.84" />
		<line class="cls-6" x1="10.66" y1="75.84" x2="45.3" y2="135.84" />
		<line class="cls-6" x1="71.28" y1="90.84" x2="62.62" y2="75.84" />
		<line class="cls-6" x1="27.98" y1="65.84" x2="71.28" y2="90.84" />
		<line class="cls-6" x1="45.3" y1="65.84" x2="2" y2="90.84" />
		<line class="cls-6" x1="40.97" y1="63.34" x2="2" y2="85.84" />
		<line class="cls-6" x1="32.31" y1="63.34" x2="71.28" y2="85.84" />
		<line class="cls-6" x1="32.31" y1="138.34" x2="32.31" y2="63.34" />
		<line class="cls-6" x1="40.97" y1="63.34" x2="40.97" y2="138.34" />
		<line class="cls-6" x1="71.28" y1="85.84" x2="2" y2="85.84" />
		<line class="cls-6" x1="71.28" y1="95.84" x2="2" y2="95.84" />
		<line class="cls-6" x1="2" y1="105.84" x2="71.28" y2="105.84" />
		<line class="cls-6" x1="71.28" y1="115.84" x2="2" y2="115.84" />
		<line class="cls-6" x1="27.98" y1="135.84" x2="2" y2="90.84" />
		<line class="cls-6" x1="49.63" y1="133.34" x2="14.99" y2="73.34" />
		<line class="cls-6" x1="40.97" y1="63.34" x2="6.33" y2="123.34" />
		<line class="cls-6" x1="45.3" y1="65.84" x2="71.28" y2="110.84" />
		<line class="cls-6" x1="23.65" y1="133.34" x2="71.28" y2="105.84" />
		<line class="cls-6" x1="6.33" y1="123.34" x2="71.28" y2="85.84" />
		<line class="cls-6" x1="71.28" y1="95.84" x2="14.99" y2="128.34" />
		<line class="cls-6" x1="14.99" y1="73.34" x2="14.99" y2="128.34" />
		<line class="cls-6" x1="2" y1="115.84" x2="66.95" y2="78.34" />
		<line class="cls-6" x1="66.95" y1="123.34" x2="66.95" y2="78.34" />
		<line class="cls-6" x1="58.29" y1="128.34" x2="58.29" y2="73.34" />
		<line class="cls-6" x1="49.63" y1="133.34" x2="49.63" y2="68.34" />
		<line class="cls-6" x1="2" y1="110.84" x2="27.98" y2="65.84" />
		<line class="cls-6" x1="71.28" y1="115.84" x2="6.33" y2="78.34" />
		<line class="cls-6" x1="23.65" y1="133.34" x2="58.29" y2="73.34" />
		<line class="cls-6" x1="2" y1="105.84" x2="58.29" y2="73.34" />
		<line class="cls-6" x1="49.63" y1="68.34" x2="2" y2="95.84" />
		<polyline class="cls-6" points="66.95 78.34 49.63 108.34 32.31 138.34" />
		<line class="cls-6" x1="66.95" y1="123.34" x2="2" y2="85.84" />
		<line class="cls-6" x1="2" y1="95.84" x2="58.29" y2="128.34" />
		<line class="cls-6" x1="71.28" y1="105.84" x2="14.99" y2="73.34" />
		<line class="cls-6" x1="14.99" y1="128.34" x2="49.63" y2="68.34" />
		<line class="cls-6" x1="49.63" y1="133.34" x2="2" y2="105.84" />
		<line class="cls-6" x1="71.28" y1="115.84" x2="32.31" y2="138.34" />
		<line class="cls-6" x1="6.33" y1="78.34" x2="6.33" y2="123.34" />
		<line class="cls-6" x1="40.97" y1="138.34" x2="6.33" y2="78.34" />
		<line class="cls-6" x1="71.28" y1="95.84" x2="23.65" y2="68.34" />
		<line class="cls-6" x1="58.29" y1="128.34" x2="23.65" y2="68.34" />
		<line class="cls-6" x1="23.65" y1="133.34" x2="23.65" y2="68.34" />
		<line class="cls-6" x1="66.95" y1="123.34" x2="32.31" y2="63.34" />
		<line class="cls-6" x1="40.97" y1="138.34" x2="2" y2="115.84" />
		<line class="cls-6" x1="71.28" y1="90.84" x2="45.3" y2="135.84" />
		<line class="cls-6" x1="59.74" y1="80.86" x2="33.75" y2="65.84" />
		<line class="cls-6" x1="13.55" y1="80.84" x2="39.53" y2="65.84" />
		<line class="cls-6" x1="59.74" y1="80.86" x2="33.75" y2="95.84" />
		<line class="cls-6" x1="39.53" y1="95.84" x2="13.55" y2="80.84" />
		<line class="cls-6" x1="42.48" y1="70.88" x2="16.43" y2="85.84" />
		<line class="cls-6" x1="56.85" y1="85.84" x2="30.87" y2="70.84" />
		<line class="cls-6" x1="30.81" y1="130.93" x2="30.87" y2="100.84" />
		<line class="cls-6" x1="7.75" y1="90.87" x2="7.77" y2="120.84" />
		<line class="cls-6" x1="30.81" y1="130.93" x2="4.89" y2="115.84" />
	</g>
</svg>
