<svg id="rabbit" xmlns="http://www.w3.org/2000/svg" viewBox="0 0 58.39 21.01">
	<defs>
		<style>
			.cls-1{fill:none;}.cls-1,.cls-2{stroke:#262626;stroke-linecap:round;stroke-linejoin:round;stroke-width:2px;}.cls-2{fill:#fff;}
		</style>
	</defs>
	<path class="cls-1" d="M66,40.11a6.14,6.14,0,0,0-3-5.55,21.11,21.11,0,0,0-11.25-3.13c-5,.21-12,1.79-12,2.59s1.54,2.34,5,2.88c3.8.6,9.87.36,11.08-.07" transform="translate(-12.21 -29.5)" />
	<path class="cls-1" d="M47.62,31.92a27.47,27.47,0,0,0-14.52-.78c-3.39.92-7.24,4.34-7.24,9" transform="translate(-12.21 -29.5)" />
	<path class="cls-1" d="M66,39.89a6.14,6.14,0,0,1-3,5.55,21.11,21.11,0,0,1-11.25,3.13c-5-.21-12-1.79-12-2.59s1.54-2.34,5-2.88c3.8-.6,9.87-.36,11.08.07" transform="translate(-12.21 -29.5)" />
	<path class="cls-1" d="M47.62,48.08a27.47,27.47,0,0,1-14.52.78c-3.39-.92-7.24-4.34-7.24-9" transform="translate(-12.21 -29.5)" />
	<path class="cls-1" d="M59.58,32.88c3-1,8.8-1.12,9.81,1.29.92,2.17-1.32,3.82-3.72,3.67" transform="translate(-12.21 -29.5)" />
	<path class="cls-1" d="M59.46,47.16c3,1,8.92,1.15,9.93-1.25.92-2.18-1.35-3.82-3.75-3.67" transform="translate(-12.21 -29.5)" />
	<path class="cls-1" d="M32.06,31.5c-2.43-.08-8.47-.79-15.09.33-6.37,1.07-3.45,5.2,0,6a31.53,31.53,0,0,0,9.07.51" transform="translate(-12.21 -29.5)" />
	<path class="cls-1" d="M32.06,48.5c-2.37.08-8.47.79-15.09-.33-6.37-1.07-3.45-5.2,0-6a31.32,31.32,0,0,1,9.09-.5" transform="translate(-12.21 -29.5)" />
	<ellipse class="cls-2" cx="14.05" cy="10.61" rx="2.31" ry="3.52" />
</svg>
