<svg id="Layer_11_copy" data-name="Layer 11 copy" xmlns="http://www.w3.org/2000/svg" viewBox="0 0 43.86 23.29">
	<defs>
		<style>
			.hRAT1{fill:#dbb467;}
            .hRAT1,.hRAT2,.hRAT3,.hRAT4{stroke:#231f20;stroke-linecap:round;stroke-miterlimit:10;stroke-width:2px;}
            .hRAT2{fill:#fff;}
            .hRAT3{fill:none;}
            .hRAT4{fill:#edd9be;}
		</style>
	</defs>
	<path class="hRAT1" d="M50.52,49.33s4.85-.27,5.76,1.51c.75,1.46-1,2.44-3,2.23-3.34-.36-8.36-1.69-10.8-1.09-8.79,2.19-17.23.07-19.14.07-6.13,0-7.33-.23-7.33-2.13s3.1-2.56,5.39-3c2-.33,3.44-1.75,3.44-4.52s-1.45-4.18-3.44-4.52c-2.29-.39-5.39-1-5.39-3s1.2-2.13,7.33-2.13c1.91,0,10.35-2.11,19.14.07,2.44.61,7.46-.72,10.8-1.08,2-.22,3.75.77,3,2.23-.91,1.77-5.76,1.52-5.76,1.52" transform="translate(-15.01 -30.81)" />
	<path class="hRAT1" d="M47.05,48.35s3.09,2.29,5.8-.12,1.85-2,3.26-2.78a2.92,2.92,0,0,0,1.76-3,2.92,2.92,0,0,0-1.76-3c-1.41-.72-.55-.36-3.26-2.77s-5.8-.12-5.8-.12" transform="translate(-15.01 -30.81)" />
	<path class="hRAT2" d="M47.54,46.15c-2.6.05-5.85,2.26-3.17,3s3.17-3,3.17-3" transform="translate(-15.01 -30.81)" />
	<path class="hRAT2" d="M47.54,38.7c-2.6-.06-5.85-2.26-3.17-3s3.17,3,3.17,3" transform="translate(-15.01 -30.81)" />
	<circle class="hRAT3" cx="37.18" cy="8.65" r="0.26" />
	<circle class="hRAT3" cx="37.18" cy="14.65" r="0.26" />
	<path class="hRAT2" d="M27.8,42.45c0,1.51.22,2.74,1.73,2.74a2.74,2.74,0,1,0,0-5.47C28,39.72,27.8,40.94,27.8,42.45Z" transform="translate(-15.01 -30.81)" />
	<path class="hRAT4" d="M41.11,52.28c-8.28,1.67-16-.23-17.77-.23H23s4.77-4.27,9.28-4.27S41.1,48.76,41.11,52.28Z" transform="translate(-15.01 -30.81)" />
	<path class="hRAT4" d="M32.27,37.13c-4.51,0-9.27-4.27-9.28-4.28h.35c1.81,0,9.49-1.89,17.77-.23C41.1,36.15,36.78,37.13,32.27,37.13Z" transform="translate(-15.01 -30.81)" />
</svg>
