<svg xmlns="http://www.w3.org/2000/svg" viewBox="0 0 72.56 116.33">
	<defs>
		<style>
			.cls-1,.cls-2,.cls-3,.cls-7{fill:none;}.cls-1,.cls-2{stroke:#d8003e;}.cls-1,.cls-2,.cls-7{stroke-linecap:round;}.cls-1,.cls-2,.cls-4,.cls-5,.cls-6,.cls-7{stroke-linejoin:round;}.cls-1{stroke-width:4px;}.cls-2{stroke-width:0.25px;}.cls-3{stroke:#231f20;stroke-miterlimit:10;}.cls-4{fill:#ffbd56;}.cls-4,.cls-5,.cls-6,.cls-7{stroke:#262626;stroke-width:2px;}.cls-4,.cls-5,.cls-6{stroke-linecap:square;}.cls-5{fill:#5a5aff;}
		</style>
	</defs>
	<g id="delete">
		<polygon class="cls-1" points="36.28 35.08 2 54.9 2 94.52 36.28 114.33 70.56 94.52 70.56 54.9 36.28 35.08" />
		<line class="cls-2" x1="10.66" y1="49.33" x2="2" y2="64.33" />
		<line class="cls-2" x1="2" y1="84.33" x2="10.66" y2="99.33" />
		<line class="cls-2" x1="71.28" y1="84.33" x2="62.62" y2="99.33" />
		<line class="cls-2" x1="27.98" y1="109.33" x2="45.3" y2="109.33" />
		<line class="cls-2" x1="0.52" y1="54.34" x2="69.8" y2="54.34" />
		<line class="cls-2" x1="2" y1="94.33" x2="71.28" y2="94.33" />
		<line class="cls-2" x1="2" y1="94.33" x2="36.64" y2="34.33" />
		<line class="cls-2" x1="71.28" y1="54.33" x2="36.64" y2="114.33" />
		<line class="cls-2" x1="71.28" y1="94.33" x2="36.64" y2="34.33" />
		<line class="cls-2" x1="36.64" y1="114.33" x2="2" y2="54.33" />
		<line class="cls-2" x1="53.96" y1="44.33" x2="19.32" y2="104.33" />
		<line class="cls-2" x1="19.32" y1="44.33" x2="53.96" y2="104.33" />
		<line class="cls-2" x1="2" y1="74.33" x2="71.28" y2="74.33" />
		<line class="cls-2" x1="19.32" y1="44.33" x2="53.96" y2="44.33" />
		<line class="cls-2" x1="70.56" y1="74.71" x2="53.42" y2="44.99" />
		<line class="cls-2" x1="53.96" y1="104.33" x2="71.28" y2="74.33" />
		<line class="cls-2" x1="19.32" y1="104.33" x2="53.96" y2="104.33" />
		<line class="cls-2" x1="2" y1="74.33" x2="19.32" y2="104.33" />
		<line class="cls-2" x1="19.32" y1="44.33" x2="2" y2="74.33" />
		<line class="cls-2" x1="53.96" y1="44.33" x2="2" y2="74.33" />
		<line class="cls-2" x1="53.96" y1="104.33" x2="53.96" y2="44.33" />
		<line class="cls-2" x1="2" y1="74.33" x2="53.96" y2="104.33" />
		<line class="cls-2" x1="19.32" y1="44.33" x2="19.32" y2="104.33" />
		<line class="cls-2" x1="71.28" y1="74.33" x2="19.32" y2="104.33" />
		<line class="cls-2" x1="19.32" y1="44.33" x2="71.28" y2="74.33" />
		<line class="cls-2" x1="71.28" y1="64.33" x2="2" y2="64.33" />
		<line class="cls-2" x1="71.28" y1="84.33" x2="2" y2="84.33" />
		<line class="cls-2" x1="61.99" y1="49.94" x2="27.71" y2="109.38" />
		<line class="cls-2" x1="45.3" y1="39.33" x2="10.66" y2="99.33" />
		<line class="cls-2" x1="27.98" y1="39.33" x2="27.98" y2="109.33" />
		<line class="cls-2" x1="10.66" y1="49.33" x2="10.66" y2="99.33" />
		<line class="cls-2" x1="61.99" y1="49.94" x2="10.57" y2="49.94" />
		<line class="cls-2" x1="62.62" y1="99.33" x2="62.62" y2="49.33" />
		<line class="cls-2" x1="10.66" y1="99.33" x2="62.62" y2="99.33" />
		<line class="cls-2" x1="10.66" y1="49.33" x2="71.28" y2="84.33" />
		<line class="cls-2" x1="2" y1="64.33" x2="62.62" y2="99.33" />
		<line class="cls-2" x1="2" y1="84.33" x2="45.3" y2="109.33" />
		<line class="cls-2" x1="71.28" y1="84.33" x2="27.98" y2="109.33" />
		<line class="cls-2" x1="71.28" y1="64.33" x2="10.66" y2="99.33" />
		<line class="cls-2" x1="61.99" y1="49.94" x2="2" y2="84.61" />
		<line class="cls-2" x1="45.3" y1="39.33" x2="45.3" y2="109.33" />
		<line class="cls-2" x1="27.98" y1="39.33" x2="45.3" y2="39.33" />
		<line class="cls-2" x1="62.62" y1="99.33" x2="27.98" y2="39.33" />
		<line class="cls-2" x1="10.66" y1="49.33" x2="45.3" y2="109.33" />
		<line class="cls-2" x1="71.28" y1="64.33" x2="62.62" y2="49.33" />
		<line class="cls-2" x1="27.98" y1="39.33" x2="71.28" y2="64.33" />
		<line class="cls-2" x1="45.3" y1="39.33" x2="2" y2="64.33" />
		<line class="cls-2" x1="40.97" y1="36.83" x2="2" y2="59.33" />
		<line class="cls-2" x1="32" y1="37.56" x2="70.56" y2="59.85" />
		<line class="cls-2" x1="32.31" y1="111.83" x2="32.31" y2="36.83" />
		<line class="cls-2" x1="40.97" y1="36.83" x2="40.97" y2="111.83" />
		<line class="cls-2" x1="71.28" y1="59.33" x2="2" y2="59.33" />
		<line class="cls-2" x1="71.28" y1="69.33" x2="2" y2="69.33" />
		<line class="cls-2" x1="2" y1="79.33" x2="71.28" y2="79.33" />
		<line class="cls-2" x1="71.28" y1="89.33" x2="2" y2="89.33" />
		<line class="cls-2" x1="27.98" y1="109.33" x2="2" y2="64.33" />
		<line class="cls-2" x1="49.63" y1="106.83" x2="14.99" y2="46.83" />
		<line class="cls-2" x1="40.97" y1="36.83" x2="6.33" y2="96.83" />
		<line class="cls-2" x1="45.3" y1="39.33" x2="71.28" y2="84.33" />
		<line class="cls-2" x1="23.65" y1="106.83" x2="71.28" y2="79.33" />
		<line class="cls-2" x1="6.33" y1="96.83" x2="71.28" y2="59.33" />
		<line class="cls-2" x1="71.28" y1="69.33" x2="14.99" y2="101.83" />
		<line class="cls-2" x1="14.99" y1="46.83" x2="14.99" y2="101.83" />
		<line class="cls-2" x1="2" y1="89.33" x2="66.95" y2="51.83" />
		<line class="cls-2" x1="66.95" y1="96.83" x2="66.95" y2="51.83" />
		<line class="cls-2" x1="57.71" y1="101.95" x2="57.71" y2="47.47" />
		<line class="cls-2" x1="49.63" y1="106.83" x2="49.63" y2="41.83" />
		<line class="cls-2" x1="2" y1="84.33" x2="27.98" y2="39.33" />
		<line class="cls-2" x1="71.28" y1="89.33" x2="6.33" y2="51.83" />
		<line class="cls-2" x1="23.43" y1="106.9" x2="57.71" y2="47.47" />
		<line class="cls-2" x1="2" y1="79.66" x2="57.71" y2="47.47" />
		<line class="cls-2" x1="49.63" y1="41.83" x2="2" y2="69.33" />
		<polyline class="cls-2" points="66.95 51.83 49.63 81.83 32.31 111.83" />
		<line class="cls-2" x1="66.95" y1="96.83" x2="2" y2="59.33" />
		<line class="cls-2" x1="2" y1="69.33" x2="58.29" y2="101.83" />
		<line class="cls-2" x1="71.28" y1="79.33" x2="14.99" y2="46.83" />
		<line class="cls-2" x1="14.99" y1="101.83" x2="49.63" y2="41.83" />
		<line class="cls-2" x1="49.63" y1="106.83" x2="2" y2="79.33" />
		<line class="cls-2" x1="71.28" y1="89.33" x2="32.31" y2="111.83" />
		<line class="cls-2" x1="6.33" y1="51.83" x2="6.33" y2="96.83" />
		<line class="cls-2" x1="40.97" y1="111.83" x2="6.33" y2="51.83" />
		<line class="cls-2" x1="71.28" y1="69.33" x2="23.65" y2="41.83" />
		<line class="cls-2" x1="58.29" y1="101.83" x2="23.65" y2="41.83" />
		<line class="cls-2" x1="23.65" y1="106.83" x2="23.65" y2="41.83" />
		<line class="cls-2" x1="66.95" y1="96.83" x2="32.31" y2="36.83" />
		<line class="cls-2" x1="40.97" y1="111.83" x2="2" y2="89.33" />
		<line class="cls-2" x1="71.28" y1="64.33" x2="45.3" y2="109.33" />
		<line class="cls-2" x1="59.74" y1="54.35" x2="33.75" y2="39.33" />
		<line class="cls-2" x1="13.55" y1="54.33" x2="39.53" y2="39.33" />
		<line class="cls-2" x1="59.74" y1="54.35" x2="33.75" y2="69.33" />
		<line class="cls-2" x1="39.53" y1="69.33" x2="13.55" y2="54.33" />
		<line class="cls-2" x1="42.48" y1="44.38" x2="16.43" y2="59.33" />
		<line class="cls-2" x1="56.85" y1="59.33" x2="30.87" y2="44.33" />
		<line class="cls-2" x1="30.81" y1="104.43" x2="30.87" y2="74.33" />
		<line class="cls-2" x1="7.75" y1="64.37" x2="7.77" y2="94.33" />
		<line class="cls-2" x1="30.81" y1="104.43" x2="4.89" y2="89.33" />
		<line class="cls-3" x1="71.28" y1="54.33" x2="2" y2="54.33" />
	</g>
	<g id="hamster">
		<polygon id="hBsh" class="cls-4" points="36.61 43.08 36.61 49.81 48.1 56.45 53.93 53.08 36.61 43.08" />
		<polygon id="hCsh" class="cls-5" points="36.61 43.08 19.29 53.08 25.06 56.42 36.61 49.81 36.61 43.08" />
		<polygon id="hblk" class="cls-6" points="36.61 49.81 25.06 56.42 36.61 63.08 48.1 56.45 36.61 49.81" />
		<line id="hP" class="cls-7" x1="25.09" y1="54.34" x2="25.09" y2="1" />
		<line id="hP-2" data-name="hP" class="cls-7" x1="48.13" y1="54.36" x2="48.13" y2="1" />
		<line id="hP-3" data-name="hP" class="cls-7" x1="25.09" y1="50" x2="48.13" y2="50" />
		<line id="hP-4" data-name="hP" class="cls-7" x1="25.09" y1="40" x2="48.13" y2="40" />
		<line id="hP-5" data-name="hP" class="cls-7" x1="25.09" y1="30" x2="48.13" y2="30" />
		<line id="hP-6" data-name="hP" class="cls-7" x1="25.09" y1="20" x2="48.13" y2="20" />
		<line id="hP-7" data-name="hP" class="cls-7" x1="25.09" y1="10" x2="48.13" y2="10" />
	</g>
</svg>
