<svg xmlns="http://www.w3.org/2000/svg" viewBox="0 0 59.21 59.21">
	<defs>
		<style>
			.cls-1,.cls-5{fill:#aa7b29;stroke:#231f20;}.cls-1{stroke-miterlimit:10;}.cls-1,.cls-5,.cls-7{stroke-width:2px;}.cls-2{fill:#fff;}.cls-3{fill:#231f20;}.cls-4{fill:#ffbbce;}.cls-5,.cls-7{stroke-linecap:round;stroke-linejoin:round;}.cls-6{fill:#ffdb92;}.cls-7{fill:none;stroke:#ffdb92;}
		</style>
	</defs>
	<g id="hamster">
		<path class="cls-1" d="M53.29,48.28c1.8,7.92.08,18-13.17,18s-15-10.2-13.18-18c3.83-16.62,8.11-16,13.18-16S49.52,31.65,53.29,48.28Z" transform="translate(-10.4 -10.4)" />
		<path class="cls-2" d="M48.51,54.38c1.17,4.77.05,10.84-8.51,10.84s-9.68-6.14-8.51-10.84c2.47-10,5.24-9.63,8.51-9.63S46.07,44.37,48.51,54.38Z" transform="translate(-10.4 -10.4)" />
		<ellipse class="cls-3" cx="23.38" cy="30.47" rx="1.24" ry="1.59" />
		<ellipse class="cls-3" cx="35.32" cy="30.47" rx="1.24" ry="1.59" />
		<ellipse class="cls-4" cx="29.6" cy="34.35" rx="1.59" ry="1.24" />
		<path class="cls-5" d="M33.31,33.49s-3-8.13,2.16-6.09S33.31,33.49,33.31,33.49Z" transform="translate(-10.4 -10.4)" />
		<path class="cls-5" d="M46.59,33.49s2.95-8.13-2.17-6.09S46.59,33.49,46.59,33.49Z" transform="translate(-10.4 -10.4)" />
		<path class="cls-4" d="M28.72,44.79c-.37-.2-.92,0-1.46.43-.24-.63-.61-1-1-1s-.79.41-1,1c-.55-.44-1.1-.63-1.47-.43-.61.32-.48,1.57.28,2.79a3.21,3.21,0,0,0,2.16,1.69h.1a3.21,3.21,0,0,0,2.16-1.69C29.2,46.36,29.33,45.11,28.72,44.79Z" transform="translate(-10.4 -10.4)" />
		<path class="cls-4" d="M56.26,44.79c-.37-.2-.92,0-1.46.43-.24-.63-.61-1-1-1s-.79.41-1,1c-.55-.44-1.1-.63-1.47-.43-.61.32-.48,1.57.28,2.79a3.21,3.21,0,0,0,2.16,1.69h.1A3.21,3.21,0,0,0,56,47.58C56.74,46.36,56.87,45.11,56.26,44.79Z" transform="translate(-10.4 -10.4)" />
		<!-- <circle id="opacity" class="cls-6" cx="29.6" cy="29.6" r="28.6" />
		<circle id="stroke_ball" data-name="stroke ball" class="cls-7" cx="29.6" cy="29.6" r="28.6" /> -->
	</g>
</svg>
