<svg id="cloud_01" data-name="cloud 01" xmlns="http://www.w3.org/2000/svg" viewBox="0 0 1613.54 942.37">
	<defs>
		<style>
			.cls-1{fill:#fff;}.cls-1,.cls-2{stroke:#ffc269;stroke-miterlimit:10;stroke-width:4px;}.cls-2{fill:none;}
		</style>
	</defs>
	<path class="cls-1" d="M-43.77,869.82c0,37.87,47.34,68.55,105.8,68.55H1192.55c35.82,0,64.84-17.5,64.84-39.32,0-21.61-29-39.32-64.84-39.32a113.5,113.5,0,0,0-20.79,2.06c-4.73-33.76-46.11-60.31-96.54-60.31h-2.06a228.13,228.13,0,0,0,42-132.36c0-127-102.92-229.73-229.72-229.73A226.55,226.55,0,0,0,835,445a171.11,171.11,0,0,0,1.65-23.06,159.42,159.42,0,0,0-251.13-130.3c-13.59-107-105-190-215.94-190C249.36,101.59,152,199,152,319.18v2.47C63.06,336.26-4.66,413.45-4.66,506.29c0,87.49,60.11,161,141.42,181.35A109.21,109.21,0,0,0,97.44,805.39a164.15,164.15,0,0,0-35.61-3.91C3.37,801.48-44,832.15-43.77,869.82Z" transform="translate(354.15 2)" />
	<path class="cls-1" d="M123.15,581.76c0,17.82,22.29,32.24,49.81,32.24h532.1c16.84,0,30.54-8.31,30.54-18.53S722,576.93,705.06,576.93a49.61,49.61,0,0,0-9.76,1c-2.21-15.92-21.66-28.39-45.38-28.39h-1a108.13,108.13,0,0,0-88.2-170.45A110,110,0,0,0,537,381.68a75.11,75.11,0,0,0-74.24-85.84,74.61,74.61,0,0,0-43.23,13.71,102.43,102.43,0,0,0-204,13v1.18A88,88,0,0,0,208.33,496a51.23,51.23,0,0,0-18.48,55.4,73.06,73.06,0,0,0-16.79-1.9C145.54,549.47,123.21,563.89,123.15,581.76Z" transform="translate(354.15 2)" />
	<path class="cls-1" d="M466.45,542.59c0,9.61,12,17.39,26.86,17.39h287c9.08,0,16.47-4.49,16.47-10s-7.36-10-16.47-10a26.28,26.28,0,0,0-5.26.53c-1.19-8.59-11.69-15.32-24.48-15.32H750a58.31,58.31,0,0,0-47.57-91.92,59.46,59.46,0,0,0-12.82,1.41,40.46,40.46,0,0,0-63.35-38.9,55.24,55.24,0,0,0-110,7v.64a47.49,47.49,0,0,0-3.85,92.9,27.62,27.62,0,0,0-10,29.87,39.82,39.82,0,0,0-9.05-1C478.52,525.18,466.48,533,466.45,542.59Z" transform="translate(354.15 2)" />
	<path class="cls-1" d="M-352.15,822.23c0,23.38,31.34,42.52,70,42.52H464.7c23.71,0,42.85-11,42.85-24.56s-19.14-24.57-42.85-24.57A70.94,70.94,0,0,0,451,817c-3-21-30.49-37.44-63.69-37.44h-1.35a136.61,136.61,0,0,0,27.78-82.33c0-78.77-67.93-142.8-151.79-142.8a165.34,165.34,0,0,0-33.37,3.39,81.05,81.05,0,0,0,1.19-14.4c0-54.72-47.26-99.1-105.37-99.1a109.73,109.73,0,0,0-60.64,18.13c-9-66.75-69.29-118.24-142.64-118.24-79.45,0-143.82,60.64-143.82,135.35v1.52c-58.78,9.15-103.5,57.09-103.5,114.85,0,54.38,39.81,100.12,93.51,112.82-17.45,12.37-28.8,32-28.8,54.21a64.37,64.37,0,0,0,2.88,19,104.83,104.83,0,0,0-23.55-2.54C-321,779.37-352.15,798.52-352.15,822.23Z" transform="translate(354.15 2)" />
	<path class="cls-1" d="M-240.93,797.61c0,18.34,22.92,33.19,51.23,33.19H357.72c17.35,0,31.4-8.47,31.4-19s-14.05-19-31.4-19a54.37,54.37,0,0,0-10.06,1c-2.3-16.35-22.33-29.2-46.75-29.2h-1A111.27,111.27,0,0,0,184.58,591.88a82.73,82.73,0,0,0,.8-11.17,77.18,77.18,0,0,0-121.6-63.09,105.43,105.43,0,0,0-104.56-92A105.32,105.32,0,0,0-146.14,531v1.2A90.68,90.68,0,0,0-222,621.58a90.56,90.56,0,0,0,68.48,87.81,52.43,52.43,0,0,0-21.13,42.17,52.15,52.15,0,0,0,2.09,14.85,79.19,79.19,0,0,0-17.24-1.89C-218.11,764.52-241,779.37-240.93,797.61Z" transform="translate(354.15 2)" />
	<rect class="cls-2" x="354.15" y="2" width="900" height="900" />
</svg>
