<svg xmlns="http://www.w3.org/2000/svg" viewBox="0 0 1591.35 1221.63">
	<defs>
		<style>
			.cls-1{fill:#f4ded4;}.cls-2{fill:#f5d5c5;}.cls-3{fill:#e2bfaf;}.cls-4{fill:none;stroke:#ffc269;stroke-miterlimit:10;stroke-width:4px;}
		</style>
	</defs>
	<g id="cloud_07" data-name="cloud 07">
		<path class="cl" d="M207.42,54.65a131,131,0,0,1,84,104,87,87,0,0,1,116.36,70.94A113.16,113.16,0,0,1,591.4,361.6a131.36,131.36,0,0,1,49.41,257A148.07,148.07,0,0,1,443.54,833.83a65.69,65.69,0,0,1-87.46-96.65,59.09,59.09,0,0,1-65.92-13.1c-1.13,4.07-2.43,8.13-3.93,12.16a148,148,0,0,1-274,8.51,135.84,135.84,0,0,1-151.4,40,135.4,135.4,0,0,1-77.6-74.13A165.09,165.09,0,0,1-295,701.44a165.77,165.77,0,0,1-97.58-213.16A165.83,165.83,0,0,1-244.06,380.4,101.92,101.92,0,0,1-266.4,273.92a101.92,101.92,0,0,1,131-60,102.24,102.24,0,0,1,20.5,10.4l0-.08A109.72,109.72,0,0,1-108,182.51a110.19,110.19,0,0,1,141.7-64.86c3.24,1.2,6.38,2.56,9.44,4A131,131,0,0,1,207.42,54.65Z" transform="translate(403.01 2)" />
		<path class="cl2" d="M719.39,791A135.6,135.6,0,0,0,853.47,675.59a57,57,0,0,0,18.2-9.5,92,92,0,0,0,179-23.94,68.62,68.62,0,0,0,62.56-120.21,85.78,85.78,0,0,0-10.66-170.89q-3.66,0-7.24.3a98,98,0,0,0-179.26-29.06,52.13,52.13,0,0,0-86.75.08,88,88,0,0,0-136.49-88.8A58.07,58.07,0,1,0,577.4,245.21a52.68,52.68,0,0,0-7.48-.54,51.77,51.77,0,0,0-51.77,51.76v319.9h.22a46.73,46.73,0,0,0,65.45,38.2c0,.3,0,.6,0,.9A135.59,135.59,0,0,0,719.39,791Z" transform="translate(403.01 2)" />
		<path class="cl3" d="M943.89,684A151.48,151.48,0,0,0,831.5,407.32a67.2,67.2,0,0,0-118.33,61.47,60.45,60.45,0,0,0-67.88-10.94q.56-6.47.56-13.07A151.42,151.42,0,0,0,402,324.83a138.89,138.89,0,0,0-219.64-23.49A169.62,169.62,0,1,0,38.41,608.22,104.26,104.26,0,0,0,106.63,804V804a112.75,112.75,0,0,0,88.31,154.05,134.06,134.06,0,0,0,249.87,42.42A89,89,0,0,0,581.68,974a115.77,115.77,0,0,0,223.16-61.13A134.39,134.39,0,0,0,943.89,684Z" transform="translate(403.01 2)" />
		<path class="cl2" d="M805.69,1027.37A176.19,176.19,0,0,0,701.87,862.25a108.3,108.3,0,0,0-65.74-205v-.08a117.12,117.12,0,0,0-104.39-163.9c-3.67-.09-7.3,0-10.9.25A139.24,139.24,0,0,0,261.4,431.76a92.46,92.46,0,0,0-142.81,24,120.25,120.25,0,0,0-235.83,30,121,121,0,0,0,2.5,27.68,139.08,139.08,0,0,0-61.39-15.94,139.58,139.58,0,0,0-143,136,138.87,138.87,0,0,0,17.45,71.2,234.53,234.53,0,0,0-18.75,22.81C-396,832-372.4,978-267.84,1053.5c96.27,69.51,227.64,55,306.79-29.3A157.29,157.29,0,0,0,305,1120.28a144.3,144.3,0,0,0,239.38,56.87,176.2,176.2,0,0,0,261.3-149.78Z" transform="translate(403.01 2)" />
		<rect class="cl6" x="403.01" y="2" width="900" height="900" />
	</g>
</svg>
