<svg xmlns="http://www.w3.org/2000/svg" viewBox="0 0 1181.6 904">
	<defs>
		<style>
			.cl{fill:#f5d5c5;}.cls-2{fill:none;stroke:#ffc269;stroke-miterlimit:10;stroke-width:4px;}
		</style>
	</defs>
	<g id="cloud_08" data-name="cloud 08">
		<path class="cl" d="M233.68,335.28c-39.5,0-74.33,5.64-94.94,14.23a385.07,385.07,0,0,0-55.34-3.87C4.34,345.64-59.75,368-59.75,395.52S4.34,445.4,83.4,445.4c74.75,0,136.1-20,142.58-45.42,2.55,0,5.11.07,7.7.07,63.32,0,114.65-14.5,114.65-32.38S297,335.28,233.68,335.28Z" transform="translate(95.29 2)" />
		<path class="cl" d="M277.93,139.22c0-11.4-27.86-20.65-62.21-20.65s-62.21,9.25-62.21,20.65A8.21,8.21,0,0,0,155.2,144h-1.69c-37.13,0-67.23,7.11-67.23,15.89s30.1,15.88,67.23,15.88,67.24-7.11,67.24-15.88c0,0,0-.05,0-.08C252.75,158.94,277.93,150.06,277.93,139.22Z" transform="translate(95.29 2)" />
		<path class="cl" d="M383.81,45.16A119.19,119.19,0,0,0,362.52,47c-6.58-3.36-18-5.59-31-5.59-20.4,0-36.95,5.48-36.95,12.24S311.1,65.87,331.5,65.87a107.91,107.91,0,0,0,11.66-.62c6.57,5.3,22.29,9,40.65,9,24.27,0,43.94-6.52,43.94-14.56S408.08,45.16,383.81,45.16Z" transform="translate(95.29 2)" />
		<path class="cl" d="M679,200.59c-30.65-16.71-96.79-28.28-173.46-28.28-105.84,0-191.65,22-191.65,49.23a13,13,0,0,0,.22,2.33c-23.91,1.35-45.85,4.52-64.38,9a6.24,6.24,0,0,0,.11-1c0-9.94-26.31-18-58.77-18-.95,0-1.89,0-2.82,0-8.14-7.32-37-12.73-71.3-12.73s-63.14,5.41-71.28,12.72H43.4a178.68,178.68,0,0,0-39,3.93c-10.28-2.4-26-3.93-43.62-3.93-31,0-56.11,4.74-56.11,10.58S-70.17,235-39.18,235c7.31,0,14.28-.26,20.69-.74,4.12,8.79,30.25,15.57,61.89,15.57a194.35,194.35,0,0,0,30.45-2.29c8.25,5.48,28.47,9.35,52.13,9.35,21.26,0,39.76-3.13,49.28-7.73,5,.43,10.35.67,15.84.67s11.06-.25,16.21-.7C197,255.65,191.1,263,191.1,270.78c0,26.31,66.84,47.64,149.3,47.64a417.93,417.93,0,0,0,74.1-6.27c43.23,26.55,136.34,44.92,244.25,44.92,149.11,0,270-35.08,270-78.35C928.75,237.43,818.67,203.59,679,200.59Z" transform="translate(95.29 2)" />
		<path class="cl" d="M255.51,513c0-5.85-25.12-10.59-56.1-10.59S143.3,507.19,143.3,513a2.19,2.19,0,0,0,.12.66c-7-.43-14.3-.66-21.83-.66-48.62,0-88,9.55-88,21.32s39.41,21.32,88,21.32,88-9.54,88-21.32c0-3.91-4.36-7.58-12-10.74h1.77C230.39,523.63,255.51,518.89,255.51,513Z" transform="translate(95.29 2)" />
		<path class="cl" d="M387.61,672.67c0-5.85-25.12-10.59-56.11-10.59-19.09,0-35.95,1.8-46.08,4.55-8.62-7-31.71-12-58.86-12-34.51,0-62.47,8.06-62.47,18s28,18,62.47,18a202.2,202.2,0,0,0,25.26-1.54c8.08,4,28.49,6.8,52.4,6.8,31,0,56.11-4.74,56.11-10.59,0-1.15-1-2.26-2.79-3.3C375.41,680.27,387.61,676.74,387.61,672.67Z" transform="translate(95.29 2)" />
		<path class="cl" d="M304.22,70.08c-3.2,0-6.24.12-9,.34,1.57-1,2.46-2.2,2.46-3.44,0-4.22-10.27-7.64-22.93-7.64S251.84,62.76,251.84,67s10.27,7.64,22.92,7.64a67.24,67.24,0,0,0,6.82-.34c0,2.32,10.14,4.2,22.64,4.2s22.64-1.88,22.64-4.2S316.72,70.08,304.22,70.08Z" transform="translate(95.29 2)" />
		<path class="cl" d="M1011.49,396.88c-17.1-20.71-84-36.16-164-36.16-81.8,0-150,16.18-165.08,37.6q-6.74-.18-13.7-.18a426,426,0,0,0-63.2,4.36c-14.69-12.36-56.86-21.29-106.61-21.29-50,0-92.38,9-106.85,21.5-7.32-.67-15.15-1-23.28-1-41,0-74.22,9.17-74.22,20.47s33.23,20.46,74.22,20.46c22.56,0,42.76-2.78,56.37-7.16a279.31,279.31,0,0,0,42.3,6.4c-7.91,3.59-12.41,7.69-12.41,12.06,0,14,46.45,25.41,103.74,25.41s103.74-11.38,103.74-25.41c0-2.75-1.79-5.4-5.1-7.89q5.58.14,11.3.13c24.19,0,46.54-1.71,64.7-4.6,23,5.88,51.91,10,84,11.61,20,17,70.61,29,129.84,29,76.8,0,139.06-20.22,139.06-45.17C1086.31,419.54,1056,404.42,1011.49,396.88Z" transform="translate(95.29 2)" />
		<path class="cl" d="M755.74,739.19c-25-10.24-72.26-17.14-126.42-17.14-15.42,0-30.29.56-44.24,1.59a9.91,9.91,0,0,0,.48-3c0-19.49-58.35-35.3-130.33-35.3-60.79,0-111.87,11.28-126.26,26.53-19.06-1.62-40.29-2.53-62.67-2.53-82.54,0-149.45,12.33-149.45,27.55a5.16,5.16,0,0,0,.07.79c-16.11-.95-33.36-1.46-51.29-1.46-88.87,0-160.92,12.63-160.92,28.22s72.05,28.23,160.92,28.23c37.94,0,72.8-2.31,100.31-6.16,23.15,22.21,101.4,38.56,194.39,38.56,94.76,0,174.22-17,195.65-39.84a550.92,550.92,0,0,0,73.34,4.62,572.27,572.27,0,0,0,63.25-3.36,376.12,376.12,0,0,0,51.63,3.36c57.3,0,103.74-11.37,103.74-25.41C847.94,751.36,807.6,740.59,755.74,739.19Z" transform="translate(95.29 2)" />
		<path class="cl" d="M873.31,631.54c-7.14,0-14.12.11-20.9.32,4.76-2.91,7.39-6.1,7.39-9.43,0-14-46.45-25.41-103.74-25.41S652.32,608.4,652.32,622.43s46.44,25.41,103.74,25.41h2.53c-1.66,1.37-2.53,2.8-2.53,4.26,0,11.36,52.49,20.57,117.25,20.57s117.25-9.21,117.25-20.57S938.06,631.54,873.31,631.54Z" transform="translate(95.29 2)" />
		<rect class="cl6" x="95.29" y="2" width="900" height="900" />
	</g>
</svg>
