<svg id="cloud_03" data-name="cloud 03" xmlns="http://www.w3.org/2000/svg" viewBox="0 0 1232.1 927.2">
	<defs>
		<style>
			.cl{fill:#fff;}.cl,.cls-2{stroke:#ffc269;stroke-miterlimit:10;stroke-width:4px;}.cls-2{fill:none;}
		</style>
	</defs>
	<path class="cl" d="M1085.3,797.6a143,143,0,0,0-32.7,3.7,99.84,99.84,0,0,0-36-107.9,171.5,171.5,0,0,0-13.9-335.5v-2.3c0-110.2-89.3-199.5-199.5-199.5-101.6,0-185.5,76-197.9,174.2A146.21,146.21,0,0,0,376.5,470.8a214,214,0,0,0-46.3-5.1c-116.3,0-210.5,94.3-210.5,210.5a209.25,209.25,0,0,0,38.5,121.4h-1.9c-46.2,0-84.1,24.3-88.4,55.3a97.14,97.14,0,0,0-19-1.9c-32.9,0-59.5,16.2-59.5,36.1s26.7,36.1,59.5,36.1H1085.3c53.6,0,97-28.1,97-62.8S1138.9,797.6,1085.3,797.6Z" transform="translate(47.8 2)" />
	<path class="cl" d="M754.1,667.2a9.34,9.34,0,0,0,.9-4c0-9.5-14.5-17.1-32.4-17.1-8.9,0-17,1.9-22.8,5a40.7,40.7,0,0,0,.3-5,45.75,45.75,0,0,0-45.7-45.7,44.59,44.59,0,0,0-9.8,1.1,82.62,82.62,0,0,0-77.5-111.2,85,85,0,0,0-11.4.8A139.79,139.79,0,0,0,418,375.8a142.23,142.23,0,0,0-43,6.7v-.4a82.88,82.88,0,0,0-163.8-17.9,100.57,100.57,0,0,0-19.1-1.9,98.14,98.14,0,0,0-66.7,170.1,73.68,73.68,0,0,0-8.2-.5A64.82,64.82,0,0,0,69.7,640.8a52.87,52.87,0,0,0-8-.6c-19.5,0-35.3,10.2-35.3,22.7,0,.7.1,1.3.1,1.9C18.8,662.4,8.8,661-2.2,661c-24.1,0-43.6,6.8-43.6,15.3s19.5,15.3,43.6,15.3H649.6a39.08,39.08,0,0,0,4.9.3,37.08,37.08,0,0,0,4.7-.3H761v-.7c8.4-1.7,14.5-6.2,14.5-11.4C775.4,672.7,765.9,667.4,754.1,667.2Z" transform="translate(47.8 2)" />
	<path class="cl" d="M684.4,659.1a7,7,0,0,0,.7-3.1c0-7.4-11.4-13.4-25.4-13.4a39.49,39.49,0,0,0-17.9,3.9c.1-1.3.2-2.6.2-3.9a35.76,35.76,0,0,0-35.8-35.8,39.45,39.45,0,0,0-7.7.8,64,64,0,0,0,4-22.4A64.9,64.9,0,0,0,528.8,521,109.81,109.81,0,0,0,387,435.8v-.3a65.07,65.07,0,0,0-128.6-14.1,74.1,74.1,0,0,0-15-1.5,77,77,0,0,0-52.3,133.5,45.83,45.83,0,0,0-6.4-.4,50.91,50.91,0,0,0-50.9,50.9,50.34,50.34,0,0,0,13.6,34.6,42.32,42.32,0,0,0-6.3-.5c-15.3,0-27.7,8-27.7,17.8a7.57,7.57,0,0,0,.1,1.5,80.64,80.64,0,0,0-22.5-3c-18.9,0-34.2,5.4-34.2,12s15.3,12,34.2,12H602.5c1.3.1,2.5.2,3.8.2s2.5-.1,3.7-.2h79.9v-.6c6.6-1.3,11.3-4.8,11.3-9C701,663.4,693.6,659.2,684.4,659.1Z" transform="translate(47.8 2)" />
	<path class="cl" d="M1009.3,762.2a98.66,98.66,0,0,0-22.2,2.5,68,68,0,0,0-24.5-73.4,116.76,116.76,0,0,0-9.5-228.4v-1.6a135.8,135.8,0,0,0-270.5-17.2,99.38,99.38,0,0,0-156.7,81.2,113.52,113.52,0,0,0,1,14.4A143.3,143.3,0,0,0,378.3,762.1H377c-31.4,0-57.2,16.5-60.2,37.6a67.15,67.15,0,0,0-12.9-1.3c-22.4,0-40.5,11-40.5,24.6s18.1,24.6,40.5,24.6h705.4c36.5,0,66-19.1,66-42.7S1045.7,762.2,1009.3,762.2Z" transform="translate(47.8 2)" />
	<path class="cl" d="M953.7,767.5a85.53,85.53,0,0,0-18.6,2,50,50,0,0,0,2.3-15c0-17.5-9-33.1-22.8-42.8,42.4-10,73.9-46.2,73.9-89.2,0-45.7-35.4-83.6-81.8-90.8v-1.2c0-59.1-50.9-107-113.7-107-57.9,0-105.7,40.8-112.8,93.4a86.67,86.67,0,0,0-48-14.3c-46,0-83.3,35.1-83.3,78.4a70.79,70.79,0,0,0,.9,11.3,127.11,127.11,0,0,0-26.4-2.7c-66.3,0-120,50.6-120,112.9a108.12,108.12,0,0,0,21.9,65.1h-1.1c-26.3,0-47.9,13-50.4,29.6a53.54,53.54,0,0,0-10.8-1c-18.7,0-33.9,8.7-33.9,19.4S344.3,835,363,835H953.6c30.5,0,55.3-15.1,55.3-33.7S984.2,767.5,953.7,767.5Z" transform="translate(47.8 2)" />
	<rect class="cl6" x="47.8" y="2" width="900" height="900" />
</svg>
