<svg id="cloud_4" data-name="cloud 4" xmlns="http://www.w3.org/2000/svg" viewBox="0 0 1969.54 1360.06">
	<defs>
		<style>
			.cls-1{fill:#f5d5c5;}.cls-2{fill:#e2bfaf;}.cls-3{fill:none;stroke:#ffc269;stroke-miterlimit:10;stroke-width:4px;}
		</style>
	</defs>
	<path class="clS4 cl1" d="M211.11,742.94a115.44,115.44,0,0,0-22.26-153.63A148.15,148.15,0,1,0,14.13,383.66c-3.27-.25-6.58-.38-9.91-.38A126.35,126.35,0,0,0-122.13,509.63c0,.57,0,1.13,0,1.69a93.52,93.52,0,0,0-17.67-1.69,92.51,92.51,0,0,0-86.07,58.59,125.15,125.15,0,0,0-53-11.7A125.65,125.65,0,0,0-404.49,682.17,125.65,125.65,0,0,0-278.84,807.81c1.44,0,2.87,0,4.29-.08A91.41,91.41,0,0,0-293,862.87a91.77,91.77,0,0,0,91.77,91.77h396.7v-.18c2,.11,4,.18,6,.18a106.07,106.07,0,0,0,9.61-211.7Zm-203-107q-.93,2.34-1.76,4.73Q4,638.23,1.46,636l2.76,0C5.51,636,6.79,636,8.07,635.92Z"  />
	<path class="clS4 cl1" d="M1236,846.34c0-117.59-86.6-214.94-199.5-231.77a99,99,0,0,0-16.41-31.45,159,159,0,0,0-41.39-309.39A118.6,118.6,0,0,0,770.9,165.59,148.27,148.27,0,0,0,475.51,184q0,6.32.53,12.51A169.45,169.45,0,0,0,425.8,506.39a90.12,90.12,0,0,0,.14,149.94,152.11,152.11,0,0,0-180.49,149.4,151.3,151.3,0,0,0,27,86.52,100.38,100.38,0,1,0,20.11,199.51,89.54,89.54,0,0,0,88.54,102.41H934v-.39a80.76,80.76,0,0,0,66-113.11l1.56,0C1131.06,1080.69,1236,975.76,1236,846.34Z"  />
	<path class="clS4 cl2" d="M1236.29,629.93A155.62,155.62,0,0,0,1233,399.21a194.43,194.43,0,0,0,10.73-63.89c0-107.68-87.3-195-195-195A194.09,194.09,0,0,0,953.92,165a172,172,0,0,0-316.13,93.73c0,3.62.13,7.22.35,10.78a178.22,178.22,0,0,0-72.32,319.95A135.65,135.65,0,0,0,443.41,747.69a108.61,108.61,0,0,0-61.88-19.23q-4.78,0-9.47.41a112.75,112.75,0,0,0,5.67,225.36H597.62v.41h584.44a166.89,166.89,0,0,0,54.23-324.71Z"  />
	<path class="clS4 cl2" d="M342.5,230.79A159,159,0,0,0,193.08,72.07,118.6,118.6,0,0,0-14.7-36.07,148.3,148.3,0,0,0-161.83-165.9,148.26,148.26,0,0,0-310.09-17.63q0,6.31.53,12.5A169.48,169.48,0,0,0-441.08,160,169.32,169.32,0,0,0-359.8,304.73a90,90,0,0,0-40,74.92,90,90,0,0,0,40.18,75A152.9,152.9,0,0,0-388.08,452,152.07,152.07,0,0,0-540.15,604.07a151.84,151.84,0,0,0,63.58,123.67,67.73,67.73,0,0,0-14.56,42,68,68,0,0,0,35.58,59.78A89.37,89.37,0,0,0-494,903a89.48,89.48,0,0,0,89.47,89.48H148.44v-.38a80.77,80.77,0,1,0-38.61-155.06,102.66,102.66,0,0,0,11-46.4,102.85,102.85,0,0,0-35.5-77.84,137.32,137.32,0,0,0,55.29-110.25,137,137,0,0,0-17.31-66.86A99.08,99.08,0,0,0,234.47,381.46,159.09,159.09,0,0,0,342.5,230.79Z"  />
	<path class="clS4 cl1" d="M51.24,644.35a82.09,82.09,0,0,0-25.73-59.77,100,100,0,0,0,11.33-46.4A100.51,100.51,0,0,0-63.67,437.67a100.56,100.56,0,0,0-92.71,61.59,61.78,61.78,0,0,0-55.79-35.2A61.79,61.79,0,0,0-274,525.85a61.9,61.9,0,0,0,1.58,13.85h-.05a66.65,66.65,0,0,0-25.17-4.92,66.82,66.82,0,0,0-66.82,66.82A66.82,66.82,0,0,0-318.71,665a82.18,82.18,0,0,0-36.65,68.46A82.26,82.26,0,0,0-273.1,815.7H-80.74a59.59,59.59,0,0,0,59.59-59.58,59.2,59.2,0,0,0-7.8-29.45A82.37,82.37,0,0,0,51.24,644.35Z"  />
	<path class="clS4 cl1" d="M1366,806.08a80.89,80.89,0,0,0-24.1-124.37,105.2,105.2,0,0,0-55.55-202.79,122.12,122.12,0,0,0-207.91-126.35A137.65,137.65,0,0,0,827,454.7a61.06,61.06,0,0,0-20.88,75.58,84.68,84.68,0,0,0-55.2,148.2,137.61,137.61,0,0,0,18.49,185.17,86.07,86.07,0,0,0,23.2,169h492.06A121.82,121.82,0,0,0,1366,806.08Z"  />
	<rect class="cl3" x="540.15" y="165.9" width="900" height="900" />
</svg>
