<svg id="cloud_02" data-name="cloud 02" xmlns="http://www.w3.org/2000/svg" viewBox="0 0 2110.49 904">
	<defs>
		<style>
			.cl{fill:#fff;}.cl,.cls-2{stroke:#ffc269;stroke-miterlimit:10;stroke-width:4px;}.cls-2{fill:none;}
		</style>
	</defs>
	<path class="cl" d="M835.42,248a33.49,33.49,0,0,0-7.64.86,23.29,23.29,0,0,0-8.41-25.21,40.08,40.08,0,0,0-3.25-78.41v-.54a46.63,46.63,0,0,0-92.88-5.91,34.14,34.14,0,0,0-53.82,27.9,34.78,34.78,0,0,0,.35,4.93A50,50,0,0,0,659,170.43,49.22,49.22,0,0,0,618.8,248h-.44c-10.8,0-19.66,5.68-20.66,12.92a22.82,22.82,0,0,0-4.44-.44c-7.69,0-13.91,3.79-13.91,8.44s6.24,8.43,13.91,8.43H835.47c12.53,0,22.67-6.56,22.67-14.67S848,248,835.42,248Z" transform="translate(564.52 2)" />
	<path class="cl" d="M1027.27,345.38a50.69,50.69,0,0,0-11,1.22A33.88,33.88,0,0,0,1004,310.06a58.05,58.05,0,0,0-4.72-113.58v-.77a67.54,67.54,0,0,0-134.54-8.56,49.47,49.47,0,0,0-77.94,40.44,53,53,0,0,0,.52,7.15A70.44,70.44,0,0,0,771.67,233a71.28,71.28,0,0,0-58.26,112.36h-.63c-15.66,0-28.5,8.25-30,18.72a35.26,35.26,0,0,0-6.45-.64c-11.11,0-20.12,5.5-20.12,12.2s9,12.21,20.12,12.21H1027.2c18.15,0,32.84-9.52,32.84-21.28S1045.41,345.38,1027.27,345.38Z" transform="translate(564.52 2)" />
	<path class="cl" d="M549.19,752.22a30,30,0,0,0-6.49.71,19.37,19.37,0,0,0,.79-5.59,19.73,19.73,0,0,0-8-15.87,34.09,34.09,0,0,0-2.78-66.69v-.45a39.66,39.66,0,0,0-79-5A29,29,0,0,0,408,683.05a30.76,30.76,0,0,0,.3,4.2,41.87,41.87,0,0,0-43.4,65h-.37c-9.19,0-16.73,4.83-17.6,11a20.1,20.1,0,0,0-3.78-.38c-6.53,0-11.82,3.23-11.82,7.17s5.29,7.16,11.82,7.16h206c10.66,0,19.28-5.59,19.28-12.49S559.84,752.22,549.19,752.22Z" transform="translate(564.52 2)" />
	<path class="cl" d="M437.09,460.22a52.76,52.76,0,0,0-11.85,1.28,32.28,32.28,0,0,0,1.45-9.54,33.45,33.45,0,0,0-14.49-27.28c27-6.39,47.05-29.41,47.05-56.77,0-29.06-22.5-53.19-52.08-57.79v-.77c0-37.58-32.39-68.1-72.36-68.1-36.91,0-67.26,25.91-71.77,59.5a55.24,55.24,0,0,0-30.52-9.12c-29.23,0-53,22.33-53,49.86a41.38,41.38,0,0,0,.6,7.24,83.64,83.64,0,0,0-16.79-1.7c-42.19,0-76.37,32.22-76.37,71.85a68.73,68.73,0,0,0,14,41.43h-.69c-16.7,0-30.51,8.27-32,18.84a35.5,35.5,0,0,0-6.91-.69c-11.93,0-21.56,5.54-21.56,12.36s9.63,12.36,21.56,12.36H437.09c19.43,0,35.2-9.63,35.2-21.39C472.29,469.85,456.61,460.22,437.09,460.22Z" transform="translate(564.52 2)" />
	<path class="cl" d="M1498.2,705a68.27,68.27,0,0,0-15.4,1.66,42.05,42.05,0,0,0,1.88-12.41c0-14.52-7.42-27.37-18.83-35.46,35.12-8.31,61.16-38.23,61.16-73.8,0-37.79-29.25-69.15-67.7-75.14v-1c0-48.87-42.11-88.54-94.08-88.54-48,0-87.43,33.69-93.31,77.35a71.73,71.73,0,0,0-39.67-11.86c-38,0-68.92,29-68.92,64.82a53.47,53.47,0,0,0,.77,9.42,108,108,0,0,0-21.83-2.21c-54.85,0-99.29,41.88-99.29,93.41a89.31,89.31,0,0,0,18.18,53.86h-.89c-21.72,0-39.67,10.75-41.67,24.49a46,46,0,0,0-9-.89c-15.52,0-28,7.2-28,16.07s12.52,16.07,28,16.07H1498.2c25.27,0,45.77-12.53,45.77-27.82C1544,717.47,1523.58,705,1498.2,705Z" transform="translate(564.52 2)" />
	<path class="cl" d="M272.38,412.09a8.24,8.24,0,0,0,.7-3.1c0-7.3-11.2-13.2-24.9-13.2a39.52,39.52,0,0,0-17.6,3.8c.1-1.3.2-2.5.2-3.8a35.19,35.19,0,0,0-35.2-35.2,38.44,38.44,0,0,0-7.6.8,64.59,64.59,0,0,0,3.9-22.1,63.77,63.77,0,0,0-72.5-63.1,107.87,107.87,0,0,0-106.2-89,106.2,106.2,0,0,0-33.1,5.2v-.3a63.89,63.89,0,0,0-63.9-63.9,63.93,63.93,0,0,0-62.4,50.1,79.61,79.61,0,0,0-14.7-1.4,75.6,75.6,0,0,0-75.6,75.6,75.19,75.19,0,0,0,24.3,55.5,44.42,44.42,0,0,0-6.3-.4,50,50,0,0,0-50,50,50.17,50.17,0,0,0,13.3,34,42.05,42.05,0,0,0-6.2-.5c-15,0-27.2,7.8-27.2,17.5a7.57,7.57,0,0,0,.1,1.5,78.67,78.67,0,0,0-22.2-2.9c-18.6,0-33.6,5.3-33.6,11.8s15.1,11.8,33.6,11.8H192c1.2.1,2.5.2,3.8.2s2.4-.1,3.6-.2h78.5v-.6c6.5-1.3,11.2-4.8,11.2-8.8C288.68,416.39,281.38,412.29,272.38,412.09Z" transform="translate(564.52 2)" />
	<path class="cl" d="M851.84,808.73a5.78,5.78,0,0,0,.47-2.09c0-4.92-7.55-8.9-16.79-8.9a26.7,26.7,0,0,0-11.87,2.56c.07-.88.14-1.68.14-2.56A23.72,23.72,0,0,0,800.06,774a25.82,25.82,0,0,0-5.13.54,43.43,43.43,0,0,0,2.63-14.9,42.95,42.95,0,0,0-48.87-42.54,72.72,72.72,0,0,0-71.6-60,71.69,71.69,0,0,0-22.32,3.51v-.2a43.08,43.08,0,0,0-85.15-9.31,54.21,54.21,0,0,0-9.91-.94,51,51,0,0,0-34.58,88.39,28.88,28.88,0,0,0-4.25-.27,33.73,33.73,0,0,0-24.74,56.63,27.41,27.41,0,0,0-4.18-.34c-10.12,0-18.34,5.26-18.34,11.8a4.91,4.91,0,0,0,.07,1,53.19,53.19,0,0,0-15-2c-12.54,0-22.65,3.58-22.65,8s10.18,8,22.65,8H797.63c.81.06,1.69.13,2.56.13s1.62-.07,2.43-.13h52.92v-.41c4.39-.88,7.55-3.24,7.55-5.93C862.82,811.63,857.9,808.86,851.84,808.73Z" transform="translate(564.52 2)" />
	<path class="cl" d="M-50.76,530.22a6.88,6.88,0,0,0,.58-2.57c0-6.06-9.3-11-20.66-11a32.77,32.77,0,0,0-14.61,3.16c.08-1.08.17-2.08.17-3.16a29.2,29.2,0,0,0-29.21-29.21,31.5,31.5,0,0,0-6.31.67,53.74,53.74,0,0,0,3.24-18.34A52.84,52.84,0,0,0-170.42,417a52,52,0,0,0-7.31.5,89.5,89.5,0,0,0-88.12-73.86,88.17,88.17,0,0,0-27.47,4.32v-.25a53,53,0,0,0-53-53,53.05,53.05,0,0,0-51.78,41.58,65.78,65.78,0,0,0-12.2-1.17,62.74,62.74,0,0,0-62.73,62.74,62.41,62.41,0,0,0,20.16,46.06,36.65,36.65,0,0,0-5.23-.34A41.51,41.51,0,0,0-499.62,485a41.62,41.62,0,0,0,11,28.22,34.74,34.74,0,0,0-5.15-.42c-12.44,0-22.57,6.48-22.57,14.53a5.76,5.76,0,0,0,.09,1.24,65.45,65.45,0,0,0-18.43-2.41c-15.43,0-27.88,4.4-27.88,9.8s12.53,9.79,27.88,9.79h417.16c1,.08,2.07.16,3.15.16s2-.08,3-.16H-46.2v-.5c5.4-1.08,9.3-4,9.3-7.3C-37.24,533.79-43.29,530.39-50.76,530.22Z" transform="translate(564.52 2)" />
	<path class="cl" d="M676.13,219.88a2.83,2.83,0,0,0,.27-1.31c0-3.12-4.81-5.69-10.72-5.69a17,17,0,0,0-7.54,1.64,14.91,14.91,0,0,0-15-16.73,15.56,15.56,0,0,0-3.22.33,27.33,27.33,0,0,0-25.64-36.79,30,30,0,0,0-3.78.27A46.27,46.27,0,0,0,565,123.44a45.41,45.41,0,0,0-14.21,2.24v-.16a27.44,27.44,0,0,0-54.23-6,34.51,34.51,0,0,0-6.34-.6,32.45,32.45,0,0,0-22.09,56.25,22.25,22.25,0,0,0-2.73-.16,21.43,21.43,0,0,0-15.7,36,20.9,20.9,0,0,0-2.67-.22c-6.45,0-11.7,3.39-11.7,7.49a2.81,2.81,0,0,0,.05.65,33.89,33.89,0,0,0-9.51-1.25c-8,0-14.43,2.24-14.43,5s6.45,5,14.43,5H641.52c.55.05,1,.1,1.59.1a14.93,14.93,0,0,0,1.53-.1h33.62v-.22c2.79-.55,4.76-2,4.76-3.78C683.12,221.68,680,219.93,676.13,219.88Z" transform="translate(564.52 2)" />
	<rect class="cl6" x="564.52" y="2" width="900" height="900" />
</svg>
