<svg xmlns="http://www.w3.org/2000/svg" viewBox="0 0 2348.93 1256.48">
	<defs>
		<style>
			.cls-1{fill:#e2bfaf;}.cls-2{fill:#f5d5c5;}.cls-3{fill:none;stroke:#ffc269;stroke-miterlimit:10;stroke-width:4px;}
		</style>
	</defs>
	<g id="cloud_05" data-name="cloud 05">
		<path class="cls-1" d="M694.49,375.89a115.46,115.46,0,0,0-22.26-153.64,148.16,148.16,0,1,0-119.3-16.88A115.43,115.43,0,0,0,594.1,426.63a106.08,106.08,0,1,0,100.39-50.74Z" transform="translate(663.34 79.79)" />
		<path class="cls-2" d="M439.61,777.75c0-117.58-86.6-214.93-199.49-231.77a99,99,0,0,0-16.42-31.44,159,159,0,0,0-41.38-309.39A118.61,118.61,0,0,0-25.47,97,148.3,148.3,0,0,0-172.6-32.82,148.27,148.27,0,0,0-320.86,115.45c0,4.21.19,8.38.53,12.5A169.48,169.48,0,0,0-451.85,293.11a169.3,169.3,0,0,0,81.28,144.7,90,90,0,0,0-40,74.92,90,90,0,0,0,40.18,75,152.06,152.06,0,0,0-28.42-2.67A152.08,152.08,0,0,0-550.92,737.15a151.38,151.38,0,0,0,27,86.52,100.37,100.37,0,0,0-95.3,100.25A100.38,100.38,0,0,0-518.83,1024.3a102.2,102.2,0,0,0,15-1.12,90.37,90.37,0,0,0-.94,12.93,89.48,89.48,0,0,0,89.48,89.47H137.68v-.38a80.76,80.76,0,0,0,66-113.11l1.56,0C334.69,1012.11,439.61,907.18,439.61,777.75Z" transform="translate(663.34 79.79)" />
		<path class="cls-1" d="M1569.66,713.34a160.18,160.18,0,0,0-3.34-237.47,200.52,200.52,0,0,0,11-65.77c0-110.83-89.85-200.68-200.68-200.68A199.76,199.76,0,0,0,1279,234.76a177,177,0,0,0-325.39,96.47c0,3.73.13,7.43.36,11.1-85.66,15.45-150.65,90.38-150.65,180.48a183.17,183.17,0,0,0,76.22,148.83,139.66,139.66,0,0,0-126,162.9,111.81,111.81,0,0,0-63.68-19.79c-3.29,0-6.54.15-9.76.42a116.05,116.05,0,0,0,5.84,232H912.29v.42h601.55a171.77,171.77,0,0,0,55.82-334.21Z" transform="translate(663.34 79.79)" />
		<path class="cls-1" d="M160.78,715.38A101.1,101.1,0,0,0,130.66,560,131.46,131.46,0,0,0,61.24,306.54,152,152,0,0,0,77,239,152.6,152.6,0,0,0-75.63,86.41a152.35,152.35,0,0,0-123,62.23A171.85,171.85,0,0,0-344.9,67a172,172,0,0,0-172,172,172.65,172.65,0,0,0,4,37.26,76.22,76.22,0,0,0-33,62.8,76.3,76.3,0,0,0,76.29,76.3A76,76,0,0,0-443,410.63a68.43,68.43,0,0,0-19.11,47.51,68.31,68.31,0,0,0,6.69,29.58q-7.35-.63-14.85-.64a172,172,0,0,0-172,172A171.56,171.56,0,0,0-584.8,787.32a107.59,107.59,0,0,0-78.54,103.59A107.55,107.55,0,0,0-555.79,998.46H59.11A152.24,152.24,0,0,0,160.78,715.38Z" transform="translate(663.34 79.79)" />
		<path class="cls-2" d="M1354.18,316.89a159,159,0,0,0-149.42-158.72A118.61,118.61,0,0,0,997,50,148.27,148.27,0,0,0,701.58,68.47c0,4.21.19,8.38.53,12.51a169.45,169.45,0,0,0-50.24,309.85A90.12,90.12,0,0,0,652,540.77,152.08,152.08,0,0,0,535.1,813.85a68,68,0,0,0,21,101.8,89.48,89.48,0,0,0,51.06,163h552.93v-.39a80.77,80.77,0,1,0-38.62-155.05A103.18,103.18,0,0,0,1097,798.92a137.6,137.6,0,0,0,38-177.1,99.08,99.08,0,0,0,111.15-154.26A159.08,159.08,0,0,0,1354.18,316.89Z" transform="translate(663.34 79.79)" />
		<path class="cls-1" d="M972,900a132.66,132.66,0,0,0-41.55-96.54A162.37,162.37,0,1,0,636.73,665.63a99.8,99.8,0,0,0-187.36,65.31h-.08a107.91,107.91,0,1,0-74.74,202.35,132.85,132.85,0,0,0,73.66,243.4H758.89a96.22,96.22,0,0,0,83.65-143.79A133,133,0,0,0,972,900Z" transform="translate(663.34 79.79)" />
		<rect class="cls-3" x="663.34" y="79.79" width="900" height="900" />

	</g>
</svg>
