<svg xmlns="http://www.w3.org/2000/svg" viewBox="0 0 1383.76 904">
	<defs>
		<style>
			.cls-1{fill:#f5d5c5;}.cls-2{fill:none;stroke:#ffc269;stroke-miterlimit:10;stroke-width:4px;}
		</style>
	</defs>
	<g id="cloud_11" data-name="cloud 11">
		<path class="cls-1" d="M-70.09,670.5c93.07,2.25,194.81,4,168,0s-11.82-8.67-27.61-16.56c-9.46-4.73-20.5,7.1-20.5,7.1s-13-35.33-29.55-29S10.17,640.17-6.2,628.7C-23.64,616.48-22.77,650-27.5,650.79s-15.45-17-28.86-3.55-5.84,16.16-30.29,17S-100.85,669.76-70.09,670.5Z" transform="translate(258.9 2)" />
		<path class="cls-1" d="M540,344.54c26-3.94,32.85-35.56,53.63-40.22,19.32-4.34,18.14,19.86,24.06,8s21-22.94,32.69-21.44c15.42,2,12.53,17.11,17.78,3.55,4.74-12.23,42.2-43,67.7,13.8,0,0,29.71-18.93,40.75,18.93,0,0,45.75-11.18,42.2,9.46,0,0,14.2-13.8,16.17,2.37,0,0,36.28-15.78,33.52,2.37,0,0,35.49-14.2,34.31.78,0,0,86,2.43,59.8,4.4-25.22,1.9-170.19,3.49-298.78,3.49C505.65,350.06,533.76,345.48,540,344.54Z" transform="translate(258.9 2)" />
		<path class="cls-1" d="M463.55,433.55c347.83,4.75,386.19-7.44,352-11.39-41-4.73-31-20.16-48.33-17-18.39,3.35-10.25,18.14-28.39-1.57S692.28,380.06,678.09,391,670.6,372.57,654,371.78s-17.75,5.77-17.75,5.77-16.57-22.88-30-12.62-7.88,19.72-19.71,15-22.09.79-27.61,8.68-10.25,29.18-20.51,21.3-20.5-10.26-28.39-2.37-7.89-7.1-16.56-1.58-12.62,15.78-22.88,10.25-16.56-23.66-29.18-18.14-8.16,21.56-18.14,16.57c-12.62-6.31-11.83,1.57-18.14,5.52s-82.82,3.94-61.52,7.1S425.7,433,463.55,433.55Z" transform="translate(258.9 2)" />
		<path class="cls-1" d="M348.89,743.88c-37-5.6-46.71-50.55-76.24-57.18-27.47-6.16-25.79,28.24-34.2,11.42S208.66,665.51,192,667.64c-21.92,2.81-17.82,24.33-25.28,5.05-6.73-17.38-60-61.1-96.23,19.62,0,0-42.24-26.91-57.93,26.91,0,0-65-15.89-60,13.45,0,0-20.18-19.62-23,3.36,0,0-51.57-22.42-47.65,3.37,0,0-50.45-20.18-48.77,1.12,0,0-122.22,3.45-85,6.25,35.85,2.7,241.92,5,424.71,5C397.66,751.73,357.7,745.22,348.89,743.88Z" transform="translate(258.9 2)" />
		<path class="cls-1" d="M921,782.78C347.55,790.61,284.3,770.51,340.7,764c67.62-7.8,51.07-33.24,79.68-28,30.33,5.52,16.9,29.91,46.81-2.6s76.73-38.77,100.14-20.68,12.34-30.44,39.65-31.74,29.27,9.51,29.27,9.51,27.31-37.72,49.41-20.81,13,32.51,32.51,24.71,36.42,1.3,45.52,14.3,16.9,48.12,33.81,35.11,33.81-16.9,46.82-3.9,13-11.7,27.3-2.6,20.81,26,37.72,16.91,27.31-39,48.11-29.91,13.46,35.53,29.91,27.31c20.81-10.41,19.51,2.6,29.91,9.1s136.55,6.5,101.43,11.7S983.45,781.92,921,782.78Z" transform="translate(258.9 2)" />
		<path class="cls-1" d="M333,357.06c93.07,2.25,194.82,3.95,168,0s-11.82-8.66-27.61-16.56c-9.46-4.73-20.5,7.1-20.5,7.1s-13-35.32-29.55-29-10.08,8.15-26.45-3.33c-17.44-12.22-16.57,21.32-21.3,22.09s-15.45-17-28.85-3.55-5.85,16.17-30.3,17S302.28,356.32,333,357.06Z" transform="translate(258.9 2)" />
		<path class="cls-1" d="M145.2,325c-70.2.15-218.74.94-203.8,0,112.94-7,88.47-2.49,105.17-18.61,9.11-8.79,28.43,1.65,28.43,1.65s2.37-22.92,11.83-20.53,15,15.8,22.87,14.22,13.41-15.3,20.51-3.7,6.31,17.11,19.72,18.69S208.29,324.86,145.2,325Z" transform="translate(258.9 2)" />
		<path class="cls-1" d="M192.92,382.09c85.51,0,260,1.58,213.45-3.15s-39.61-25.24-58.54-13.41-3.94-20.51-23.66-24.45c-13.7-2.74-26.81,6.31-26.81,6.31s-3.95-35.49-24.2-28.49c-21.5,7.44-23.92,22.18-23.92,22.18s-11-11.83-27.6-7.1-9.29,25.19-20.3,16.56c-9-7-23.42-9-34.46,2S131.74,370.11,124.22,367c-16.94-6.9-23.83-15.59-37.41-10.59-13.33,4.92-.55,9-7.92,15.1-4.79,4-13.12-10.73-26.49-5.7-7.51,2.82-.18,9-14.53,9.93-19.68,1.34-37.07,6.31,10.25,6.31Z" transform="translate(258.9 2)" />
		<rect class="cls-2" x="258.9" y="2" width="900" height="900" />
	</g>
</svg>
