<svg xmlns="http://www.w3.org/2000/svg" viewBox="0 0 1000.81 1330.59">
	<defs>
		<style>
			.cls-1{fill:#f5d5c5;}.cls-2{fill:#e2bfaf;}.cls-3{fill:none;stroke:#ffc269;stroke-miterlimit:10;stroke-width:4px;}
		</style>
	</defs>
	<g id="cloud_06" data-name="cloud 06">
		<path class="cl" d="M716.56,421.88A135.62,135.62,0,0,0,601.14,287.79a57.15,57.15,0,0,0-9.5-18.19,92,92,0,0,0-23.94-179A68.62,68.62,0,0,0,447.48,28,85.78,85.78,0,0,0,276.59,38.71c0,2.43.11,4.84.31,7.23a98,98,0,0,0-29.07,179.27,52.14,52.14,0,0,0,.08,86.74,88,88,0,0,0-88.79,136.49,58.07,58.07,0,1,0,11.64,115.42A51.73,51.73,0,0,0,222,623.11H541.87v-.22a46.72,46.72,0,0,0,38.2-65.44h.9A135.59,135.59,0,0,0,716.56,421.88Z" transform="translate(2 269.1)" />
		<path class="cl2" d="M998.81,390a128.28,128.28,0,0,0-66.74-112.59,85.23,85.23,0,0,0-25.39-131A110.82,110.82,0,0,0,848.16-67.21a128,128,0,0,0,13.26-56.92A128.63,128.63,0,0,0,732.79-252.77a128.47,128.47,0,0,0-103.65,52.45A144.88,144.88,0,0,0,505.8-269.1a145,145,0,0,0-145,145,145.83,145.83,0,0,0,3.41,31.41,64.23,64.23,0,0,0-27.8,52.93,64.32,64.32,0,0,0,64.32,64.32,64.1,64.1,0,0,0,22.33-4,57.85,57.85,0,0,0-10.48,65c-4.12-.35-8.29-.54-12.51-.54A144.94,144.94,0,0,0,298.76,333.56a133,133,0,0,0-46.85,221.85A162.37,162.37,0,1,0,545.67,693.2,99.81,99.81,0,0,0,733,627.89h.07a107.93,107.93,0,0,0,148.58-100c0-3.38-.18-6.73-.48-10A128.33,128.33,0,0,0,998.81,390Z" transform="translate(2 269.1)" />
		<path class="cl" d="M289,616.34a95.43,95.43,0,0,0,61.36,75.6,63.4,63.4,0,0,0,32.93,93.66,82.44,82.44,0,0,0,66.3,150.84,95.7,95.7,0,0,0,175.66,74.14,107.87,107.87,0,0,0,183.23-108,47.85,47.85,0,0,0-55.62-77,43.07,43.07,0,0,0,.64-49c3.07-.19,6.16-.5,9.27-1a107.83,107.83,0,0,0,47.55-194A98.92,98.92,0,0,0,820.69,413.4a120.79,120.79,0,1,0-231.16-69.46,74.25,74.25,0,0,0-130.79,68.44h-.05a80.28,80.28,0,0,0-98.47,89.73c.37,2.49.86,4.93,1.44,7.33A95.46,95.46,0,0,0,289,616.34Z" transform="translate(2 269.1)" />
		<rect class="cl6" x="2" y="269.1" width="900" height="900" />
	</g>
</svg>
