<svg xmlns="http://www.w3.org/2000/svg" viewBox="0 0 1545.7 904">
	<defs>
		<style>
			.cl{fill:none;stroke:#ffc269;stroke-miterlimit:10;stroke-width:4px;}.cl{fill:#f5d5c5;}
		</style>
	</defs>
	<g id="cloud_10" data-name="cloud 10">
		<rect class="cl6" x="362.75" y="2" width="900" height="900" />
		<path class="cl" d="M815.19,641.63c-39.49,0-74.32,5.64-94.94,14.23-10.6-1.55-21.85-2.67-33.57-3.29a23.57,23.57,0,0,0,1-6.79c0-41.3-110.08-75.13-249.73-78.14-30.64-16.71-96.78-28.27-173.45-28.27-102.57,0-186.31,20.7-191.4,46.72C-1,587.22-60.18,609.28-60.18,636.34c0,17.51,24.8,32.94,62.4,41.94l-3.37,0c-82.54,0-149.45,12.34-149.45,27.56a5.35,5.35,0,0,0,.06.79c-16.11-1-33.35-1.47-51.28-1.47-88.88,0-160.93,12.64-160.93,28.23s72.05,28.22,160.93,28.22c37.93,0,72.8-2.3,100.31-6.15C-78.36,777.65-.11,794,92.87,794c94.76,0,174.22-17,195.65-39.85a550.82,550.82,0,0,0,73.34,4.63,569.58,569.58,0,0,0,63.25-3.37,376.29,376.29,0,0,0,51.64,3.37c46.56,0,86-7.52,99.09-17.87,24.44,6.78,55.4,10.84,89.07,10.84,74.75,0,136.11-20,142.58-45.42,2.55,0,5.11.08,7.7.08,63.32,0,114.65-14.51,114.65-32.39S878.51,641.63,815.19,641.63Z" transform="translate(362.75 2)" />
		<path class="cl" d="M929.49,370.46c0-3.12-11.06-5.65-24.7-5.65a85.8,85.8,0,0,0-16.46,1.43,177,177,0,0,0-23.07-1.43,168,168,0,0,0-27.41,2.09c-8-1.28-20.27-2.09-34-2.09-24.17,0-43.77,2.53-43.77,5.65s19.6,5.64,43.77,5.64c4.95,0,9.71-.11,14.15-.3,0,.1,0,.2,0,.3,0,6.24,21.17,11.3,47.29,11.3s47.29-5.06,47.29-11.3a2.66,2.66,0,0,0,0-.28C922.38,375.08,929.49,373,929.49,370.46Z" transform="translate(362.75 2)" />
		<path class="cl" d="M571.25,358.33c-19.49,0-35.29,3.8-35.29,8.47v.08q-3-.08-6-.08c-22.83,0-41.33,3.16-41.33,7.06s18.5,7.06,41.33,7.06c20,0,36.68-2.43,40.5-5.65h.82c19.49,0,35.29-3.8,35.29-8.48S590.74,358.33,571.25,358.33Z" transform="translate(362.75 2)" />
		<path class="cl" d="M240.69,357c0-4.68-23.39-8.47-52.24-8.47s-52.23,3.79-52.23,8.47a1.38,1.38,0,0,0,0,.2c-5.11.2-9.92.53-14.3,1-1.54-4.05-21.75-7.26-46.48-7.26-25.73,0-46.59,3.47-46.59,7.76s20.86,7.77,46.59,7.77c8.22,0,15.93-.36,22.63-1,0,4.68,21.81,8.47,48.71,8.47s48.7-3.79,48.7-8.47c0,0,0-.05,0-.08C221,364.87,240.69,361.33,240.69,357Z" transform="translate(362.75 2)" />
		<path class="cl" d="M304.92,360.81a246.44,246.44,0,0,0-35.32,2.29c-4.45-2.17-16.17-3.71-29.93-3.71-17.59,0-31.85,2.52-31.85,5.64s14.26,5.65,31.85,5.65c3.83,0,7.5-.12,10.9-.34,0,5.26,24.34,9.53,54.35,9.53s54.36-4.27,54.36-9.53S334.94,360.81,304.92,360.81Z" transform="translate(362.75 2)" />
		<path class="cl" d="M462.38,384.4c-28.85,0-52.24,3.87-52.24,8.64h0c-3.47,0-6.83.14-10,.34-4.17-3-18.8-5.29-36.22-5.29-20.66,0-37.41,3.16-37.41,7.06s16.75,7.06,37.41,7.06q3.36,0,6.56-.11a.43.43,0,0,0,0,.11c0,5.07,18.25,9.18,40.75,9.18s40.75-4.11,40.75-9.18a2.22,2.22,0,0,0-.13-.71q5.13.18,10.58.18c28.84,0,52.23-3.87,52.23-8.65S491.22,384.4,462.38,384.4Z" transform="translate(362.75 2)" />
		<path class="cl" d="M760.91,339.74c-10.16,0-19,.82-23.55,2A118.45,118.45,0,0,0,719,340.45c-17.4,0-31.51,3.16-31.51,7.06s14.11,7.06,31.51,7.06,31.52-3.16,31.52-7.06a1.54,1.54,0,0,0,0-.3c3.2.19,6.71.3,10.4.3,14.82,0,26.83-1.74,26.83-3.88S775.73,339.74,760.91,339.74Z" transform="translate(362.75 2)" />
		<ellipse class="cl" cx="1245.78" cy="351.75" rx="31.06" ry="5.82" />
		<path class="cl" d="M702.34,386c-3.78,0-7.42.1-10.83.28a2.28,2.28,0,0,0,1.1-1.69c0-3.9-17.1-7.06-38.2-7.06s-38.19,3.16-38.19,7.06a1.35,1.35,0,0,0,.11.52c-3.06-.28-6.35-.44-9.79-.44-16.26,0-29.45,3.48-29.45,7.77s13.19,7.76,29.45,7.76S636,396.7,636,392.42a2.7,2.7,0,0,0-.75-1.74,183.79,183.79,0,0,0,19.16.95c4.47,0,8.75-.14,12.73-.4a1,1,0,0,0-.1.4c0,3.12,15.8,5.65,35.3,5.65s35.29-2.53,35.29-5.65S721.83,386,702.34,386Z" transform="translate(362.75 2)" />
		<path class="cl" d="M38.94,373.07c-13.65,0-24.71,2.52-24.71,5.64a1.77,1.77,0,0,0,.54,1.18l-2.08,0c-12.86,0-23.29,1.68-23.29,3.76s10.43,3.77,23.29,3.77c11.44,0,21-1.34,22.91-3.09,1.1,0,2.21.05,3.34.05,13.64,0,24.7-2.53,24.7-5.65S52.58,373.07,38.94,373.07Z" transform="translate(362.75 2)" />
		<path class="cl" d="M421.87,333.54c-16.63,0-30.12,2.58-30.12,5.76a1.34,1.34,0,0,0,.13.54c-2.23-.06-4.54-.1-6.91-.1-19.65,0-35.57,2.24-35.57,5s15.92,5,35.57,5c18.9,0,34.35-2.07,35.5-4.69h1.4c16.64,0,30.13-2.58,30.13-5.76S438.51,333.54,421.87,333.54Z" transform="translate(362.75 2)" />
		<path class="cl" d="M655.88,328.22a48,48,0,0,0-12.12,1.41A70.12,70.12,0,0,0,629,328.22a63.27,63.27,0,0,0-17,2c-2-1.52-8.9-2.65-17.17-2.65-9.8,0-17.75,1.58-17.75,3.53s7.95,3.53,17.75,3.53a70.36,70.36,0,0,0,11.73-.89,1,1,0,0,0,0,.24c0,3.18,10.07,5.76,22.49,5.76a68.09,68.09,0,0,0,15.63-1.62,49.46,49.46,0,0,0,11.22,1.18c10.06,0,18.22-2.48,18.22-5.54S665.94,328.22,655.88,328.22Z" transform="translate(362.75 2)" />
		<path class="cl" d="M127.75,336.22c-4,0-7.78.12-11.1.33-2.77-1.26-7.51-2.1-12.9-2.1-8.53,0-15.45,2.08-15.45,4.65s6.92,4.65,15.45,4.65c5.39,0,10.13-.84,12.9-2.1,3.32.21,7.09.33,11.1.33,13.25,0,24-1.29,24-2.88S141,336.22,127.75,336.22Z" transform="translate(362.75 2)" />
		<path class="cl" d="M1080.35,450a442.82,442.82,0,0,0-51.78,2.86,232.74,232.74,0,0,0-37.86-9.41c-17.1-20.71-84-36.16-164-36.16-81.81,0-150,16.17-165.09,37.6q-6.72-.18-13.69-.19a427.35,427.35,0,0,0-63.2,4.36C570,436.7,527.86,427.77,478.12,427.77c-50,0-92.38,9-106.85,21.5-5-.46-10.34-.76-15.79-.92-19-5.47-47.37-9-79-9-46.46,0-85.78,7.48-99,17.8a125.11,125.11,0,0,0-42.87-.06c-4.59-2.34-11.53-4.13-19.71-5,17.76-3.9,28.91-9.53,28.91-15.79,0-3.92-4.36-7.59-12-10.74h1.76c31,0,56.11-4.75,56.11-10.59s-25.12-10.59-56.11-10.59S77.47,409.17,77.47,415a2.19,2.19,0,0,0,.12.66c-7-.43-14.29-.66-21.83-.66-48.62,0-88,9.54-88,21.32s39.41,21.32,88,21.32q8.48,0,16.51-.38c-3.57,1.89-5.65,4.12-5.65,6.51,0,6.76,16.54,12.24,36.95,12.24a107.72,107.72,0,0,0,11.65-.62c6.57,5.29,22.29,9,40.65,9,13.91,0,26.31-2.15,34.36-5.49,18.62,6.8,50.28,11.28,86.22,11.28H279c-1.66,1.37-2.54,2.8-2.54,4.26,0,11.36,52.5,20.57,117.25,20.57,19.29,0,37.5-.82,53.55-2.27C465,520.59,499,525.87,538,525.87c57.29,0,103.74-11.37,103.74-25.41,0-2.75-1.79-5.4-5.1-7.88q5.58.12,11.3.12c24.19,0,46.54-1.7,64.69-4.59,23,5.88,51.91,10,84,11.61,8.36,7.07,22,13.28,39.45,18.12-18.53,3.58-31,10.23-31,17.86a8.21,8.21,0,0,0,1.69,4.77h-1.69c-37.13,0-67.23,7.11-67.23,15.88s30.1,15.89,67.23,15.89,67.24-7.11,67.24-15.89c0,0,0,0,0-.07,32-.85,57.18-9.73,57.18-20.57,0-2.46-1.3-4.82-3.67-7h.65c68.33,0,125.14-16,136.85-37.12,5.54.19,11.23.29,17,.29,56.67,0,102.6-9.37,102.6-20.93S1137,450,1080.35,450Z" transform="translate(362.75 2)" />
		<path class="cl" d="M204.5,517.19c-3.19,0-6.23.12-9,.34,1.57-1,2.46-2.2,2.46-3.44,0-4.22-10.26-7.65-22.92-7.65a65.36,65.36,0,0,0-8.29.52c-7.45-4.19-28.45-7.22-53.2-7.22-19.1,0-36,1.8-46.09,4.55-8.61-7-31.71-12-58.86-12-25.57,0-47.55,4.43-57.21,10.77a253.53,253.53,0,0,0-36.12-2.46c-40.94,0-74.12,8.67-74.12,19.36s33.18,19.37,74.12,19.37c31.58,0,58.53-5.17,69.21-12.44a201.81,201.81,0,0,0,24.12,1.4,202.37,202.37,0,0,0,25.27-1.54c8.08,4,28.48,6.8,52.39,6.8,31,0,56.11-4.74,56.11-10.59,0-1.15-1-2.26-2.78-3.29,5.63-.56,10.7-1.3,15-2.17,3.78,2.49,11.51,4.19,20.44,4.19a67.53,67.53,0,0,0,6.82-.34c0,2.32,10.13,4.2,22.63,4.2s22.64-1.88,22.64-4.2S217,517.19,204.5,517.19Z" transform="translate(362.75 2)" />
	</g>
</svg>
