<svg xmlns="http://www.w3.org/2000/svg" viewBox="0 0 1267.84 923.33">
	<defs>
		<style>
			.cl{fill:#f5d5c5;}.cls-2{fill:none;stroke:#ffc269;stroke-miterlimit:10;stroke-width:4px;}
		</style>
	</defs>
	<g id="cloud_13" data-name="cloud 13">
		<path class="cl" d="M64.14,688.52c-84.75-52-280.56,51.2-234.2,9,84.22-76.68,201-20.13,294.36-5.82,87.17,13.37,305.71-41.88,206.39-9.26C273,701.38,165.48,750.73,64.14,688.52Z" transform="translate(177.06 2)" />
		<path class="cl" d="M407.55,346.83c-96.36,9.18-260.47-13-153.53-16.36,52-1.62,181.69,53.95,262.59-13.35,38.11-31.71,199.93-30.15,91-40.05C497.55,267.05,492.74,338.71,407.55,346.83Z" transform="translate(177.06 2)" />
		<path class="cl" d="M871.75,336c-82.35-8.37-159.37-64.71-69.4-39.39,48.54,13.66,57,38.24,135.38,20.6,36.82-8.29,218.78,19.18,127.46-10.37C972.83,276.91,944.55,343.35,871.75,336Z" transform="translate(177.06 2)" />
		<path class="cl" d="M736.87,803.89c-84.94-13.18-152.78-62.06-109-17.14s93.9-3.48,185.35-6.87c88.14-3.27,281.36,113.66,177.11,63.18C833.36,767.06,821.8,817.08,736.87,803.89Z" transform="translate(177.06 2)" />
		<path class="cl" d="M48.94,301.91C9.77,289.12-61.42,262.49-16.6,304.25,31,348.64,120,411.39,204.69,357s349.06-109.4,240-108.48C195.75,250.62,132.51,329.2,48.94,301.91Z" transform="translate(177.06 2)" />
		<path class="cl" d="M615.8,216.25c-40-1.14-112.42,27.2-63.55-.53,51.88-29.43,210-45.29,296.47,1.39,41.65,22.49,198,56,88.94,55.06C688.72,270.07,705.78,218.79,615.8,216.25Z" transform="translate(177.06 2)" />
		<path class="cl" d="M87.41,784.84c77.06,5.79,350.58-10.55,447.64,14.83,35.6,9.31-164.17,56.75-254.82,22.65C-.46,716.72,43.52,781.54,87.41,784.84Z" transform="translate(177.06 2)" />
		<path class="cl" d="M-24.93,201.58C-335.71,237.28-14.34,213.64,88,245.27c62.28,19.25,173-122,261.09-78.53,68.92,34,284.5-8.47,25.13,53.66C180.08,266.91,157.48,180.62-24.93,201.58Z" transform="translate(177.06 2)" />
		<path class="cl" d="M462,853.72c-237.77,29.65-27.37,17.22,43.66,40.76,42.67,14.14,98.47-88.28,196.31-56,164.28,54.2,381.64,52.19,132.73,77.93C559,944.92,576.63,839.43,462,853.72Z" transform="translate(177.06 2)" />
		<path class="cl" d="M584.27,313.12C544.36,309,492.76,373,542.42,349c52.72-25.47,180.92-33,269.11,4.59,63.91,27.24,246.44,18.11,150.83,24.75C713.66,395.65,674.07,322.48,584.27,313.12Z" transform="translate(177.06 2)" />
		<path class="cl" d="M948.83,668.8c24.58,3.48,71.09,21,34.43,19.69-53-1.94-128.85-42-180.59-35.79-44.38,5.31-98.41,31.09-82,31.6C736.28,684.78,893.52,661,948.83,668.8Z" transform="translate(177.06 2)" />
		<path class="cl" d="M936.5,759c34.67,11.38,114.92-19.77,144.08-33.42s-9.09-3.86-53,8.21-72.18,13.58-130.69-2.72C846.26,717,842.9,728.27,936.5,759Z" transform="translate(177.06 2)" />
		<path class="cl" d="M450.44,662.21C483.8,677,587.66,696.14,618,685.46s-31.14-10.9-76-3.27-73.17,6.31-129.77-15.74C363.24,647.36,360.37,622.3,450.44,662.21Z" transform="translate(177.06 2)" />
		<path class="cl" d="M492.38,285.34c26.56-13.91,151.31-51.58,173.8-43.15,54.09,20.25-93.95,14.35-107.85,15-40.7,1.94-60.22,6.88-101,21.25C417.84,292.4,420.66,322.92,492.38,285.34Z" transform="translate(177.06 2)" />
		<path class="cl" d="M451.21,701.93c75.9-4.73,250.8,98.3,372.91-3.94,47.6-39.85-183.7,55.81-284.85,67.56-40.63,4.73-100.86,11-143.71,3.82C354,762.44,191.4,718.1,451.21,701.93Z" transform="translate(177.06 2)" />
		<path class="cl" d="M237.18,896.88C187.53,898.53,77.55,788.54-6,885.75c-32.56,37.89,121.86-48.33,188.23-56,26.66-3.07,66.15-6.86,93.8,2C302.87,840.34,407.1,891.22,237.18,896.88Z" transform="translate(177.06 2)" />
		<path class="cl" d="M-10.6,782.81c20.1-17.58,109-60.74,137.33-47.67,30.64,14.11-77.93,2.19-107,15.44-12.83,5.84-32.13,11.11-67.26,38.08C-78,812-64.88,830.28-10.6,782.81Z" transform="translate(177.06 2)" />
		<path class="cl" d="M101.45,150.68c-29.87-12.43-63.93,20.55-61,30.3s94.09-18.17,141.59-18.49,142.13,80.95,52.94,40C146.07,161.71,119,158,101.45,150.68Z" transform="translate(177.06 2)" />
		<rect class="cls-2" x="177.06" y="2" width="900" height="900" />
	</g>
</svg>
