<svg xmlns="http://www.w3.org/2000/svg" viewBox="0 0 1508 508">
	<defs>
		<style>
			.cls-1,.cl{fill:#fff;stroke-linejoin:round;}.cls-1{stroke:#231f20;stroke-width:8px;}.cl{stroke:#262626;stroke-linecap:round;stroke-width:4px;}
		</style>
	</defs>
	<g id="Layer_1" data-name="Layer 1">
		<rect class="cls-1" x="4" y="4" width="1500" height="500" />
	</g>
	<g id="cloud_d" data-name="cloud d">
		<path class="cl" d="M765.89,319.23c-5.33,0-10.61.26-15.81.75a123.07,123.07,0,0,0-211.46-67.35A170.64,170.64,0,0,0,430.2,214c-1.07,0-2.13,0-3.2,0A176.35,176.35,0,0,0,82.53,267.26c0,.22,0,.44,0,.66A196,196,0,0,0,0,315.14V500H933.79q.45-6.15.46-12.41A168.36,168.36,0,0,0,765.89,319.23ZM585.9,456.9c.56-1.2,1.1-2.41,1.63-3.63a119.39,119.39,0,0,0,12.53,3.63Z" transform="translate(4 4)" />
		<path class="cl" d="M36.59,311H260.8a76.85,76.85,0,1,0,0-153.69,112.1,112.1,0,0,0-205.5-62A108.56,108.56,0,0,0,0,100V304.43a108.4,108.4,0,0,0,36.59,6.32Z" transform="translate(4 4)" />
		<path class="cl" d="M351.25,396.47A55.87,55.87,0,1,0,335.55,287a78.77,78.77,0,0,0-116-35A93.74,93.74,0,0,0,48.2,286.45,55.36,55.36,0,0,0,0,296.84v87.53a55.59,55.59,0,0,0,34.7,12.1Z" transform="translate(4 4)" />
		<path class="cl" d="M1436.63,74.51a155,155,0,0,0-94.09,31.66,207.81,207.81,0,0,0-227.15,47.75,146.2,146.2,0,0,0-178.73,36.14,141.25,141.25,0,0,0-222,79.3c-2.46-.11-4.93-.18-7.42-.18A161,161,0,0,0,560,365,82.58,82.58,0,0,0,466,500H1500V88A155.09,155.09,0,0,0,1436.63,74.51Z" transform="translate(4 4)" />
		<path class="cl" d="M1396.72,275.37a73,73,0,0,0-23.87,4.29,197.48,197.48,0,0,0,7.87-54.85c0-109.36-88.66-198-198-198-80.83,0-150.23,48.5-181,117.93a137,137,0,0,0-178,130.65,73.73,73.73,0,0,0,0,147.46h573a73.73,73.73,0,1,0,0-147.46Z" transform="translate(4 4)" />
	</g>
</svg>
