<svg xmlns="http://www.w3.org/2000/svg" viewBox="0 0 2108 708">
	<defs>
		<style>
			.cls-1,.cl{fill:#fff;stroke-linejoin:round;}.cls-1{stroke:#231f20;stroke-width:8px;}.cl{stroke:#262626;stroke-linecap:round;stroke-width:4px;}
		</style>
	</defs>
	<g id="Layer_1" data-name="Layer 1">
		<rect class="cls-1" x="4" y="4" width="2100" height="700" />
	</g>
	<g id="cloud_d" data-name="cloud d">
		<path class="cl" d="M1072.25,446.93c-7.47,0-14.85.36-22.14,1a172.3,172.3,0,0,0-296-94.28,238.86,238.86,0,0,0-151.79-54.14c-1.5,0-3,0-4.48.06-31.61-99.9-125-172.31-235.39-172.31-136.34,0-246.87,110.53-246.87,246.87,0,.3,0,.61,0,.91A274.58,274.58,0,0,0,0,441.2V700H1307.31q.63-8.61.64-17.38C1308,552.45,1202.42,446.93,1072.25,446.93Zm-252,192.74q1.17-2.53,2.28-5.1a171,171,0,0,0,17.55,5.1Z" transform="translate(4 4)" />
		<path class="cl" d="M51.22,435.36h313.9a107.59,107.59,0,0,0,0-215.17,156.94,156.94,0,0,0-287.7-86.8A151.77,151.77,0,0,0,0,140V426.2a151.66,151.66,0,0,0,51.22,8.86Z" transform="translate(4 4)" />
		<path class="cl" d="M491.75,555.06a78.22,78.22,0,1,0-22-153.24,110.26,110.26,0,0,0-162.42-49A131.24,131.24,0,0,0,67.47,401,77.44,77.44,0,0,0,0,415.57V538.12a77.84,77.84,0,0,0,48.58,16.94Z" transform="translate(4 4)" />
		<path class="cl" d="M2011.28,104.32a216.91,216.91,0,0,0-131.72,44.32,290.94,290.94,0,0,0-318,66.84,204.67,204.67,0,0,0-250.21,50.6,196.85,196.85,0,0,0-118.74-39.63c-93,0-171,64.18-192.09,150.65-3.44-.16-6.91-.25-10.39-.25A225.34,225.34,0,0,0,784.05,510.94,115.61,115.61,0,0,0,652.38,700H2100V123.15A217,217,0,0,0,2011.28,104.32Z" transform="translate(4 4)" />
		<path class="cl" d="M1955.41,385.52a102.09,102.09,0,0,0-33.42,6,276.59,276.59,0,0,0,11-76.8c0-153.1-124.12-277.22-277.23-277.22-113.16,0-210.32,67.9-253.4,165.09a191.69,191.69,0,0,0-57.46-8.78c-105.87,0-191.7,85.82-191.7,191.7a103.22,103.22,0,0,0,0,206.44h802.19a103.22,103.22,0,0,0,0-206.44Z" transform="translate(4 4)" />
	</g>
</svg>
