<svg xmlns="http://www.w3.org/2000/svg" viewBox="0 0 2710.62 908">
	<defs>
		<style>
			.cls-1,.cl{fill:#fff;stroke-linejoin:round;}.cls-1{stroke:#231f20;stroke-width:8px;}.cl{stroke:#262626;stroke-linecap:round;stroke-width:4px;}
		</style>
	</defs>
	<g id="Layer_1" data-name="Layer 1">
		<rect class="cls-1" x="4" y="4" width="2702.62" height="900" />
	</g>
	<g id="cloud_d" data-name="cloud d">
		<path class="cl" d="M1378.61,574.62c-9.6,0-19.1.47-28.47,1.34-15-107.81-107.51-190.82-219.45-190.82a220.92,220.92,0,0,0-161.17,69.6,307.1,307.1,0,0,0-195.15-69.6c-1.93,0-3.85,0-5.77.07C728,256.77,607.83,163.68,466,163.68c-175.29,0-317.4,142.1-317.4,317.39,0,.4,0,.79,0,1.18A352.93,352.93,0,0,0,0,567.26V900H1680.82c.54-7.38.83-14.83.83-22.35C1681.65,710.29,1546,574.62,1378.61,574.62Zm-324,247.81c1-2.17,2-4.35,2.92-6.55a221.39,221.39,0,0,0,22.56,6.55Z" transform="translate(6.62 4)" />
		<path class="cl" d="M65.85,559.75H469.43a138.33,138.33,0,1,0,0-276.65c0-111.45-90.34-201.79-201.79-201.79A201.57,201.57,0,0,0,99.53,171.5,195.05,195.05,0,0,0,0,179.93V548a194.9,194.9,0,0,0,65.85,11.39Z" transform="translate(6.62 4)" />
		<path class="cl" d="M632.25,713.65a100.56,100.56,0,1,0-28.26-197,141.78,141.78,0,0,0-208.83-63A168.68,168.68,0,0,0,253,375.76c-83.36,0-152.45,60.43-166.27,139.84A99.7,99.7,0,0,0,0,534.31V691.87a100.12,100.12,0,0,0,62.46,21.78Z" transform="translate(6.62 4)" />
		<path class="cl" d="M2585.93,134.12a278.91,278.91,0,0,0-169.35,57,374.1,374.1,0,0,0-408.88,85.94A263.14,263.14,0,0,0,1686,342.1a253,253,0,0,0-152.66-51c-119.54,0-219.8,82.52-247,193.69q-6.64-.3-13.36-.31c-118.24,0-219.91,70.84-264.94,172.39A148.64,148.64,0,0,0,838.77,900H2700V158.33A279.21,279.21,0,0,0,2585.93,134.12Z" transform="translate(6.62 4)" />
		<path class="cl" d="M2514.09,495.66c-15.12,0-29.41,3.07-43,7.73a356,356,0,0,0,14.15-98.73c0-196.85-159.58-356.43-356.43-356.43-145.49,0-270.41,87.29-325.8,212.26a246.38,246.38,0,0,0-73.88-11.3c-136.12,0-246.47,110.35-246.47,246.47a132.72,132.72,0,0,0,0,265.43H2514.09a132.72,132.72,0,1,0,0-265.43Z" transform="translate(6.62 4)" />
	</g>
</svg>
