<svg xmlns="http://www.w3.org/2000/svg" viewBox="0 0 73.28 84">
	<defs>
		<style>
			.cls-1,.cls-5{fill:#ffbd56;}.cls-1,.cls-2,.cls-3,.cls-4,.cls-5{stroke:#262626;stroke-linejoin:round;}.cls-1,.cls-3,.cls-4,.cls-5{stroke-linecap:round;}.cls-1,.cls-2,.cls-3{stroke-width:4px;}.cls-2{fill:#da85e3;stroke-linecap:square;}.cls-3{fill:#4a46c8;}.cls-4,.cls-5{stroke-width:2px;}
		</style>
	</defs>
	<g id="Layer_6_copy" data-name="Layer 6 copy">
		<polygon class="hB" points="2 22 2 62 36.64 42 36.64 2 2 22" />
		<polygon class="hD" points="71.28 62 36.64 42 2 62 36.64 82 71.28 62" />
		<polygon class="hC" points="71.28 22 36.64 2 36.64 42 71.28 62 71.28 22" />
		<path class="hblk" d="M27.81,60.06c0,3.91,5.48,7.07,12.25,7.07a17.55,17.55,0,0,0,8.67-2.08h0L66,55.06l-17.31-10-17.1,9.86-.23.13h0C29.19,56.35,27.81,58.1,27.81,60.06Z" transform="translate(-3.36 2)" />
		<path class="hB" d="M43.31,61.5h0a17.55,17.55,0,0,1-8.67,2.08,19.39,19.39,0,0,1-5.94-.89c1.81,2.6,6.21,4.44,11.36,4.44a17.55,17.55,0,0,0,8.67-2.08h0L66,55.06l-5.78-3.33L43.34,61.49Z" transform="translate(-3.36 2)" />
	</g>
</svg>
