<svg xmlns="http://www.w3.org/2000/svg" viewBox="0 0 73.28 84">
	<defs>
		<style>
			.cls-1{fill:#ffbd56;}.cls-1,.cls-2,.cls-3,.cls-4,.cls-5,.cls-6{stroke:#262626;stroke-linejoin:round;}.cls-1,.cls-3,.cls-4,.cls-5{stroke-linecap:round;}.cls-1,.cls-2,.cls-3{stroke-width:4px;}.cls-2,.cls-6{fill:#da85e3;stroke-linecap:square;}.cls-3,.cls-5{fill:#4a46c8;}.cls-4,.cls-5,.cls-6{stroke-width:2px;}
		</style>
	</defs>
	<g id="Layer_6_copy" data-name="Layer 6 copy">
		<polygon class="hB4" points="2 22 2 62 36.64 42 36.64 2 2 22" />
		<polygon class="hD4" points="71.28 62 36.64 42 2 62 36.64 82 71.28 62" />
		<polygon class="hC4" points="71.28 22 36.64 2 36.64 42 71.28 62 71.28 22" />
		<path class="hblk" d="M16.54,40.6c3.38,2,8.87-1.21,12.25-7.07A17.44,17.44,0,0,0,31.32,25h0V5L14,15V35h0C14,37.55,14.85,39.63,16.54,40.6Z" transform="translate(-3.36 2)" />
		<path class="hC" d="M19.8,38.07v.27h0A9.33,9.33,0,0,0,20.17,41a4.88,4.88,0,0,1-3.63-.41C14.85,39.63,14,37.55,14,35h0V15l5.79,3.34Z" transform="translate(-3.36 2)" />
		<polygon class="hD" points="10.66 17 27.98 7 27.97 13.67 16.43 20.33 10.66 17" />
	</g>
</svg>
