<svg xmlns="http://www.w3.org/2000/svg" viewBox="0 0 73.28 84">
	<defs>
		<style>
			.cls-1{fill:#ffbd56;}.cls-1,.cls-2,.cls-3,.cls-4,.cls-5{stroke:#262626;stroke-linejoin:round;}.cls-1,.cls-3,.cls-4,.cls-5{stroke-linecap:round;}.cls-1,.cls-2,.cls-3{stroke-width:4px;}.cls-2{fill:#da85e3;stroke-linecap:square;}.cls-3,.cls-5{fill:#4a46c8;}.cls-4,.cls-5{stroke-width:2px;}
		</style>
	</defs>
	<g id="Layer_6_copy" data-name="Layer 6 copy">
		<polygon class="hB" points="2 22 2 62 36.64 42 36.64 2 2 22" />
		<polygon class="hD" points="71.28 62 36.64 42 2 62 36.64 82 71.28 62" />
		<polygon class="hC" points="71.28 22 36.64 2 36.64 42 71.28 62 71.28 22" />
		<path class="hblk" d="M52.19,60c0,3.91-5.48,7.08-12.25,7.08A17.55,17.55,0,0,1,31.27,65h0l0,0L14,55,31.27,45l17.1,9.86.23.14h0C50.81,56.28,52.19,58,52.19,60Z" transform="translate(-3.36 2)" />
		<path class="hC" d="M36.69,61.44h0a17.66,17.66,0,0,0,8.67,2.08,19.7,19.7,0,0,0,5.94-.89c-1.81,2.6-6.21,4.44-11.36,4.44A17.55,17.55,0,0,1,31.27,65h0l0,0L14,55l5.78-3.34,16.92,9.76Z" transform="translate(-3.36 2)" />
	</g>
</svg>
