<svg xmlns="http://www.w3.org/2000/svg" viewBox="0 0 73.28 84">
	<defs>
		<style>
			.cls-1{fill:#ffbd56;}.cls-1,.cls-2,.cls-3,.cls-4,.cls-5{stroke:#262626;stroke-linejoin:round;}.cls-1,.cls-3,.cls-4{stroke-linecap:round;}.cls-1,.cls-2,.cls-3{stroke-width:4px;}.cls-2,.cls-5{fill:#da85e3;stroke-linecap:square;}.cls-3{fill:#4a46c8;}.cls-4,.cls-5{stroke-width:2px;}
		</style>
	</defs>
	<g id="Layer_6_copy" data-name="Layer 6 copy">
		<polygon class="hB4" points="2 22 2 62 36.64 42 36.64 2 2 22" />
		<polygon class="hD4" points="71.28 62 36.64 42 2 62 36.64 82 71.28 62" />
		<polygon class="hC4" points="71.28 22 36.64 2 36.64 42 71.28 62 71.28 22" />
		<path class="hblk4" d="M16.58,40.61c-3.39-2-3.39-8.29,0-14.15A17.61,17.61,0,0,1,22.71,20h0L40,10V30L22.93,39.86,22.7,40h0C20.48,41.27,18.27,41.58,16.58,40.61Z" transform="translate(-3.36 2)" />
		<path class="hD" d="M23.08,26.46h0a17.57,17.57,0,0,0-6.14,6.47,19.49,19.49,0,0,0-2.2,5.59c-1.35-2.87-.74-7.6,1.83-12.06A17.61,17.61,0,0,1,22.71,20h0L40,10v6.67L23.1,26.45Z" transform="translate(-3.36 2)" />
	</g>
</svg>
