<svg xmlns="http://www.w3.org/2000/svg" viewBox="0 0 73.28 84">
	<defs>
		<style>
			.cls-1,.cls-6{fill:#ffbd56;}.cls-1,.cls-2,.cls-3,.cls-4,.cls-5,.cls-6{stroke:#262626;stroke-linejoin:round;}.cls-1,.cls-3,.cls-4,.cls-6{stroke-linecap:round;}.cls-1,.cls-2,.cls-3{stroke-width:4px;}.cls-2,.cls-5{fill:#da85e3;stroke-linecap:square;}.cls-3{fill:#4a46c8;}.cls-4,.cls-5,.cls-6{stroke-width:2px;}
		</style>
	</defs>
	<g id="Layer_6_copy" data-name="Layer 6 copy">
		<polygon id="hB" class="hB" points="2 22 2 62 36.64 42 36.64 2 2 22" />
		<polygon id="hD" class="hD" points="71.28 62 36.64 42 2 62 36.64 82 71.28 62" />
		<polygon id="hC" class="hC" points="71.28 22 36.64 2 36.64 42 71.28 62 71.28 22" />
		<path class="hblk" d="M51.19,19.49c-3.39,2-3.39,8.29,0,14.14a17.65,17.65,0,0,0,6.14,6.47h0l0,0,17.28,10v-20L57.54,20.24l-.23-.14h0C55.09,18.83,52.88,18.51,51.19,19.49Z" transform="translate(-3.36 2)" />
		<path class="hD" d="M51.75,23.58l-.23-.14h0a9.16,9.16,0,0,0-2.5-1,4.91,4.91,0,0,1,2.17-2.94c1.69-1,3.9-.66,6.12.62h0l.23.14,17.08,9.87-5.78,3.34Z" transform="translate(-3.36 2)" />
		<polygon class="hB" points="71.26 32.11 71.26 52.11 65.49 48.83 65.49 35.44 71.26 32.11" />
	</g>
</svg>
