<svg xmlns="http://www.w3.org/2000/svg" viewBox="0 0 73.28 84">
	<defs>
		<style>
			.cls-1,.cls-6{fill:#ffbd56;}.cls-1,.cls-2,.cls-3,.cls-4,.cls-5,.cls-6{stroke:#262626;stroke-linejoin:round;}.cls-1,.cls-3,.cls-4,.cls-5,.cls-6{stroke-linecap:round;}.cls-1,.cls-2,.cls-3{stroke-width:4px;}.cls-2{fill:#da85e3;stroke-linecap:square;}.cls-3,.cls-5{fill:#4a46c8;}.cls-4,.cls-5,.cls-6{stroke-width:2px;}
		</style>
	</defs>
	<g id="Layer_6_copy" data-name="Layer 6 copy">
		<polygon class="hB" points="2 22 2 62 36.64 42 36.64 2 2 22" />
		<polygon class="hD" points="71.28 62 36.64 42 2 62 36.64 82 71.28 62" />
		<polygon class="hC" points="71.28 22 36.64 2 36.64 42 71.28 62 71.28 22" />
		<path class="hblk" d="M27.7,60c0-3.91,5.48-7.08,12.25-7.08A17.51,17.51,0,0,1,48.61,55h0l0,0L65.93,65,48.62,75l-17.1-9.86L31.29,65h0C29.08,63.72,27.7,62,27.7,60Z" transform="translate(-3.36 2)" />
		<path class="hC5" d="M31.52,58.46l-.23-.14h0a9.21,9.21,0,0,1-2.14-1.66A4.92,4.92,0,0,0,27.7,60c0,2,1.38,3.71,3.6,5h0l.23.14L48.62,75V68.31Z" transform="translate(-3.36 2)" />
		<polygon class="hB" points="45.25 77 62.57 67 57.45 64.05 45.25 70.33 45.25 77" />
	</g>
</svg>
