<svg xmlns="http://www.w3.org/2000/svg" viewBox="0 0 69.28 80">
	<defs>
		<style>
			.cls-1{fill:#e82f11;}.cls-2{fill:#4723ce;}.cls-3{fill:#310733;}
		</style>
	</defs>
	<g id="D">
		<polyline class="hD" points="34.64 40 0 60 34.64 80 69.28 60 34.64 40" />
		<polygon class="hC" points="69.28 20 34.64 0 34.64 40 69.28 60 69.28 20" />
		<path class="hB" d="M5.36,20V60L40,40V0ZM27,37.5,9.68,47.5v-15L31.36,20a6.29,6.29,0,0,1,3.38-.88h0a6.35,6.35,0,0,1,.92,3.39C35.66,28.09,31.15,35.11,27,37.5Z" transform="translate(-5.36)" />
		<path class="hD" d="M31.36,20a6.29,6.29,0,0,1,3.38-.88h0a5.28,5.28,0,0,0-4.33-2.49,6.35,6.35,0,0,0-3.39.88L5.36,30l4.32,2.49Z" transform="translate(-5.36)" />
		<polygon class="hC" points="4.32 47.46 4.32 32.5 0 30.01 0 44.97 0 49.99 4.32 47.49 4.32 47.46" />
	</g>
</svg>
