<svg xmlns="http://www.w3.org/2000/svg" viewBox="0 0 69.28 80">
	<defs>
		<style>
			.cls-1{fill:#e82f11;}.cls-2{fill:#310733;}.cls-3{fill:#4723ce;}
		</style>
	</defs>
	<g id="D">
        <polyline class="hD" points="34.64 40 0 60 34.64 80 69.28 60 34.64 40" />
		<polygon  class="hB" points="34.64 0 34.64 40 0 60 0 20 34.64 0" />
		<path class="hC" d="M74.64,20,40,0V40l8.67,5V20.1a6.28,6.28,0,0,1,.93-3.37,5.26,5.26,0,0,1,4.32-2.5,6.22,6.22,0,0,1,3.4.89c4.82,2.8,8.65,10.22,8.65,15V55l8.67,5Z" transform="translate(-5.36)" />
		<path class="hB" d="M49.59,16.74a6.29,6.29,0,0,1,3.39.9c4.82,2.8,8.66,10.22,8.66,15l-.11,19.9L66,55.1v-25c0-4.78-3.84-12.2-8.66-15a6.29,6.29,0,0,0-3.39-.9,5.27,5.27,0,0,0-4.34,2.5Z" transform="translate(-5.36)" />
	</g>
</svg>
