<svg xmlns="http://www.w3.org/2000/svg" viewBox="0 0 69.28 80">
	<defs>
		<style>
			.cls-1{fill:#e82f11;}.cls-2{fill:#4723ce;}.cls-3{fill:#310733;}
		</style>
	</defs>
	<g id="D">
        <polyline class="hD" points="34.64 40 0 60 34.64 80 69.28 60 34.64 40" />
		<polygon class="hC" points="69.28 20 34.64 0 34.64 40 69.28 60 69.28 20" />
		<path class="hB" d="M5.36,20V60L40,40V0ZM22.68,45a6.32,6.32,0,0,1-3.4.9h0a6.32,6.32,0,0,1-.93-3.38v-25l13-7.48,0,0V30C31.33,34.78,27.5,42.19,22.68,45Z" transform="translate(-5.36)" />
		<polygon class="hD" points="25.95 10.01 12.99 17.49 8.67 14.99 21.63 7.51 25.97 5 25.97 9.99 25.95 10.01" />
		<path class="hC" d="M18.35,42.51a6.32,6.32,0,0,0,.93,3.38h0A5.31,5.31,0,0,1,15,43.39,6.32,6.32,0,0,1,14,40V15l4.32,2.5Z" transform="translate(-5.36)" />
	</g>
</svg>
