<svg xmlns="http://www.w3.org/2000/svg" viewBox="0 0 69.28 80">
	<defs>
		<style>
			.cls-1{fill:#310733;}.cls-2{fill:#4723ce;}.cls-3{fill:#e82f11;}
		</style>
	</defs>
	<g id="hB">
		<polygon  class="hB" points="34.64 0 34.64 40 0 60 0 20 34.64 0" />
		<polygon  class="hC" points="69.28 20 34.64 0 34.64 40 69.28 60 69.28 20" />
		<path id="hD" class="hD" d="M40,40,5.36,60,40,80,74.64,60ZM27,57.47A6.35,6.35,0,0,1,24.53,55,6.3,6.3,0,0,1,27,52.5c4.84-2.78,13.18-2.39,17.32,0l17.29,10L48.64,70Z" transform="translate(-5.36 0)" />
		<polygon class="hB" points="56.29 67.5 60.62 65 56.28 62.49 43.3 69.98 43.3 75 56.29 67.5" />
		<path  class="hC" d="M24.53,60A6.31,6.31,0,0,0,27,62.49L48.66,75V70L27,57.47A6.35,6.35,0,0,1,24.53,55,5.3,5.3,0,0,0,24.53,60Z" transform="translate(-5.36 0)" />
	</g>
</svg>
