<svg xmlns="http://www.w3.org/2000/svg" viewBox="0 0 69.28 80">
	<defs>
		<style>
			.cls-1{fill:#e82f11;}.cls-2{fill:#310733;}.cls-3{fill:#4723ce;}
		</style>
	</defs>
	<g id="D">
        <polyline class="hD" points="34.64 40 0 60 34.64 80 69.28 60 34.64 40" />
		<polygon  class="hB" points="34.64 0 34.64 40 0 60 0 20 34.64 0" />
		<path class="hC" d="M40,0V40L74.64,60V20ZM70.32,47.44v0L53,37.47c-4.14-2.39-8.64-9.41-8.66-15a6.3,6.3,0,0,1,.92-3.39h0a6.21,6.21,0,0,1,3.38.88L70.32,32.48Z" transform="translate(-5.36)" />
		<polygon class="hB" points="64.96 47.44 64.96 32.48 69.28 29.99 69.28 44.95 69.28 49.97 64.96 47.47 64.96 47.44" />
		<path class="hD" d="M48.64,20a6.21,6.21,0,0,0-3.38-.88h0a5.27,5.27,0,0,1,4.33-2.49,6.26,6.26,0,0,1,3.39.88L74.64,30l-4.32,2.49Z" transform="translate(-5.36)" />
	</g>
</svg>
