<svg xmlns="http://www.w3.org/2000/svg" viewBox="0 0 69.28 80">
	<defs>
		<style>
			.cls-1{fill:#e82f11;}.cls-2{fill:#4723ce;}.cls-3{fill:#310733;}
		</style>
	</defs>
	<g id="D">
		<polyline class="hD" points="34.64 40 0 60 34.64 80 69.28 60 34.64 40" />
		<polygon class="hC" points="69.28 20 34.64 0 34.64 40 69.28 60 69.28 20" />
		<path class="hB" d="M5.36,20V60L40,40V0ZM32.64,44.18l-13,7.48-4.34,2.5v-25c0-4.77,3.83-12.19,8.65-15a6.32,6.32,0,0,1,3.4-.9,5.29,5.29,0,0,1,4.32,2.51,6.26,6.26,0,0,1,.93,3.37Z" transform="translate(-5.36)" />
		<path class="hC" d="M31.73,15.79a6.3,6.3,0,0,0-3.4.9c-4.82,2.8-8.66,10.22-8.66,15l.12,19.89-4.45,2.57v-25c0-4.78,3.84-12.2,8.66-15a6.3,6.3,0,0,1,3.4-.9,5.28,5.28,0,0,1,4.34,2.5Z" transform="translate(-5.36)" />
	</g>
</svg>
