<svg xmlns="http://www.w3.org/2000/svg" viewBox="0 0 69.28 80">
	<defs>
		<style>
			.cls-1{fill:#e82f11;}.cls-2{fill:#4723ce;}.cls-3{fill:#310733;}
		</style>
	</defs>
	<g id="D">
		<polyline class="hD" points="34.64 40 0 60 34.64 80 69.28 60 34.64 40" />
		<polygon class="hC" points="69.28 20 34.64 0 34.64 40 69.28 60 69.28 20" />
		<path class="hB" d="M14.94,43.37a5.28,5.28,0,0,1-4.33-2.49,6.35,6.35,0,0,1-.92-3.39c0-5.58,4.52-12.6,8.66-15l17.33-10L40,10V0L5.36,20V60L40,40V30L18.33,42.49A6.35,6.35,0,0,1,14.94,43.37Z" transform="translate(-5.36)" />
		<path class="hD" d="M15,43.37A6.26,6.26,0,0,1,14,40c0-5.58,4.52-12.61,8.66-15L40,15.13V10l-4.31,2.49-17.3,10c-4.14,2.39-8.65,9.42-8.66,15a6.26,6.26,0,0,0,.91,3.39A5.31,5.31,0,0,0,15,43.38Z" transform="translate(-5.36)" />
	</g>
</svg>
