<svg xmlns="http://www.w3.org/2000/svg" viewBox="0 0 69.28 80">
	<defs>
		<style>
			.cls-1{fill:#e82f11;}.cls-2{fill:#310733;}.cls-3{fill:#4723ce;}
		</style>
	</defs>
	<g id="D">
        <polyline class="hD" points="34.64 40 0 60 34.64 80 69.28 60 34.64 40" />
		<polygon  class="hB" points="34.64 0 34.64 40 0 60 0 20 34.64 0" />
		<path class="hC" d="M40,0V10l4.32,2.5,17.33,10c4.13,2.39,8.64,9.41,8.66,15a6.35,6.35,0,0,1-.92,3.39,5.29,5.29,0,0,1-4.34,2.49,6.29,6.29,0,0,1-3.38-.88L40,30V40L74.64,60V20Z" transform="translate(-5.36)" />
		<path class="hD" d="M65,43.38A6.35,6.35,0,0,0,66,40c0-5.58-4.53-12.61-8.66-15L40,15.14V10l4.31,2.49,17.31,10c4.13,2.39,8.64,9.42,8.66,15a6.35,6.35,0,0,1-.92,3.39A5.3,5.3,0,0,1,65,43.39Z" transform="translate(-5.36)" />
	</g>
</svg>
