<svg xmlns="http://www.w3.org/2000/svg" viewBox="0 0 69.28 80">
	<defs>
		<style>
			.cls-1{fill:#310733;}.cls-2{fill:#4723ce;}.cls-3{fill:#e82f11;}
		</style>
	</defs>
	<g id="hB">
        <polygon  class="hB" points="34.64 0 34.64 40 0 60 0 20 34.64 0" />
		<polygon  class="hC" points="69.28 20 34.64 0 34.64 40 69.28 60 69.28 20" />
		<path class="hD" d="M40,40l-7.41,4.28L54.23,56.77a6.31,6.31,0,0,1,2.46,2.49h0a6.43,6.43,0,0,1-2.48,2.49h0c-4.84,2.76-13.18,2.37-17.31,0l-13-7.49h0L19.6,51.78h0l-4.33,2.5,0,0L5.36,60,40,80,74.64,60Z" transform="translate(-5.36 0)" />
		<path class="hC" d="M56.69,59.27a6.43,6.43,0,0,1-2.48,2.49c-4.83,2.77-13.18,2.39-17.32,0l-17.31-10h0l-4.33,2.5,4.34,2.51,17.31,10c4.14,2.39,12.49,2.77,17.32,0a6.43,6.43,0,0,0,2.48-2.49,5.3,5.3,0,0,0,0-5Z" transform="translate(-5.36 0)" />
	</g>
</svg>
