<?xml version="1.0" encoding="utf-8"?>
<!-- Generator: Adobe Illustrator 24.2.0, SVG Export Plug-In . SVG Version: 6.00 Build 0)  -->
<svg version="1.1" id="Layer_1" xmlns="http://www.w3.org/2000/svg" xmlns:xlink="http://www.w3.org/1999/xlink" x="0px" y="0px"
	 viewBox="0 0 69.3 80" style="enable-background:new 0 0 69.3 80;" xml:space="preserve">
<style type="text/css">
	.st0{fill:#310733;}
	.st1{fill:#E82F11;}
	.st2{fill:#4723CE;}
	.st3{fill:#160A20;}
</style>
<g id="B">
	<polygon class="hB" points="0,20 0,60 34.6,80 34.6,40"/>

	<polygon  class="hC" points="69.3,20 34.6,40 34.6,80 69.3,60"/>

	<polygon class="hA" points="69.3,20 34.6,40 0,20 34.6,0"/>
	<path  class="hAsh" d="M39,12.5c-4.1-2.4-12.5-2.8-17.3,0c-2.7,1.3-3.9,4.6-2.5,7.4c0,0,0,0.1,0,0.1c0.6-1,1.4-1.9,2.4-2.5
		c4.8-2.8,13.2-2.4,17.3,0l17.3,10l4.4-2.5L39,12.5z"/>
	<path class="hblk" d="M21.6,17.5c-1,0.6-1.9,1.4-2.4,2.5c0.6,1.1,1.4,1.9,2.4,2.5L43.3,35l13-7.5L39,17.5
		C34.8,15.1,26.5,14.8,21.6,17.5z"/>
</g>
</svg>
