<svg xmlns="http://www.w3.org/2000/svg" viewBox="0 0 69.28 80">
	<defs>
		<style>
			.cls-1{fill:#310733;}.cls-2{fill:#4723ce;}.cls-3{fill:#e82f11;}
		</style>
	</defs>
	<g id="hB">
		<polygon  class="hB" points="34.64 0 34.64 40 0 60 0 20 34.64 0" />
		<polygon  class="hC" points="69.28 20 34.64 0 34.64 40 69.28 60 69.28 20" />
		<path class="hD" d="M40,40l7.41,4.28L25.77,56.77a6.31,6.31,0,0,0-2.46,2.49h0a6.43,6.43,0,0,0,2.48,2.49h0c4.84,2.76,13.18,2.37,17.31,0l17.17-10,4.45,2.57h0L74.64,60,40,80,5.36,60Z" transform="translate(-5.36 0)" />
		<path class="hB" d="M23.31,59.27a6.43,6.43,0,0,0,2.48,2.49c4.83,2.77,13.18,2.39,17.32,0l17.17-10,4.45,2.57-4.31,2.49-17.31,10c-4.14,2.39-12.49,2.77-17.32,0a6.43,6.43,0,0,1-2.48-2.49,5.3,5.3,0,0,1,0-5Z" transform="translate(-5.36 0)" />
	</g>
</svg>
