<svg xmlns="http://www.w3.org/2000/svg" viewBox="0 0 69.28 80">
	<defs>
		<style>
			.cls-1{fill:#310733;}.cls-2{fill:#4723ce;}.cls-3{fill:#e82f11;}
		</style>
	</defs>
	<g id="hB">
        <polygon  class="hB" points="34.64 0 34.64 40 0 60 0 20 34.64 0" />
		<polygon  class="hC" points="69.28 20 34.64 0 34.64 40 69.28 60 69.28 20" />
		<path class="hD" d="M40,40,5.36,60,40,80,74.64,60ZM53,57.47,31.36,70l-13-7.49,17.29-10c4.14-2.39,12.48-2.78,17.32,0A6.3,6.3,0,0,1,55.47,55,6.35,6.35,0,0,1,53,57.47Z" transform="translate(-5.36 0)" />
		<polygon class="hC" points="12.99 67.5 8.66 65 13.01 62.49 25.98 69.98 25.98 75 12.99 67.5" />
		<path class="hB" d="M55.47,60A6.31,6.31,0,0,1,53,62.49L31.34,75V70L53,57.47A6.35,6.35,0,0,0,55.47,55,5.3,5.3,0,0,1,55.47,60Z" transform="translate(-5.36 0)" />
	</g>
</svg>
