<?xml version="1.0" encoding="UTF-8" standalone="no"?>
<svg height="100%" stroke-miterlimit="10" style="fill-rule:nonzero;clip-rule:evenodd;stroke-linecap:round;stroke-linejoin:round;" version="1.1" viewBox="0 0 2400 2400" width="100%" xml:space="preserve" xmlns="http://www.w3.org/2000/svg" xmlns:vectornator="http://vectornator.io" xmlns:xlink="http://www.w3.org/1999/xlink">
	<metadata>
		<setting key="IsTimeLapseWatermarkDisabled" value="false" />
		<setting key="UndoHistoryDisabled" value="true" />
		<setting key="VNDimensionsVisible" value="true" />
		<setting key="VNSnapToGuides" value="true" />
		<setting key="WDCMYKEnabledKey" value="false" />
		<setting key="WDDisplayWhiteBackground" value="false" />
		<setting key="WDDynamicGuides" value="false" />
		<setting key="WDGuidesVisible" value="true" />
		<setting key="WDIsolateActiveLayer" value="false" />
		<setting key="WDOutlineMode" value="false" />
		<setting key="WDRulersVisible" value="true" />
		<setting key="WDSnapToEdges" value="false" />
		<setting key="WDSnapToGrid" value="false" />
		<setting key="WDSnapToPoints" value="false" />
		<setting key="WDUnits" value="Pixels" />
	</metadata>
	<defs>
		<clipPath id="TextBounds">
			<rect height="1.58076" width="21.2" x="1154.99" y="2205.68" />
		</clipPath>
	
	</defs>
	<g id="BG" vectornator:layerName="BG">
		<path d="M-49.6767-23.9134L2426.55-23.9134L2426.55 2443.71L-49.6767 2443.71L-49.6767-23.9134Z" fill="#324de7" fill-rule="evenodd" opacity="1" stroke="#000000" stroke-linecap="round" stroke-linejoin="round" stroke-width="10" />
	</g>
	<g id="Body" vectornator:layerName="Body">
		<path d="M1001.83 713.594C1136.33 665.497 1335.79 735.625 1370.92 913.788C1406.05 1091.95 1319.48 1317.79 1319.48 1317.79L1436.16 1494.7C1436.16 1494.7 1611.26 1502.48 1796.51 1563.28C1796.51 1563.28 2083.96 1507.74 2122.35 1828.34C2142.91 2000.01 2142.91 2036 2142.91 2036L2224.4 2491.68L1933.02 2497.02L1893.02 2266.02L1840.02 2504.02L902.097 2493.62L889.188 2401.97C889.188 2401.97 775.585 2116.67 814.313 2052.12C853.042 1987.58 976.972 1883.01 976.972 1883.01C976.972 1883.01 1066.05 1734.55 1137.05 1658.39L1089.28 1575.77C1089.28 1575.77 1043.32 1620.52 1020.77 1631.27C1004.9 1638.83 870.55 1548.25 791.298 1463.51C712.045 1378.76 730.267 1268.47 731.592 1218.88L725.27 1175.06C725.27 1175.06 553.006 874.092 1001.83 713.594Z" fill="#ff0000" fill-rule="evenodd" opacity="1" stroke="#000000" stroke-linecap="round" stroke-linejoin="round" stroke-width="15" />
		<path d="M1893.09 2269.75C1893.09 2269.75 1856.78 2139.65 1849.22 2123.01L1797.78 2054.93" fill="none" fill-rule="evenodd" opacity="1" stroke="#000000" stroke-linecap="round" stroke-linejoin="round" stroke-width="10" />
		<path d="M1005.93 2241.34L1048.4 2293.55C1048.4 2293.55 1080.25 2432.45 1095.29 2491.73" fill="none" fill-rule="evenodd" opacity="1" stroke="#000000" stroke-linecap="round" stroke-linejoin="round" stroke-width="10" />
		<path d="M1089.04 1576.42C1089.04 1576.42 1233.61 1424.71 1246.05 1409.16C1258.48 1393.62 1279.79 1373.95 1282.54 1319.24C1282.54 1319.24 1286.69 1427.7 1273.77 1464.84C1260.86 1501.97 1184.92 1628.43 1140.19 1662.89L1089.04 1576.42Z" fill="#000000" fill-rule="evenodd" opacity="1" stroke="#000000" stroke-linecap="round" stroke-linejoin="round" stroke-width="15" />
		<path d="M1020.28 1861.04C1020.28 1861.04 1163.58 1842.87 1178.96 1841.47C1194.34 1840.07 1209.71 1824 1225.79 1833.08C1241.87 1842.17 1258.65 1852.66 1258.65 1852.66" fill="#ab7070" fill-opacity="0" fill-rule="evenodd" opacity="1" stroke="#000000" stroke-linecap="round" stroke-linejoin="round" stroke-width="5" />
		<path d="M1339.73 1817.71C1339.73 1817.71 1348.82 1774.37 1366.29 1765.28C1383.77 1756.19 1402.64 1752.7 1402.64 1752.7C1402.64 1752.7 1524.16 1665.58 1685.96 1602.64" fill="#ab7070" fill-opacity="0" fill-rule="evenodd" opacity="1" stroke="#000000" stroke-linecap="round" stroke-linejoin="round" stroke-width="5" />
		<path d="M1136.53 1658.37C1136.53 1658.37 1177.76 1728.41 1216.5 1782.55" fill="#ab7070" fill-opacity="0" fill-rule="evenodd" opacity="1" stroke="#000000" stroke-linecap="round" stroke-linejoin="round" stroke-width="15" />
		<path d="M827.44 1190.41L845.203 1234.35C845.203 1234.35 828.096 1303.33 820.255 1321.49C812.414 1339.65 804.458 1355.43 804.458 1355.43C804.458 1355.43 831.371 1375.32 857.699 1384.68" fill="#ab7070" fill-opacity="0" fill-rule="evenodd" opacity="1" stroke="#000000" stroke-linecap="round" stroke-linejoin="round" stroke-width="10" />
		<path d="M926.061 1207.86C926.061 1207.86 925.722 1233.3 927.757 1242.79C929.791 1252.29 979.304 1279.42 979.304 1279.42" fill="#f4eee0" fill-opacity="0" fill-rule="evenodd" opacity="1" stroke="#000000" stroke-linecap="round" stroke-linejoin="round" stroke-width="5" />
		<path d="M800.583 1294L833.818 1270.94" fill="#f4eee0" fill-opacity="0" fill-rule="evenodd" opacity="1" stroke="#000000" stroke-linecap="round" stroke-linejoin="round" stroke-width="5" />
		<path d="M1296.15 1243.93C1296.15 1243.93 1302.77 1273.89 1329.23 1285.18L1346.74 1228.75C1346.74 1228.75 1332.34 1260.66 1296.15 1243.93Z" fill="#000000" fill-rule="evenodd" opacity="1" stroke="#000000" stroke-linecap="round" stroke-linejoin="round" stroke-width="10" />
		<path d="M839.562 1377.07L899.847 1372.41C899.847 1372.41 902.004 1400.99 886.937 1405.49C871.869 1409.98 839.562 1377.07 839.562 1377.07Z" fill="#000000" fill-rule="evenodd" opacity="1" stroke="#000000" stroke-linecap="round" stroke-linejoin="round" stroke-width="10" />
	</g>
	<g id="Mouth" vectornator:layerName="Mouth">
		<path d="M871.027 1460.56C871.027 1460.56 947.89 1443.93 1083.83 1356.17" fill="#ff0000" fill-opacity="0" fill-rule="evenodd" opacity="1" stroke="#000000" stroke-linecap="round" stroke-linejoin="round" stroke-width="10" />
		<path d="M927.429 1478.07C927.429 1478.07 958.555 1465.75 983.845 1450.84" fill="#ff0000" fill-opacity="0" fill-rule="evenodd" opacity="1" stroke="#000000" stroke-linecap="round" stroke-linejoin="round" stroke-width="5" />
	</g>
	<g id="Eyes" vectornator:layerName="Eyes">
		<path d="M959.599 1182.15C959.599 1182.15 1042.93 1112.71 1052.54 1108.44C1062.16 1104.16 1135.34 1103.63 1135.34 1103.63C1135.34 1103.63 1118.78 1182.15 1100.62 1197.64C1082.46 1213.13 984.17 1222.75 971.884 1222.21L977.76 1168.8" fill="#f4eee0" fill-rule="evenodd" opacity="1" stroke="#000000" stroke-linecap="round" stroke-linejoin="round" stroke-width="10" />
		<path d="M749.674 1154.37C749.674 1154.37 801.488 1180.55 812.171 1193.9L839.413 1220.61L845.289 1235.03L836.208 1258.53C836.208 1258.53 786.937 1260.03 775.848 1252.12C764.759 1244.22 747.538 1196.04 742.196 1184.29L749.674 1154.37Z" fill="#f4eee0" fill-rule="evenodd" opacity="1" stroke="#000000" stroke-linecap="round" stroke-linejoin="round" stroke-width="10" />
		<path d="M966.352 1237.93C966.352 1237.93 1005.27 1238.55 1023.81 1234.84" fill="#f4eee0" fill-opacity="0" fill-rule="evenodd" opacity="1" stroke="#000000" stroke-linecap="round" stroke-linejoin="round" stroke-width="5" />
		<path d="M988.594 1140.94L1051.61 1093.98L1127.6 1092.13" fill="#f4eee0" fill-opacity="0" fill-rule="evenodd" opacity="1" stroke="#000000" stroke-linecap="round" stroke-linejoin="round" stroke-width="5" />
		<path d="M754.747 1139.5C763.329 1145.2 808.543 1176.09 808.543 1176.09L829.09 1195.52" fill="#f4eee0" fill-opacity="0" fill-rule="evenodd" opacity="1" stroke="#000000" stroke-linecap="round" stroke-linejoin="round" stroke-width="5" />
	</g>
	<g id="Pupils" vectornator:layerName="Pupils">
		<path d="M774.21 1167.42C774.21 1167.42 774.568 1214.02 788.19 1255.6C788.19 1255.6 826.546 1259.19 834.432 1258.47L842.677 1235.89L836.225 1215.81L801.812 1186.06L774.21 1167.42Z" fill="#000000" fill-rule="evenodd" opacity="1" stroke="#000000" stroke-linecap="round" stroke-linejoin="round" stroke-width="10" />
		<path d="M1015.94 1137.32C1015.94 1137.32 1015.49 1171.75 1031.57 1215.5C1031.57 1215.5 1087.47 1207.41 1097.4 1200.39C1107.33 1193.37 1121.39 1160.42 1125.77 1144.03C1130.15 1127.64 1134.7 1105.92 1134.7 1105.92L1054.14 1108.33L1015.94 1137.32Z" fill="#000000" fill-rule="evenodd" opacity="1" stroke="#000000" stroke-linecap="round" stroke-linejoin="round" stroke-width="10" />
	</g>
	<g id="Hair" vectornator:layerName="Hair">
		<path d="M715.844 1016.69C721.027 1009.89 726.279 1003.11 731.56 996.429" fill="#f4eee0" fill-rule="evenodd" opacity="1" stroke="#b1aca0" stroke-linecap="round" stroke-linejoin="round" stroke-width="10" />
		<path d="M691.843 1111.91C691.843 1111.91 774.095 925.594 785.642 913.415C785.642 913.415 766.539 1042.01 817.662 1118.97C817.662 1118.97 832.504 1060.7 847.896 1019.47C863.288 978.245 876.481 945.812 879.78 945.262C883.078 944.712 872.792 1006.14 905.09 1078.71C905.09 1078.71 936.813 921.724 982.906 870.74C982.906 870.74 987.991 913.384 1010.97 952.463C1010.97 952.463 1038.24 909.466 1072.18 872.177C1072.18 872.177 1073.76 872.958 1092.71 918.813C1111.67 964.669 1116.2 972.955 1141.19 1038.73C1166.19 1104.51 1181.36 1152.4 1195.45 1228.25C1195.45 1228.25 1217.24 1156.68 1209.84 1067.37L1252.62 1332.42C1252.62 1332.42 1297.3 1080.87 1293.65 1034.02L1307.9 1248.58C1307.9 1248.58 1306.41 1275.85 1319.22 1315.45C1319.22 1315.45 1342.69 1281.17 1355.85 1245.37C1388.17 1157.4 1430.44 1012.78 1435.14 973.868C1441.76 919.116 1362.34 756.064 1310.59 707.328C1310.59 707.328 1332.27 692.129 1341.92 671.097C1341.92 671.097 1307.45 681.785 1248.83 688.681C1248.83 688.681 1181.6 646.962 1133.68 604.899C1133.68 604.899 1134.71 628.689 1141.26 653.168C1141.26 653.168 1011.76 662.511 917.134 667.918C822.51 673.325 800.881 680.76 644.075 671.297C644.075 671.297 702.878 760.514 768.439 768.625C768.439 768.625 699.498 799.04 634.613 871.36C569.728 943.68 579.866 949.087 500.787 1011.94C500.787 1011.94 611.633 1053.17 663.676 1032.22C663.676 1032.22 631.137 1065.34 606.36 1155.81L694.361 1028.08C694.361 1028.08 674.13 1075.72 691.843 1111.91Z" fill="#f4eee0" fill-rule="evenodd" opacity="1" stroke="#d5cfc1" stroke-linecap="round" stroke-linejoin="round" stroke-width="15" />
		<path d="M917.396 1141.63C917.396 1141.63 914.005 1171.59 917.962 1199.86C917.962 1199.86 1063.59 1039.35 1058.16 1026.31C1052.5 1012.74 917.396 1141.63 917.396 1141.63Z" fill="#f4eee0" fill-rule="evenodd" opacity="1" stroke="#d5cfc1" stroke-linecap="round" stroke-linejoin="round" stroke-width="10" />
		<path d="M841.081 1204.94C841.081 1204.94 735.935 1112.23 733.109 1104.89C730.282 1097.54 820.73 1154.07 823.557 1159.72C826.383 1165.37 841.081 1204.94 841.081 1204.94Z" fill="#f4eee0" fill-rule="evenodd" opacity="1" stroke="#d5cfc1" stroke-linecap="round" stroke-linejoin="round" stroke-width="10" />
	</g>
	<g id="Ears" vectornator:layerName="Ears">
		<path d="M1290.09 1240.66C1290.09 1240.66 1304.92 1254.25 1324.69 1245.6C1344.46 1236.95 1374.52 1200.3 1374.52 1200.3C1374.52 1200.3 1401.3 1167.35 1414.89 1117.51C1428.48 1067.67 1437.28 1045.29 1429.38 1030.81C1415.67 1005.7 1402.55 982.93 1402.55 982.93C1402.55 982.93 1393.09 972.965 1381.04 975.46C1368.98 977.954 1317.43 1025.35 1317.43 1025.35L1294.56 1051.96" fill="#ff0000" fill-rule="evenodd" opacity="1" stroke="#000000" stroke-linecap="round" stroke-linejoin="round" stroke-width="15" />
		<path d="M1301.42 1190.25C1301.42 1190.25 1325.1 1169.76 1330.56 1159.29C1336.03 1148.81 1325.55 1134.24 1320.09 1128.78C1314.62 1123.31 1314.17 1102.36 1314.17 1102.36L1376.1 1019.94L1404.79 1047.72C1404.79 1047.72 1397.05 1086.88 1393.41 1101.45C1389.76 1116.02 1367.9 1151.09 1359.71 1159.74" fill="#ab7070" fill-opacity="0" fill-rule="evenodd" opacity="1" stroke="#000000" stroke-linecap="round" stroke-linejoin="round" stroke-width="5" />
		<path d="M1342.86 1069.12L1361.98 1078.68L1370.64 1058.19C1370.64 1058.19 1366.63 1037.24 1365.96 1033.48" fill="#ab7070" fill-opacity="0" fill-rule="evenodd" opacity="1" stroke="#000000" stroke-linecap="round" stroke-linejoin="round" stroke-width="5" />
		<path d="M1331.6 1081.18L1350.14 1113.75L1348.32 1142.44" fill="#ab7070" fill-opacity="0" fill-rule="evenodd" opacity="1" stroke="#000000" stroke-linecap="round" stroke-linejoin="round" stroke-width="5" />
	</g>
	<g id="Horns" vectornator:layerName="Horns">
		<path d="M725.217 1085.77C725.217 1085.77 613.461 1010.41 578.758 915.295C515.099 740.81 571.281 538.301 589.281 515.955C599.65 503.084 608.605 664.5 618.956 701.453C627.852 733.216 645.935 798.675 670.595 841.829C690.457 876.589 703.492 892.107 719.01 908.866C734.528 925.625 769.908 954.178 769.908 954.178" fill="#ff0000" fill-rule="evenodd" opacity="1" stroke="#000000" stroke-linecap="round" stroke-linejoin="round" stroke-width="15" />
		<path d="M955.333 1038.48C955.333 1038.48 913.82 907.214 911.275 808.239C908.73 709.264 929.411 632.634 942.275 593.239C955.138 553.844 992.398 452.337 1002.05 455.553C1011.69 458.769 1002.05 540.774 1008.48 606.7C1014.91 672.625 1015.8 703.666 1031.27 779.239C1046.75 854.813 1070.27 904.239 1070.27 904.239" fill="#ff0000" fill-rule="evenodd" opacity="1" stroke="#000000" stroke-linecap="round" stroke-linejoin="round" stroke-width="15" />
		<path d="M932.844 944.433C932.844 944.433 951.347 839.584 1026.13 747.842" fill="#f4eee0" fill-opacity="0" fill-rule="evenodd" opacity="1" stroke="#000000" stroke-linecap="round" stroke-linejoin="round" stroke-width="5" />
		<path d="M974.054 828.413C974.054 828.413 953.66 732.423 976.788 699.272C999.917 666.121 1004.54 639.138 1007.63 602.903" fill="#f4eee0" fill-opacity="0" fill-rule="evenodd" opacity="1" stroke="#000000" stroke-linecap="round" stroke-linejoin="round" stroke-width="5" />
		<path d="M919.738 686.937C919.738 686.937 958.285 663.808 958.285 550.479" fill="#f4eee0" fill-opacity="0" fill-rule="evenodd" opacity="1" stroke="#000000" stroke-linecap="round" stroke-linejoin="round" stroke-width="5" />
		<path d="M953.942 876.125C953.942 876.125 979.541 930.854 942.466 992.204" fill="#f4eee0" fill-opacity="0" fill-rule="evenodd" opacity="1" stroke="#000000" stroke-linecap="round" stroke-linejoin="round" stroke-width="5" />
		<path d="M667.36 1043.44C667.36 1043.44 613.101 942.904 613.101 841.568C613.101 841.568 554.853 769.755 553.257 669.217" fill="#f4eee0" fill-opacity="0" fill-rule="evenodd" opacity="1" stroke="#000000" stroke-linecap="round" stroke-linejoin="round" stroke-width="5" />
		<path d="M577.195 778.532C577.195 778.532 559.641 642.088 605.122 578.254" fill="#f4eee0" fill-opacity="0" fill-rule="evenodd" opacity="1" stroke="#000000" stroke-linecap="round" stroke-linejoin="round" stroke-width="5" />
		<path d="M692.75 879.66C692.75 879.66 695.911 953.4 719.086 979.208C719.086 979.208 745.948 960.773 764.383 949.186" fill="#f4eee0" fill-opacity="0" fill-rule="evenodd" opacity="1" stroke="#000000" stroke-linecap="round" stroke-linejoin="round" stroke-width="5" />
	</g>
	<g id="Top" vectornator:layerName="Top">
		<path d="M994.991 1625.03C994.991 1625.03 953.682 1667.41 921.535 1726.41C903.189 1760.08 972.876 1824.2 972.876 1824.2C972.876 1824.2 933.537 1851.12 961.236 1877.09C961.236 1877.09 803.482 1985.44 795.61 2062.27C787.738 2139.11 815.451 2230.86 850.569 2344.32C850.569 2344.32 819.997 2353.74 868.655 2414.87L880.055 2494.95L2251.82 2493.42L2190.9 2172.64C2190.9 2172.64 2200.4 2087.14 2171.22 2081.2C2171.22 2081.2 2133.13 1732.41 2071.41 1640.59C2019.58 1563.48 1800.19 1546.22 1800.19 1546.22C1800.19 1546.22 1825.38 1443.5 1806.28 1427.88C1787.18 1412.25 1675.2 1390.55 1675.2 1390.55C1675.2 1390.55 1614.29 1263.16 1595.17 1256.56C1576.04 1249.97 1449.78 1293.4 1352.82 1367.27C1352.82 1367.27 1434.01 1488.9 1437.47 1494.63C1437.47 1494.63 1491.09 1498.5 1505.19 1500.7C1505.19 1500.7 1471.82 1588.89 1432.45 1685.89C1383.92 1805.43 1326.25 1938.34 1310.67 1935.98C1277.67 1930.98 1138.18 1744.42 1118.2 1674.47L1136.46 1659.16L1088.83 1576.01C1088.83 1576.01 1026.62 1630.27 1018.86 1632.26C1012.9 1633.79 994.991 1625.03 994.991 1625.03Z" fill="#ffbf2a" fill-rule="evenodd" opacity="1" stroke="#000000" stroke-linecap="round" stroke-linejoin="round" stroke-width="15" />
		<path d="M1505 1506.88C1505 1506.88 1541.11 1419.62 1539.02 1409.51C1536.93 1399.39 1487.81 1409.33 1481.67 1410.66" fill="#2d2b27" fill-opacity="0" fill-rule="evenodd" opacity="1" stroke="#000000" stroke-linecap="round" stroke-linejoin="round" stroke-width="10" />
		<path d="M971.833 1820.02C971.833 1820.02 1035.7 1871.22 1107.13 1892.96" fill="#2d2b27" fill-opacity="0" fill-rule="evenodd" opacity="1" stroke="#000000" stroke-linecap="round" stroke-linejoin="round" stroke-width="10" />
		<path d="M1800.88 1547.04C1800.88 1547.04 1700.48 1551.06 1490.46 1824.13" fill="#2d2b27" fill-opacity="0" fill-rule="evenodd" opacity="1" stroke="#000000" stroke-linecap="round" stroke-linejoin="round" stroke-width="10" />
		<path d="M1777.27 2026.69C1784.03 2084.95 1843.4 2173.88 1843.4 2173.88C1843.4 2173.88 1892.28 2414.13 1913.31 2503.86" fill="#f4eee0" fill-opacity="0" fill-rule="evenodd" opacity="1" stroke="#000000" stroke-linecap="round" stroke-linejoin="round" stroke-width="10" />
		<path d="M958.548 2180.17C983.049 2241.42 1017.13 2281.08 1043.77 2307.72L1082.92 2494.15" fill="#f4eee0" fill-opacity="0" fill-rule="evenodd" opacity="1" stroke="#000000" stroke-linecap="round" stroke-linejoin="round" stroke-width="10" />
		<path d="M1844.78 2175.43C1844.78 2175.43 1933.98 1872.4 2082.03 1661.59" fill="#f4eee0" fill-opacity="0" fill-rule="evenodd" opacity="1" stroke="#000000" stroke-linecap="round" stroke-linejoin="round" stroke-width="5" />
		<path d="M798.642 2089.38C798.642 2089.38 849.207 2162.52 981.47 2266.56C999.975 2281.12 1020.11 2295.76 1041.95 2310.25" fill="#f4eee0" fill-opacity="0" fill-rule="evenodd" opacity="1" stroke="#000000" stroke-linecap="round" stroke-linejoin="round" stroke-width="5" />
		<g fill="#f4eee0" fill-opacity="0" opacity="1" stroke="none">
			<path clip-path="url(#TextBounds)" d="M1162.76 2216.7L1163.85 2216.7L1163.85 2216.76C1163.85 2217.12 1163.73 2217.48 1163.48 2217.85C1163.24 2218.23 1162.9 2218.5 1162.47 2218.67C1162.05 2218.85 1161.55 2218.94 1160.97 2218.94C1159.81 2218.94 1158.87 2218.53 1158.13 2217.73C1157.4 2216.92 1157.03 2215.72 1157.03 2214.11C1157.03 2212.51 1157.4 2211.31 1158.13 2210.5C1158.86 2209.69 1159.81 2209.29 1160.98 2209.29C1161.55 2209.29 1162.05 2209.38 1162.47 2209.55C1162.9 2209.72 1163.24 2210 1163.48 2210.38C1163.73 2210.75 1163.85 2211.12 1163.85 2211.46L1163.85 2211.52L1162.76 2211.52L1162.76 2211.46C1162.76 2211.24 1162.69 2211.03 1162.55 2210.82C1162.41 2210.61 1162.21 2210.46 1161.95 2210.36C1161.7 2210.25 1161.38 2210.2 1161.02 2210.2C1160.09 2210.2 1159.4 2210.57 1158.94 2211.3C1158.49 2212.04 1158.26 2212.97 1158.26 2214.11C1158.26 2215.26 1158.49 2216.2 1158.95 2216.93C1159.4 2217.66 1160.09 2218.03 1161.01 2218.03C1161.65 2218.03 1162.1 2217.89 1162.36 2217.63C1162.63 2217.37 1162.76 2217.08 1162.76 2216.76L1162.76 2216.7Z" fill-rule="evenodd" />
			<path clip-path="url(#TextBounds)" d="M1165.17 2218.66L1165.17 2209.56L1170.31 2209.56L1170.31 2210.57L1166.35 2210.57L1166.35 2213.43L1169.81 2213.43L1169.81 2214.34L1166.35 2214.34L1166.35 2217.66L1170.63 2217.66L1170.63 2218.66L1165.17 2218.66Z" fill-rule="evenodd" />
			<path clip-path="url(#TextBounds)" d="M1158.53 2235.18L1157.35 2235.18L1157.35 2226.08L1160.16 2226.08C1160.85 2226.08 1161.37 2226.18 1161.72 2226.38C1162.07 2226.58 1162.35 2226.87 1162.55 2227.25C1162.75 2227.62 1162.85 2228.03 1162.85 2228.47C1162.85 2228.83 1162.79 2229.17 1162.65 2229.5C1162.51 2229.82 1162.32 2230.12 1162.07 2230.38C1161.82 2230.64 1161.44 2230.88 1160.92 2231.09C1161.12 2231.19 1161.26 2231.3 1161.36 2231.4C1161.46 2231.5 1161.57 2231.65 1161.72 2231.87C1161.86 2232.09 1161.98 2232.3 1162.09 2232.49L1163.53 2235.18L1162.18 2235.18L1160.92 2232.79C1160.62 2232.21 1160.22 2231.7 1159.73 2231.27L1158.53 2231.27L1158.53 2235.18ZM1158.53 2230.36L1159.69 2230.36C1160.18 2230.36 1160.55 2230.28 1160.8 2230.13C1161.05 2229.98 1161.25 2229.76 1161.4 2229.48C1161.55 2229.19 1161.62 2228.88 1161.62 2228.55C1161.62 2228.27 1161.56 2228.01 1161.45 2227.79C1161.33 2227.56 1161.16 2227.38 1160.93 2227.23C1160.7 2227.07 1160.32 2227 1159.77 2227L1158.53 2227L1158.53 2230.36Z" fill-rule="evenodd" />
			<path clip-path="url(#TextBounds)" d="M1164.62 2235.18L1164.62 2226.08L1167.13 2226.08C1168.36 2226.08 1169.25 2226.25 1169.82 2226.58C1170.39 2226.91 1170.83 2227.42 1171.15 2228.1C1171.47 2228.78 1171.62 2229.61 1171.62 2230.59C1171.62 2231.51 1171.48 2232.31 1171.19 2232.98C1170.91 2233.65 1170.47 2234.19 1169.89 2234.58C1169.31 2234.98 1168.44 2235.18 1167.3 2235.18L1164.62 2235.18ZM1165.8 2234.17L1167.2 2234.17C1168.03 2234.17 1168.66 2234.05 1169.08 2233.81C1169.51 2233.56 1169.83 2233.18 1170.05 2232.66C1170.28 2232.14 1170.39 2231.48 1170.39 2230.7C1170.39 2229.91 1170.29 2229.23 1170.09 2228.66C1169.88 2228.09 1169.57 2227.67 1169.15 2227.4C1168.73 2227.13 1168.07 2227 1167.17 2227L1165.8 2227L1165.8 2234.17Z" fill-rule="evenodd" />
			<path clip-path="url(#TextBounds)" d="M1162.76 2249.74L1163.85 2249.74L1163.85 2249.8C1163.85 2250.16 1163.73 2250.52 1163.48 2250.89C1163.24 2251.26 1162.9 2251.54 1162.47 2251.71C1162.05 2251.89 1161.55 2251.97 1160.97 2251.97C1159.81 2251.97 1158.87 2251.57 1158.13 2250.77C1157.4 2249.96 1157.03 2248.76 1157.03 2247.15C1157.03 2245.55 1157.4 2244.35 1158.13 2243.54C1158.86 2242.73 1159.81 2242.33 1160.98 2242.33C1161.55 2242.33 1162.05 2242.41 1162.47 2242.59C1162.9 2242.76 1163.24 2243.04 1163.48 2243.41C1163.73 2243.79 1163.85 2244.15 1163.85 2244.5L1163.85 2244.56L1162.76 2244.56L1162.76 2244.5C1162.76 2244.28 1162.69 2244.06 1162.55 2243.86C1162.41 2243.65 1162.21 2243.5 1161.95 2243.39C1161.7 2243.29 1161.38 2243.24 1161.02 2243.24C1160.09 2243.24 1159.4 2243.61 1158.94 2244.34C1158.49 2245.08 1158.26 2246.01 1158.26 2247.15C1158.26 2248.3 1158.49 2249.24 1158.95 2249.97C1159.4 2250.7 1160.09 2251.06 1161.01 2251.06C1161.65 2251.06 1162.1 2250.93 1162.36 2250.67C1162.63 2250.41 1162.76 2250.12 1162.76 2249.8L1162.76 2249.74Z" fill-rule="evenodd" />
			<path clip-path="url(#TextBounds)" d="M1165.17 2251.7L1165.17 2242.6L1166.35 2242.6L1166.35 2250.69L1171.12 2250.69L1171.12 2251.7L1165.17 2251.7Z" fill-rule="evenodd" />
			<path clip-path="url(#TextBounds)" d="M1157.22 2259.12L1158.4 2259.12L1158.4 2264.97C1158.4 2265.82 1158.48 2266.39 1158.65 2266.68C1158.82 2266.97 1159.07 2267.19 1159.43 2267.35C1159.78 2267.5 1160.17 2267.58 1160.6 2267.58C1161.02 2267.58 1161.39 2267.5 1161.71 2267.35C1162.04 2267.19 1162.28 2266.95 1162.44 2266.62C1162.59 2266.29 1162.67 2265.6 1162.67 2264.55L1162.67 2259.12L1163.76 2259.12L1163.76 2264.86C1163.76 2265.92 1163.64 2266.67 1163.39 2267.1C1163.15 2267.53 1162.8 2267.87 1162.34 2268.12C1161.88 2268.37 1161.3 2268.49 1160.6 2268.49C1159.95 2268.49 1159.36 2268.39 1158.82 2268.19C1158.28 2267.99 1157.88 2267.68 1157.61 2267.26C1157.35 2266.84 1157.22 2266.13 1157.22 2265.13L1157.22 2259.12Z" fill-rule="evenodd" />
			<path clip-path="url(#TextBounds)" d="M1169.44 2263.43C1170.15 2263.61 1170.68 2263.9 1171 2264.32C1171.32 2264.74 1171.48 2265.21 1171.48 2265.73C1171.48 2266.16 1171.37 2266.57 1171.15 2266.96C1170.93 2267.34 1170.61 2267.64 1170.2 2267.87C1169.79 2268.1 1169.08 2268.21 1168.07 2268.21L1165.35 2268.21L1165.35 2259.12L1167.76 2259.12C1168.86 2259.12 1169.6 2259.2 1169.98 2259.36C1170.36 2259.52 1170.64 2259.75 1170.83 2260.06C1171.02 2260.37 1171.12 2260.71 1171.12 2261.09C1171.12 2261.5 1171 2261.91 1170.76 2262.33C1170.51 2262.74 1170.07 2263.11 1169.44 2263.43ZM1166.53 2263.08L1167.67 2263.08C1168.25 2263.08 1168.69 2263 1168.98 2262.84C1169.28 2262.69 1169.51 2262.46 1169.68 2262.17C1169.86 2261.88 1169.94 2261.58 1169.94 2261.27C1169.94 2260.93 1169.81 2260.64 1169.53 2260.4C1169.26 2260.16 1168.77 2260.04 1168.07 2260.04L1166.53 2260.04L1166.53 2263.08ZM1166.53 2267.31L1168.2 2267.31C1168.99 2267.31 1169.53 2267.16 1169.82 2266.86C1170.11 2266.57 1170.26 2266.22 1170.26 2265.82C1170.26 2265.49 1170.16 2265.2 1169.97 2264.92C1169.79 2264.65 1169.51 2264.43 1169.14 2264.25C1168.77 2264.08 1168.2 2263.99 1167.41 2263.99L1166.53 2263.99L1166.53 2267.31Z" fill-rule="evenodd" />
		</g>
		<g opacity="1">
			<path d="M1242.07 2246.79C1223.87 2251.32 1208.64 2250.01 1196.37 2242.88C1184.1 2235.75 1175.83 2222.7 1171.56 2203.74C1167.27 2184.67 1168.92 2169.13 1176.51 2157.12C1184.1 2145.1 1196.94 2136.85 1215.04 2132.35C1223.24 2130.31 1230.73 2129.36 1237.52 2129.49C1244.31 2129.62 1250.2 2130.72 1255.21 2132.77C1256.62 2133.45 1257.47 2134.37 1257.73 2135.56C1257.95 2136.53 1257.8 2137.99 1257.29 2139.93L1252.92 2155.7C1252.46 2157.4 1251.68 2158.39 1250.58 2158.67C1249.88 2158.84 1248.63 2158.7 1246.84 2158.23C1243.7 2157.42 1240.51 2156.96 1237.27 2156.86C1234.02 2156.75 1230.35 2157.21 1226.25 2158.23C1217.95 2160.29 1212.19 2164.46 1208.95 2170.72C1205.71 2176.99 1205.2 2185.02 1207.41 2194.83C1209.59 2204.52 1213.67 2211.39 1219.65 2215.42C1225.62 2219.45 1232.76 2220.44 1241.06 2218.37C1248.26 2216.59 1254.49 2213.33 1259.76 2208.6C1261.17 2207.35 1262.22 2206.63 1262.92 2206.45C1264.02 2206.18 1265.14 2206.7 1266.28 2208.01L1276.91 2220.04C1278.2 2221.54 1278.95 2222.78 1279.17 2223.75C1279.43 2224.93 1279.08 2226.16 1278.1 2227.43C1274.5 2231.62 1269.65 2235.39 1263.53 2238.73C1257.42 2242.07 1250.27 2244.75 1242.07 2246.79Z" fill="#000000" fill-rule="evenodd" opacity="1" stroke="none" />
			<path d="M1298.07 2230.31C1294.77 2231.13 1292.27 2230.96 1290.58 2229.78C1288.89 2228.61 1287.7 2226.46 1286.99 2223.34L1266.4 2131.87C1265.7 2128.74 1265.85 2126.26 1266.86 2124.41C1267.87 2122.57 1270.03 2121.24 1273.33 2120.42L1335.42 2104.98C1338.62 2104.19 1340.96 2104.37 1342.44 2105.54C1343.91 2106.71 1345.02 2108.91 1345.74 2112.14L1347.78 2121.19C1348.51 2124.43 1348.46 2126.91 1347.64 2128.65C1346.82 2130.39 1344.81 2131.66 1341.61 2132.46L1306.51 2141.18L1309.64 2155.08L1331.24 2149.71C1334.44 2148.91 1336.77 2149.1 1338.25 2150.27C1339.73 2151.44 1340.83 2153.64 1341.56 2156.87L1343.52 2165.6C1344.25 2168.83 1344.2 2171.32 1343.38 2173.06C1342.56 2174.8 1340.55 2176.06 1337.35 2176.86L1315.75 2182.23L1318.88 2196.13L1353.82 2187.44C1357.02 2186.64 1359.36 2186.83 1360.84 2188C1362.32 2189.17 1363.42 2191.37 1364.15 2194.6L1366.18 2203.65C1366.91 2206.88 1366.86 2209.37 1366.04 2211.11C1365.22 2212.85 1363.21 2214.12 1360.01 2214.91L1298.07 2230.31Z" fill="#000000" fill-rule="evenodd" opacity="1" stroke="none" />
			<path d="M1384.16 2208.91C1380.86 2209.73 1378.36 2209.55 1376.67 2208.38C1374.98 2207.21 1373.79 2205.06 1373.08 2201.94L1352.49 2110.47C1351.79 2107.34 1351.94 2104.86 1352.95 2103.01C1353.96 2101.17 1356.12 2099.84 1359.42 2099.02L1395.26 2090.11C1410.26 2086.38 1421.91 2086.87 1430.2 2091.57C1438.49 2096.28 1444.09 2105.1 1447 2118.03C1448.75 2125.79 1449 2132.64 1447.75 2138.58C1446.5 2144.52 1443.66 2149.63 1439.24 2153.92L1460.43 2182.61C1461.03 2183.37 1461.44 2184.29 1461.69 2185.37C1461.95 2186.55 1461.8 2187.62 1461.22 2188.56C1460.64 2189.5 1459.75 2190.12 1458.55 2190.42L1433.2 2196.72C1431.6 2197.12 1430.27 2197.19 1429.21 2196.94C1428.15 2196.69 1427.29 2196.03 1426.62 2194.94L1408.76 2167.64L1403.66 2168.91L1409.08 2192.99C1409.78 2196.11 1409.63 2198.6 1408.62 2200.44C1407.61 2202.28 1405.4 2203.63 1402 2204.47L1384.16 2208.91ZM1403.28 2140.5C1406.48 2139.71 1408.8 2138.16 1410.24 2135.87C1411.68 2133.58 1411.98 2130.6 1411.16 2126.94C1410.31 2123.17 1408.75 2120.6 1406.49 2119.23C1404.23 2117.85 1401.5 2117.57 1398.3 2118.36L1388.1 2120.9L1393.08 2143.04L1403.28 2140.5Z" fill="#000000" fill-rule="evenodd" opacity="1" stroke="none" />
			<path d="M1479.54 2185.2C1476.24 2186.02 1473.75 2185.84 1472.06 2184.67C1470.37 2183.5 1469.17 2181.35 1468.47 2178.22L1447.88 2086.75C1447.18 2083.63 1447.33 2081.14 1448.34 2079.3C1449.35 2077.46 1451.51 2076.12 1454.81 2075.3L1489.3 2066.73C1524.6 2057.95 1546.37 2071.88 1554.61 2108.51C1558.69 2126.61 1557.24 2141.42 1550.28 2152.94C1543.32 2164.45 1531.24 2172.35 1514.04 2176.62L1479.54 2185.2ZM1509.21 2148.81C1514.8 2147.42 1518.38 2144.43 1519.93 2139.83C1521.48 2135.24 1521.1 2127.77 1518.77 2117.42C1516.44 2107.08 1513.6 2100.22 1510.26 2096.84C1506.91 2093.47 1502.44 2092.47 1496.84 2093.87L1487.99 2096.06L1500.36 2151.01L1509.21 2148.81Z" fill="#000000" fill-rule="evenodd" opacity="1" stroke="none" />
			<path d="M1271.32 2366.74C1253.12 2371.26 1237.89 2369.96 1225.62 2362.82C1213.35 2355.69 1205.08 2342.65 1200.81 2323.68C1196.52 2304.61 1198.17 2289.07 1205.76 2277.06C1213.35 2265.05 1226.19 2256.79 1244.29 2252.29C1252.49 2250.26 1259.98 2249.3 1266.77 2249.44C1273.56 2249.57 1279.45 2250.66 1284.46 2252.72C1285.87 2253.39 1286.72 2254.32 1286.98 2255.5C1287.2 2256.47 1287.06 2257.93 1286.54 2259.88L1282.17 2275.64C1281.71 2277.35 1280.93 2278.34 1279.83 2278.61C1279.13 2278.79 1277.89 2278.64 1276.09 2278.18C1272.95 2277.36 1269.76 2276.91 1266.52 2276.8C1263.27 2276.7 1259.6 2277.16 1255.5 2278.18C1247.2 2280.24 1241.44 2284.4 1238.2 2290.67C1234.97 2296.93 1234.45 2304.97 1236.66 2314.77C1238.84 2324.47 1242.92 2331.33 1248.9 2335.37C1254.87 2339.4 1262.01 2340.38 1270.31 2338.32C1277.51 2336.53 1283.74 2333.27 1289.01 2328.55C1290.42 2327.29 1291.47 2326.57 1292.17 2326.4C1293.27 2326.13 1294.39 2326.64 1295.53 2327.95L1306.16 2339.99C1307.45 2341.49 1308.2 2342.72 1308.42 2343.69C1308.69 2344.88 1308.33 2346.1 1307.35 2347.37C1303.75 2351.56 1298.9 2355.33 1292.79 2358.67C1286.67 2362.01 1279.52 2364.7 1271.32 2366.74Z" fill="#000000" fill-rule="evenodd" opacity="1" stroke="none" />
			<path d="M1327.32 2350.26C1324.02 2351.08 1321.52 2350.9 1319.83 2349.73C1318.14 2348.55 1316.95 2346.41 1316.25 2343.28L1295.66 2251.81C1294.95 2248.69 1295.11 2246.2 1296.12 2244.36C1297.13 2242.52 1299.28 2241.18 1302.58 2240.36L1320.43 2235.93C1323.83 2235.08 1326.37 2235.22 1328.04 2236.34C1329.72 2237.46 1330.92 2239.63 1331.65 2242.86L1348.13 2316.07L1383.08 2307.38C1386.28 2306.59 1388.61 2306.78 1390.09 2307.94C1391.57 2309.11 1392.67 2311.31 1393.4 2314.55L1395.44 2323.6C1396.16 2326.83 1396.12 2329.31 1395.29 2331.05C1394.47 2332.79 1392.46 2334.06 1389.26 2334.86L1327.32 2350.26Z" fill="#000000" fill-rule="evenodd" opacity="1" stroke="none" />
			<path d="M1451 2322.07C1441.2 2324.51 1432.22 2324.95 1424.06 2323.39C1415.89 2321.84 1409.04 2318.36 1403.5 2312.97C1397.95 2307.58 1394.19 2300.47 1392.2 2291.63L1378.59 2231.19C1377.89 2228.07 1378.04 2225.58 1379.06 2223.74C1380.07 2221.9 1382.22 2220.56 1385.52 2219.74L1403.37 2215.31C1406.77 2214.46 1409.31 2214.6 1410.98 2215.72C1412.66 2216.84 1413.86 2219.01 1414.59 2222.24L1428.3 2283.17C1429.44 2288.23 1431.47 2291.71 1434.38 2293.61C1437.28 2295.5 1440.79 2295.94 1444.89 2294.92C1448.99 2293.9 1451.93 2291.86 1453.72 2288.8C1455.52 2285.73 1455.84 2281.67 1454.7 2276.61L1440.99 2215.68C1440.28 2212.56 1440.44 2210.07 1441.45 2208.23C1442.46 2206.39 1444.61 2205.05 1447.91 2204.23L1465.76 2199.8C1469.16 2198.95 1471.7 2199.09 1473.38 2200.21C1475.05 2201.33 1476.25 2203.5 1476.98 2206.73L1490.59 2267.18C1492.58 2276.01 1492.24 2284.14 1489.59 2291.57C1486.93 2299 1482.28 2305.33 1475.65 2310.57C1469.01 2315.8 1460.8 2319.63 1451 2322.07Z" fill="#000000" fill-rule="evenodd" opacity="1" stroke="none" />
			<path d="M1518.39 2302.75C1515.09 2303.58 1512.6 2303.4 1510.91 2302.23C1509.22 2301.05 1508.02 2298.9 1507.32 2295.78L1486.73 2204.31C1486.03 2201.19 1486.18 2198.7 1487.19 2196.86C1488.2 2195.01 1490.36 2193.68 1493.66 2192.86L1539.1 2181.56C1551.3 2178.53 1560.9 2179.1 1567.91 2183.27C1574.92 2187.45 1579.59 2194.71 1581.92 2205.05C1583.01 2209.9 1583 2214.42 1581.89 2218.62C1580.78 2222.83 1578.79 2226.08 1575.93 2228.38C1585.56 2229.4 1591.7 2235.84 1594.37 2247.69C1596.65 2257.82 1595.18 2266.88 1589.96 2274.89C1584.75 2282.9 1575.69 2288.51 1562.79 2291.72L1518.39 2302.75ZM1541.25 2224.89C1545.85 2223.74 1547.62 2220.8 1546.55 2216.06C1545.48 2211.32 1542.65 2209.52 1538.05 2210.67L1526.65 2213.5L1529.85 2227.72L1541.25 2224.89ZM1553.04 2265.3C1555.14 2264.78 1556.68 2263.63 1557.65 2261.85C1558.62 2260.07 1558.83 2257.95 1558.27 2255.47C1557.69 2252.88 1556.62 2251.04 1555.05 2249.96C1553.49 2248.87 1551.6 2248.59 1549.4 2249.14L1535.45 2252.61L1539.09 2268.77L1553.04 2265.3Z" fill="#000000" fill-rule="evenodd" opacity="1" stroke="none" />
		</g>
		<path d="M2190.06 2145.28C2190.06 2145.28 2178.44 2226.62 2159.85 2279.3C2159.85 2279.3 2117.65 2418.75 2114.55 2450.52C2111.77 2479.07 2165.51 2429.16 2184.55 2404.52" fill="#f4eee0" fill-opacity="0" fill-rule="evenodd" opacity="1" stroke="#000000" stroke-linecap="round" stroke-linejoin="round" stroke-width="5" />
		<path d="M2171.23 2075.6C2171.23 2075.6 2156.98 2140.74 2122.89 2224.05" fill="#f4eee0" fill-opacity="0" fill-rule="evenodd" opacity="1" stroke="#000000" stroke-linecap="round" stroke-linejoin="round" stroke-width="5" />
		<path d="M852.271 2344.52C852.271 2344.52 942.177 2466.7 982.519 2519.72" fill="#f4eee0" fill-opacity="0" fill-rule="evenodd" opacity="1" stroke="#000000" stroke-linecap="round" stroke-linejoin="round" stroke-width="5" />
		<path d="M844.202 2110.53C844.202 2110.53 894.919 2281.12 929.498 2334.15" fill="#f4eee0" fill-opacity="0" fill-rule="evenodd" opacity="1" stroke="#000000" stroke-linecap="round" stroke-linejoin="round" stroke-width="5" />
		<path d="M1902.2 1912.56C1902.2 1912.56 1976.51 2274.88 1912.64 2404.11" fill="#f4eee0" fill-opacity="0" fill-rule="evenodd" opacity="1" stroke="#000000" stroke-linecap="round" stroke-linejoin="round" stroke-width="5" />
		<path d="M2038.53 1674.55C2038.53 1674.55 2049.74 1777.2 2032.68 1965.42" fill="#f4eee0" fill-opacity="0" fill-rule="evenodd" opacity="1" stroke="#000000" stroke-linecap="round" stroke-linejoin="round" stroke-width="5" />
		<path d="M1860.07 2245.41C1860.07 2245.41 1861.29 2385.22 1832.11 2526.25" fill="#f4eee0" fill-opacity="0" fill-rule="evenodd" opacity="1" stroke="#000000" stroke-linecap="round" stroke-linejoin="round" stroke-width="5" />
		<path d="M1669.4 2125.91C1663.71 2343.95 1629.18 2438.84 1543.34 2563.68" fill="#f4eee0" fill-opacity="0" fill-rule="evenodd" opacity="1" stroke="#000000" stroke-linecap="round" stroke-linejoin="round" stroke-width="5" />
		<path d="M1111.64 2337.86C1111.64 2337.86 1167.58 2483.95 1292.68 2597.26" fill="#f4eee0" fill-opacity="0" fill-rule="evenodd" opacity="1" stroke="#000000" stroke-linecap="round" stroke-linejoin="round" stroke-width="5" />
		<path d="M1599.16 1762.5C1599.16 1762.5 1646.18 1670.51 1679.24 1620.09" fill="#f4eee0" fill-opacity="0" fill-rule="evenodd" opacity="1" stroke="#000000" stroke-linecap="round" stroke-linejoin="round" stroke-width="5" />
		<path d="M1675.31 1395.56C1675.31 1395.56 1639.92 1387.13 1605.57 1378.53" fill="#f4eee0" fill-opacity="0" fill-rule="evenodd" opacity="1" stroke="#000000" stroke-linecap="round" stroke-linejoin="round" stroke-width="5" />
		<path d="M1006.06 1848.95C1006.06 1848.95 1020.37 1875.62 1046.76 1902.57" fill="#f4eee0" fill-opacity="0" fill-rule="evenodd" opacity="1" stroke="#000000" stroke-linecap="round" stroke-linejoin="round" stroke-width="5" />
		<path d="M1353.86 1947.59C1353.86 1947.59 1417.65 1878.52 1458.93 1808.03" fill="#f4eee0" fill-opacity="0" fill-rule="evenodd" opacity="1" stroke="#000000" stroke-linecap="round" stroke-linejoin="round" stroke-width="5" />
		<path d="M1181.14 1900.56C1181.14 1900.56 1224.98 1946.15 1285.4 1962.72" fill="#f4eee0" fill-opacity="0" fill-rule="evenodd" opacity="1" stroke="#000000" stroke-linecap="round" stroke-linejoin="round" stroke-width="5" />
		<path d="M1419.65 1468.38C1419.65 1468.38 1469.24 1437.82 1532.13 1428.08L1504.67 1501.15L1436.92 1496.27" fill="#000000" fill-rule="evenodd" opacity="1" stroke="#000000" stroke-linecap="round" stroke-linejoin="round" stroke-width="10" />
		<path d="M1769.65 2127.17C1769.65 2127.17 1814.68 2187.94 1846.85 2200.81" fill="#f4eee0" fill-opacity="0" fill-rule="evenodd" opacity="1" stroke="#000000" stroke-linecap="round" stroke-linejoin="round" stroke-width="5" />
		<path d="M1995.09 2396.4C2025.83 2363.41 2081.86 2293.46 2078.36 2317.61C2074.82 2342.02 2045.02 2447.95 1955.02 2503.95" fill="#f4eee0" fill-opacity="0" fill-rule="evenodd" opacity="1" stroke="#000000" stroke-linecap="round" stroke-linejoin="round" stroke-width="5" />
		<path d="M979.813 2310.03C979.813 2310.03 1047.44 2443.14 1076.43 2461.39" fill="#f4eee0" fill-opacity="0" fill-rule="evenodd" opacity="1" stroke="#000000" stroke-linecap="round" stroke-linejoin="round" stroke-width="5" />
		<path d="M1544.74 2012.4C1548.57 2011.33 1552.4 2011.3 1556.24 2012.32C1560.08 2013.33 1563.43 2015.22 1566.29 2017.97C1569.15 2020.72 1571.1 2024.04 1572.14 2027.94C1573.19 2031.83 1573.16 2035.71 1572.08 2039.57C1570.99 2043.43 1569.05 2046.8 1566.26 2049.68C1563.46 2052.56 1560.15 2054.53 1556.32 2055.61C1552.49 2056.68 1548.66 2056.71 1544.82 2055.7C1540.99 2054.68 1537.64 2052.8 1534.78 2050.05C1531.92 2047.29 1529.97 2043.97 1528.92 2040.08C1527.88 2036.18 1527.9 2032.3 1528.99 2028.44C1530.07 2024.58 1532.02 2021.21 1534.81 2018.33C1537.6 2015.46 1540.91 2013.48 1544.74 2012.4ZM1546.67 2019.58C1543.86 2020.37 1541.59 2021.65 1539.84 2023.43C1538.08 2025.21 1536.94 2027.34 1536.39 2029.83C1535.85 2032.32 1535.97 2035 1536.74 2037.88C1537.51 2040.76 1538.75 2043.13 1540.46 2044.98C1542.16 2046.84 1544.21 2048.07 1546.6 2048.69C1549 2049.3 1551.6 2049.22 1554.4 2048.43C1557.2 2047.64 1559.48 2046.36 1561.23 2044.58C1562.98 2042.8 1564.13 2040.67 1564.67 2038.18C1565.21 2035.7 1565.1 2033.01 1564.33 2030.13C1563.55 2027.25 1562.31 2024.89 1560.61 2023.03C1558.9 2021.18 1556.85 2019.94 1554.46 2019.33C1552.07 2018.71 1549.47 2018.8 1546.67 2019.58ZM1546.49 2021.07C1550.56 2019.93 1554.02 2020.18 1556.88 2021.82C1559.74 2023.46 1561.72 2026.35 1562.83 2030.49C1563.94 2034.63 1563.67 2038.15 1562.03 2041.05C1560.39 2043.95 1557.54 2045.98 1553.47 2047.12C1551.74 2047.61 1550.16 2047.8 1548.76 2047.69C1547.35 2047.58 1545.99 2047.23 1544.69 2046.64C1544.45 2046.53 1544.28 2046.32 1544.2 2045.99C1544.11 2045.67 1544.11 2045.34 1544.19 2045.01L1544.82 2041.43C1544.96 2041 1545.15 2040.75 1545.38 2040.69C1545.62 2040.62 1545.91 2040.67 1546.25 2040.84C1546.91 2041.09 1547.57 2041.23 1548.21 2041.27C1548.86 2041.3 1549.64 2041.19 1550.54 2040.94C1552.24 2040.46 1553.4 2039.54 1554.03 2038.16C1554.66 2036.78 1554.69 2035.04 1554.13 2032.93C1553.56 2030.82 1552.67 2029.34 1551.44 2028.48C1550.21 2027.63 1548.75 2027.44 1547.05 2027.92C1546.15 2028.17 1545.42 2028.48 1544.89 2028.85C1544.35 2029.22 1543.86 2029.69 1543.41 2030.25C1543.16 2030.58 1542.94 2030.77 1542.74 2030.83C1542.5 2030.9 1542.22 2030.78 1541.88 2030.48L1539.56 2027.73C1539.32 2027.49 1539.16 2027.21 1539.07 2026.89C1538.99 2026.56 1539.02 2026.29 1539.17 2026.07C1540 2024.88 1540.99 2023.87 1542.15 2023.05C1543.31 2022.22 1544.76 2021.56 1546.49 2021.07Z" fill="#000000" fill-rule="evenodd" opacity="1" stroke="none" />
		<path d="M964.157 1876.44C964.157 1876.44 1021.6 1894.22 1005.19 1902.42C988.775 1910.63 936.804 1928.41 936.804 1928.41" fill="#f4eee0" fill-opacity="0" fill-rule="evenodd" opacity="1" stroke="#000000" stroke-linecap="round" stroke-linejoin="round" stroke-width="5" />
		<path d="M1797.14 2380.74C1797.14 2380.74 1784.14 2459.74 1761.14 2511.74" fill="#f4eee0" fill-opacity="0" fill-rule="evenodd" opacity="1" stroke="#000000" stroke-linecap="round" stroke-linejoin="round" stroke-width="5" />
		<path d="M1123.86 1695.34C1123.86 1695.34 1103.59 1658.16 1104.41 1638.75" fill="#2d2b27" fill-opacity="0" fill-rule="evenodd" opacity="1" stroke="#000000" stroke-linecap="round" stroke-linejoin="round" stroke-width="10" />
		<path d="M1047.87 1681.75C1047.87 1681.75 1107.93 1789.52 1215.87 1829.31" fill="#2d2b27" fill-opacity="0" fill-rule="evenodd" opacity="1" stroke="#000000" stroke-linecap="round" stroke-linejoin="round" stroke-width="10" />
		<path d="M1666.14 1555.92C1666.14 1555.92 1752.7 1511.45 1761.16 1516.09C1769.62 1520.73 1772.71 1556.17 1772.71 1556.17" fill="#f4eee0" fill-opacity="0" fill-rule="evenodd" opacity="1" stroke="#000000" stroke-linecap="round" stroke-linejoin="round" stroke-width="5" />
		<path d="M1814.7 2054.04L1847.07 2183.73" fill="#f4eee0" fill-opacity="0" fill-rule="evenodd" opacity="1" stroke="#000000" stroke-linecap="round" stroke-linejoin="round" stroke-width="5" />
		<path d="M1018.36 2242.57C1018.36 2242.57 1042.71 2293.38 1046.95 2311.02" fill="#f4eee0" fill-opacity="0" fill-rule="evenodd" opacity="1" stroke="#000000" stroke-linecap="round" stroke-linejoin="round" stroke-width="5" />
		<path d="M1418.06 1718.46C1418.06 1718.46 1516.86 1584.89 1534.25 1518.1" fill="#2d2b27" fill-opacity="0" fill-rule="evenodd" opacity="1" stroke="#000000" stroke-linecap="round" stroke-linejoin="round" stroke-width="10" />
	</g>
	<g id="Accessories-" vectornator:layerName="Accessories ">
		<path d="M1314.22 1151.94C1314.22 1151.94 1303.83 1181.98 1301.86 1221.1C1262.75 1223.07 1232.7 1233.46 1232.7 1233.46C1232.7 1233.46 1262.75 1243.85 1301.86 1245.82C1303.83 1284.93 1314.22 1314.98 1314.22 1314.98C1314.22 1314.98 1324.61 1284.93 1326.58 1245.82C1365.7 1243.85 1395.74 1233.46 1395.74 1233.46C1395.74 1233.46 1365.7 1223.07 1326.58 1221.1C1324.61 1181.98 1314.22 1151.94 1314.22 1151.94Z" fill="#faee50" fill-rule="evenodd" opacity="1" stroke="#000000" stroke-linecap="round" stroke-linejoin="round" stroke-width="10" />
		<path d="M1432.54 1127.32C1432.54 1127.32 1424.41 1150.84 1422.87 1181.46C1392.25 1183 1368.73 1191.14 1368.73 1191.14C1368.73 1191.14 1392.25 1199.27 1422.87 1200.81C1424.41 1231.43 1432.54 1254.95 1432.54 1254.95C1432.54 1254.95 1440.67 1231.43 1442.22 1200.81C1472.83 1199.27 1496.36 1191.14 1496.36 1191.14C1496.36 1191.14 1472.83 1183 1442.22 1181.46C1440.67 1150.84 1432.54 1127.32 1432.54 1127.32Z" fill="#faee50" fill-rule="evenodd" opacity="1" stroke="#000000" stroke-linecap="round" stroke-linejoin="round" stroke-width="10" />
	</g>
	<g id="Element" vectornator:layerName="Element">
		<path d="M1333.61 265.953C1168.86 231.017 1027.18 245.773 1017.11 298.926C1007.04 352.078 1132.4 423.496 1297.15 458.431L1300.84 459.213C1465.58 494.149 1607.31 479.37 1617.38 426.217C1627.44 373.065 1502.04 301.671 1337.3 266.735L1333.61 265.953ZM1329.84 296.584L1332.85 297.223C1467.55 325.787 1571.09 378.851 1564.1 415.745C1557.12 452.638 1442.25 459.386 1307.55 430.822L1304.53 430.183C1169.83 401.618 1066.29 348.554 1073.28 311.661C1080.27 274.768 1195.14 268.019 1329.84 296.584Z" fill="#faee50" fill-rule="evenodd" opacity="1" stroke="#dec616" stroke-linecap="round" stroke-linejoin="round" stroke-width="15" />
	</g>
	<!-- <g id="Layer-1" opacity="0.380342" vectornator:layerName="Layer 1" visibility="hidden">
		<use opacity="1" transform="matrix(1 0 0 1 0 0)" xlink:href="#Image" />
	</g> -->
</svg>
